<?xml version="1.0" encoding="utf-8"?>
<!-- Generator: Adobe Illustrator 24.1.1, SVG Export Plug-In . SVG Version: 6.00 Build 0)  -->
<svg version="1.1" id="Layer_1" xmlns="http://www.w3.org/2000/svg" xmlns:xlink="http://www.w3.org/1999/xlink" x="0px" y="0px"
	 viewBox="0 0 353 353" style="enable-background:new 0 0 353 353;" xml:space="preserve">
<style type="text/css">
	.st0{fill:none;}
	.st1{fill-rule:evenodd;clip-rule:evenodd;fill:#28B04C;}
	.st2{fill-rule:evenodd;clip-rule:evenodd;fill:#FFFFFF;filter:url(#Adobe_OpacityMaskFilter);}
	.st3{mask:url(#m_1_);}
	.st4{fill-rule:evenodd;clip-rule:evenodd;fill:#FFFFFF;filter:url(#Adobe_OpacityMaskFilter_1_);}
	.st5{mask:url(#n_1_);}
	.st6{fill:url(#SVGID_1_);}
	.st7{fill:url(#SVGID_2_);filter:url(#Adobe_OpacityMaskFilter_2_);}
	.st8{mask:url(#o_1_);}
	.st9{fill:#FFFFFF;}
	.st10{fill:url(#SVGID_3_);}
	.st11{fill:url(#SVGID_4_);filter:url(#Adobe_OpacityMaskFilter_3_);}
	.st12{mask:url(#p_1_);}
	.st13{fill:url(#SVGID_5_);}
	.st14{fill:url(#SVGID_6_);filter:url(#Adobe_OpacityMaskFilter_4_);}
	.st15{mask:url(#q_1_);}
	.st16{fill:url(#SVGID_7_);}
	.st17{fill:url(#SVGID_8_);filter:url(#Adobe_OpacityMaskFilter_5_);}
	.st18{mask:url(#r_1_);}
	.st19{fill-rule:evenodd;clip-rule:evenodd;fill:#FFFFFF;}
</style>
<pattern  y="353" width="1" height="1" patternUnits="userSpaceOnUse" id="a" viewBox="0 -1 1 1" style="overflow:visible;">
	<g>
		<rect y="-1" class="st0" width="1" height="1"/>
		<g transform="scale(.00518135 .00497512)">
			
				<image style="overflow:visible;enable-background:new    ;" width="193" height="201" id="i_1_" xlink:href="9B91E10F.png"  transform="matrix(5.181350e-03 0 0 -4.975120e-03 0 0)">
			</image>
		</g>
	</g>
</pattern>
<pattern  y="353" width="1" height="1" patternUnits="userSpaceOnUse" id="b" viewBox="0 -1 1 1" style="overflow:visible;">
	<g>
		<rect y="-1" class="st0" width="1" height="1"/>
		<g transform="scale(.00518135 .00497512)">
			
				<image style="overflow:visible;enable-background:new    ;" width="193" height="201" id="i_2_" xlink:href="9B91E10A.png"  transform="matrix(5.181350e-03 0 0 -4.975120e-03 0 0)">
			</image>
		</g>
	</g>
</pattern>
<pattern  y="353" width="1" height="1" patternUnits="userSpaceOnUse" id="c" viewBox="0 -1 1 1" style="overflow:visible;">
	<g>
		<rect y="-1" class="st0" width="1" height="1"/>
		<g transform="scale(.00425532 .00480769)">
			
				<image style="overflow:visible;enable-background:new    ;" width="235" height="208" id="j_1_" xlink:href="9B91E109.png"  transform="matrix(4.255320e-03 0 0 -4.807690e-03 0 0)">
			</image>
		</g>
	</g>
</pattern>
<pattern  y="353" width="1" height="1" patternUnits="userSpaceOnUse" id="d" viewBox="0 -1 1 1" style="overflow:visible;">
	<g>
		<rect y="-1" class="st0" width="1" height="1"/>
		<g transform="scale(.00425532 .00480769)">
			
				<image style="overflow:visible;enable-background:new    ;" width="235" height="208" id="j_2_" xlink:href="9B91E116.png"  transform="matrix(4.255320e-03 0 0 -4.807690e-03 0 0)">
			</image>
		</g>
	</g>
</pattern>
<pattern  y="353" width="1" height="1" patternUnits="userSpaceOnUse" id="e" viewBox="0 -1 1 1" style="overflow:visible;">
	<g>
		<rect y="-1" class="st0" width="1" height="1"/>
		<g transform="scale(.00564972 .00609756)">
			
				<image style="overflow:visible;enable-background:new    ;" width="177" height="164" id="k_1_" xlink:href="9B91E119.png"  transform="matrix(5.649720e-03 0 0 -6.097560e-03 0 0)">
			</image>
		</g>
	</g>
</pattern>
<pattern  y="353" width="1" height="1" patternUnits="userSpaceOnUse" id="f" viewBox="0 -1 1 1" style="overflow:visible;">
	<g>
		<rect y="-1" class="st0" width="1" height="1"/>
		<g transform="scale(.00564972 .00609756)">
			
				<image style="overflow:visible;enable-background:new    ;" width="177" height="164" id="k_2_" xlink:href="9B91E11A.png"  transform="matrix(5.649720e-03 0 0 -6.097560e-03 0 0)">
			</image>
		</g>
	</g>
</pattern>
<pattern  y="353" width="1" height="1" patternUnits="userSpaceOnUse" id="g" viewBox="0 -1 1 1" style="overflow:visible;">
	<g>
		<rect y="-1" class="st0" width="1" height="1"/>
		<g transform="scale(.00543478)">
			
				<image style="overflow:visible;enable-background:new    ;" width="184" height="181" id="l_1_" xlink:href="9B91E118.png"  transform="matrix(5.434780e-03 0 0 -5.434780e-03 0 0)">
			</image>
		</g>
	</g>
</pattern>
<pattern  y="353" width="1" height="1" patternUnits="userSpaceOnUse" id="h" viewBox="0 -1 1 1" style="overflow:visible;">
	<g>
		<rect y="-1" class="st0" width="1" height="1"/>
		<g transform="scale(.00543478)">
			
				<image style="overflow:visible;enable-background:new    ;" width="184" height="181" id="l_2_" xlink:href="9B91E11D.png"  transform="matrix(5.434780e-03 0 0 -5.434780e-03 0 0)">
			</image>
		</g>
	</g>
</pattern>
<path class="st1" d="M12.2,158h133.7c6.7,0,12.1-5.4,12.1-12.1V12.2c0-7.6-6.9-13.3-14.3-12C70.9,13.5,13.5,70.9,0.3,143.7
	C-1.1,151.2,4.6,158,12.2,158L12.2,158z"/>
<path class="st1" d="M194.1,12.2v133.7c0,6.7,5.4,12.1,12.1,12.1h133.7c7.6,0,13.3-6.9,12-14.3C338.6,70.9,281.2,13.5,208.4,0.3
	C201-1.1,194.1,4.6,194.1,12.2L194.1,12.2z"/>
<defs>
	<filter id="Adobe_OpacityMaskFilter" filterUnits="userSpaceOnUse" x="194.2" y="194.1" width="158.1" height="158">
		<feColorMatrix  type="matrix" values="1 0 0 0 0  0 1 0 0 0  0 0 1 0 0  0 0 0 1 0"/>
	</filter>
</defs>
<mask maskUnits="userSpaceOnUse" x="194.2" y="194.1" width="158.1" height="158" id="m_1_">
	<path class="st2" d="M194.2,194.1h158.1v158H194.2V194.1z"/>
</mask>
<g class="st3">
	<path class="st1" d="M208.5,351.9c72.9-13.2,130.3-70.6,143.6-143.4c1.4-7.5-4.4-14.3-12-14.3H206.3c-6.7,0-12.2,5.4-12.2,12.1
		v133.7C194.2,347.5,201,353.2,208.5,351.9L208.5,351.9z"/>
</g>
<defs>
	<filter id="Adobe_OpacityMaskFilter_1_" filterUnits="userSpaceOnUse" x="0.1" y="194.1" width="158" height="158">
		<feColorMatrix  type="matrix" values="1 0 0 0 0  0 1 0 0 0  0 0 1 0 0  0 0 0 1 0"/>
	</filter>
</defs>
<mask maskUnits="userSpaceOnUse" x="0.1" y="194.1" width="158" height="158" id="n_1_">
	<path class="st4" d="M0.1,194.1h158v158H0.1L0.1,194.1z"/>
</mask>
<g class="st5">
	<path class="st1" d="M158,339.9V206.3c0-6.7-5.4-12.1-12.1-12.1H12.2c-7.6,0-13.3,6.9-12,14.3c13.2,72.8,70.6,130.2,143.4,143.4
		C151.2,353.2,158,347.5,158,339.9L158,339.9z"/>
</g>
<pattern  id="SVGID_1_" xlink:href="#a" patternTransform="matrix(42.9314 0 0 -44.6486 336340.2813 -381017.8125)">
</pattern>
<path class="st6" d="M752.9,70.5h42.9v44.6h-42.9V70.5z"/>
<defs>
	<filter id="Adobe_OpacityMaskFilter_2_" filterUnits="userSpaceOnUse" x="752.9" y="70.5" width="42.9" height="44.6">
		<feColorMatrix  type="matrix" values="1 0 0 0 0  0 1 0 0 0  0 0 1 0 0  0 0 0 1 0"/>
	</filter>
</defs>
<mask maskUnits="userSpaceOnUse" x="752.9" y="70.5" width="42.9" height="44.6" id="o_1_">
	
		<pattern  id="SVGID_2_" xlink:href="#b" patternTransform="matrix(42.9314 0 0 -44.6486 336340.2813 -381017.8125)"  style="filter:url(#Adobe_OpacityMaskFilter_2_);">
	</pattern>
	<path class="st7" d="M752.9,70.5h42.9v44.6h-42.9V70.5z"/>
</mask>
<g class="st8">
	<path class="st9" d="M752.9,70.5h42.9v44.6h-42.9V70.5z"/>
</g>
<pattern  id="SVGID_3_" xlink:href="#c" patternTransform="matrix(56.6694 0 0 -49.8004 446446.8438 -424285.1563)">
</pattern>
<path class="st10" d="M746,231h56.7v49.8H746V231z"/>
<defs>
	<filter id="Adobe_OpacityMaskFilter_3_" filterUnits="userSpaceOnUse" x="746" y="231" width="56.7" height="49.8">
		<feColorMatrix  type="matrix" values="1 0 0 0 0  0 1 0 0 0  0 0 1 0 0  0 0 0 1 0"/>
	</filter>
</defs>
<mask maskUnits="userSpaceOnUse" x="746" y="231" width="56.7" height="49.8" id="p_1_">
	
		<pattern  id="SVGID_4_" xlink:href="#d" patternTransform="matrix(56.6694 0 0 -49.8004 446446.8438 -424285.1563)"  style="filter:url(#Adobe_OpacityMaskFilter_3_);">
	</pattern>
	<path class="st11" d="M746,231h56.7v49.8H746V231z"/>
</mask>
<g class="st12">
	<path class="st9" d="M746,231h56.7v49.8H746V231z"/>
</g>
<pattern  id="SVGID_5_" xlink:href="#e" patternTransform="matrix(42.9314 0 0 -39.4969 336163.3438 -338067.2188)">
</pattern>
<path class="st13" d="M576,236.2h42.9v39.5H576V236.2z"/>
<defs>
	<filter id="Adobe_OpacityMaskFilter_4_" filterUnits="userSpaceOnUse" x="576" y="236.2" width="42.9" height="39.5">
		<feColorMatrix  type="matrix" values="1 0 0 0 0  0 1 0 0 0  0 0 1 0 0  0 0 0 1 0"/>
	</filter>
</defs>
<mask maskUnits="userSpaceOnUse" x="576" y="236.2" width="42.9" height="39.5" id="q_1_">
	
		<pattern  id="SVGID_6_" xlink:href="#f" patternTransform="matrix(42.9314 0 0 -39.4969 336163.3438 -338067.2188)"  style="filter:url(#Adobe_OpacityMaskFilter_4_);">
	</pattern>
	<path class="st14" d="M576,236.2h42.9v39.5H576V236.2z"/>
</mask>
<g class="st15">
	<path class="st9" d="M576,236.2h42.9v39.5H576V236.2z"/>
</g>
<pattern  id="SVGID_7_" xlink:href="#g" patternTransform="matrix(43.79 0 0 -43.79 343044.125 -373826.1563)">
</pattern>
<path class="st16" d="M582,71.3h43.8v43.8H582V71.3z"/>
<defs>
	<filter id="Adobe_OpacityMaskFilter_5_" filterUnits="userSpaceOnUse" x="582" y="71.3" width="43.8" height="43.8">
		<feColorMatrix  type="matrix" values="1 0 0 0 0  0 1 0 0 0  0 0 1 0 0  0 0 0 1 0"/>
	</filter>
</defs>
<mask maskUnits="userSpaceOnUse" x="582" y="71.3" width="43.8" height="43.8" id="r_1_">
	
		<pattern  id="SVGID_8_" xlink:href="#h" patternTransform="matrix(43.79 0 0 -43.79 343044.125 -373826.1563)"  style="filter:url(#Adobe_OpacityMaskFilter_5_);">
	</pattern>
	<path class="st17" d="M582,71.3h43.8v43.8H582V71.3z"/>
</mask>
<g class="st18">
	<path class="st9" d="M582,71.3h43.8v43.8H582V71.3z"/>
</g>
<g>
	<path class="st9" d="M117.8,65.2c0-0.1-0.1-0.2-0.2-0.3c-0.1-0.1-0.2-0.1-0.4-0.1c-1.1,0.3-7.1-0.1-11.4,5.5
		c-1.7,2.2-2.7,4.9-2.8,7.6h0c0.1,1.7-0.2-0.4,0.4,4.5c-1.5,2.9-2.5,5.9-3.2,8.3c-0.1,0-0.1,0-0.2,0c-0.2,0-0.5,0-0.7,0.1
		c-1-2.8-2.8-6.5-5.8-9.2c-2.1-8.1-8-10.5-13.3-9.1c-1,0.4-2.2,0.2-2,1l0.5,1.8c1.2,4.6,5.3,7.8,10.1,7.8c1.8,0,4.2-0.8,4.1-0.7
		c2.9,2.6,4.5,6.2,5.5,8.8c-1,0.6-1.6,1.6-1.6,2.8c0,0.5-0.5,0.7-0.8,0.5c-0.5-0.4-1.1-0.6-1.7-0.6c-1.2,0-2.3,0.8-2.5,2
		c-0.1,0.3-0.3,0.4-0.6,0.4c-0.1,0-0.2,0-0.3,0c-0.1,0-0.3,0-0.4,0c-0.7-0.1-1.7,0.2-2.4,0.9c-0.4,0.4-0.9,1.1-0.9,2.1
		c1,0.9,2.3,1.5,3.6,1.5h8.8c2,0,3.5,1.6,3.5,3.5c0,0.2,0,0.5-0.1,0.7l8.5-5.8c0-0.7-0.3-1.4-0.7-2c-0.6-0.7-1.5-1-2.4-0.8
		c-0.3,0.1-0.5-0.1-0.6-0.4c-0.3-1.2-1.3-2-2.5-2c-0.5,0-0.9,0.1-1.3,0.4c-0.3,0.2-0.7,0-0.7-0.4c-0.1-1.3-0.9-2.5-2.1-2.9
		c0.6-2.3,1.6-5.1,3-7.8c0.8-0.3,6.9,0.1,11.2-5.5C119.7,71.9,117.8,66.3,117.8,65.2z M92.1,81.6c-1.9-1.5-4.3-2.5-7.3-2.7
		c-0.3,0-0.5-0.2-0.5-0.5c0-0.3,0.3-0.5,0.5-0.5c0.7,0,1.4,0.1,2.1,0.3c-0.3-0.7-0.7-1.6-1.5-1.7c-0.6-0.1-0.5-1.1,0.1-1
		c1.6,0.2,2.2,2.1,2.4,2.9c1.6,0.5,3,1.2,4.2,2.1l0.2,0.9L92.1,81.6z M102.4,97.6c1.8-0.8,3.8-0.2,4.4,0.8c0.4,0.6,0.3,1.3,0.3,1.9
		c0,0.3-0.2,0.5-0.5,0.5c0,0,0,0,0,0c-0.3,0-0.5-0.3-0.5-0.5c0-0.5,0.1-1-0.2-1.3c-0.4-0.7-2.3-1.1-3.7-0.1
		c-0.1,0.1-0.3,0.1-0.4,0.1s-0.3-0.2-0.3-0.3c-0.2-0.6,0-1.3-0.2-1.7c-0.2-0.5-1.5-1-2-0.8c-0.7,0.2-0.1,0.9-0.8,1
		c-1.1,0.2-0.7-2.8,2.1-1.8C102.1,95.7,102.4,96.4,102.4,97.6z M113.5,74.1c-3.9,1.1-6.7,4.3-8.8,7.9l-0.4,0l-0.1-1.1
		c1.1-1.8,2.4-3.6,3.9-4.9c-0.6-1.1-1-3.2,0.4-5c0.2-0.2,0.5-0.3,0.7-0.1c0.2,0.2,0.3,0.5,0.1,0.7c-1.2,1.5-0.7,3-0.4,3.8
		c1.3-1,2.7-1.8,4.3-2.2c0.3-0.1,0.5,0.1,0.6,0.3C114,73.8,113.8,74,113.5,74.1z"/>
	<g>
		<path class="st9" d="M67,93c-1,0-1.9,0.8-1.9,1.9c0,1,0.8,1.9,1.9,1.9c1,0,1.9-0.8,1.9-1.9C68.9,93.8,68,93,67,93z"/>
		<path class="st9" d="M73.5,90.3H61.1v19.5h12.4v-2.7c0,0,0,0,0,0c0,0,0,0,0,0V92.8c0,0,0,0,0,0c0,0,0,0,0,0V90.3z M67,97.7
			c-1.6,0-2.9-1.3-2.9-2.9c0-1.6,1.3-2.9,2.9-2.9c1.6,0,2.8,1.3,2.8,2.9S68.6,97.7,67,97.7z"/>
	</g>
	<path class="st9" d="M121.8,96.1c-0.6-1.1-2-1.5-3.1-0.8c-16,10.7-16.9,12.3-19,12.3H88.6c-0.3,0-0.5-0.2-0.5-0.5
		c0-0.3,0.2-0.5,0.5-0.5h11.2c1.4,0,2.6-1.2,2.6-2.6c0-1.4-1.2-2.5-2.6-2.5H91c-4,0-5.4-3.3-9.3-6.7c-1-1-2.4-1.6-3.7-1.6h-3.4v13.4
		h0.1c3.4,0,6.6,1.3,9,3.7c3,2.9,7.1,4.7,11.5,4.7c3.7,0,7.3-1.3,10.2-3.6l16-12.7C122,98,122.2,96.9,121.8,96.1z"/>
</g>
<g>
	<path class="st19" d="M111.7,248.7h-6.4c-0.7,0-1.3,0.6-1.3,1.3c0,0.7,0.6,1.3,1.3,1.3h3.3l-9.7,9.7l-6.8-6.8
		c-0.5-0.5-1.3-0.5-1.8,0L77.6,267c-0.2,0.2-0.4,0.6-0.4,0.9c0,0.7,0.6,1.3,1.3,1.3c0.3,0,0.7-0.1,0.9-0.4l11.9-11.9l6.8,6.8
		c0.5,0.5,1.3,0.5,1.8,0l10.6-10.6v4.6c0,0.7,0.6,1.3,1.3,1.3c0.7,0,1.3-0.6,1.3-1.3V250C113,249.3,112.4,248.7,111.7,248.7z"/>
	<path class="st19" d="M111.6,238.5H73.5c0,0,0,0,0,0c0,0,0,0,0,0c-0.7,0-1.3,0.6-1.3,1.3v0.1v1.3v34.4c0,2.1,1.7,3.8,3.8,3.8h34.4
		h1.3h0c0.7,0,1.3-0.6,1.3-1.3c0,0,0,0,0,0c0,0,0,0,0,0v-12.6h-2.7v11.3H76c-0.7,0-1.3-0.6-1.3-1.3v-34.4H113v-1.2
		C113,239.1,112.4,238.5,111.6,238.5z"/>
</g>
<path class="st9" d="M284.6,279.3l-15.3-13.9c-0.8-0.7-2-0.7-2.8,0.1l-0.4,0.4l-3.6-3.6c2.8-3.1,4.5-7.1,4.7-11.5h1.2l6.5,6.5h5
	c0.3,1.2,1.3,2,2.6,2c1.5,0,2.7-1.2,2.7-2.7c0-1.5-1.2-2.7-2.7-2.7c-1.3,0-2.3,0.9-2.6,2h-4.5l-5.2-5.2h4c0.3,1.2,1.3,2,2.6,2
	c1.5,0,2.7-1.2,2.7-2.7c0-1.5-1.2-2.7-2.7-2.7c-1.3,0-2.3,0.9-2.6,2h-6.9c-0.3-9.6-8.3-17.3-18-17.3c-9.9,0-18,8.1-18,18
	s8.1,18,18,18c4.8,0,9.2-1.9,12.4-5l3.6,3.6l-0.3,0.3c-0.8,0.8-0.8,2-0.1,2.8l13.9,15.3c0.4,0.4,0.9,0.6,1.4,0.7c0,0,0,0,0,0
	c0.5,0,1-0.2,1.4-0.6l2.9-2.9l0,0c0.4-0.4,0.6-0.9,0.6-1.5C285.2,280.2,285,279.7,284.6,279.3z M282.5,255.2c0.8,0,1.4,0.6,1.4,1.4
	c0,0.8-0.6,1.4-1.4,1.4s-1.4-0.6-1.4-1.4C281.1,255.8,281.8,255.2,282.5,255.2z M276.8,248.7c0.8,0,1.4,0.6,1.4,1.4
	c0,0.8-0.6,1.4-1.4,1.4c-0.8,0-1.4-0.6-1.4-1.4C275.4,249.3,276,248.7,276.8,248.7z M232.6,250.1c0-9.2,7.5-16.7,16.7-16.7
	s16.7,7.5,16.7,16.7s-7.5,16.7-16.7,16.7S232.6,259.3,232.6,250.1z M283.8,281.3l-2.9,2.9c-0.1,0.1-0.3,0.2-0.6,0.2
	c-0.2,0-0.4-0.1-0.5-0.2l-13.9-15.3c-0.3-0.3-0.3-0.8,0-1.1l1.6-1.6c0.1-0.1,0.3-0.2,0.5-0.2c0.2,0,0.4,0.1,0.5,0.2l15.3,13.9
	c0.2,0.1,0.2,0.3,0.2,0.5C284,281,283.9,281.2,283.8,281.3L283.8,281.3z M249.3,234.8c-8.4,0-15.3,6.8-15.3,15.3s6.8,15.3,15.3,15.3
	s15.3-6.8,15.3-15.3S257.7,234.8,249.3,234.8z M249.3,264.1c-7.7,0-14-6.3-14-14s6.3-14,14-14c7.5,0,13.6,5.9,14,13.4h-4.1l0-0.7
	l-2.5-0.6l-0.3-0.8l1.6-2l-1.7-2.2l-2.3,1l-0.7-0.5l0.1-2.5l-2.6-0.8l-1.3,2.2l-0.8,0l-1.4-2.1l-2.6,0.9l0.2,2.5l-0.7,0.5l-2.4-0.9
	l-1.6,2.3l1.7,1.9l-0.2,0.8l-2.5,0.7l0.1,2.7l2.5,0.6l0.3,0.8l-1.6,2l1.7,2.2l2.3-1l0.7,0.5l-0.1,2.5l2.6,0.8l1.3-2.2l0.8,0l1.4,2.1
	l2.6-0.9l-0.2-2.5l0.7-0.5l2.4,0.9l1.6-2.3l-1.7-1.9l0.2-0.8l2.5-0.7l0-0.7h4.1C263,258.1,256.8,264.1,249.3,264.1z M256.6,254.9
	l-0.4,0.6l-2.1-0.8l-1.8,1.4l0.2,2.3l-0.7,0.3l-1.2-1.9l-2.2,0l-1.2,1.9l-0.7-0.2l0.1-2.3l-1.8-1.3l-2.1,0.9l-0.5-0.6l1.4-1.8
	l-0.7-2.1l-2.2-0.5l0-0.8l2.2-0.6l0.6-2.1l-1.5-1.7l0.4-0.6l2.1,0.8l1.8-1.4l-0.2-2.3l0.7-0.3l1.2,1.9l2.2,0l1.2-1.9l0.7,0.2
	l-0.1,2.3l1.8,1.3l2.1-0.9l0.5,0.6l-1.4,1.8l0.7,2.1l2.2,0.5l0,0.8l-2.2,0.6l-0.6,2.1L256.6,254.9z M249.3,246.6
	c-2,0-3.7,1.7-3.7,3.7c0,2,1.7,3.7,3.7,3.7c2,0,3.7-1.7,3.7-3.7C253,248.2,251.3,246.6,249.3,246.6z M249.3,252.7
	c-1.3,0-2.4-1.1-2.4-2.4c0-1.3,1.1-2.4,2.4-2.4c1.3,0,2.4,1.1,2.4,2.4C251.7,251.6,250.6,252.7,249.3,252.7z"/>
<g>
	<path class="st9" d="M267.4,85.4c0-6-4.8-10.8-10.8-10.8c-6,0-10.8,4.8-10.8,10.8c0,6,4.8,10.8,10.8,10.8
		C262.5,96.1,267.4,91.3,267.4,85.4z M256.6,76.9c4.2,0,7.8,3.1,8.3,7.2h-3.3l-2.2,2.1l-4.6-5.9l-3.6,3.9h-3
		C248.8,80.1,252.3,76.9,256.6,76.9z M256.6,93.8c-4.2,0-7.8-3.1-8.3-7.2h4l2.4-2.6l4.5,5.8l3.4-3.2h2.4
		C264.3,90.6,260.8,93.8,256.6,93.8z"/>
	<path class="st9" d="M260.7,96.7h-8.4c-0.7,0-1.3,0.6-1.3,1.3c0,0.7,0.6,1.3,1.3,1.3h8.4c0.7,0,1.3-0.6,1.3-1.3
		C262,97.3,261.4,96.7,260.7,96.7z"/>
	<path class="st9" d="M260.7,99.9h-8.4c-0.7,0-1.3,0.6-1.3,1.3c0,0.7,0.6,1.3,1.3,1.3h8.4c0.7,0,1.3-0.6,1.3-1.3
		C262,100.5,261.4,99.9,260.7,99.9z"/>
	<path class="st9" d="M260.7,103.1h-8.4c-0.7,0-1.3,0.6-1.3,1.3c0,0.7,0.6,1.3,1.3,1.3h8.4c0.7,0,1.3-0.6,1.3-1.3
		C262,103.6,261.4,103.1,260.7,103.1z"/>
	<path class="st9" d="M253.2,71v1.1l4.2-3.2l-4.2-3.2v1.6c-10.3,1.5-18.4,10-19.3,20.5h3.7C238.5,79.3,245,72.5,253.2,71z"/>
	<path class="st9" d="M237.8,93.1h1.3l-3.2-4.2l-3.2,4.2h1.4c1.3,10.5,9.7,18.7,20.2,19.8v-3.7C245.8,108.1,239,101.5,237.8,93.1z"
		/>
	<path class="st9" d="M259.3,108.7v-1.1l-4.2,3.2l4.2,3.2v-1.6c10.3-1.5,18.4-10,19.3-20.5h-3.7C274,100.5,267.6,107.3,259.3,108.7z
		"/>
	<path class="st9" d="M274.8,86.7h-1.3l3.2,4.2l3.2-4.2h-1.4c-1.3-10.5-9.7-18.7-20.2-19.8v3.7C266.8,71.6,273.6,78.3,274.8,86.7z"
		/>
</g>
</svg>
