<svg id="eQN1vDhnfC41" xmlns="http://www.w3.org/2000/svg" xmlns:xlink="http://www.w3.org/1999/xlink" viewBox="0 0 628 349" shape-rendering="geometricPrecision" text-rendering="geometricPrecision"><g id="eQN1vDhnfC42"><path id="eQN1vDhnfC43" d="M368.836,67L109.153,67C106.353,67,104,69.3526,104,72.1533L104,249.159C104,251.96,106.353,254.312,109.153,254.312L230.368,254.312L230.368,292.178L179.283,292.178C177.826,292.178,176.706,293.298,176.706,294.754L176.706,299.908L308.116,299.908L308.116,294.754C308.116,293.298,306.996,292.178,305.539,292.178L247.845,292.178L247.845,254.312L368.836,254.312C371.637,254.312,373.99,251.96,373.99,249.159L373.99,72.1533C373.99,69.3526,371.637,67,368.836,67Z" fill="rgb(240,240,240)" stroke="none" stroke-width="1" stroke-miterlimit="1"/><path id="eQN1vDhnfC44" d="M365.363,221.04L111.842,221.04C110.386,221.04,109.266,219.92,109.266,218.463L109.266,78.4273C109.266,76.9708,110.386,75.8506,111.842,75.8506L365.363,75.8506C366.819,75.8506,367.94,76.9708,367.94,78.4273L367.94,218.351C367.94,219.808,366.819,221.04,365.363,221.04Z" fill="rgb(255,255,255)" stroke="none" stroke-width="1" stroke-miterlimit="1"/><g id="eQN1vDhnfC45"><path id="eQN1vDhnfC46" d="M99.3818,179.869C99.5414,179.873,99.7013,179.875,99.8612,179.875L122.022,179.875C125.287,179.875,128.419,178.577,130.727,176.268C133.036,173.958,134.333,170.826,134.333,167.56C134.333,164.294,133.036,161.162,130.727,158.852C128.419,156.543,125.287,155.245,122.022,155.245L118.919,155.245C117.998,151.676,116.095,148.438,113.425,145.897C110.756,143.356,107.427,141.615,103.818,140.872C100.209,140.129,96.4635,140.413,93.0078,141.693C92.7298,141.796,92.4546,141.905,92.1823,142.02C91.0358,140.137,89.6382,138.404,88.0192,136.872C84.6216,133.656,80.3854,131.453,75.7918,130.512C71.1983,129.572,66.4316,129.932,62.0335,131.551C57.6353,133.171,53.7821,135.985,50.9115,139.674C48.041,143.363,46.2682,147.779,45.7948,152.42C45.3213,157.061,46.1661,161.741,48.2331,165.929C50.3001,170.116,53.5065,173.643,57.4879,176.108C61.4694,178.573,66.0662,179.878,70.756,179.875L98.9605,179.875C99.1011,179.875,99.2416,179.873,99.3818,179.869Z" clip-rule="evenodd" fill="rgb(255,255,255)" fill-rule="evenodd" stroke="none" stroke-width="1" stroke-miterlimit="1"/><path id="eQN1vDhnfC47" d="M99.3818,179.869L99.3936,179.37C99.3852,179.369,99.3768,179.369,99.3684,179.37L99.3818,179.869ZM99.8612,179.875L99.8612,179.375L99.8608,179.375L99.8612,179.875ZM130.727,176.268L130.374,175.914L130.374,175.914L130.727,176.268ZM130.727,158.852L130.374,159.206L130.374,159.206L130.727,158.852ZM118.919,155.245L118.435,155.37C118.492,155.591,118.691,155.745,118.919,155.745L118.919,155.245ZM113.425,145.897L113.08,146.259L113.08,146.259L113.425,145.897ZM93.0078,141.693L92.8342,141.224L92.8342,141.224L93.0078,141.693ZM92.1823,142.02L91.7552,142.28C91.8841,142.492,92.1486,142.577,92.3769,142.481L92.1823,142.02ZM88.0192,136.872L87.6755,137.235L87.6755,137.235L88.0192,136.872ZM62.0335,131.551L62.2062,132.02L62.2062,132.02L62.0335,131.551ZM50.9115,139.674L50.5169,139.367L50.5169,139.367L50.9115,139.674ZM48.2331,165.929L48.6814,165.707L48.6814,165.707L48.2331,165.929ZM57.4879,176.108L57.2247,176.533L57.2247,176.533L57.4879,176.108ZM70.756,179.875L70.756,179.375L70.7556,179.375L70.756,179.875ZM99.37,180.369C99.5337,180.373,99.6976,180.375,99.8616,180.375L99.8608,179.375C99.7049,179.375,99.5492,179.373,99.3936,179.37L99.37,180.369ZM99.8612,180.375L122.022,180.375L122.022,179.375L99.8612,179.375L99.8612,180.375ZM122.022,180.375C125.42,180.375,128.678,179.025,131.081,176.621L130.374,175.914C128.159,178.13,125.154,179.375,122.022,179.375L122.022,180.375ZM131.081,176.621C133.484,174.218,134.833,170.959,134.833,167.56L133.833,167.56C133.833,170.694,132.589,173.699,130.374,175.914L131.081,176.621ZM134.833,167.56C134.833,164.161,133.484,160.902,131.081,158.499L130.374,159.206C132.589,161.421,133.833,164.426,133.833,167.56L134.833,167.56ZM131.081,158.499C128.678,156.095,125.42,154.745,122.022,154.745L122.022,155.745C125.154,155.745,128.159,156.99,130.374,159.206L131.081,158.499ZM122.022,154.745L118.919,154.745L118.919,155.745L122.022,155.745L122.022,154.745ZM119.403,155.12C118.459,151.461,116.507,148.14,113.77,145.535L113.08,146.259C115.682,148.735,117.537,151.892,118.435,155.37L119.403,155.12ZM113.77,145.535C111.033,142.929,107.62,141.144,103.919,140.382L103.717,141.362C107.235,142.086,110.479,143.783,113.08,146.259L113.77,145.535ZM103.919,140.382C100.218,139.62,96.3776,139.912,92.8342,141.224L93.1814,142.162C96.5494,140.915,100.2,140.638,103.717,141.362L103.919,140.382ZM92.8342,141.224C92.5491,141.33,92.2669,141.441,91.9877,141.559L92.3769,142.481C92.6423,142.368,92.9105,142.262,93.1814,142.162L92.8342,141.224ZM92.6094,141.76C91.4399,139.839,90.0142,138.071,88.3629,136.508L87.6755,137.235C89.2621,138.736,90.6318,140.435,91.7552,142.28L92.6094,141.76ZM88.3629,136.508C84.8974,133.228,80.5768,130.981,75.8921,130.022L75.6915,131.002C80.1939,131.924,84.3458,134.083,87.6755,137.235L88.3629,136.508ZM75.8921,130.022C71.2074,129.063,66.3462,129.43,61.8607,131.082L62.2062,132.02C66.517,130.433,71.1891,130.08,75.6915,131.002L75.8921,130.022ZM61.8607,131.082C57.3752,132.734,53.445,135.604,50.5169,139.367L51.3061,139.981C54.1191,136.366,57.8955,133.608,62.2062,132.02L61.8607,131.082ZM50.5169,139.367C47.5888,143.13,45.7804,147.634,45.2973,152.369L46.2922,152.471C46.7561,147.923,48.4931,143.596,51.3061,139.981L50.5169,139.367ZM45.2973,152.369C44.8143,157.104,45.6762,161.878,47.7847,166.15L48.6814,165.707C46.656,161.604,45.8283,157.018,46.2922,152.471L45.2973,152.369ZM47.7847,166.15C49.8933,170.421,53.164,174.019,57.2247,176.533L57.7512,175.683C53.8491,173.267,50.7069,169.811,48.6814,165.707L47.7847,166.15ZM57.2247,176.533C61.2854,179.048,65.9735,180.379,70.7564,180.375L70.7556,179.375C66.1588,179.378,61.6533,178.099,57.7512,175.683L57.2247,176.533ZM70.756,180.375L98.9605,180.375L98.9605,179.375L70.756,179.375L70.756,180.375ZM98.9605,180.375C99.1056,180.375,99.2505,180.373,99.3952,180.369L99.3684,179.37C99.2327,179.373,99.0967,179.375,98.9605,179.375L98.9605,180.375Z" fill="rgb(0,0,0)" stroke="none" stroke-width="1" stroke-miterlimit="1"/></g><g id="eQN1vDhnfC48"><path id="eQN1vDhnfC49" d="M24.211,267.675L22.9653,267.675L22.9653,325.455L24.211,325.455L24.211,267.675Z" fill="rgb(40,176,76)" stroke="none" stroke-width="1" stroke-miterlimit="1"/><path id="eQN1vDhnfC410" d="M85.5027,263.143L27.2691,263.143L27.2691,264.389L85.5027,264.389L85.5027,263.143Z" fill="rgb(40,176,76)" stroke="none" stroke-width="1" stroke-miterlimit="1"/><path id="eQN1vDhnfC411" d="M197.211,328.514L27.2691,328.514L27.2691,329.76L197.211,329.76L197.211,328.514Z" fill="rgb(40,176,76)" stroke="none" stroke-width="1" stroke-miterlimit="1"/><path id="eQN1vDhnfC412" d="M89.8305,184.062L88.5865,184.062L88.5865,259.035L89.8305,259.035L89.8305,184.062Z" fill="rgb(40,176,76)" stroke="none" stroke-width="1" stroke-miterlimit="1"/><circle id="eQN1vDhnfC413" r="3.5" transform="matrix(1.123765 0 0 1.123765 23.5317 329.422504)" fill="rgb(255,255,255)" stroke="none" stroke-width="1" stroke-miterlimit="1"/><ellipse id="eQN1vDhnfC414" rx="3.063007" ry="3.063007" transform="matrix(1.245282 0 0 1.245282 89.2085 179.500001)" fill="rgb(41,177,76)" stroke="none" stroke-width="0" stroke-miterlimit="1"/><path id="eQN1vDhnfC415" d="M19.6788,329.421C19.6788,327.268,21.3785,325.568,23.5312,325.568C25.684,325.568,27.3829,327.268,27.3829,329.421C27.3829,331.573,25.684,333.272,23.5312,333.272C21.3785,333.386,19.6788,331.573,19.6788,329.421Z" fill="rgb(255,255,255)" stroke="none" stroke-width="1" stroke-miterlimit="1"/><path id="eQN1vDhnfC416" d="M23.5321,326.248C21.7188,326.248,20.2465,327.721,20.2465,329.534C20.2465,331.346,21.7188,332.819,23.5321,332.819C25.3446,332.819,26.8177,331.346,26.8177,329.534C26.8177,327.721,25.3446,326.248,23.5321,326.248ZM23.5321,333.952C21.0391,333.952,19,331.913,19,329.421C19,326.928,21.0391,324.889,23.5321,324.889C26.0243,324.889,28.0634,326.928,28.0634,329.421C28.0634,331.913,26.0243,333.952,23.5321,333.952Z" fill="rgb(0,0,0)" stroke="none" stroke-width="1" stroke-miterlimit="1"/><circle id="eQN1vDhnfC417" r="3.5" transform="matrix(1.123765 0 0 1.123765 23.5317 263.741822)" fill="rgb(255,255,255)" stroke="none" stroke-width="1" stroke-miterlimit="1"/><circle id="eQN1vDhnfC418" r="3.5" transform="matrix(1.123765 0 0 1.123765 89.500004 263.2565)" fill="rgb(255,255,255)" stroke="none" stroke-width="1" stroke-miterlimit="1"/><path id="eQN1vDhnfC419" d="M23.5321,260.424C21.7188,260.424,20.2465,261.897,20.2465,263.71C20.2465,265.523,21.7188,266.995,23.5321,266.995C25.3446,266.995,26.8177,265.523,26.8177,263.71C26.8177,261.897,25.3446,260.424,23.5321,260.424ZM23.5321,268.242C21.0391,268.242,19,266.203,19,263.71C19,261.217,21.0391,259.178,23.5321,259.178C26.0243,259.178,28.0634,261.217,28.0634,263.71C28.0634,266.203,26.0243,268.242,23.5321,268.242Z" fill="rgb(0,0,0)" stroke="none" stroke-width="1" stroke-miterlimit="1"/><path id="eQN1vDhnfC420" d="M89.468,260.084C87.6554,260.084,86.1823,261.558,86.1823,263.37C86.1823,265.183,87.6554,266.656,89.468,266.656C91.2805,266.656,92.7535,265.183,92.7535,263.37C92.7535,261.558,91.2805,260.084,89.468,260.084ZM89.468,267.788C86.9758,267.788,84.9358,265.749,84.9358,263.257C84.9358,260.764,86.9758,258.725,89.468,258.725C91.9602,258.725,94.0001,260.764,94.0001,263.257C94.0001,265.862,91.9602,267.788,89.468,267.788Z" fill="rgb(0,0,0)" stroke="none" stroke-width="1" stroke-miterlimit="1"/><g id="eQN1vDhnfC421"><circle id="eQN1vDhnfC422" r="3.5" transform="matrix(1.123765 0 0 1.123765 89.5 179.5)" fill="rgb(255,255,255)" stroke="none" stroke-width="1" stroke-miterlimit="1"/><path id="eQN1vDhnfC423" d="M89.468,176.36C87.6554,176.36,86.1823,177.832,86.1823,179.645C86.1823,181.458,87.6554,182.931,89.468,182.931C91.2805,182.931,92.7535,181.458,92.7535,179.645C92.7535,177.832,91.2805,176.36,89.468,176.36ZM89.468,184.064C86.9758,184.064,84.9358,182.024,84.9358,179.532C84.9358,177.039,86.9758,175,89.468,175C91.9602,175,94.0001,177.039,94.0001,179.532C94.0001,182.138,91.9602,184.064,89.468,184.064Z" transform="matrix(1.081666 0 0 1.081666 -7.30649 -14.66166)" fill="rgb(0,0,0)" stroke="none" stroke-width="1" stroke-miterlimit="1"/></g><g id="eQN1vDhnfC424"><circle id="eQN1vDhnfC425" r="3.5" transform="matrix(1.123765 0 0 1.123765 201.0455 329.422504)" fill="rgb(255,255,255)" stroke="none" stroke-width="1" stroke-miterlimit="1"/><path id="eQN1vDhnfC426" d="M201.046,326.248C199.232,326.248,197.76,327.721,197.76,329.534C197.76,331.346,199.232,332.819,201.046,332.819C202.858,332.819,204.33,331.346,204.33,329.534C204.33,327.721,202.858,326.248,201.046,326.248ZM201.046,333.952C198.553,333.952,196.514,331.913,196.514,329.421C196.514,326.928,198.553,324.889,201.046,324.889C203.538,324.889,205.577,326.928,205.577,329.421C205.577,331.913,203.538,333.952,201.046,333.952Z" fill="rgb(0,0,0)" stroke="none" stroke-width="1" stroke-miterlimit="1"/></g></g><path id="eQN1vDhnfC427" d="M267.155,192L190.844,192C188.12,192,186,189.892,186,187.181L186,107.819C186,105.108,188.12,103,190.844,103L267.155,103C269.88,103,272,105.108,272,107.819L272,187.181C272,189.892,269.88,192,267.155,192Z" fill="rgb(212,240,226)" stroke="none" stroke-width="1" stroke-miterlimit="1"/><g id="eQN1vDhnfC428"><path id="eQN1vDhnfC429" d="M253.768,178.445C253.468,178.445,253.166,178.295,253.166,177.994C253.015,177.692,253.316,177.241,253.618,177.091L262.352,174.831L259.792,165.344C259.642,165.042,259.942,164.591,260.243,164.441C260.545,164.29,260.996,164.591,261.147,164.892L263.858,174.981C264.008,175.283,263.707,175.735,263.407,175.885L254.069,178.445C253.919,178.445,253.768,178.445,253.768,178.445ZM221.842,123.63C221.692,123.63,221.542,123.63,221.391,123.479C221.089,123.178,221.089,122.726,221.391,122.576L228.77,115.196C229.072,114.895,229.523,114.895,229.673,115.196L236.6,122.123C236.902,122.425,236.902,122.877,236.6,123.027C236.3,123.329,235.847,123.329,235.697,123.027L229.372,116.703L222.445,123.63C222.143,123.479,221.993,123.63,221.842,123.63Z" fill="rgb(255,255,255)" stroke="none" stroke-width="1" stroke-miterlimit="1"/><path id="eQN1vDhnfC430" d="M229.52,116.101L228.165,116.101L228.165,159.17L229.52,159.17L229.52,116.101Z" fill="rgb(255,255,255)" stroke="none" stroke-width="1" stroke-miterlimit="1"/><path id="eQN1vDhnfC431" d="M203.32,178.446L203.169,178.446L193.983,176.037C193.681,175.886,193.381,175.584,193.531,175.133L196.242,165.194C196.392,164.892,196.693,164.591,197.146,164.742C197.446,164.892,197.747,165.194,197.597,165.646L195.188,174.983L203.772,177.241C204.073,177.392,204.374,177.693,204.223,178.145C203.922,178.295,203.62,178.446,203.32,178.446Z" fill="rgb(255,255,255)" stroke="none" stroke-width="1" stroke-miterlimit="1"/><path id="eQN1vDhnfC432" d="M262.051,175.734L228.317,156.308L194.585,175.734L193.982,174.53L228.016,154.952L228.317,155.555L228.619,154.952L262.653,174.53L262.051,175.734Z" fill="rgb(255,255,255)" stroke="none" stroke-width="1" stroke-miterlimit="1"/><path id="eQN1vDhnfC433" d="M228.621,155.858L228.621,177.543L246.993,166.7L246.993,144.864L228.621,155.858Z" fill="rgb(40,176,76)" stroke="none" stroke-width="1" stroke-miterlimit="1"/><path id="eQN1vDhnfC434" d="M228.467,155.857L210.095,144.713L228.618,134.021L247.141,145.014L228.467,155.857Z" fill="rgb(127,209,169)" stroke="none" stroke-width="1" stroke-miterlimit="1"/><path id="eQN1vDhnfC435" d="M228.618,177.543L210.095,166.7L210.095,144.864L228.618,155.858L228.618,177.543Z" fill="rgb(239,255,248)" stroke="none" stroke-width="1" stroke-miterlimit="1"/></g><g id="eQN1vDhnfC436"><path id="eQN1vDhnfC437" d="M557.414,299.715L510.459,299.715C507.496,299.715,504.988,297.321,504.988,294.244L504.988,247.288C504.988,244.325,507.381,241.817,510.459,241.817L557.414,241.817C560.377,241.817,562.885,244.211,562.885,247.288L562.885,294.358C562.885,297.207,560.491,299.715,557.414,299.715Z" fill="rgb(40,176,76)" stroke="none" stroke-width="1" stroke-miterlimit="1"/><path id="eQN1vDhnfC438" d="M566.989,290.369L520.033,290.369C517.07,290.369,514.563,287.976,514.563,284.898L514.563,237.828C514.563,234.865,516.956,232.358,520.033,232.358L566.989,232.358C569.953,232.358,572.46,234.751,572.46,237.828L572.46,284.898C572.46,287.861,569.953,290.369,566.989,290.369Z" transform="matrix(1 0 0 1 0 0.085817)" fill="rgb(212,240,226)" stroke="none" stroke-width="1" stroke-miterlimit="1"/><path id="eQN1vDhnfC439" d="M526.983,278.4C526.87,278.4,526.756,278.4,526.641,278.287C526.413,278.059,526.413,277.716,526.641,277.603L558.439,245.805L537.696,245.805C537.469,245.805,537.127,245.577,537.127,245.235C537.127,244.893,537.355,244.665,537.696,244.665L560.149,244.665L560.149,267.118C560.149,267.345,559.92,267.688,559.579,267.688C559.351,267.688,559.009,267.459,559.009,267.118L559.009,246.489L527.211,278.287C527.325,278.4,527.097,278.4,526.983,278.4Z" fill="rgb(41,178,112)" stroke="none" stroke-width="1" stroke-miterlimit="1"/><path id="eQN1vDhnfC440" d="M576.904,227.456L567.786,227.456C567.33,227.456,566.875,227.911,566.875,228.367L566.875,237.485C566.875,237.941,567.33,238.397,567.786,238.397L576.904,238.397C577.36,238.397,577.816,237.941,577.816,237.485L577.816,228.367C577.702,227.798,577.36,227.456,576.904,227.456Z" fill="rgb(189,230,210)" stroke="none" stroke-width="1" stroke-miterlimit="1"/><path id="eQN1vDhnfC441" d="M576.905,238.853L567.788,238.853C566.99,238.853,566.42,238.169,566.42,237.485L566.42,228.368C566.42,227.57,567.104,227,567.788,227L576.905,227C577.703,227,578.273,227.684,578.273,228.368L578.273,237.485C578.273,238.169,577.589,238.853,576.905,238.853ZM567.788,227.912C567.56,227.912,567.446,228.026,567.446,228.254L567.446,237.371C567.446,237.599,567.56,237.713,567.788,237.713L576.905,237.713C577.133,237.713,577.247,237.599,577.247,237.371L577.247,228.254C577.247,228.026,577.133,227.912,576.905,227.912L567.788,227.912Z" fill="rgb(41,178,112)" stroke="none" stroke-width="1" stroke-miterlimit="1"/><path id="eQN1vDhnfC442" d="M507.952,295.952L502.368,295.952C501.911,295.952,501.455,296.295,501.455,296.864L501.455,302.449C501.455,302.904,501.798,303.36,502.368,303.36L507.952,303.36C508.408,303.36,508.863,303.019,508.863,302.449L508.863,296.75C508.75,296.295,508.408,295.952,507.952,295.952Z" fill="rgb(40,176,76)" stroke="none" stroke-width="1" stroke-miterlimit="1"/><path id="eQN1vDhnfC443" d="M507.952,303.816L502.367,303.816C501.569,303.816,501,303.132,501,302.448L501,296.75C501,295.952,501.683,295.382,502.367,295.382L507.952,295.382C508.75,295.382,509.32,296.066,509.32,296.75L509.32,302.335C509.32,303.132,508.636,303.816,507.952,303.816ZM502.253,296.408C502.025,296.408,501.912,296.522,501.912,296.75L501.912,302.335C501.912,302.562,502.025,302.676,502.253,302.676L507.838,302.676C508.066,302.676,508.18,302.562,508.18,302.335L508.18,296.75C508.18,296.522,508.066,296.408,507.838,296.408L502.253,296.408Z" fill="rgb(255,255,255)" stroke="none" stroke-width="1" stroke-miterlimit="1"/></g><g id="eQN1vDhnfC444"><path id="eQN1vDhnfC445" d="M543.5,216.054L475.003,216.054L407.305,215.941C405.596,215.941,404.114,215.257,402.974,214.117C401.835,212.977,401.151,211.382,401.151,209.672L401.492,130.691C401.492,130.235,401.835,129.893,402.29,129.893C402.746,129.893,403.088,130.235,403.088,130.691L402.746,209.672C402.746,210.926,403.202,212.066,404.114,212.977C405.026,213.889,406.165,214.345,407.419,214.345L475.118,214.459L543.613,214.459C545.437,214.459,546.919,212.977,546.919,211.153L546.919,42.7978C546.919,42.3419,547.26,42,547.717,42C548.172,42,548.514,42.3419,548.514,42.7978L548.514,211.268C548.401,213.889,546.121,216.054,543.5,216.054Z" transform="matrix(1 0 0 1 -0.797 0)" fill="rgb(40,176,76)" stroke="none" stroke-width="1" stroke-miterlimit="1"/><ellipse id="eQN1vDhnfC446" rx="5.55936" ry="5.55936" transform="matrix(0.761953 0 0 0.761953 401.386079 130.577)" fill="rgb(41,177,76)" stroke="none" stroke-width="0" stroke-miterlimit="1"/><path id="eQN1vDhnfC447" d="M481.386,276.002L479.79,276.002L479.904,146.874L479.676,134.109C479.676,132.513,478.195,131.26,476.371,131.26L254.129,131.26L254.129,129.665L476.257,129.665C478.879,129.665,481.044,131.602,481.158,134.109L481.386,146.874L481.386,276.002Z" fill="rgb(38,50,56)" stroke="none" stroke-width="1" stroke-miterlimit="1"/><ellipse id="eQN1vDhnfC448" rx="3.958375" ry="3.958375" transform="matrix(1 0 0 1 602.900501 268.045625)" fill="rgb(0,0,0)" stroke="none" stroke-width="0" stroke-miterlimit="1"/><path id="eQN1vDhnfC449" d="M253.788,126.588C251.622,126.588,249.799,128.412,249.799,130.577C249.799,132.743,251.622,134.566,253.788,134.566C255.953,134.566,257.777,132.743,257.777,130.577C257.777,128.412,255.953,126.588,253.788,126.588Z" fill="rgb(255,255,255)" stroke="none" stroke-width="1" stroke-miterlimit="1"/><path id="eQN1vDhnfC450" d="M253.787,135.364C251.165,135.364,249,133.198,249,130.576C249,127.956,251.165,125.79,253.787,125.79C256.408,125.79,258.573,127.956,258.573,130.576C258.46,133.198,256.408,135.364,253.787,135.364ZM253.787,127.385C252.077,127.385,250.596,128.867,250.596,130.576C250.596,132.286,252.077,133.767,253.787,133.767C255.496,133.767,256.978,132.286,256.978,130.576C256.978,128.753,255.496,127.385,253.787,127.385Z" fill="rgb(38,50,56)" stroke="none" stroke-width="1" stroke-miterlimit="1"/><path id="eQN1vDhnfC451" d="M480.5,275.171L480.5,316.671C480.5,317.775,481.395,318.671,482.5,318.671L601,318.671C602.105,318.671,603,317.775,603,316.671L603,267.671" fill="none" stroke="rgb(0,0,0)" stroke-width="1.5" stroke-miterlimit="1"/><path id="eQN1vDhnfC452" d="M484.577,275.547C484.577,277.828,482.753,279.765,480.359,279.765C478.08,279.765,476.142,277.941,476.142,275.547C476.142,273.268,477.966,271.331,480.359,271.331C482.753,271.445,484.577,273.268,484.577,275.547Z" fill="rgb(255,255,255)" stroke="none" stroke-width="1" stroke-miterlimit="1"/><path id="eQN1vDhnfC453" d="M480.473,280.562C477.739,280.562,475.573,278.397,475.573,275.662C475.573,272.926,477.739,270.761,480.473,270.761C483.209,270.761,485.374,272.926,485.374,275.662C485.374,278.283,483.209,280.562,480.473,280.562ZM480.473,272.242C478.65,272.242,477.055,273.724,477.055,275.662C477.055,277.599,478.536,279.08,480.473,279.08C482.297,279.08,483.893,277.599,483.893,275.662C483.893,273.724,482.297,272.242,480.473,272.242Z" fill="rgb(38,50,56)" stroke="none" stroke-width="1" stroke-miterlimit="1"/><g id="eQN1vDhnfC454" transform="matrix(1 0 0 1 0.000001 0)"><path id="eQN1vDhnfC455" d="M607.004,267.787C607.004,270.067,605.18,272.004,602.786,272.004C600.507,272.004,598.569,270.181,598.569,267.787C598.569,265.507,600.393,263.57,602.786,263.57C605.18,263.684,607.004,265.507,607.004,267.787Z" fill="rgb(255,255,255)" stroke="none" stroke-width="1" stroke-miterlimit="1"/><path id="eQN1vDhnfC456" d="M602.9,272.801C600.166,272.801,598,270.636,598,267.901C598,265.166,600.166,263,602.9,263C605.636,263,607.801,265.166,607.801,267.901C607.801,270.522,605.636,272.801,602.9,272.801ZM602.9,264.482C601.077,264.482,599.482,265.963,599.482,267.901C599.482,269.838,600.963,271.32,602.9,271.32C604.724,271.32,606.32,269.838,606.32,267.901C606.32,265.963,604.724,264.482,602.9,264.482Z" fill="rgb(40,176,76)" stroke="none" stroke-width="1" stroke-miterlimit="1"/></g><g id="eQN1vDhnfC457" transform="matrix(1 0 0 1 0.000001 0.000001)"><path id="eQN1vDhnfC458" d="M395.909,126.358L395.909,134.336C395.909,135.02,396.479,135.704,397.277,135.704L405.255,135.704C405.938,135.704,406.622,135.134,406.622,134.336L406.622,126.358C406.622,125.675,406.053,124.991,405.255,124.991L397.277,124.991C396.593,124.991,395.909,125.561,395.909,126.358Z" fill="rgb(255,255,255)" stroke="none" stroke-width="1" stroke-miterlimit="1"/><path id="eQN1vDhnfC459" d="M405.253,136.503L397.275,136.503C396.136,136.503,395.224,135.591,395.224,134.451L395.224,126.474C395.224,125.334,396.136,124.422,397.275,124.422L405.253,124.422C406.393,124.422,407.305,125.334,407.305,126.474L407.305,134.451C407.419,135.477,406.393,136.503,405.253,136.503ZM397.275,125.79C396.934,125.79,396.706,126.017,396.706,126.359L396.706,134.337C396.706,134.679,396.934,134.907,397.275,134.907L405.253,134.907C405.596,134.907,405.823,134.679,405.823,134.337L405.823,126.359C405.823,126.017,405.596,125.79,405.253,125.79L397.275,125.79Z" fill="rgb(38,50,56)" stroke="none" stroke-width="1" stroke-miterlimit="1"/></g><g id="eQN1vDhnfC460" transform="matrix(1.196572 0 0 1.196572 -108.705587 -13.047246)"><path id="eQN1vDhnfC461" d="M551.934,47.0538C551.934,49.3332,550.11,51.2707,547.717,51.2707C545.323,51.2707,543.5,49.4472,543.5,47.0538C543.5,44.7744,545.323,42.8369,547.717,42.8369C550.11,42.8369,551.934,44.6604,551.934,47.0538Z" fill="rgb(255,255,255)" stroke="none" stroke-width="1" stroke-miterlimit="1"/><path id="eQN1vDhnfC462" d="M547.831,51.8014C545.096,51.8014,542.93,49.636,542.93,46.9007C542.93,44.1654,545.096,42,547.831,42C550.566,42,552.732,44.1654,552.732,46.9007C552.732,49.522,550.566,51.8014,547.831,51.8014ZM547.831,43.4816C546.007,43.4816,544.412,44.9632,544.412,46.9007C544.412,48.8382,545.894,50.3198,547.831,50.3198C549.768,50.3198,551.25,48.8382,551.25,46.9007C551.25,44.9632,549.654,43.4816,547.831,43.4816Z" fill="rgb(40,176,76)" stroke="none" stroke-width="1" stroke-miterlimit="1"/></g></g><path id="eQN1vDhnfC463" d="M485.811,91.9117C485.699,91.9117,485.587,91.8001,485.587,91.6877L485.587,81.3813C485.587,81.2688,485.699,81.1572,485.811,81.1572L525.021,81.1572C525.133,81.1572,525.245,81.2688,525.245,81.3813L525.245,91.6877C525.245,91.8001,525.133,91.9117,525.021,91.9117L485.811,91.9117Z" fill="rgb(255,255,255)" stroke="none" stroke-width="1" stroke-miterlimit="1"/><g id="eQN1vDhnfC464" transform="matrix(1 0 0 1 0.000001 0.000001)"><path id="eQN1vDhnfC465" d="M415.009,73.4266C414.896,73.4266,414.785,73.315,414.785,73.2026L414.785,62.8961C414.785,62.7846,414.896,62.6721,415.009,62.6721L439.207,62.6721C439.318,62.6721,439.431,62.7846,439.431,62.8961L439.431,73.2026C439.431,73.315,439.318,73.4266,439.207,73.4266L415.009,73.4266Z" fill="rgb(255,255,255)" stroke="none" stroke-width="1" stroke-miterlimit="1"/><path id="eQN1vDhnfC466" d="M439.095,62L414.896,62C414.448,62,414,62.3356,414,62.8961L414,73.2025C414,73.6505,414.336,74.0985,414.896,74.0985L439.095,74.0985C439.543,74.0985,439.991,73.763,439.991,73.2025L439.991,62.8961C439.991,62.448,439.655,62,439.095,62ZM438.758,72.7544L415.457,72.7544L415.457,63.3441L438.758,63.3441L438.758,72.7544Z" fill="rgb(40,176,76)" stroke="none" stroke-width="1" stroke-miterlimit="1"/></g><path id="eQN1vDhnfC467" d="M502.953,74.0985L445.369,74.0985C444.921,74.0985,444.473,73.763,444.473,73.2025L444.473,62.8961C444.473,62.448,444.81,62,445.369,62L502.953,62C503.401,62,503.849,62.3356,503.849,62.8961L503.849,73.2025C503.737,73.763,503.401,74.0985,502.953,74.0985Z" fill="rgb(247,248,249)" stroke="none" stroke-width="1" stroke-miterlimit="1"/><path id="eQN1vDhnfC468" d="M525.02,80.4851L485.81,80.4851C485.362,80.4851,484.914,80.8207,484.914,81.3812L484.914,91.6876C484.914,92.1356,485.25,92.5836,485.81,92.5836L525.02,92.5836C525.469,92.5836,525.917,92.2481,525.917,91.6876L525.917,81.3812C525.917,80.8207,525.469,80.4851,525.02,80.4851ZM524.572,91.2396L486.146,91.2396L486.146,81.7167L524.572,81.7167L524.572,91.2396Z" fill="rgb(40,176,76)" stroke="none" stroke-width="1" stroke-miterlimit="1"/><path id="eQN1vDhnfC469" d="M479.538,92.4721L436.855,92.4721C436.407,92.4721,435.959,92.1356,435.959,91.5751L435.959,81.3812C435.959,80.9331,436.294,80.4851,436.855,80.4851L479.538,80.4851C479.986,80.4851,480.434,80.8207,480.434,81.3812L480.434,91.5751C480.322,92.1356,479.986,92.4721,479.538,92.4721Z" fill="rgb(244,251,248)" stroke="none" stroke-width="1" stroke-miterlimit="1"/><g id="eQN1vDhnfC470"><path id="eQN1vDhnfC471" d="M329.171,188.451L298.28,188.451C293.662,188.451,290,184.789,290,180.171L290,149.28C290,144.662,293.662,141,298.28,141L329.171,141C333.789,141,337.451,144.662,337.451,149.28L337.451,180.171C337.451,184.629,333.629,188.451,329.171,188.451ZM298.28,142.433C294.458,142.433,291.433,145.458,291.433,149.28L291.433,180.171C291.433,183.992,294.458,187.018,298.28,187.018L329.171,187.018C332.992,187.018,336.018,183.992,336.018,180.171L336.018,149.28C336.018,145.458,332.992,142.433,329.171,142.433L298.28,142.433Z" fill="rgb(210,238,225)" stroke="none" stroke-width="1" stroke-miterlimit="1"/><path id="eQN1vDhnfC472" d="M324.116,160.904C324.116,166.955,319.18,171.891,313.129,171.891C307.079,171.891,302.142,166.955,302.142,160.904C302.142,154.854,307.079,149.917,313.129,149.917C319.18,149.917,324.116,154.854,324.116,160.904Z" fill="rgb(210,238,225)" stroke="none" stroke-width="1" stroke-miterlimit="1"/><path id="eQN1vDhnfC473" d="M322.843,174.598L303.258,174.598C297.684,174.598,293.226,179.057,293.226,184.63C293.226,186.381,294.659,187.655,296.251,187.655L330.874,187.655C331.979,187.655,332.874,186.76,332.874,185.655L332.874,184.63C332.874,179.057,328.416,174.598,322.843,174.598Z" fill="rgb(210,238,225)" stroke="none" stroke-width="1" stroke-miterlimit="1"/></g><g id="eQN1vDhnfC474"><path id="eQN1vDhnfC475" d="M139.242,314.5L117.759,314.5C114.547,314.5,112,311.953,112,308.742L112,287.259C112,284.047,114.547,281.5,117.759,281.5L139.242,281.5C142.453,281.5,145,284.047,145,287.259L145,308.742C145,311.843,142.343,314.5,139.242,314.5ZM117.759,282.496C115.101,282.496,112.996,284.601,112.996,287.259L112.996,308.742C112.996,311.399,115.101,313.504,117.759,313.504L139.242,313.504C141.899,313.504,144.004,311.399,144.004,308.742L144.004,287.259C144.004,284.601,141.899,282.496,139.242,282.496L117.759,282.496Z" fill="rgb(210,238,225)" stroke="none" stroke-width="1" stroke-miterlimit="1"/><path id="eQN1vDhnfC476" d="M135.727,295.343C135.727,299.551,132.294,302.984,128.085,302.984C123.878,302.984,120.444,299.551,120.444,295.343C120.444,291.135,123.878,287.702,128.085,287.702C132.294,287.702,135.727,291.135,135.727,295.343Z" fill="rgb(210,238,225)" stroke="none" stroke-width="1" stroke-miterlimit="1"/><path id="eQN1vDhnfC477" d="M134.841,304.866L121.22,304.866C117.344,304.866,114.243,307.967,114.243,311.843C114.243,313.061,115.24,313.947,116.347,313.947L139.817,313.947C140.922,313.947,141.817,313.051,141.817,311.947L141.817,311.843C141.817,307.967,138.717,304.866,134.841,304.866Z" fill="rgb(210,238,225)" stroke="none" stroke-width="1" stroke-miterlimit="1"/></g><path id="eQN1vDhnfC478" d="M60.8962,299.701L103.579,299.701C104.028,299.701,104.476,300.037,104.476,300.597L104.476,310.68C104.476,311.128,104.139,311.576,103.579,311.576L60.8962,311.576C60.4481,311.576,60,311.24,60,310.68L60,300.597C60.112,300.149,60.4481,299.701,60.8962,299.701Z" fill="rgb(212,240,226)" stroke="none" stroke-width="1" stroke-miterlimit="1"/><path id="eQN1vDhnfC479" d="M45.8963,282L103.479,282C103.927,282,104.375,282.336,104.375,282.896L104.375,293.203C104.375,293.651,104.039,294.099,103.479,294.099L45.8963,294.099C45.4482,294.099,45,293.763,45,293.203L45,282.896C45.112,282.336,45.4482,282,45.8963,282Z" fill="rgb(247,248,249)" stroke="none" stroke-width="1" stroke-miterlimit="1"/><path id="eQN1vDhnfC480" d="M428.771,254.136C428.659,254.136,428.547,254.136,428.435,254.024L416.336,246.855C416.112,246.742,416,246.518,416,246.294C416,246.07,416.112,245.846,416.336,245.734L428.435,238.228C428.771,238.004,429.107,238.116,429.331,238.452C429.555,238.788,429.443,239.124,429.107,239.349L417.904,246.294L429.107,253.016C429.443,253.24,429.555,253.576,429.331,253.912C429.219,254.024,428.995,254.136,428.771,254.136Z" fill="rgb(127,209,169)" stroke="none" stroke-width="1" stroke-miterlimit="1"/><path id="eQN1vDhnfC481" d="M450.617,238.789L462.716,246.295L450.617,253.577" fill="rgb(255,255,255)" stroke="none" stroke-width="1" stroke-miterlimit="1"/><path id="eQN1vDhnfC482" d="M450.617,254.137C450.393,254.137,450.169,254.025,450.056,253.801C449.832,253.465,449.945,253.128,450.28,252.904L461.484,246.183L450.28,239.237C449.945,239.012,449.832,238.677,450.056,238.34C450.28,238.005,450.617,237.892,450.952,238.116L463.052,245.622C463.276,245.735,463.388,245.959,463.388,246.183C463.388,246.407,463.276,246.631,463.052,246.743L450.952,253.913C450.841,254.137,450.728,254.137,450.617,254.137Z" fill="rgb(40,176,76)" stroke="none" stroke-width="1" stroke-miterlimit="1"/><path id="eQN1vDhnfC483" d="M436.949,254.137C436.837,254.137,436.725,254.137,436.725,254.137C436.389,254.024,436.277,253.576,436.389,253.241L442.887,238.565C442.998,238.228,443.447,238.117,443.783,238.228C444.119,238.341,444.231,238.789,444.119,239.124L437.621,253.8C437.51,254.024,437.286,254.137,436.949,254.137Z" fill="rgb(127,209,169)" stroke="none" stroke-width="1" stroke-miterlimit="1"/><path id="eQN1vDhnfC484" d="M71.3275,252.43L49.1033,252.43C46.824,252.43,45,250.606,45,248.327L45,226.102C45,223.823,46.824,222,49.1033,222L71.3275,222C73.6069,222,75.4308,223.823,75.4308,226.102L75.4308,248.327C75.4308,250.492,73.6069,252.43,71.3275,252.43ZM49.1033,223.025C47.394,223.025,46.0262,224.393,46.0262,226.102L46.0262,248.327C46.0262,250.037,47.394,251.405,49.1033,251.405L71.3275,251.405C73.0368,251.405,74.4046,250.037,74.4046,248.327L74.4046,226.102C74.4046,224.393,73.0368,223.025,71.3275,223.025L49.1033,223.025Z" fill="rgb(40,176,76)" stroke="none" stroke-width="1" stroke-miterlimit="1"/><path id="eQN1vDhnfC485" d="M60.0907,248.207C59.863,248.207,59.5206,247.978,59.5206,247.637L59.5206,237.949L49.8332,237.949C49.6055,237.949,49.2632,237.721,49.2632,237.379C49.2632,237.152,49.4917,236.809,49.8332,236.809L59.5206,236.809L59.5206,227.122C59.5206,226.894,59.7483,226.552,60.0907,226.552C60.3184,226.552,60.6607,226.78,60.6607,227.122L60.6607,236.809L70.6897,236.809C70.9174,236.809,71.2597,237.037,71.2597,237.379C71.2597,237.607,71.032,237.949,70.6897,237.949L60.6607,237.949L60.6607,247.637C60.6607,247.978,60.4322,248.207,60.0907,248.207Z" fill="rgb(40,176,76)" stroke="none" stroke-width="1" stroke-miterlimit="1"/><g id="eQN1vDhnfC486"><path id="eQN1vDhnfC487" d="M416.5,155.5L468.5,155.5L468.5,193C468.5,197.142,465.142,200.5,461,200.5L424,200.5C419.858,200.5,416.5,197.142,416.5,193L416.5,155.5Z" fill="none" stroke="rgb(212,240,226)" stroke-width="1" stroke-miterlimit="1"/><ellipse id="eQN1vDhnfC488" rx="26.5" ry="7.5" transform="matrix(1 0 0 1 442.5 154.5)" fill="rgb(212,240,226)" stroke="none" stroke-width="1" stroke-miterlimit="1"/></g><g id="eQN1vDhnfC489"><path id="eQN1vDhnfC490" d="M422.539,283.003L194,283.003L194,269.448C194,269.224,194.224,269,194.448,269L422.091,269C422.315,269,422.539,269.224,422.539,269.448L422.539,283.003Z" fill="rgb(247,248,249)" stroke="none" stroke-width="1" stroke-miterlimit="1"/><path id="eQN1vDhnfC491" d="M204.866,275.945C204.866,277.065,203.97,278.074,202.737,278.074C201.617,278.074,200.609,277.177,200.609,275.945C200.609,274.824,201.505,273.817,202.737,273.817C203.97,273.817,204.866,274.713,204.866,275.945Z" fill="rgb(255,255,255)" stroke="none" stroke-width="1" stroke-miterlimit="1"/><path id="eQN1vDhnfC492" d="M210.916,275.945C210.916,277.065,210.02,278.074,208.788,278.074C207.667,278.074,206.66,277.177,206.66,275.945C206.66,274.824,207.556,273.817,208.788,273.817C210.02,273.817,210.916,274.713,210.916,275.945Z" fill="rgb(255,255,255)" stroke="none" stroke-width="1" stroke-miterlimit="1"/><path id="eQN1vDhnfC493" d="M216.965,275.945C216.965,277.065,216.069,278.074,214.837,278.074C213.716,278.074,212.708,277.177,212.708,275.945C212.708,274.824,213.604,273.817,214.837,273.817C216.069,273.817,216.965,274.713,216.965,275.945Z" fill="rgb(255,255,255)" stroke="none" stroke-width="1" stroke-miterlimit="1"/></g></g><script><![CDATA[!function(t,n){"object"==typeof exports&&"undefined"!=typeof module?module.exports=n():"function"==typeof define&&define.amd?define(n):(t="undefined"!=typeof globalThis?globalThis:t||self).__SVGATOR_PLAYER__=n()}(this,(function(){"use strict";function t(n){return(t="function"==typeof Symbol&&"symbol"==typeof Symbol.iterator?function(t){return typeof t}:function(t){return t&&"function"==typeof Symbol&&t.constructor===Symbol&&t!==Symbol.prototype?"symbol":typeof t})(n)}function n(t,n){if(!(t instanceof n))throw new TypeError("Cannot call a class as a function")}function r(t,n){for(var r=0;r<n.length;r++){var e=n[r];e.enumerable=e.enumerable||!1,e.configurable=!0,"value"in e&&(e.writable=!0),Object.defineProperty(t,e.key,e)}}function e(t,n,e){return n&&r(t.prototype,n),e&&r(t,e),t}function i(t){return(i=Object.setPrototypeOf?Object.getPrototypeOf:function(t){return t.__proto__||Object.getPrototypeOf(t)})(t)}function o(t,n){return(o=Object.setPrototypeOf||function(t,n){return t.__proto__=n,t})(t,n)}function u(t,n){return!n||"object"!=typeof n&&"function"!=typeof n?function(t){if(void 0===t)throw new ReferenceError("this hasn't been initialised - super() hasn't been called");return t}(t):n}function a(t){var n=function(){if("undefined"==typeof Reflect||!Reflect.construct)return!1;if(Reflect.construct.sham)return!1;if("function"==typeof Proxy)return!0;try{return Boolean.prototype.valueOf.call(Reflect.construct(Boolean,[],(function(){}))),!0}catch(t){return!1}}();return function(){var r,e=i(t);if(n){var o=i(this).constructor;r=Reflect.construct(e,arguments,o)}else r=e.apply(this,arguments);return u(this,r)}}function l(t,n,r){return(l="undefined"!=typeof Reflect&&Reflect.get?Reflect.get:function(t,n,r){var e=function(t,n){for(;!Object.prototype.hasOwnProperty.call(t,n)&&null!==(t=i(t)););return t}(t,n);if(e){var o=Object.getOwnPropertyDescriptor(e,n);return o.get?o.get.call(r):o.value}})(t,n,r||t)}var f=s(Math.pow(10,-6));function s(t){var n=arguments.length>1&&void 0!==arguments[1]?arguments[1]:6;if(Number.isInteger(t))return t;var r=Math.pow(10,n);return Math.round((+t+Number.EPSILON)*r)/r}function c(t,n){var r=arguments.length>2&&void 0!==arguments[2]?arguments[2]:f;return Math.abs(t-n)<r}var h=Math.PI/180;function v(t){return t}function y(t,n,r){var e=1-r;return 3*r*e*(t*e+n*r)+r*r*r}function d(){var t=arguments.length>0&&void 0!==arguments[0]?arguments[0]:0,n=arguments.length>1&&void 0!==arguments[1]?arguments[1]:0,r=arguments.length>2&&void 0!==arguments[2]?arguments[2]:1,e=arguments.length>3&&void 0!==arguments[3]?arguments[3]:1;return t<0||t>1||r<0||r>1?null:c(t,n)&&c(r,e)?v:function(i){if(i<=0)return t>0?i*n/t:0===n&&r>0?i*e/r:0;if(i>=1)return r<1?1+(i-1)*(e-1)/(r-1):1===r&&t<1?1+(i-1)*(n-1)/(t-1):1;for(var o,u=0,a=1;u<a;){var l=y(t,r,o=(u+a)/2);if(c(i,l))break;l<i?u=o:a=o}return y(n,e,o)}}function g(){return 1}function p(t){return 1===t?1:0}function m(){var t=arguments.length>0&&void 0!==arguments[0]?arguments[0]:1,n=arguments.length>1&&void 0!==arguments[1]?arguments[1]:0;if(1===t){if(0===n)return p;if(1===n)return g}var r=1/t;return function(t){return t>=1?1:(t+=n*r)-t%r}}function b(t,n,r){return t>=.5?r:n}function w(t,n,r){return 0===t||n===r?n:t*(r-n)+n}function x(t,n,r){var e=w(t,n,r);return e<=0?0:e}function k(t,n,r){return 0===t?n:1===t?r:{x:w(t,n.x,r.x),y:w(t,n.y,r.y)}}function A(t,n,r){var e=function(t,n,r){return Math.round(w(t,n,r))}(t,n,r);return e<=0?0:e>=255?255:e}function _(t,n,r){return 0===t?n:1===t?r:{r:A(t,n.r,r.r),g:A(t,n.g,r.g),b:A(t,n.b,r.b),a:w(t,null==n.a?1:n.a,null==r.a?1:r.a)}}function S(t,n,r){if(0===t)return n;if(1===t)return r;var e=n.length;if(e!==r.length)return b(t,n,r);for(var i=[],o=0;o<e;o++)i.push(_(t,n[o],r[o]));return i}function O(t,n){for(var r=[],e=0;e<t;e++)r.push(n);return r}function M(t,n){if(--n<=0)return t;var r=(t=Object.assign([],t)).length;do{for(var e=0;e<r;e++)t.push(t[e])}while(--n>0);return t}var j,P=function(){function t(r){n(this,t),this.list=r,this.length=r.length}return e(t,[{key:"setAttribute",value:function(t,n){for(var r=this.list,e=0;e<this.length;e++)r[e].setAttribute(t,n)}},{key:"removeAttribute",value:function(t){for(var n=this.list,r=0;r<this.length;r++)n[r].removeAttribute(t)}},{key:"style",value:function(t,n){for(var r=this.list,e=0;e<this.length;e++)r[e].style[t]=n}}]),t}(),B=/-./g,E=function(t,n){return n.toUpperCase()};function F(t){return"function"==typeof t?t:b}function I(t){return t?"function"==typeof t?t:Array.isArray(t)?function(t){var n=arguments.length>1&&void 0!==arguments[1]?arguments[1]:v;if(!Array.isArray(t))return n;switch(t.length){case 1:return m(t[0])||n;case 2:return m(t[0],t[1])||n;case 4:return d(t[0],t[1],t[2],t[3])||n}return n}(t,null):function(t,n){var r=arguments.length>2&&void 0!==arguments[2]?arguments[2]:v;switch(t){case"linear":return v;case"steps":return m(n.steps||1,n.jump||0)||r;case"bezier":case"cubic-bezier":return d(n.x1||0,n.y1||0,n.x2||0,n.y2||0)||r}return r}(t.type,t.value,null):null}function R(t,n,r){var e=arguments.length>3&&void 0!==arguments[3]&&arguments[3],i=n.length-1;if(t<=n[0].t)return e?[0,0,n[0].v]:n[0].v;if(t>=n[i].t)return e?[i,1,n[i].v]:n[i].v;var o,u=n[0],a=null;for(o=1;o<=i;o++){if(!(t>n[o].t)){a=n[o];break}u=n[o]}return null==a?e?[i,1,n[i].v]:n[i].v:u.t===a.t?e?[o,1,a.v]:a.v:(t=(t-u.t)/(a.t-u.t),u.e&&(t=u.e(t)),e?[o,t,r(t,u.v,a.v)]:r(t,u.v,a.v))}function q(t,n){var r=arguments.length>2&&void 0!==arguments[2]?arguments[2]:null;return t&&t.length?"function"!=typeof n?null:("function"!=typeof r&&(r=null),function(e){var i=R(e,t,n);return null!=i&&r&&(i=r(i)),i}):null}function T(t,n){return t.t-n.t}function N(n,r,e,i,o){var u,a="@"===e[0],l="#"===e[0],f=j[e],s=b;switch(a?(u=e.substr(1),e=u.replace(B,E)):l&&(e=e.substr(1)),t(f)){case"function":if(s=f(i,o,R,I,e,a,r,n),l)return s;break;case"string":s=q(i,F(f));break;case"object":if((s=q(i,F(f.i),f.f))&&"function"==typeof f.u)return f.u(r,s,e,a,n)}return s?function(t,n,r){var e=arguments.length>3&&void 0!==arguments[3]&&arguments[3];if(e)return t instanceof P?function(e){return t.style(n,r(e))}:function(e){return t.style[n]=r(e)};if(Array.isArray(n)){var i=n.length;return function(e){var o=r(e);if(null==o)for(var u=0;u<i;u++)t[u].removeAttribute(n);else for(var a=0;a<i;a++)t[a].setAttribute(n,o)}}return function(e){var i=r(e);null==i?t.removeAttribute(n):t.setAttribute(n,i)}}(r,e,s,a):null}function C(n,r,e,i){if(!i||"object"!==t(i))return null;var o=null,u=null;return Array.isArray(i)?u=function(t){if(!t||!t.length)return null;for(var n=0;n<t.length;n++)t[n].e&&(t[n].e=I(t[n].e));return t.sort(T)}(i):(u=i.keys,o=i.data||null),u?N(n,r,e,u,o):null}function z(t,n,r){if(!r)return null;var e=[];for(var i in r)if(r.hasOwnProperty(i)){var o=C(t,n,i,r[i]);o&&e.push(o)}return e.length?e:null}function L(t,n){if(!n.duration||n.duration<0)return null;var r=function(t,n){if(!n)return null;var r=[];if(Array.isArray(n))for(var e=n.length,i=0;i<e;i++){var o=n[i];if(2===o.length){var u=null;if("string"==typeof o[0])u=t.getElementById(o[0]);else if(Array.isArray(o[0])){u=[];for(var a=0;a<o[0].length;a++)if("string"==typeof o[0][a]){var l=t.getElementById(o[0][a]);l&&u.push(l)}u=u.length?1===u.length?u[0]:new P(u):null}if(u){var f=z(t,u,o[1]);f&&(r=r.concat(f))}}}else for(var s in n)if(n.hasOwnProperty(s)){var c=t.getElementById(s);if(c){var h=z(t,c,n[s]);h&&(r=r.concat(h))}}return r.length?r:null}(t,n.elements);return r?function(t,n){var r=arguments.length>2&&void 0!==arguments[2]?arguments[2]:1/0,e=arguments.length>3&&void 0!==arguments[3]?arguments[3]:1,i=arguments.length>4&&void 0!==arguments[4]&&arguments[4],o=arguments.length>5&&void 0!==arguments[5]?arguments[5]:1,u=t.length,a=e>0?n:0;i&&r%2==0&&(a=n-a);var l=null;return function(f,s){var c=f%n,h=1+(f-c)/n;s*=e,i&&h%2==0&&(s=-s);var v=!1;if(h>r)c=a,v=!0,-1===o&&(c=e>0?0:n);else if(s<0&&(c=n-c),c===l)return!1;l=c;for(var y=0;y<u;y++)t[y](c);return v}}(r,n.duration,n.iterations||1/0,n.direction||1,!!n.alternate,n.fill||1):null}var D=function(){function t(r,e){var i=arguments.length>2&&void 0!==arguments[2]?arguments[2]:{};n(this,t),this._id=0,this._running=!1,this._rollingBack=!1,this._animations=r,this.duration=e.duration,this.alternate=e.alternate,this.fill=e.fill,this.iterations=e.iterations,this.direction=i.direction||1,this.speed=i.speed||1,this.fps=i.fps||100,this.offset=i.offset||0,this.rollbackStartOffset=0}return e(t,[{key:"_rollback",value:function(){var t=this,n=1/0,r=null;this.rollbackStartOffset=this.offset,this._rollingBack||(this._rollingBack=!0,this._running=!0);this._id=window.requestAnimationFrame((function e(i){if(t._rollingBack){null==r&&(r=i);var o=i-r,u=t.rollbackStartOffset-o,a=Math.round(u*t.speed);if(a>t.duration&&n!=1/0){var l=!!t.alternate&&a/t.duration%2>1,f=a%t.duration;a=(f+=l?t.duration:0)||t.duration}var s=t.fps?1e3/t.fps:0,c=Math.max(0,a);if(c<n-s){t.offset=c,n=c;for(var h=t._animations,v=h.length,y=0;y<v;y++)h[y](c,t.direction)}var d=!1;if(t.iterations>0&&-1===t.fill){var g=t.iterations*t.duration,p=g==a;a=p?0:a,t.offset=p?0:t.offset,d=a>g}a>0&&t.offset>=a&&!d?t._id=window.requestAnimationFrame(e):t.stop()}}))}},{key:"_start",value:function(){var t=this,n=arguments.length>0&&void 0!==arguments[0]?arguments[0]:0,r=-1/0,e=null,i={},o=function o(u){t._running=!0,null==e&&(e=u);var a=Math.round((u-e+n)*t.speed),l=t.fps?1e3/t.fps:0;if(a>r+l&&!t._rollingBack){t.offset=a,r=a;for(var f=t._animations,s=f.length,c=0,h=0;h<s;h++)i[h]?c++:(i[h]=f[h](a,t.direction),i[h]&&c++);if(c===s)return void t._stop()}t._id=window.requestAnimationFrame(o)};this._id=window.requestAnimationFrame(o)}},{key:"_stop",value:function(){this._id&&window.cancelAnimationFrame(this._id),this._running=!1,this._rollingBack=!1}},{key:"play",value:function(){!this._rollingBack&&this._running||(this._rollingBack=!1,this.rollbackStartOffset>this.duration&&(this.offset=this.rollbackStartOffset-(this.rollbackStartOffset-this.offset)%this.duration,this.rollbackStartOffset=0),this._start(this.offset))}},{key:"stop",value:function(){this._stop(),this.offset=0,this.rollbackStartOffset=0;var t=this.direction,n=this._animations;window.requestAnimationFrame((function(){for(var r=0;r<n.length;r++)n[r](0,t)}))}},{key:"reachedToEnd",value:function(){return this.iterations>0&&this.offset>=this.iterations*this.duration}},{key:"restart",value:function(){this._stop(),this.offset=0,this._start()}},{key:"pause",value:function(){this._stop()}},{key:"reverse",value:function(){this.direction=-this.direction}}],[{key:"build",value:function(n,r){return(n=function(t,n){if(j=n,!t||!t.root||!Array.isArray(t.animations))return null;for(var r=document.getElementsByTagName("svg"),e=!1,i=0;i<r.length;i++)if(r[i].id===t.root&&!r[i].svgatorAnimation){(e=r[i]).svgatorAnimation=!0;break}if(!e)return null;var o=t.animations.map((function(t){return L(e,t)})).filter((function(t){return!!t}));return o.length?{element:e,animations:o,animationSettings:t.animationSettings,options:t.options||void 0}:null}(n,r))?{el:n.element,options:n.options||{},player:new t(n.animations,n.animationSettings,n.options)}:null}}]),t}();function Q(t){return s(t)+""}function U(t){var n=arguments.length>1&&void 0!==arguments[1]?arguments[1]:" ";return t&&t.length?t.map(Q).join(n):""}function V(t){return t?null==t.a||t.a>=1?"rgb("+t.r+","+t.g+","+t.b+")":"rgba("+t.r+","+t.g+","+t.b+","+t.a+")":"transparent"}!function(){for(var t=0,n=["ms","moz","webkit","o"],r=0;r<n.length&&!window.requestAnimationFrame;++r)window.requestAnimationFrame=window[n[r]+"RequestAnimationFrame"],window.cancelAnimationFrame=window[n[r]+"CancelAnimationFrame"]||window[n[r]+"CancelRequestAnimationFrame"];window.requestAnimationFrame||(window.requestAnimationFrame=function(n){var r=Date.now(),e=Math.max(0,16-(r-t)),i=window.setTimeout((function(){n(r+e)}),e);return t=r+e,i},window.cancelAnimationFrame=window.clearTimeout)}();var G={f:null,i:function(t,n,r){return 0===t?n:1===t?r:{x:x(t,n.x,r.x),y:x(t,n.y,r.y)}},u:function(t,n){return function(r){var e=n(r);t.setAttribute("rx",Q(e.x)),t.setAttribute("ry",Q(e.y))}}},H={f:null,i:function(t,n,r){return 0===t?n:1===t?r:{width:x(t,n.width,r.width),height:x(t,n.height,r.height)}},u:function(t,n){return function(r){var e=n(r);t.setAttribute("width",Q(e.width)),t.setAttribute("height",Q(e.height))}}},Y=Math.sin,Z=Math.cos,J=Math.acos,K=Math.asin,W=Math.tan,X=Math.atan2,$=Math.PI/180,tt=180/Math.PI,nt=Math.sqrt,rt=function(){function t(){var r=arguments.length>0&&void 0!==arguments[0]?arguments[0]:1,e=arguments.length>1&&void 0!==arguments[1]?arguments[1]:0,i=arguments.length>2&&void 0!==arguments[2]?arguments[2]:0,o=arguments.length>3&&void 0!==arguments[3]?arguments[3]:1,u=arguments.length>4&&void 0!==arguments[4]?arguments[4]:0,a=arguments.length>5&&void 0!==arguments[5]?arguments[5]:0;n(this,t),this.m=[r,e,i,o,u,a],this.i=null,this.w=null,this.s=null}return e(t,[{key:"determinant",get:function(){var t=this.m;return t[0]*t[3]-t[1]*t[2]}},{key:"isIdentity",get:function(){if(null===this.i){var t=this.m;this.i=1===t[0]&&0===t[1]&&0===t[2]&&1===t[3]&&0===t[4]&&0===t[5]}return this.i}},{key:"point",value:function(t,n){var r=this.m;return{x:r[0]*t+r[2]*n+r[4],y:r[1]*t+r[3]*n+r[5]}}},{key:"translateSelf",value:function(){var t=arguments.length>0&&void 0!==arguments[0]?arguments[0]:0,n=arguments.length>1&&void 0!==arguments[1]?arguments[1]:0;if(!t&&!n)return this;var r=this.m;return r[4]+=r[0]*t+r[2]*n,r[5]+=r[1]*t+r[3]*n,this.w=this.s=this.i=null,this}},{key:"rotateSelf",value:function(){var t=arguments.length>0&&void 0!==arguments[0]?arguments[0]:0;if(t%=360){var n=Y(t*=$),r=Z(t),e=this.m,i=e[0],o=e[1];e[0]=i*r+e[2]*n,e[1]=o*r+e[3]*n,e[2]=e[2]*r-i*n,e[3]=e[3]*r-o*n,this.w=this.s=this.i=null}return this}},{key:"scaleSelf",value:function(){var t=arguments.length>0&&void 0!==arguments[0]?arguments[0]:1,n=arguments.length>1&&void 0!==arguments[1]?arguments[1]:1;if(1!==t||1!==n){var r=this.m;r[0]*=t,r[1]*=t,r[2]*=n,r[3]*=n,this.w=this.s=this.i=null}return this}},{key:"skewSelf",value:function(t,n){if(n%=360,(t%=360)||n){var r=this.m,e=r[0],i=r[1],o=r[2],u=r[3];t&&(t=W(t*$),r[2]+=e*t,r[3]+=i*t),n&&(n=W(n*$),r[0]+=o*n,r[1]+=u*n),this.w=this.s=this.i=null}return this}},{key:"resetSelf",value:function(){var t=arguments.length>0&&void 0!==arguments[0]?arguments[0]:1,n=arguments.length>1&&void 0!==arguments[1]?arguments[1]:0,r=arguments.length>2&&void 0!==arguments[2]?arguments[2]:0,e=arguments.length>3&&void 0!==arguments[3]?arguments[3]:1,i=arguments.length>4&&void 0!==arguments[4]?arguments[4]:0,o=arguments.length>5&&void 0!==arguments[5]?arguments[5]:0,u=this.m;return u[0]=t,u[1]=n,u[2]=r,u[3]=e,u[4]=i,u[5]=o,this.w=this.s=this.i=null,this}},{key:"recomposeSelf",value:function(){var t=arguments.length>0&&void 0!==arguments[0]?arguments[0]:null,n=arguments.length>1&&void 0!==arguments[1]?arguments[1]:null,r=arguments.length>2&&void 0!==arguments[2]?arguments[2]:null,e=arguments.length>3&&void 0!==arguments[3]?arguments[3]:null,i=arguments.length>4&&void 0!==arguments[4]?arguments[4]:null;return this.isIdentity||this.resetSelf(),t&&(t.x||t.y)&&this.translateSelf(t.x,t.y),n&&this.rotateSelf(n),r&&(r.x&&this.skewSelf(r.x,0),r.y&&this.skewSelf(0,r.y)),!e||1===e.x&&1===e.y||this.scaleSelf(e.x,e.y),i&&(i.x||i.y)&&this.translateSelf(i.x,i.y),this}},{key:"decompose",value:function(){var t=arguments.length>0&&void 0!==arguments[0]?arguments[0]:0,n=arguments.length>1&&void 0!==arguments[1]?arguments[1]:0,r=this.m,e=r[0]*r[0]+r[1]*r[1],i=[[r[0],r[1]],[r[2],r[3]]],o=nt(e);if(0===o)return{origin:{x:s(r[4]),y:s(r[5])},translate:{x:s(t),y:s(n)},scale:{x:0,y:0},skew:{x:0,y:0},rotate:0};i[0][0]/=o,i[0][1]/=o;var u=r[0]*r[3]-r[1]*r[2]<0;u&&(o=-o);var a=i[0][0]*i[1][0]+i[0][1]*i[1][1];i[1][0]-=i[0][0]*a,i[1][1]-=i[0][1]*a;var l=nt(i[1][0]*i[1][0]+i[1][1]*i[1][1]);if(0===l)return{origin:{x:s(r[4]),y:s(r[5])},translate:{x:s(t),y:s(n)},scale:{x:s(o),y:0},skew:{x:0,y:0},rotate:0};i[1][0]/=l,i[1][1]/=l,a/=l;var f=0;return i[1][1]<0?(f=J(i[1][1])*tt,i[0][1]<0&&(f=360-f)):f=K(i[0][1])*tt,u&&(f=-f),a=X(a,nt(i[0][0]*i[0][0]+i[0][1]*i[0][1]))*tt,u&&(a=-a),{origin:{x:s(r[4]),y:s(r[5])},translate:{x:s(t),y:s(n)},scale:{x:s(o),y:s(l)},skew:{x:s(a),y:0},rotate:s(f)}}},{key:"toString",value:function(){return null===this.s&&(this.s="matrix("+this.m.map((function(t){return s(t)})).join(" ")+")"),this.s}}]),t}();Object.freeze({M:2,L:2,Z:0,H:1,V:1,C:6,Q:4,T:2,S:4,A:7});var et={},it=null;function ot(n){var r=function(){if(it)return it;if("object"!==("undefined"==typeof document?"undefined":t(document))||!document.createElementNS)return{};var n=document.createElementNS("http://www.w3.org/2000/svg","svg");return n&&n.style?(n.style.position="absolute",n.style.opacity="0.01",n.style.zIndex="-9999",n.style.left="-9999px",n.style.width="1px",n.style.height="1px",it={svg:n}):{}}().svg;if(!r)return function(t){return null};var e=document.createElementNS(r.namespaceURI,"path");e.setAttributeNS(null,"d",n),e.setAttributeNS(null,"fill","none"),e.setAttributeNS(null,"stroke","none"),r.appendChild(e);var i=e.getTotalLength();return function(t){var n=e.getPointAtLength(i*t);return{x:n.x,y:n.y}}}function ut(t){return et[t]?et[t]:et[t]=ot(t)}function at(t,n,r,e){if(!t||!e)return!1;var i=["M",t.x,t.y];if(n&&r&&(i.push("C"),i.push(n.x),i.push(n.y),i.push(r.x),i.push(r.y)),n?!r:r){var o=n||r;i.push("Q"),i.push(o.x),i.push(o.y)}return n||r||i.push("L"),i.push(e.x),i.push(e.y),i.join(" ")}function lt(t,n,r,e){var i=arguments.length>4&&void 0!==arguments[4]?arguments[4]:1,o=at(t,n,r,e),u=ut(o);try{return u(i)}catch(t){return null}}function ft(t,n,r,e){var i=1-e;return i*i*t+2*i*e*n+e*e*r}function st(t,n,r,e){return 2*(1-e)*(n-t)+2*e*(r-n)}function ct(t,n,r,e){var i=arguments.length>4&&void 0!==arguments[4]&&arguments[4],o=lt(t,n,null,r,e);return o||(o={x:ft(t.x,n.x,r.x,e),y:ft(t.y,n.y,r.y,e)}),i&&(o.a=ht(t,n,r,e)),o}function ht(t,n,r,e){return Math.atan2(st(t.y,n.y,r.y,e),st(t.x,n.x,r.x,e))}function vt(t,n,r,e,i){var o=i*i;return i*o*(e-t+3*(n-r))+3*o*(t+r-2*n)+3*i*(n-t)+t}function yt(t,n,r,e,i){var o=1-i;return 3*(o*o*(n-t)+2*o*i*(r-n)+i*i*(e-r))}function dt(t,n,r,e,i){var o=arguments.length>5&&void 0!==arguments[5]&&arguments[5],u=lt(t,n,r,e,i);return u||(u={x:vt(t.x,n.x,r.x,e.x,i),y:vt(t.y,n.y,r.y,e.y,i)}),o&&(u.a=gt(t,n,r,e,i)),u}function gt(t,n,r,e,i){return Math.atan2(yt(t.y,n.y,r.y,e.y,i),yt(t.x,n.x,r.x,e.x,i))}function pt(t,n,r){return t+(n-t)*r}function mt(t,n,r){var e=arguments.length>3&&void 0!==arguments[3]&&arguments[3],i={x:pt(t.x,n.x,r),y:pt(t.y,n.y,r)};return e&&(i.a=bt(t,n)),i}function bt(t,n){return Math.atan2(n.y-t.y,n.x-t.x)}function wt(t,n,r){var e=arguments.length>3&&void 0!==arguments[3]&&arguments[3];if(kt(n)){if(At(r))return ct(n,r.start,r,t,e)}else if(kt(r)){if(n.end)return ct(n,n.end,r,t,e)}else{if(n.end)return r.start?dt(n,n.end,r.start,r,t,e):ct(n,n.end,r,t,e);if(r.start)return ct(n,r.start,r,t,e)}return mt(n,r,t,e)}function xt(t,n,r){var e=wt(t,n,r,!0);return e.a=function(t){var n=arguments.length>1&&void 0!==arguments[1]&&arguments[1];return n?t+Math.PI:t}(e.a)/h,e}function kt(t){return!t.type||"corner"===t.type}function At(t){return null!=t.start&&!kt(t)}var _t=new rt;var St={f:Q,i:w},Ot={f:Q,i:function(t,n,r){var e=w(t,n,r);return e<=0?0:e>=1?1:e}};function Mt(t,n,r,e,i,o,u,a){return n=function(t,n,r){for(var e,i,o,u=t.length-1,a={},l=0;l<=u;l++)(e=t[l]).e&&(e.e=n(e.e)),e.v&&"g"===(i=e.v).t&&i.r&&(o=r.getElementById(i.r))&&(a[i.r]=o.querySelectorAll("stop"));return a}(t,e,a),function(e){var i,o=r(e,t,jt);return o?"c"===o.t?V(o.v):"g"===o.t?(n[o.r]&&function(t,n){for(var r=0,e=t.length;r<e;r++)t[r].setAttribute("stop-color",V(n[r]))}(n[o.r],o.v),(i=o.r)?"url(#"+i+")":"none"):"none":"none"}}function jt(t,n,r){if(0===t)return n;if(1===t)return r;if(n&&r){var e=n.t;if(e===r.t)switch(n.t){case"c":return{t:e,v:_(t,n.v,r.v)};case"g":if(n.r===r.r)return{t:e,v:S(t,n.v,r.v),r:n.r}}}return b(t,n,r)}var Pt={fill:Mt,"fill-opacity":Ot,stroke:Mt,"stroke-opacity":Ot,"stroke-width":St,"stroke-dashoffset":{f:Q,i:w},"stroke-dasharray":{f:function(t){var n=arguments.length>1&&void 0!==arguments[1]?arguments[1]:" ";return t&&t.length>0&&(t=t.map((function(t){return s(t,4)}))),U(t,n)},i:function(t,n,r){var e,i,o,u=n.length,a=r.length;if(u!==a)if(0===u)n=O(u=a,0);else if(0===a)a=u,r=O(u,0);else{var l=(o=(e=u)*(i=a)/function(t,n){for(var r;n;)r=n,n=t%n,t=r;return t||1}(e,i))<0?-o:o;n=M(n,Math.floor(l/u)),r=M(r,Math.floor(l/a)),u=a=l}for(var f=[],c=0;c<u;c++)f.push(s(x(t,n[c],r[c])));return f}},opacity:Ot,transform:function(n,r,e,i){if(!(n=function(n,r){if(!n||"object"!==t(n))return null;var e=!1;for(var i in n)n.hasOwnProperty(i)&&(n[i]&&n[i].length?(n[i].forEach((function(t){t.e&&(t.e=r(t.e))})),e=!0):delete n[i]);return e?n:null}(n,i)))return null;var o=function(t,i,o){var u=arguments.length>3&&void 0!==arguments[3]?arguments[3]:null;return n[t]?e(i,n[t],o):r&&r[t]?r[t]:u};return r&&r.a&&n.o?function(t){var r=e(t,n.o,xt);return _t.recomposeSelf(r,o("r",t,w,0)+r.a,o("k",t,k),o("s",t,k),o("t",t,k)).toString()}:function(t){return _t.recomposeSelf(o("o",t,wt,null),o("r",t,w,0),o("k",t,k),o("s",t,k),o("t",t,k)).toString()}},r:St,"#size":H,"#radius":G,_:function(t,n){if(Array.isArray(t))for(var r=0;r<t.length;r++)this[t[r]]=n;else this[t]=n}};return function(t){!function(t,n){if("function"!=typeof n&&null!==n)throw new TypeError("Super expression must either be null or a function");t.prototype=Object.create(n&&n.prototype,{constructor:{value:t,writable:!0,configurable:!0}}),n&&o(t,n)}(u,t);var r=a(u);function u(){return n(this,u),r.apply(this,arguments)}return e(u,null,[{key:"build",value:function(t){var n=l(i(u),"build",this).call(this,t,Pt);if(!n)return null;n.el,n.options;var r=n.player;return function(t,n,r){t.play()}(r),r}}]),u}(D)}));
__SVGATOR_PLAYER__.build({"root":"eQN1vDhnfC41","animations":[{"duration":5000,"direction":1,"iterations":0,"fill":1,"alternate":false,"speed":1,"elements":{"eQN1vDhnfC414":{"transform":{"data":{"s":{"x":1.245282,"y":1.245282}},"keys":{"o":[{"t":0,"v":{"x":89.2085,"y":179.500001,"type":"corner"}},{"t":1000,"v":{"x":89.290861,"y":263.792111,"type":"corner"}},{"t":2500,"v":{"x":23.568593,"y":263.766,"type":"corner"}},{"t":3500,"v":{"x":23.568593,"y":329.137,"type":"corner"}},{"t":5000,"v":{"x":201.0455,"y":329.137,"type":"corner"}}]}}},"eQN1vDhnfC439":{"transform":{"data":{"t":{"x":-543.309509,"y":-261.532494}},"keys":{"o":[{"t":0,"v":{"x":543.309509,"y":261.532494,"type":"corner"}},{"t":2500,"v":{"x":553.582054,"y":251.259966,"type":"corner"}},{"t":5000,"v":{"x":543.327025,"y":261.515024,"type":"corner"}}]}}},"eQN1vDhnfC446":{"transform":{"data":{"s":{"x":0.761953,"y":0.761953}},"keys":{"o":[{"t":2000,"v":{"x":401.386079,"y":130.577,"type":"corner"}},{"t":3000,"v":{"x":401.386079,"y":215.094523,"type":"corner"}},{"t":4000,"v":{"x":546.985922,"y":215.094523,"type":"corner"}},{"t":5000,"v":{"x":546.985929,"y":42.572836,"type":"corner"}}]}}},"eQN1vDhnfC448":{"transform":{"keys":{"o":[{"t":0,"v":{"x":602.900501,"y":268.045625,"type":"corner"}},{"t":700,"v":{"x":602.900501,"y":318.671,"type":"corner"}},{"t":1800,"v":{"x":480.434,"y":318.671,"type":"corner"}},{"t":3500,"v":{"x":480.434,"y":130.462501,"type":"corner"}},{"t":5000,"v":{"x":253.757375,"y":130.462501,"type":"corner"}}]}}},"eQN1vDhnfC464":{"transform":{"data":{"t":{"x":-426.995498,"y":-68.049251}},"keys":{"o":[{"t":0,"v":{"x":426.995499,"y":68.049252,"type":"corner"}},{"t":2000,"v":{"x":406.157582,"y":68.049252,"type":"corner"}},{"t":3500,"v":{"x":436.347046,"y":68.049252,"type":"corner"}},{"t":5000,"v":{"x":426.851029,"y":68.049256,"type":"corner"}}]}}},"eQN1vDhnfC467":{"transform":{"data":{"t":{"x":-474.160995,"y":-68.049252}},"keys":{"o":[{"t":0,"v":{"x":474.160995,"y":68.049252,"type":"corner"}},{"t":1500,"v":{"x":459.135413,"y":68.049252,"type":"corner"}},{"t":2500,"v":{"x":481.385995,"y":68.049252,"type":"corner"}},{"t":5000,"v":{"x":474.376148,"y":68.049252,"type":"corner"}}]}}},"eQN1vDhnfC470":{"transform":{"data":{"t":{"x":-313.725494,"y":-164.725502}},"keys":{"o":[{"t":0,"v":{"x":313.725494,"y":164.725502,"type":"corner"}},{"t":2000,"v":{"x":313.725495,"y":182.895502,"type":"corner"}},{"t":3500,"v":{"x":313.725495,"y":159.089502,"type":"corner"}},{"t":5000,"v":{"x":313.725495,"y":164.702637,"type":"corner"}}]}}},"eQN1vDhnfC485":{"transform":{"data":{"o":{"x":60.261448,"y":237.379501,"type":"corner"},"t":{"x":-60.261448,"y":-237.379501}},"keys":{"r":[{"t":0,"v":0},{"t":1500,"v":180},{"t":3500,"v":-180.35581},{"t":5000,"v":0.259185}]}}}}}],"options":{"start":"load","hover":null,"click":null,"scroll":null,"font":"embed","exportedIds":"unique","svgFormat":"animated","title":"Frame 9"},"animationSettings":{"duration":5000,"direction":1,"iterations":0,"fill":1,"alternate":false,"speed":1}})]]></script></svg>