<svg id="e3CwSqRpy5m1" xmlns="http://www.w3.org/2000/svg" xmlns:xlink="http://www.w3.org/1999/xlink" viewBox="0 0 628 349" shape-rendering="geometricPrecision" text-rendering="geometricPrecision"><g id="e3CwSqRpy5m2"><path id="e3CwSqRpy5m3" d="M252.5,246L192.5,246" fill="none" stroke="rgb(0,0,0)" stroke-width="1.5" stroke-miterlimit="1"/><g id="e3CwSqRpy5m4"><path id="e3CwSqRpy5m5" d="M454.121,315C449.782,315,329.88,315,329.88,315C329.88,315,329.88,315,329.88,315C325.54,315,322,312.208,322,308.786L322,109.214C322,105.792,325.54,103,329.88,103L454.121,103C458.461,103,462,105.792,462,109.214C462,109.214,462,109.214,462,109.214C462,109.214,462,305.364,462,308.786C462,312.208,458.461,315,454.121,315Z" fill="rgb(249,249,249)" stroke="none" stroke-width="1" stroke-miterlimit="1"/><path id="e3CwSqRpy5m6" d="M315.5,185.884L247.003,185.884L179.305,185.77C177.596,185.77,176.114,185.086,174.974,183.946C173.835,182.807,173.151,181.211,173.151,179.501L173.492,100.52C173.492,100.064,173.835,99.7224,174.29,99.7224C174.746,99.7224,175.088,100.064,175.088,100.52L174.746,179.501C174.746,180.755,175.202,181.895,176.114,182.807C177.026,183.718,178.165,184.174,179.419,184.174L247.118,184.288L315.613,184.288C317.437,184.288,318.919,182.807,318.919,180.983L318.919,12.627C318.919,12.1711,319.26,11.8292,319.717,11.8292C320.172,11.8292,320.514,12.1711,320.514,12.627L320.514,181.097C320.401,183.718,318.121,185.884,315.5,185.884Z" fill="rgb(40,176,76)" stroke="none" stroke-width="1" stroke-miterlimit="1"/><path id="e3CwSqRpy5m7" d="M253.386,245.831L251.79,245.831L251.904,116.703L251.676,103.939C251.676,102.342,250.195,101.089,248.371,101.089L26.1287,101.089L26.1287,99.4939L248.257,99.4939C250.879,99.4939,253.044,101.431,253.158,103.939L253.386,116.703L253.386,245.831Z" fill="rgb(38,50,56)" stroke="none" stroke-width="1" stroke-miterlimit="1"/><path id="e3CwSqRpy5m8" d="M440.638,91.9728L418.528,91.9728C415.223,91.9728,412.601,89.3514,412.601,86.0463L412.601,63.9361C412.601,60.6309,415.223,58.0095,418.528,58.0095L440.638,58.0095C443.944,58.0095,446.565,60.6309,446.565,63.9361L446.565,86.0463C446.565,89.2375,443.829,91.9728,440.638,91.9728ZM418.528,59.0353C415.793,59.0353,413.628,61.2008,413.628,63.9361L413.628,86.0463C413.628,88.7816,415.793,90.947,418.528,90.947L440.638,90.947C443.374,90.947,445.539,88.7816,445.539,86.0463L445.539,63.9361C445.539,61.2008,443.374,59.0353,440.638,59.0353L418.528,59.0353Z" fill="rgb(210,238,225)" stroke="none" stroke-width="1" stroke-miterlimit="1"/><path id="e3CwSqRpy5m9" d="M472.324,214.263L418.529,214.263C415.566,214.263,413.059,211.87,413.059,208.793L413.059,190.215C413.059,187.252,415.452,184.744,418.529,184.744L472.324,184.744C475.287,184.744,477.795,187.138,477.795,190.215L477.795,208.793C477.795,211.87,475.401,214.263,472.324,214.263Z" fill="rgb(212,240,226)" stroke="none" stroke-width="1" stroke-miterlimit="1"/><path id="e3CwSqRpy5m10" d="M439.34,167.199L417.116,167.199C414.836,167.199,413.012,165.375,413.012,163.095L413.012,140.871C413.012,138.592,414.836,136.769,417.116,136.769L439.34,136.769C441.619,136.769,443.443,138.592,443.443,140.871L443.443,163.095C443.443,165.261,441.619,167.199,439.34,167.199ZM417.116,137.794C415.406,137.794,414.039,139.162,414.039,140.871L414.039,163.095C414.039,164.806,415.406,166.173,417.116,166.173L439.34,166.173C441.049,166.173,442.417,164.806,442.417,163.095L442.417,140.871C442.417,139.162,441.049,137.794,439.34,137.794L417.116,137.794Z" fill="rgb(40,176,76)" stroke="none" stroke-width="1" stroke-miterlimit="1"/><ellipse id="e3CwSqRpy5m11" rx="4.46935" ry="4.46935" transform="matrix(0.918854 0 0 0.918854 604.967017 189.470636)" fill="rgb(39,50,57)" stroke="none" stroke-width="0" stroke-miterlimit="1"/><path id="e3CwSqRpy5m12" d="M404.168,251.873L346.726,251.873C344.676,251.873,343.08,250.278,343.08,248.226L343.08,188.164C343.08,186.112,344.676,184.517,346.726,184.517L404.168,184.517C406.219,184.517,407.815,186.112,407.815,188.164L407.815,248.226C407.815,250.278,406.219,251.873,404.168,251.873Z" fill="rgb(212,240,226)" stroke="none" stroke-width="1" stroke-miterlimit="1"/><path id="e3CwSqRpy5m13" d="M436,69.5C436,73.0798,433.08,76,429.5,76C425.92,76,423,73.0798,423,69.5C423,65.9202,425.92,63,429.5,63C433.08,63,436,65.9202,436,69.5Z" fill="rgb(210,238,225)" stroke="none" stroke-width="1" stroke-miterlimit="1"/><path id="e3CwSqRpy5m14" d="M434.928,78L423.073,78C419.699,78,417,80.7317,417,84.1464C417,85.2195,417.867,86,418.831,86L441,86L441,84.1464C441,80.7317,438.301,78,434.928,78Z" fill="rgb(210,238,225)" stroke="none" stroke-width="1" stroke-miterlimit="1"/><g id="e3CwSqRpy5m15" transform="matrix(1 0 0 1 0.000001 16.127502)"><path id="e3CwSqRpy5m16" d="M521.558,211.527L505.716,211.527C502.753,211.527,500.245,209.134,500.245,206.057L500.245,190.215C500.245,187.252,502.639,184.744,505.716,184.744L521.558,184.744C524.521,184.744,527.029,187.138,527.029,190.215L527.029,206.057C527.029,209.134,524.521,211.527,521.558,211.527Z" fill="rgb(212,240,226)" stroke="none" stroke-width="1" stroke-miterlimit="1"/><path id="e3CwSqRpy5m17" d="M518,194.5C518,196.983,515.983,199,513.5,199C511.018,199,509,196.983,509,194.5C509,192.017,511.018,190,513.5,190C515.983,190,518,192.017,518,194.5Z" fill="rgb(255,255,255)" stroke="none" stroke-width="1" stroke-miterlimit="1"/><path id="e3CwSqRpy5m18" d="M522,207L522,206.127C522,203.826,520.111,202,517.729,202L509.271,202C506.889,202,505,203.826,505,206.127L505,207" fill="rgb(255,255,255)" stroke="none" stroke-width="1" stroke-miterlimit="1"/></g><path id="e3CwSqRpy5m19" d="M252.5,245L252.5,286.5C252.5,287.605,253.395,288.5,254.5,288.5L373,288.5C374.105,288.5,375,287.605,375,286.5L375,237.5" fill="none" stroke="rgb(0,0,0)" stroke-width="1.5" stroke-miterlimit="1"/><path id="e3CwSqRpy5m20" d="M532.386,311.5L532.386,265.777L533.982,265.777L533.982,311.5L532.386,311.5ZM600.996,262.357L537.172,262.357L537.172,260.762L600.996,260.762L600.996,262.357ZM605.783,257.229L604.187,257.229L604.187,193.177L605.783,193.177L605.783,257.229Z" fill="rgb(38,50,56)" stroke="none" stroke-width="1" stroke-miterlimit="1"/><ellipse id="e3CwSqRpy5m21" rx="3.628561" ry="3.628561" transform="matrix(1.134108 0 0 1.134108 533.1645 315.61518)" fill="rgb(255,255,255)" stroke="none" stroke-width="0" stroke-miterlimit="1"/><ellipse id="e3CwSqRpy5m22" rx="3.628561" ry="3.628561" transform="matrix(1.134108 0 0 1.134108 533.1645 261.34682)" fill="rgb(255,255,255)" stroke="none" stroke-width="0" stroke-miterlimit="1"/><ellipse id="e3CwSqRpy5m23" rx="3.628561" ry="3.628561" transform="matrix(1.134108 0 0 1.134108 605.445136 261.34682)" fill="rgb(255,255,255)" stroke="none" stroke-width="0" stroke-miterlimit="1"/><ellipse id="e3CwSqRpy5m24" rx="3.628561" ry="3.628561" transform="matrix(1.134108 0 0 1.134108 605.445136 189.470636)" fill="rgb(255,255,255)" stroke="none" stroke-width="0" stroke-miterlimit="1"/><path id="e3CwSqRpy5m25" d="M604.985,266.462C602.25,266.462,599.97,264.183,599.97,261.447C599.97,258.712,602.25,256.432,604.985,256.432C607.721,256.432,610,258.712,610,261.447C610,264.296,607.834,266.462,604.985,266.462ZM604.985,258.028C603.048,258.028,601.452,259.624,601.452,261.561C601.452,263.499,603.048,265.094,604.985,265.094C606.923,265.094,608.518,263.499,608.518,261.561C608.518,259.51,606.923,258.028,604.985,258.028ZM532.728,266.462C529.993,266.462,527.713,264.183,527.713,261.447C527.713,258.712,529.993,256.432,532.728,256.432C535.463,256.432,537.742,258.712,537.742,261.447C537.742,264.296,535.463,266.462,532.728,266.462ZM532.728,258.028C530.791,258.028,529.195,259.624,529.195,261.561C529.195,263.499,530.791,265.094,532.728,265.094C534.665,265.094,536.261,263.499,536.261,261.561C536.147,259.51,534.552,258.028,532.728,258.028ZM604.985,194.433C602.25,194.433,599.97,192.154,599.97,189.418C599.97,186.682,602.25,184.403,604.985,184.403C607.721,184.403,610,186.682,610,189.418C610,192.154,607.834,194.433,604.985,194.433ZM604.985,185.885C603.048,185.885,601.452,187.48,601.452,189.418C601.452,191.355,603.048,192.951,604.985,192.951C606.923,192.951,608.518,191.355,608.518,189.418C608.518,187.48,606.923,185.885,604.985,185.885Z" transform="matrix(1 0 0 1 0.228 0)" fill="rgb(41,178,112)" stroke="none" stroke-width="1" stroke-miterlimit="1"/><path id="e3CwSqRpy5m26" d="M533.165,320.464C530.43,320.464,528.264,318.299,528.264,315.564C528.264,312.829,530.43,310.663,533.165,310.663C535.9,310.663,538.065,312.829,538.065,315.564C538.065,318.185,535.9,320.464,533.165,320.464ZM533.165,312.145C531.341,312.145,529.746,313.626,529.746,315.564C529.746,317.501,531.227,318.983,533.165,318.983C534.988,318.983,536.584,317.501,536.584,315.564C536.584,313.626,534.988,312.145,533.165,312.145Z" fill="rgb(41,178,112)" stroke="none" stroke-width="1" stroke-miterlimit="1"/><path id="e3CwSqRpy5m27" d="M531.018,144.742L484.063,144.742C481.1,144.742,478.592,142.348,478.592,139.271L478.592,92.3148C478.592,89.3516,480.985,86.8442,484.063,86.8442L531.018,86.8442C533.981,86.8442,536.488,89.2376,536.488,92.3148L536.488,139.384C536.488,142.234,534.095,144.742,531.018,144.742Z" fill="rgb(40,176,76)" stroke="none" stroke-width="1" stroke-miterlimit="1"/><path id="e3CwSqRpy5m28" d="M540.593,135.396L493.637,135.396C490.674,135.396,488.167,133.003,488.167,129.925L488.167,82.8552C488.167,79.892,490.56,77.3846,493.637,77.3846L540.593,77.3846C543.557,77.3846,546.064,79.7781,546.064,82.8552L546.064,129.925C546.064,132.888,543.557,135.396,540.593,135.396Z" fill="rgb(212,240,226)" stroke="none" stroke-width="1" stroke-miterlimit="1"/><ellipse id="e3CwSqRpy5m29" rx="3.997752" ry="3.997752" transform="matrix(1.074197 0 0 1.074197 25.672338 100.268579)" fill="rgb(41,177,76)" stroke="none" stroke-width="0" stroke-miterlimit="1"/><path id="e3CwSqRpy5m30" d="M500.587,123.427C500.474,123.427,500.36,123.427,500.245,123.314C500.017,123.086,500.017,122.743,500.245,122.63L532.043,90.8319L511.3,90.8319C511.073,90.8319,510.731,90.604,510.731,90.2621C510.731,89.9202,510.959,89.6923,511.3,89.6923L533.753,89.6923L533.753,112.144C533.753,112.372,533.524,112.715,533.183,112.715C532.955,112.715,532.613,112.486,532.613,112.144L532.613,91.5157L500.815,123.314C500.929,123.427,500.701,123.427,500.587,123.427Z" fill="rgb(41,178,112)" stroke="none" stroke-width="1" stroke-miterlimit="1"/><path id="e3CwSqRpy5m31" d="M550.508,72.4825L541.39,72.4825C540.934,72.4825,540.479,72.9384,540.479,73.3943L540.479,82.5119C540.479,82.9678,540.934,83.4237,541.39,83.4237L550.508,83.4237C550.964,83.4237,551.42,82.9678,551.42,82.5119L551.42,73.3943C551.305,72.8245,550.964,72.4825,550.508,72.4825Z" fill="rgb(189,230,210)" stroke="none" stroke-width="1" stroke-miterlimit="1"/><path id="e3CwSqRpy5m32" d="M550.509,83.88L541.392,83.88C540.594,83.88,540.024,83.1961,540.024,82.5123L540.024,73.3947C540.024,72.5969,540.708,72.027,541.392,72.027L550.509,72.027C551.307,72.027,551.877,72.7109,551.877,73.3947L551.877,82.5123C551.877,83.1961,551.193,83.88,550.509,83.88ZM541.392,72.9388C541.164,72.9388,541.05,73.0527,541.05,73.2807L541.05,82.3984C541.05,82.6263,541.164,82.7402,541.392,82.7402L550.509,82.7402C550.737,82.7402,550.851,82.6263,550.851,82.3984L550.851,73.2807C550.851,73.0527,550.737,72.9388,550.509,72.9388L541.392,72.9388Z" fill="rgb(41,178,112)" stroke="none" stroke-width="1" stroke-miterlimit="1"/><path id="e3CwSqRpy5m33" d="M481.556,140.979L475.972,140.979C475.515,140.979,475.059,141.321,475.059,141.891L475.059,147.476C475.059,147.931,475.402,148.387,475.972,148.387L481.556,148.387C482.012,148.387,482.467,148.046,482.467,147.476L482.467,141.777C482.353,141.321,482.012,140.979,481.556,140.979Z" fill="rgb(40,176,76)" stroke="none" stroke-width="1" stroke-miterlimit="1"/><path id="e3CwSqRpy5m34" d="M481.556,148.843L475.971,148.843C475.173,148.843,474.604,148.159,474.604,147.475L474.604,141.777C474.604,140.979,475.287,140.409,475.971,140.409L481.556,140.409C482.354,140.409,482.924,141.093,482.924,141.777L482.924,147.362C482.924,148.159,482.24,148.843,481.556,148.843ZM475.857,141.435C475.629,141.435,475.516,141.549,475.516,141.777L475.516,147.362C475.516,147.589,475.629,147.703,475.857,147.703L481.442,147.703C481.67,147.703,481.783,147.589,481.783,147.362L481.783,141.777C481.783,141.549,481.67,141.435,481.442,141.435L475.857,141.435Z" fill="rgb(255,255,255)" stroke="none" stroke-width="1" stroke-miterlimit="1"/><path id="e3CwSqRpy5m35" d="M428.103,162.976C427.875,162.976,427.533,162.747,427.533,162.405L427.533,152.718L417.845,152.718C417.618,152.718,417.275,152.49,417.275,152.148C417.275,151.92,417.504,151.578,417.845,151.578L427.533,151.578L427.533,141.891C427.533,141.663,427.761,141.321,428.103,141.321C428.331,141.321,428.673,141.549,428.673,141.891L428.673,151.578L438.702,151.578C438.93,151.578,439.272,151.806,439.272,152.148C439.272,152.376,439.044,152.718,438.702,152.718L428.673,152.718L428.673,162.405C428.673,162.747,428.444,162.976,428.103,162.976Z" fill="rgb(40,176,76)" stroke="none" stroke-width="1" stroke-miterlimit="1"/><g id="e3CwSqRpy5m36"><path id="e3CwSqRpy5m37" d="M394.368,241.615C394.141,241.615,393.912,241.501,393.912,241.273C393.798,241.045,394.026,240.703,394.254,240.589L400.865,238.879L398.927,231.7C398.813,231.471,399.041,231.13,399.268,231.016C399.497,230.902,399.839,231.13,399.952,231.357L402.004,238.993C402.118,239.222,401.89,239.563,401.662,239.677L394.596,241.615C394.482,241.615,394.368,241.615,394.368,241.615ZM370.206,200.13C370.092,200.13,369.979,200.13,369.865,200.016C369.636,199.787,369.636,199.446,369.865,199.332L375.449,193.747C375.677,193.519,376.019,193.519,376.133,193.747L381.375,198.99C381.604,199.218,381.604,199.56,381.375,199.674C381.148,199.902,380.805,199.902,380.691,199.674L375.905,194.887L370.662,200.13C370.434,200.016,370.32,200.13,370.206,200.13Z" fill="rgb(255,255,255)" stroke="none" stroke-width="1" stroke-miterlimit="1"/><ellipse id="e3CwSqRpy5m38" rx="5.0555" ry="5.0555" transform="matrix(0.857096 0 0 0.857096 174.24052 100.727685)" fill="rgb(39,50,57)" stroke="none" stroke-width="0" stroke-miterlimit="1"/><path id="e3CwSqRpy5m39" d="M376.016,194.432L374.991,194.432L374.991,227.027L376.016,227.027L376.016,194.432Z" fill="rgb(255,255,255)" stroke="none" stroke-width="1" stroke-miterlimit="1"/><path id="e3CwSqRpy5m40" d="M356.188,241.615L356.074,241.615L349.122,239.792C348.894,239.678,348.666,239.45,348.78,239.108L350.831,231.586C350.945,231.358,351.173,231.13,351.515,231.244C351.743,231.358,351.971,231.586,351.857,231.928L350.034,238.994L356.53,240.703C356.758,240.817,356.986,241.045,356.872,241.387C356.644,241.501,356.415,241.615,356.188,241.615Z" fill="rgb(255,255,255)" stroke="none" stroke-width="1" stroke-miterlimit="1"/><path id="e3CwSqRpy5m41" d="M400.636,239.563L375.106,224.861L349.578,239.563L349.121,238.652L374.879,223.835L375.106,224.291L375.335,223.835L401.092,238.652L400.636,239.563Z" fill="rgb(255,255,255)" stroke="none" stroke-width="1" stroke-miterlimit="1"/><path id="e3CwSqRpy5m42" d="M375.337,224.52L375.337,240.932L389.24,232.726L389.24,216.2L375.337,224.52Z" fill="rgb(40,176,76)" stroke="none" stroke-width="1" stroke-miterlimit="1"/><path id="e3CwSqRpy5m43" d="M375.219,224.519L361.316,216.086L375.334,207.994L389.353,216.314L375.219,224.519Z" fill="rgb(127,209,169)" stroke="none" stroke-width="1" stroke-miterlimit="1"/><path id="e3CwSqRpy5m44" d="M375.334,240.932L361.316,232.726L361.316,216.2L375.334,224.52L375.334,240.932Z" fill="rgb(239,255,248)" stroke="none" stroke-width="1" stroke-miterlimit="1"/></g><g id="e3CwSqRpy5m45"><path id="e3CwSqRpy5m46" d="M25.7876,96.4177C23.6222,96.4177,21.7986,98.2409,21.7986,100.406C21.7986,102.572,23.6222,104.396,25.7876,104.396C27.953,104.396,29.7766,102.572,29.7766,100.406C29.7766,98.2409,27.953,96.4177,25.7876,96.4177Z" fill="rgb(255,255,255)" stroke="none" stroke-width="1" stroke-miterlimit="1"/><path id="e3CwSqRpy5m47" d="M25.7868,105.193C23.1654,105.193,21,103.027,21,100.406C21,97.7846,23.1654,95.6191,25.7868,95.6191C28.4081,95.6191,30.5735,97.7846,30.5735,100.406C30.4596,103.027,28.4081,105.193,25.7868,105.193ZM25.7868,97.2146C24.0772,97.2146,22.5956,98.6962,22.5956,100.406C22.5956,102.115,24.0772,103.596,25.7868,103.596C27.4963,103.596,28.9779,102.115,28.9779,100.406C28.9779,98.5824,27.4963,97.2146,25.7868,97.2146Z" fill="rgb(38,50,56)" stroke="none" stroke-width="1" stroke-miterlimit="1"/></g><g id="e3CwSqRpy5m48"><path id="e3CwSqRpy5m49" d="M167.909,96.1875L167.909,104.166C167.909,104.85,168.479,105.533,169.277,105.533L177.255,105.533C177.938,105.533,178.622,104.963,178.622,104.166L178.622,96.1875C178.622,95.5041,178.053,94.8202,177.255,94.8202L169.277,94.8202C168.593,94.8202,167.909,95.3901,167.909,96.1875Z" fill="rgb(255,255,255)" stroke="none" stroke-width="1" stroke-miterlimit="1"/><path id="e3CwSqRpy5m50" d="M177.253,106.332L169.275,106.332C168.136,106.332,167.224,105.42,167.224,104.28L167.224,96.3029C167.224,95.1629,168.136,94.2511,169.275,94.2511L177.253,94.2511C178.393,94.2511,179.305,95.1629,179.305,96.3029L179.305,104.28C179.419,105.306,178.393,106.332,177.253,106.332ZM169.275,95.619C168.934,95.619,168.706,95.8467,168.706,96.1882L168.706,104.166C168.706,104.509,168.934,104.736,169.275,104.736L177.253,104.736C177.596,104.736,177.823,104.509,177.823,104.166L177.823,96.1882C177.823,95.8467,177.596,95.619,177.253,95.619L169.275,95.619Z" fill="rgb(38,50,56)" stroke="none" stroke-width="1" stroke-miterlimit="1"/></g><g id="e3CwSqRpy5m51" transform="matrix(1 0 0 1 0.000001 0)"><path id="e3CwSqRpy5m52" d="M256.577,245.377C256.577,247.657,254.753,249.594,252.359,249.594C250.08,249.594,248.142,247.771,248.142,245.377C248.142,243.097,249.966,241.16,252.359,241.16C254.753,241.274,256.577,243.097,256.577,245.377Z" fill="rgb(255,255,255)" stroke="none" stroke-width="1" stroke-miterlimit="1"/><path id="e3CwSqRpy5m53" d="M252.473,250.391C249.739,250.391,247.573,248.226,247.573,245.491C247.573,242.755,249.739,240.59,252.473,240.59C255.209,240.59,257.374,242.755,257.374,245.491C257.374,248.112,255.209,250.391,252.473,250.391ZM252.473,242.071C250.65,242.071,249.055,243.553,249.055,245.491C249.055,247.428,250.536,248.91,252.473,248.91C254.297,248.91,255.893,247.428,255.893,245.491C255.893,243.553,254.297,242.071,252.473,242.071Z" fill="rgb(38,50,56)" stroke="none" stroke-width="1" stroke-miterlimit="1"/></g><g id="e3CwSqRpy5m54"><path id="e3CwSqRpy5m55" d="M404.169,166.736L288.717,166.736C286.666,166.736,285.07,165.141,285.07,163.089L285.07,140.751C285.07,138.7,286.666,137.104,288.717,137.104L404.056,137.104C406.106,137.104,407.703,138.7,407.703,140.751L407.703,163.089C407.703,165.141,406.106,166.736,404.169,166.736Z" fill="rgb(255,255,255)" stroke="none" stroke-width="1" stroke-miterlimit="1"/><path id="e3CwSqRpy5m56" d="M320.627,166.736L285.069,166.736C283.017,166.736,281.422,165.141,281.422,163.089L281.422,140.751C281.422,138.7,283.017,137.104,285.069,137.104L320.627,137.104L320.627,166.736Z" fill="rgb(212,240,226)" stroke="none" stroke-width="1" stroke-miterlimit="1"/></g><g id="e3CwSqRpy5m57"><path id="e3CwSqRpy5m58" d="M323.934,16.8832C323.934,19.1626,322.11,21.1001,319.717,21.1001C317.324,21.1001,315.5,19.2765,315.5,16.8832C315.5,14.6038,317.324,12.6663,319.717,12.6663C322.11,12.6663,323.934,14.4898,323.934,16.8832Z" fill="rgb(255,255,255)" stroke="none" stroke-width="1" stroke-miterlimit="1"/><path id="e3CwSqRpy5m59" d="M319.831,21.6306C317.096,21.6306,314.93,19.4652,314.93,16.7299C314.93,13.9947,317.096,11.8292,319.831,11.8292C322.566,11.8292,324.732,13.9947,324.732,16.7299C324.732,19.3513,322.566,21.6306,319.831,21.6306ZM319.831,13.3108C318.007,13.3108,316.412,14.7925,316.412,16.7299C316.412,18.6674,317.894,20.1491,319.831,20.1491C321.768,20.1491,323.25,18.6674,323.25,16.7299C323.25,14.7925,321.654,13.3108,319.831,13.3108Z" fill="rgb(40,176,76)" stroke="none" stroke-width="1" stroke-miterlimit="1"/></g></g><ellipse id="e3CwSqRpy5m60" rx="70" ry="11" transform="matrix(1 0 0 1 392 107)" fill="rgb(240,240,240)" stroke="none" stroke-width="1" stroke-miterlimit="1"/><ellipse id="e3CwSqRpy5m61" rx="70" ry="11" transform="matrix(1 0 0 1 392 311)" fill="rgb(255,255,255)" stroke="none" stroke-width="1" stroke-miterlimit="1"/><g id="e3CwSqRpy5m62"><rect id="e3CwSqRpy5m63" width="73" height="74" rx="0" ry="0" transform="matrix(1 0 0 1 119.5 207.5)" fill="none" stroke="rgb(0,0,0)" stroke-width="1" stroke-miterlimit="1"/><rect id="e3CwSqRpy5m64" width="36" height="30" rx="0" ry="0" transform="matrix(1 0 0 1 126.5 226.5)" fill="none" stroke="rgb(0,0,0)" stroke-width="1" stroke-miterlimit="1"/><rect id="e3CwSqRpy5m65" width="38" height="19" rx="0" ry="0" transform="matrix(1 0 0 1 149 251)" fill="rgb(127,209,169)" stroke="none" stroke-width="1" stroke-miterlimit="1"/><circle id="e3CwSqRpy5m66" r="2" transform="matrix(1 0 0 1 124.5 213.5)" fill="none" stroke="rgb(0,0,0)" stroke-width="1" stroke-miterlimit="1"/><circle id="e3CwSqRpy5m67" r="2" transform="matrix(1 0 0 1 130.5 213.5)" fill="none" stroke="rgb(0,0,0)" stroke-width="1" stroke-miterlimit="1"/><circle id="e3CwSqRpy5m68" r="2" transform="matrix(1 0 0 1 136.5 213.5)" fill="none" stroke="rgb(0,0,0)" stroke-width="1" stroke-miterlimit="1"/><path id="e3CwSqRpy5m69" d="M119.5,220.5L192.5,220.5" fill="none" stroke="rgb(0,0,0)" stroke-width="1" stroke-miterlimit="1"/></g><circle id="e3CwSqRpy5m70" r="9" transform="matrix(1 0 0 1 128 278)" fill="rgb(255,255,255)" stroke="none" stroke-width="1" stroke-miterlimit="1"/><path id="e3CwSqRpy5m71" d="M139.84,280.658L139.764,280.658L139.734,280.728L138.428,283.839L138.399,283.91L138.453,283.964L141.031,286.535C141.238,286.74,141.245,287.093,141.028,287.34L137.35,291.006C137.144,291.212,136.791,291.22,136.543,291.004L134.001,288.47L133.947,288.416L133.877,288.445L130.773,289.713L130.702,289.742L130.702,289.819L130.702,293.438C130.702,293.747,130.448,294,130.138,294L124.913,294C124.603,294,124.349,293.747,124.349,293.438L124.349,289.819L124.349,289.743L124.279,289.714L121.175,288.412L121.104,288.382L121.05,288.436L118.471,291.006C118.265,291.212,117.912,291.22,117.664,291.004L113.986,287.337C113.779,287.131,113.772,286.779,113.988,286.532L116.53,283.998L116.584,283.944L116.555,283.874L115.283,280.763L115.254,280.692L115.177,280.692L111.564,280.692C111.254,280.692,111,280.438,111,280.13L111,274.904C111,274.595,111.254,274.342,111.564,274.342L115.177,274.342L115.253,274.342L115.283,274.272L116.589,271.161L116.618,271.09L116.564,271.036L113.986,268.465C113.779,268.26,113.772,267.907,113.988,267.66L117.667,263.993C117.873,263.788,118.226,263.78,118.474,263.996L121.016,266.53L121.07,266.584L121.14,266.555L124.244,265.287L124.315,265.258L124.315,265.181L124.315,261.562C124.315,261.253,124.569,261,124.879,261L130.087,261C130.397,261,130.651,261.253,130.651,261.562L130.651,265.181L130.651,265.257L130.721,265.286L133.825,266.588L133.896,266.618L133.95,266.564L136.529,263.993C136.735,263.788,137.088,263.78,137.336,263.996L141.014,267.663C141.221,267.869,141.228,268.221,141.011,268.468L138.47,271.002L138.416,271.055L138.445,271.126L139.717,274.237L139.746,274.308L139.823,274.308L143.436,274.308C143.746,274.308,144,274.562,144,274.87L144,280.096C144,280.405,143.746,280.658,143.436,280.658L139.84,280.658ZM135.375,277.458L135.375,277.457C135.358,273.134,131.864,269.616,127.508,269.616C123.171,269.616,119.642,273.133,119.642,277.458C119.642,281.782,123.171,285.3,127.508,285.3C131.846,285.3,135.375,281.782,135.375,277.458Z" fill="rgb(255,255,255)" stroke="rgb(40,176,76)" stroke-width="1" stroke-miterlimit="1"/></g><script><![CDATA[!function(t,n){"object"==typeof exports&&"undefined"!=typeof module?module.exports=n():"function"==typeof define&&define.amd?define(n):(t="undefined"!=typeof globalThis?globalThis:t||self).__SVGATOR_PLAYER__=n()}(this,(function(){"use strict";function t(n){return(t="function"==typeof Symbol&&"symbol"==typeof Symbol.iterator?function(t){return typeof t}:function(t){return t&&"function"==typeof Symbol&&t.constructor===Symbol&&t!==Symbol.prototype?"symbol":typeof t})(n)}function n(t,n){if(!(t instanceof n))throw new TypeError("Cannot call a class as a function")}function r(t,n){for(var r=0;r<n.length;r++){var e=n[r];e.enumerable=e.enumerable||!1,e.configurable=!0,"value"in e&&(e.writable=!0),Object.defineProperty(t,e.key,e)}}function e(t,n,e){return n&&r(t.prototype,n),e&&r(t,e),t}function i(t){return(i=Object.setPrototypeOf?Object.getPrototypeOf:function(t){return t.__proto__||Object.getPrototypeOf(t)})(t)}function o(t,n){return(o=Object.setPrototypeOf||function(t,n){return t.__proto__=n,t})(t,n)}function u(t,n){return!n||"object"!=typeof n&&"function"!=typeof n?function(t){if(void 0===t)throw new ReferenceError("this hasn't been initialised - super() hasn't been called");return t}(t):n}function a(t){var n=function(){if("undefined"==typeof Reflect||!Reflect.construct)return!1;if(Reflect.construct.sham)return!1;if("function"==typeof Proxy)return!0;try{return Boolean.prototype.valueOf.call(Reflect.construct(Boolean,[],(function(){}))),!0}catch(t){return!1}}();return function(){var r,e=i(t);if(n){var o=i(this).constructor;r=Reflect.construct(e,arguments,o)}else r=e.apply(this,arguments);return u(this,r)}}function l(t,n,r){return(l="undefined"!=typeof Reflect&&Reflect.get?Reflect.get:function(t,n,r){var e=function(t,n){for(;!Object.prototype.hasOwnProperty.call(t,n)&&null!==(t=i(t)););return t}(t,n);if(e){var o=Object.getOwnPropertyDescriptor(e,n);return o.get?o.get.call(r):o.value}})(t,n,r||t)}var f=s(Math.pow(10,-6));function s(t){var n=arguments.length>1&&void 0!==arguments[1]?arguments[1]:6;if(Number.isInteger(t))return t;var r=Math.pow(10,n);return Math.round((+t+Number.EPSILON)*r)/r}function c(t,n){var r=arguments.length>2&&void 0!==arguments[2]?arguments[2]:f;return Math.abs(t-n)<r}var h=Math.PI/180;function v(t){return t}function y(t,n,r){var e=1-r;return 3*r*e*(t*e+n*r)+r*r*r}function d(){var t=arguments.length>0&&void 0!==arguments[0]?arguments[0]:0,n=arguments.length>1&&void 0!==arguments[1]?arguments[1]:0,r=arguments.length>2&&void 0!==arguments[2]?arguments[2]:1,e=arguments.length>3&&void 0!==arguments[3]?arguments[3]:1;return t<0||t>1||r<0||r>1?null:c(t,n)&&c(r,e)?v:function(i){if(i<=0)return t>0?i*n/t:0===n&&r>0?i*e/r:0;if(i>=1)return r<1?1+(i-1)*(e-1)/(r-1):1===r&&t<1?1+(i-1)*(n-1)/(t-1):1;for(var o,u=0,a=1;u<a;){var l=y(t,r,o=(u+a)/2);if(c(i,l))break;l<i?u=o:a=o}return y(n,e,o)}}function g(){return 1}function p(t){return 1===t?1:0}function m(){var t=arguments.length>0&&void 0!==arguments[0]?arguments[0]:1,n=arguments.length>1&&void 0!==arguments[1]?arguments[1]:0;if(1===t){if(0===n)return p;if(1===n)return g}var r=1/t;return function(t){return t>=1?1:(t+=n*r)-t%r}}function b(t,n,r){return t>=.5?r:n}function w(t,n,r){return 0===t||n===r?n:t*(r-n)+n}function x(t,n,r){var e=w(t,n,r);return e<=0?0:e}function k(t,n,r){return 0===t?n:1===t?r:{x:w(t,n.x,r.x),y:w(t,n.y,r.y)}}function A(t,n,r){var e=function(t,n,r){return Math.round(w(t,n,r))}(t,n,r);return e<=0?0:e>=255?255:e}function _(t,n,r){return 0===t?n:1===t?r:{r:A(t,n.r,r.r),g:A(t,n.g,r.g),b:A(t,n.b,r.b),a:w(t,null==n.a?1:n.a,null==r.a?1:r.a)}}function S(t,n,r){if(0===t)return n;if(1===t)return r;var e=n.length;if(e!==r.length)return b(t,n,r);for(var i=[],o=0;o<e;o++)i.push(_(t,n[o],r[o]));return i}function O(t,n){for(var r=[],e=0;e<t;e++)r.push(n);return r}function M(t,n){if(--n<=0)return t;var r=(t=Object.assign([],t)).length;do{for(var e=0;e<r;e++)t.push(t[e])}while(--n>0);return t}var j,P=function(){function t(r){n(this,t),this.list=r,this.length=r.length}return e(t,[{key:"setAttribute",value:function(t,n){for(var r=this.list,e=0;e<this.length;e++)r[e].setAttribute(t,n)}},{key:"removeAttribute",value:function(t){for(var n=this.list,r=0;r<this.length;r++)n[r].removeAttribute(t)}},{key:"style",value:function(t,n){for(var r=this.list,e=0;e<this.length;e++)r[e].style[t]=n}}]),t}(),B=/-./g,E=function(t,n){return n.toUpperCase()};function F(t){return"function"==typeof t?t:b}function I(t){return t?"function"==typeof t?t:Array.isArray(t)?function(t){var n=arguments.length>1&&void 0!==arguments[1]?arguments[1]:v;if(!Array.isArray(t))return n;switch(t.length){case 1:return m(t[0])||n;case 2:return m(t[0],t[1])||n;case 4:return d(t[0],t[1],t[2],t[3])||n}return n}(t,null):function(t,n){var r=arguments.length>2&&void 0!==arguments[2]?arguments[2]:v;switch(t){case"linear":return v;case"steps":return m(n.steps||1,n.jump||0)||r;case"bezier":case"cubic-bezier":return d(n.x1||0,n.y1||0,n.x2||0,n.y2||0)||r}return r}(t.type,t.value,null):null}function R(t,n,r){var e=arguments.length>3&&void 0!==arguments[3]&&arguments[3],i=n.length-1;if(t<=n[0].t)return e?[0,0,n[0].v]:n[0].v;if(t>=n[i].t)return e?[i,1,n[i].v]:n[i].v;var o,u=n[0],a=null;for(o=1;o<=i;o++){if(!(t>n[o].t)){a=n[o];break}u=n[o]}return null==a?e?[i,1,n[i].v]:n[i].v:u.t===a.t?e?[o,1,a.v]:a.v:(t=(t-u.t)/(a.t-u.t),u.e&&(t=u.e(t)),e?[o,t,r(t,u.v,a.v)]:r(t,u.v,a.v))}function q(t,n){var r=arguments.length>2&&void 0!==arguments[2]?arguments[2]:null;return t&&t.length?"function"!=typeof n?null:("function"!=typeof r&&(r=null),function(e){var i=R(e,t,n);return null!=i&&r&&(i=r(i)),i}):null}function T(t,n){return t.t-n.t}function N(n,r,e,i,o){var u,a="@"===e[0],l="#"===e[0],f=j[e],s=b;switch(a?(u=e.substr(1),e=u.replace(B,E)):l&&(e=e.substr(1)),t(f)){case"function":if(s=f(i,o,R,I,e,a,r,n),l)return s;break;case"string":s=q(i,F(f));break;case"object":if((s=q(i,F(f.i),f.f))&&"function"==typeof f.u)return f.u(r,s,e,a,n)}return s?function(t,n,r){var e=arguments.length>3&&void 0!==arguments[3]&&arguments[3];if(e)return t instanceof P?function(e){return t.style(n,r(e))}:function(e){return t.style[n]=r(e)};if(Array.isArray(n)){var i=n.length;return function(e){var o=r(e);if(null==o)for(var u=0;u<i;u++)t[u].removeAttribute(n);else for(var a=0;a<i;a++)t[a].setAttribute(n,o)}}return function(e){var i=r(e);null==i?t.removeAttribute(n):t.setAttribute(n,i)}}(r,e,s,a):null}function C(n,r,e,i){if(!i||"object"!==t(i))return null;var o=null,u=null;return Array.isArray(i)?u=function(t){if(!t||!t.length)return null;for(var n=0;n<t.length;n++)t[n].e&&(t[n].e=I(t[n].e));return t.sort(T)}(i):(u=i.keys,o=i.data||null),u?N(n,r,e,u,o):null}function z(t,n,r){if(!r)return null;var e=[];for(var i in r)if(r.hasOwnProperty(i)){var o=C(t,n,i,r[i]);o&&e.push(o)}return e.length?e:null}function L(t,n){if(!n.duration||n.duration<0)return null;var r=function(t,n){if(!n)return null;var r=[];if(Array.isArray(n))for(var e=n.length,i=0;i<e;i++){var o=n[i];if(2===o.length){var u=null;if("string"==typeof o[0])u=t.getElementById(o[0]);else if(Array.isArray(o[0])){u=[];for(var a=0;a<o[0].length;a++)if("string"==typeof o[0][a]){var l=t.getElementById(o[0][a]);l&&u.push(l)}u=u.length?1===u.length?u[0]:new P(u):null}if(u){var f=z(t,u,o[1]);f&&(r=r.concat(f))}}}else for(var s in n)if(n.hasOwnProperty(s)){var c=t.getElementById(s);if(c){var h=z(t,c,n[s]);h&&(r=r.concat(h))}}return r.length?r:null}(t,n.elements);return r?function(t,n){var r=arguments.length>2&&void 0!==arguments[2]?arguments[2]:1/0,e=arguments.length>3&&void 0!==arguments[3]?arguments[3]:1,i=arguments.length>4&&void 0!==arguments[4]&&arguments[4],o=arguments.length>5&&void 0!==arguments[5]?arguments[5]:1,u=t.length,a=e>0?n:0;i&&r%2==0&&(a=n-a);var l=null;return function(f,s){var c=f%n,h=1+(f-c)/n;s*=e,i&&h%2==0&&(s=-s);var v=!1;if(h>r)c=a,v=!0,-1===o&&(c=e>0?0:n);else if(s<0&&(c=n-c),c===l)return!1;l=c;for(var y=0;y<u;y++)t[y](c);return v}}(r,n.duration,n.iterations||1/0,n.direction||1,!!n.alternate,n.fill||1):null}var D=function(){function t(r,e){var i=arguments.length>2&&void 0!==arguments[2]?arguments[2]:{};n(this,t),this._id=0,this._running=!1,this._rollingBack=!1,this._animations=r,this.duration=e.duration,this.alternate=e.alternate,this.fill=e.fill,this.iterations=e.iterations,this.direction=i.direction||1,this.speed=i.speed||1,this.fps=i.fps||100,this.offset=i.offset||0,this.rollbackStartOffset=0}return e(t,[{key:"_rollback",value:function(){var t=this,n=1/0,r=null;this.rollbackStartOffset=this.offset,this._rollingBack||(this._rollingBack=!0,this._running=!0);this._id=window.requestAnimationFrame((function e(i){if(t._rollingBack){null==r&&(r=i);var o=i-r,u=t.rollbackStartOffset-o,a=Math.round(u*t.speed);if(a>t.duration&&n!=1/0){var l=!!t.alternate&&a/t.duration%2>1,f=a%t.duration;a=(f+=l?t.duration:0)||t.duration}var s=t.fps?1e3/t.fps:0,c=Math.max(0,a);if(c<n-s){t.offset=c,n=c;for(var h=t._animations,v=h.length,y=0;y<v;y++)h[y](c,t.direction)}var d=!1;if(t.iterations>0&&-1===t.fill){var g=t.iterations*t.duration,p=g==a;a=p?0:a,t.offset=p?0:t.offset,d=a>g}a>0&&t.offset>=a&&!d?t._id=window.requestAnimationFrame(e):t.stop()}}))}},{key:"_start",value:function(){var t=this,n=arguments.length>0&&void 0!==arguments[0]?arguments[0]:0,r=-1/0,e=null,i={},o=function o(u){t._running=!0,null==e&&(e=u);var a=Math.round((u-e+n)*t.speed),l=t.fps?1e3/t.fps:0;if(a>r+l&&!t._rollingBack){t.offset=a,r=a;for(var f=t._animations,s=f.length,c=0,h=0;h<s;h++)i[h]?c++:(i[h]=f[h](a,t.direction),i[h]&&c++);if(c===s)return void t._stop()}t._id=window.requestAnimationFrame(o)};this._id=window.requestAnimationFrame(o)}},{key:"_stop",value:function(){this._id&&window.cancelAnimationFrame(this._id),this._running=!1,this._rollingBack=!1}},{key:"play",value:function(){!this._rollingBack&&this._running||(this._rollingBack=!1,this.rollbackStartOffset>this.duration&&(this.offset=this.rollbackStartOffset-(this.rollbackStartOffset-this.offset)%this.duration,this.rollbackStartOffset=0),this._start(this.offset))}},{key:"stop",value:function(){this._stop(),this.offset=0,this.rollbackStartOffset=0;var t=this.direction,n=this._animations;window.requestAnimationFrame((function(){for(var r=0;r<n.length;r++)n[r](0,t)}))}},{key:"reachedToEnd",value:function(){return this.iterations>0&&this.offset>=this.iterations*this.duration}},{key:"restart",value:function(){this._stop(),this.offset=0,this._start()}},{key:"pause",value:function(){this._stop()}},{key:"reverse",value:function(){this.direction=-this.direction}}],[{key:"build",value:function(n,r){return(n=function(t,n){if(j=n,!t||!t.root||!Array.isArray(t.animations))return null;for(var r=document.getElementsByTagName("svg"),e=!1,i=0;i<r.length;i++)if(r[i].id===t.root&&!r[i].svgatorAnimation){(e=r[i]).svgatorAnimation=!0;break}if(!e)return null;var o=t.animations.map((function(t){return L(e,t)})).filter((function(t){return!!t}));return o.length?{element:e,animations:o,animationSettings:t.animationSettings,options:t.options||void 0}:null}(n,r))?{el:n.element,options:n.options||{},player:new t(n.animations,n.animationSettings,n.options)}:null}}]),t}();function Q(t){return s(t)+""}function U(t){var n=arguments.length>1&&void 0!==arguments[1]?arguments[1]:" ";return t&&t.length?t.map(Q).join(n):""}function V(t){return t?null==t.a||t.a>=1?"rgb("+t.r+","+t.g+","+t.b+")":"rgba("+t.r+","+t.g+","+t.b+","+t.a+")":"transparent"}!function(){for(var t=0,n=["ms","moz","webkit","o"],r=0;r<n.length&&!window.requestAnimationFrame;++r)window.requestAnimationFrame=window[n[r]+"RequestAnimationFrame"],window.cancelAnimationFrame=window[n[r]+"CancelAnimationFrame"]||window[n[r]+"CancelRequestAnimationFrame"];window.requestAnimationFrame||(window.requestAnimationFrame=function(n){var r=Date.now(),e=Math.max(0,16-(r-t)),i=window.setTimeout((function(){n(r+e)}),e);return t=r+e,i},window.cancelAnimationFrame=window.clearTimeout)}();var G={f:null,i:function(t,n,r){return 0===t?n:1===t?r:{x:x(t,n.x,r.x),y:x(t,n.y,r.y)}},u:function(t,n){return function(r){var e=n(r);t.setAttribute("rx",Q(e.x)),t.setAttribute("ry",Q(e.y))}}},H={f:null,i:function(t,n,r){return 0===t?n:1===t?r:{width:x(t,n.width,r.width),height:x(t,n.height,r.height)}},u:function(t,n){return function(r){var e=n(r);t.setAttribute("width",Q(e.width)),t.setAttribute("height",Q(e.height))}}},Y=Math.sin,Z=Math.cos,J=Math.acos,K=Math.asin,W=Math.tan,X=Math.atan2,$=Math.PI/180,tt=180/Math.PI,nt=Math.sqrt,rt=function(){function t(){var r=arguments.length>0&&void 0!==arguments[0]?arguments[0]:1,e=arguments.length>1&&void 0!==arguments[1]?arguments[1]:0,i=arguments.length>2&&void 0!==arguments[2]?arguments[2]:0,o=arguments.length>3&&void 0!==arguments[3]?arguments[3]:1,u=arguments.length>4&&void 0!==arguments[4]?arguments[4]:0,a=arguments.length>5&&void 0!==arguments[5]?arguments[5]:0;n(this,t),this.m=[r,e,i,o,u,a],this.i=null,this.w=null,this.s=null}return e(t,[{key:"determinant",get:function(){var t=this.m;return t[0]*t[3]-t[1]*t[2]}},{key:"isIdentity",get:function(){if(null===this.i){var t=this.m;this.i=1===t[0]&&0===t[1]&&0===t[2]&&1===t[3]&&0===t[4]&&0===t[5]}return this.i}},{key:"point",value:function(t,n){var r=this.m;return{x:r[0]*t+r[2]*n+r[4],y:r[1]*t+r[3]*n+r[5]}}},{key:"translateSelf",value:function(){var t=arguments.length>0&&void 0!==arguments[0]?arguments[0]:0,n=arguments.length>1&&void 0!==arguments[1]?arguments[1]:0;if(!t&&!n)return this;var r=this.m;return r[4]+=r[0]*t+r[2]*n,r[5]+=r[1]*t+r[3]*n,this.w=this.s=this.i=null,this}},{key:"rotateSelf",value:function(){var t=arguments.length>0&&void 0!==arguments[0]?arguments[0]:0;if(t%=360){var n=Y(t*=$),r=Z(t),e=this.m,i=e[0],o=e[1];e[0]=i*r+e[2]*n,e[1]=o*r+e[3]*n,e[2]=e[2]*r-i*n,e[3]=e[3]*r-o*n,this.w=this.s=this.i=null}return this}},{key:"scaleSelf",value:function(){var t=arguments.length>0&&void 0!==arguments[0]?arguments[0]:1,n=arguments.length>1&&void 0!==arguments[1]?arguments[1]:1;if(1!==t||1!==n){var r=this.m;r[0]*=t,r[1]*=t,r[2]*=n,r[3]*=n,this.w=this.s=this.i=null}return this}},{key:"skewSelf",value:function(t,n){if(n%=360,(t%=360)||n){var r=this.m,e=r[0],i=r[1],o=r[2],u=r[3];t&&(t=W(t*$),r[2]+=e*t,r[3]+=i*t),n&&(n=W(n*$),r[0]+=o*n,r[1]+=u*n),this.w=this.s=this.i=null}return this}},{key:"resetSelf",value:function(){var t=arguments.length>0&&void 0!==arguments[0]?arguments[0]:1,n=arguments.length>1&&void 0!==arguments[1]?arguments[1]:0,r=arguments.length>2&&void 0!==arguments[2]?arguments[2]:0,e=arguments.length>3&&void 0!==arguments[3]?arguments[3]:1,i=arguments.length>4&&void 0!==arguments[4]?arguments[4]:0,o=arguments.length>5&&void 0!==arguments[5]?arguments[5]:0,u=this.m;return u[0]=t,u[1]=n,u[2]=r,u[3]=e,u[4]=i,u[5]=o,this.w=this.s=this.i=null,this}},{key:"recomposeSelf",value:function(){var t=arguments.length>0&&void 0!==arguments[0]?arguments[0]:null,n=arguments.length>1&&void 0!==arguments[1]?arguments[1]:null,r=arguments.length>2&&void 0!==arguments[2]?arguments[2]:null,e=arguments.length>3&&void 0!==arguments[3]?arguments[3]:null,i=arguments.length>4&&void 0!==arguments[4]?arguments[4]:null;return this.isIdentity||this.resetSelf(),t&&(t.x||t.y)&&this.translateSelf(t.x,t.y),n&&this.rotateSelf(n),r&&(r.x&&this.skewSelf(r.x,0),r.y&&this.skewSelf(0,r.y)),!e||1===e.x&&1===e.y||this.scaleSelf(e.x,e.y),i&&(i.x||i.y)&&this.translateSelf(i.x,i.y),this}},{key:"decompose",value:function(){var t=arguments.length>0&&void 0!==arguments[0]?arguments[0]:0,n=arguments.length>1&&void 0!==arguments[1]?arguments[1]:0,r=this.m,e=r[0]*r[0]+r[1]*r[1],i=[[r[0],r[1]],[r[2],r[3]]],o=nt(e);if(0===o)return{origin:{x:s(r[4]),y:s(r[5])},translate:{x:s(t),y:s(n)},scale:{x:0,y:0},skew:{x:0,y:0},rotate:0};i[0][0]/=o,i[0][1]/=o;var u=r[0]*r[3]-r[1]*r[2]<0;u&&(o=-o);var a=i[0][0]*i[1][0]+i[0][1]*i[1][1];i[1][0]-=i[0][0]*a,i[1][1]-=i[0][1]*a;var l=nt(i[1][0]*i[1][0]+i[1][1]*i[1][1]);if(0===l)return{origin:{x:s(r[4]),y:s(r[5])},translate:{x:s(t),y:s(n)},scale:{x:s(o),y:0},skew:{x:0,y:0},rotate:0};i[1][0]/=l,i[1][1]/=l,a/=l;var f=0;return i[1][1]<0?(f=J(i[1][1])*tt,i[0][1]<0&&(f=360-f)):f=K(i[0][1])*tt,u&&(f=-f),a=X(a,nt(i[0][0]*i[0][0]+i[0][1]*i[0][1]))*tt,u&&(a=-a),{origin:{x:s(r[4]),y:s(r[5])},translate:{x:s(t),y:s(n)},scale:{x:s(o),y:s(l)},skew:{x:s(a),y:0},rotate:s(f)}}},{key:"toString",value:function(){return null===this.s&&(this.s="matrix("+this.m.map((function(t){return s(t)})).join(" ")+")"),this.s}}]),t}();Object.freeze({M:2,L:2,Z:0,H:1,V:1,C:6,Q:4,T:2,S:4,A:7});var et={},it=null;function ot(n){var r=function(){if(it)return it;if("object"!==("undefined"==typeof document?"undefined":t(document))||!document.createElementNS)return{};var n=document.createElementNS("http://www.w3.org/2000/svg","svg");return n&&n.style?(n.style.position="absolute",n.style.opacity="0.01",n.style.zIndex="-9999",n.style.left="-9999px",n.style.width="1px",n.style.height="1px",it={svg:n}):{}}().svg;if(!r)return function(t){return null};var e=document.createElementNS(r.namespaceURI,"path");e.setAttributeNS(null,"d",n),e.setAttributeNS(null,"fill","none"),e.setAttributeNS(null,"stroke","none"),r.appendChild(e);var i=e.getTotalLength();return function(t){var n=e.getPointAtLength(i*t);return{x:n.x,y:n.y}}}function ut(t){return et[t]?et[t]:et[t]=ot(t)}function at(t,n,r,e){if(!t||!e)return!1;var i=["M",t.x,t.y];if(n&&r&&(i.push("C"),i.push(n.x),i.push(n.y),i.push(r.x),i.push(r.y)),n?!r:r){var o=n||r;i.push("Q"),i.push(o.x),i.push(o.y)}return n||r||i.push("L"),i.push(e.x),i.push(e.y),i.join(" ")}function lt(t,n,r,e){var i=arguments.length>4&&void 0!==arguments[4]?arguments[4]:1,o=at(t,n,r,e),u=ut(o);try{return u(i)}catch(t){return null}}function ft(t,n,r,e){var i=1-e;return i*i*t+2*i*e*n+e*e*r}function st(t,n,r,e){return 2*(1-e)*(n-t)+2*e*(r-n)}function ct(t,n,r,e){var i=arguments.length>4&&void 0!==arguments[4]&&arguments[4],o=lt(t,n,null,r,e);return o||(o={x:ft(t.x,n.x,r.x,e),y:ft(t.y,n.y,r.y,e)}),i&&(o.a=ht(t,n,r,e)),o}function ht(t,n,r,e){return Math.atan2(st(t.y,n.y,r.y,e),st(t.x,n.x,r.x,e))}function vt(t,n,r,e,i){var o=i*i;return i*o*(e-t+3*(n-r))+3*o*(t+r-2*n)+3*i*(n-t)+t}function yt(t,n,r,e,i){var o=1-i;return 3*(o*o*(n-t)+2*o*i*(r-n)+i*i*(e-r))}function dt(t,n,r,e,i){var o=arguments.length>5&&void 0!==arguments[5]&&arguments[5],u=lt(t,n,r,e,i);return u||(u={x:vt(t.x,n.x,r.x,e.x,i),y:vt(t.y,n.y,r.y,e.y,i)}),o&&(u.a=gt(t,n,r,e,i)),u}function gt(t,n,r,e,i){return Math.atan2(yt(t.y,n.y,r.y,e.y,i),yt(t.x,n.x,r.x,e.x,i))}function pt(t,n,r){return t+(n-t)*r}function mt(t,n,r){var e=arguments.length>3&&void 0!==arguments[3]&&arguments[3],i={x:pt(t.x,n.x,r),y:pt(t.y,n.y,r)};return e&&(i.a=bt(t,n)),i}function bt(t,n){return Math.atan2(n.y-t.y,n.x-t.x)}function wt(t,n,r){var e=arguments.length>3&&void 0!==arguments[3]&&arguments[3];if(kt(n)){if(At(r))return ct(n,r.start,r,t,e)}else if(kt(r)){if(n.end)return ct(n,n.end,r,t,e)}else{if(n.end)return r.start?dt(n,n.end,r.start,r,t,e):ct(n,n.end,r,t,e);if(r.start)return ct(n,r.start,r,t,e)}return mt(n,r,t,e)}function xt(t,n,r){var e=wt(t,n,r,!0);return e.a=function(t){var n=arguments.length>1&&void 0!==arguments[1]&&arguments[1];return n?t+Math.PI:t}(e.a)/h,e}function kt(t){return!t.type||"corner"===t.type}function At(t){return null!=t.start&&!kt(t)}var _t=new rt;var St={f:Q,i:w},Ot={f:Q,i:function(t,n,r){var e=w(t,n,r);return e<=0?0:e>=1?1:e}};function Mt(t,n,r,e,i,o,u,a){return n=function(t,n,r){for(var e,i,o,u=t.length-1,a={},l=0;l<=u;l++)(e=t[l]).e&&(e.e=n(e.e)),e.v&&"g"===(i=e.v).t&&i.r&&(o=r.getElementById(i.r))&&(a[i.r]=o.querySelectorAll("stop"));return a}(t,e,a),function(e){var i,o=r(e,t,jt);return o?"c"===o.t?V(o.v):"g"===o.t?(n[o.r]&&function(t,n){for(var r=0,e=t.length;r<e;r++)t[r].setAttribute("stop-color",V(n[r]))}(n[o.r],o.v),(i=o.r)?"url(#"+i+")":"none"):"none":"none"}}function jt(t,n,r){if(0===t)return n;if(1===t)return r;if(n&&r){var e=n.t;if(e===r.t)switch(n.t){case"c":return{t:e,v:_(t,n.v,r.v)};case"g":if(n.r===r.r)return{t:e,v:S(t,n.v,r.v),r:n.r}}}return b(t,n,r)}var Pt={fill:Mt,"fill-opacity":Ot,stroke:Mt,"stroke-opacity":Ot,"stroke-width":St,"stroke-dashoffset":{f:Q,i:w},"stroke-dasharray":{f:function(t){var n=arguments.length>1&&void 0!==arguments[1]?arguments[1]:" ";return t&&t.length>0&&(t=t.map((function(t){return s(t,4)}))),U(t,n)},i:function(t,n,r){var e,i,o,u=n.length,a=r.length;if(u!==a)if(0===u)n=O(u=a,0);else if(0===a)a=u,r=O(u,0);else{var l=(o=(e=u)*(i=a)/function(t,n){for(var r;n;)r=n,n=t%n,t=r;return t||1}(e,i))<0?-o:o;n=M(n,Math.floor(l/u)),r=M(r,Math.floor(l/a)),u=a=l}for(var f=[],c=0;c<u;c++)f.push(s(x(t,n[c],r[c])));return f}},opacity:Ot,transform:function(n,r,e,i){if(!(n=function(n,r){if(!n||"object"!==t(n))return null;var e=!1;for(var i in n)n.hasOwnProperty(i)&&(n[i]&&n[i].length?(n[i].forEach((function(t){t.e&&(t.e=r(t.e))})),e=!0):delete n[i]);return e?n:null}(n,i)))return null;var o=function(t,i,o){var u=arguments.length>3&&void 0!==arguments[3]?arguments[3]:null;return n[t]?e(i,n[t],o):r&&r[t]?r[t]:u};return r&&r.a&&n.o?function(t){var r=e(t,n.o,xt);return _t.recomposeSelf(r,o("r",t,w,0)+r.a,o("k",t,k),o("s",t,k),o("t",t,k)).toString()}:function(t){return _t.recomposeSelf(o("o",t,wt,null),o("r",t,w,0),o("k",t,k),o("s",t,k),o("t",t,k)).toString()}},r:St,"#size":H,"#radius":G,_:function(t,n){if(Array.isArray(t))for(var r=0;r<t.length;r++)this[t[r]]=n;else this[t]=n}};return function(t){!function(t,n){if("function"!=typeof n&&null!==n)throw new TypeError("Super expression must either be null or a function");t.prototype=Object.create(n&&n.prototype,{constructor:{value:t,writable:!0,configurable:!0}}),n&&o(t,n)}(u,t);var r=a(u);function u(){return n(this,u),r.apply(this,arguments)}return e(u,null,[{key:"build",value:function(t){var n=l(i(u),"build",this).call(this,t,Pt);if(!n)return null;n.el,n.options;var r=n.player;return function(t,n,r){t.play()}(r),r}}]),u}(D)}));
__SVGATOR_PLAYER__.build({"root":"e3CwSqRpy5m1","animations":[{"duration":5000,"direction":1,"iterations":0,"fill":1,"alternate":false,"speed":1,"elements":{"e3CwSqRpy5m11":{"transform":{"data":{"s":{"x":0.918854,"y":0.918854}},"keys":{"o":[{"t":0,"v":{"x":604.967017,"y":189.470636,"type":"corner"}},{"t":970,"v":{"x":604.996827,"y":261.560069,"type":"corner"}},{"t":2410,"v":{"x":533.216462,"y":261.5823,"type":"corner"}},{"t":3980,"v":{"x":533.1645,"y":315.5635,"type":"corner"}}]}}},"e3CwSqRpy5m15":{"transform":{"data":{"t":{"x":-513.636993,"y":-198.135498}},"keys":{"o":[{"t":0,"v":{"x":513.636994,"y":214.263,"type":"corner"}},{"t":2000,"v":{"x":513.636994,"y":180.590495,"type":"corner"}},{"t":5000,"v":{"x":513.636994,"y":214.263,"type":"corner"}}]}}},"e3CwSqRpy5m29":{"transform":{"data":{"s":{"x":1.074197,"y":1.074197}},"keys":{"o":[{"t":0,"v":{"x":25.672338,"y":100.268579,"type":"corner"}},{"t":1380,"v":{"x":252.468969,"y":100.271144,"type":"corner"}},{"t":2490,"v":{"x":252.436374,"y":288.294373,"type":"corner"}},{"t":4000,"v":{"x":375.050805,"y":288.468496,"type":"corner"}},{"t":5000,"v":{"x":375,"y":224.294373,"type":"corner"}}]}}},"e3CwSqRpy5m35":{"transform":{"data":{"o":{"x":428.273499,"y":152.148499,"type":"corner"},"t":{"x":-428.273499,"y":-152.148499}},"keys":{"r":[{"t":0,"v":0},{"t":1000,"v":-270}]}}},"e3CwSqRpy5m38":{"transform":{"data":{"s":{"x":0.857096,"y":0.857096}},"keys":{"o":[{"t":970,"v":{"x":174.24052,"y":100.727685,"type":"corner"}},{"t":1590,"v":{"x":173.887121,"y":185.007252,"type":"corner"}},{"t":2390,"v":{"x":319.887121,"y":185.260939,"type":"corner"}},{"t":3010,"v":{"x":319.887121,"y":16.7299,"type":"corner"}}]}}},"e3CwSqRpy5m71":{"transform":{"data":{"o":{"x":127.5,"y":277.5,"type":"corner"},"t":{"x":-127.5,"y":-277.5}},"keys":{"r":[{"t":0,"v":0},{"t":5000,"v":-270}]}}}}}],"options":{"start":"load","hover":null,"click":null,"scroll":null,"font":"embed","exportedIds":"unique","svgFormat":"animated","title":"Frame 5"},"animationSettings":{"duration":5000,"direction":1,"iterations":0,"fill":1,"alternate":false,"speed":1}})]]></script></svg>