<svg id="e7MxSGQ3epL1" xmlns="http://www.w3.org/2000/svg" xmlns:xlink="http://www.w3.org/1999/xlink" viewBox="0 0 628 349" shape-rendering="geometricPrecision" text-rendering="geometricPrecision"><g id="e7MxSGQ3epL2"><g id="e7MxSGQ3epL3"/><g id="e7MxSGQ3epL4"><path id="e7MxSGQ3epL5" d="M541.904,208.635L416.651,208.635C416.266,208.635,415.978,208.347,415.978,207.962C415.978,207.578,416.266,207.289,416.651,207.289L541.904,207.289C542.288,207.289,542.576,207.578,542.576,207.962C542.576,208.347,542.288,208.635,541.904,208.635Z" fill="rgb(40,176,76)" stroke="none" stroke-width="1" stroke-miterlimit="1"/><g id="e7MxSGQ3epL6" transform="matrix(1 0 0 1 18.257988 0.000001)"><ellipse id="e7MxSGQ3epL7" rx="4.197" ry="4.197" transform="matrix(1 0 0 1 473.614012 207.8545)" fill="rgb(0,0,0)" stroke="none" stroke-width="0" stroke-miterlimit="1"/><ellipse id="e7MxSGQ3epL8" rx="4.197" ry="4.197" transform="matrix(1 0 0 1 524.242012 207.8545)" fill="rgb(41,177,76)" stroke="none" stroke-width="0" stroke-miterlimit="1"/><ellipse id="e7MxSGQ3epL9" rx="4.197" ry="4.197" transform="matrix(1 0 0 1 524.118512 207.8545)" fill="rgb(41,177,76)" stroke="none" stroke-width="0" stroke-miterlimit="1"/></g><path id="e7MxSGQ3epL10" d="M428.475,73.8663L183.258,73.8663L183.258,59.2552C183.258,58.9669,183.45,58.7745,183.739,58.7745L427.899,58.7745C428.187,58.7745,428.379,58.9669,428.379,59.2552L428.379,73.8663L428.475,73.8663Z" fill="rgb(240,240,240)" stroke="none" stroke-width="1" stroke-miterlimit="1"/><path id="e7MxSGQ3epL11" d="M192.583,66.1756C192.583,67.4253,191.525,68.4827,190.276,68.4827C189.026,68.4827,187.969,67.4253,187.969,66.1756C187.969,64.926,189.026,63.8687,190.276,63.8687C191.525,63.8687,192.583,64.926,192.583,66.1756Z" fill="rgb(255,255,255)" stroke="none" stroke-width="1" stroke-miterlimit="1"/><path id="e7MxSGQ3epL12" d="M199.12,66.1756C199.12,67.4253,198.062,68.4827,196.812,68.4827C195.563,68.4827,194.506,67.4253,194.506,66.1756C194.506,64.926,195.563,63.8687,196.812,63.8687C198.062,63.8687,199.12,64.926,199.12,66.1756Z" fill="rgb(255,255,255)" stroke="none" stroke-width="1" stroke-miterlimit="1"/><path id="e7MxSGQ3epL13" d="M205.656,66.1756C205.656,67.4253,204.598,68.4827,203.348,68.4827C202.099,68.4827,201.042,67.4253,201.042,66.1756C201.042,64.926,202.099,63.8687,203.348,63.8687C204.598,63.8687,205.656,64.926,205.656,66.1756Z" fill="rgb(255,255,255)" stroke="none" stroke-width="1" stroke-miterlimit="1"/><path id="e7MxSGQ3epL14" d="M404.251,87.0363L295.628,87.0363L295.628,207.962L404.251,207.962L404.251,87.0363Z" fill="rgb(212,240,226)" stroke="none" stroke-width="1" stroke-miterlimit="1"/><path id="e7MxSGQ3epL15" d="M383.007,135.196L383.007,241.319L270.732,241.319L270.732,104.531L352.247,104.531L383.007,135.196Z" fill="rgb(255,255,255)" stroke="none" stroke-width="1" stroke-miterlimit="1"/><path id="e7MxSGQ3epL16" d="M383.008,135.196L352.247,135.196L352.247,104.531L383.008,135.196Z" fill="rgb(40,176,76)" stroke="none" stroke-width="1" stroke-miterlimit="1"/><path id="e7MxSGQ3epL17" d="M352.536,135.004L382.431,135.004L352.536,105.108L352.536,135.004ZM383.585,135.484L352.055,135.484L352.055,103.955L383.585,135.484Z" fill="rgb(40,176,76)" stroke="none" stroke-width="1" stroke-miterlimit="1"/><path id="e7MxSGQ3epL18" d="M383.776,107.03L394.734,107.03L394.734,102.608C394.734,99.0514,392.235,96.1679,389.255,96.1679C386.179,96.1679,383.776,99.0514,383.776,102.608L383.776,107.03ZM396.176,108.376L382.334,108.376L382.334,102.513C382.334,98.1863,385.41,94.6299,389.255,94.6299C393.1,94.6299,396.176,98.1863,396.176,102.513L396.176,108.376Z" fill="rgb(255,255,255)" stroke="none" stroke-width="1" stroke-miterlimit="1"/><path id="e7MxSGQ3epL19" d="M398.004,105.397L380.509,105.397L380.509,118.47L398.004,118.47L398.004,105.397Z" fill="rgb(255,255,255)" stroke="none" stroke-width="1" stroke-miterlimit="1"/><path id="e7MxSGQ3epL20" d="M389.255,116.547C388.871,116.547,388.582,116.259,388.582,115.874L388.582,113.086C388.582,112.702,388.871,112.414,389.255,112.414C389.64,112.414,389.928,112.702,389.928,113.086L389.928,115.874C389.928,116.162,389.64,116.547,389.255,116.547Z" fill="rgb(40,176,76)" stroke="none" stroke-width="1" stroke-miterlimit="1"/><path id="e7MxSGQ3epL21" d="M389.255,109.722C388.582,109.722,388.102,110.299,388.102,110.876C388.102,111.549,388.678,112.029,389.255,112.029C389.928,112.029,390.408,111.452,390.408,110.876C390.505,110.299,389.928,109.722,389.255,109.722ZM389.255,113.567C387.813,113.567,386.66,112.414,386.66,110.972C386.66,109.53,387.813,108.376,389.255,108.376C390.697,108.376,391.851,109.53,391.851,110.972C391.851,112.414,390.697,113.567,389.255,113.567Z" fill="rgb(40,176,76)" stroke="none" stroke-width="1" stroke-miterlimit="1"/><path id="e7MxSGQ3epL22" d="M424.054,208.635L360.995,208.443C360.61,208.443,360.322,208.155,360.322,207.77C360.322,207.386,360.61,207.097,360.995,207.097L424.054,207.289C424.919,207.289,425.784,206.905,426.457,206.232C427.322,205.367,427.706,204.213,427.706,202.964L427.706,16.3835C427.706,15.9989,427.995,15.7106,428.379,15.7106C428.764,15.7106,429.052,15.9989,429.052,16.3835L429.052,202.964C429.052,204.598,428.476,206.136,427.322,207.194C426.457,208.154,425.303,208.635,424.054,208.635Z" fill="rgb(40,176,76)" stroke="none" stroke-width="1" stroke-miterlimit="1"/><path id="e7MxSGQ3epL23" d="M119.141,228.821L84.8243,228.821C81.7482,228.821,79.249,226.322,79.249,223.245L79.249,188.929C79.249,185.852,81.7482,183.354,84.8243,183.354L119.141,183.354C122.217,183.354,124.717,185.852,124.717,188.929L124.717,223.245C124.717,226.322,122.217,228.821,119.141,228.821Z" transform="matrix(1 0 0 1 0.2884 -2.587225)" fill="rgb(212,240,226)" stroke="none" stroke-width="1" stroke-miterlimit="1"/><path id="e7MxSGQ3epL24" d="M491.959,93.7161L518.328,93.7161C520.691,93.7161,522.612,91.7956,522.612,89.4321L522.612,63.0634C522.612,60.6999,520.691,58.7794,518.328,58.7794L491.959,58.7794C489.596,58.7794,487.675,60.6999,487.675,63.0634L487.675,89.4321C487.675,91.7956,489.596,93.7161,491.959,93.7161Z" fill="rgb(212,240,226)" stroke="none" stroke-width="1" stroke-miterlimit="1"/><path id="e7MxSGQ3epL25" d="M163.36,211.423L134.522,211.423C134.041,211.423,133.56,211.038,133.56,210.462L133.56,201.329C133.56,200.849,133.945,200.369,134.522,200.369L163.36,200.369C163.84,200.369,164.321,200.753,164.321,201.329L164.321,210.462C164.321,211.038,163.84,211.423,163.36,211.423Z" fill="rgb(247,248,249)" stroke="none" stroke-width="1" stroke-miterlimit="1"/><path id="e7MxSGQ3epL26" d="M163.36,228.437L143.366,228.437C142.885,228.437,142.404,228.052,142.404,227.476L142.404,218.344C142.404,217.863,142.789,217.383,143.366,217.383L163.36,217.383C163.841,217.383,164.321,217.767,164.321,218.344L164.321,227.476C164.321,228.052,163.841,228.437,163.36,228.437Z" fill="rgb(212,240,226)" stroke="none" stroke-width="1" stroke-miterlimit="1"/><path id="e7MxSGQ3epL27" d="M457.627,93.7162L472.805,93.7162C473.169,93.7162,473.534,93.4269,473.534,92.9928L473.534,86.1213C473.534,85.7596,473.242,85.3979,472.805,85.3979L457.627,85.3979C457.263,85.3979,456.898,85.6873,456.898,86.1213L456.898,92.9928C456.898,93.4269,457.263,93.7162,457.627,93.7162Z" fill="rgb(212,240,226)" stroke="none" stroke-width="1" stroke-miterlimit="1"/><path id="e7MxSGQ3epL28" d="M416.868,228.472L432.045,228.472C432.41,228.472,432.775,228.182,432.775,227.748L432.775,220.877C432.775,220.515,432.483,220.154,432.045,220.154L416.868,220.154C416.503,220.154,416.138,220.443,416.138,220.877L416.138,227.748C416.138,228.182,416.503,228.472,416.868,228.472Z" fill="rgb(212,240,226)" stroke="none" stroke-width="1" stroke-miterlimit="1"/><path id="e7MxSGQ3epL29" d="M163.84,252.661L80.4986,252.661C80.018,252.661,79.5374,252.277,79.5374,251.7L79.5374,238.146C79.5374,237.665,79.9219,237.185,80.4986,237.185L163.84,237.185C164.321,237.185,164.801,237.57,164.801,238.146L164.801,251.7C164.705,252.181,164.321,252.661,163.84,252.661Z" fill="rgb(240,240,240)" stroke="none" stroke-width="1" stroke-miterlimit="1"/><path id="e7MxSGQ3epL30" d="M457.639,112.016L521.871,112.016C522.242,112.016,522.612,111.727,522.612,111.292L522.612,101.094C522.612,100.732,522.316,100.371,521.871,100.371L457.639,100.371C457.268,100.371,456.898,100.66,456.898,101.094L456.898,111.292C456.972,111.654,457.268,112.016,457.639,112.016Z" fill="rgb(240,240,240)" stroke="none" stroke-width="1" stroke-miterlimit="1"/><path id="e7MxSGQ3epL31" d="M143.365,184.219C143.269,184.219,143.173,184.315,143.173,184.412L143.173,193.543C143.173,193.64,143.269,193.736,143.365,193.736L163.359,193.736C163.455,193.736,163.551,193.64,163.551,193.543L163.551,184.412C163.551,184.315,163.455,184.219,163.359,184.219L143.365,184.219ZM163.359,195.178L143.365,195.178C142.5,195.178,141.731,194.409,141.731,193.543L141.731,184.412C141.731,183.547,142.5,182.777,143.365,182.777L163.359,182.777C164.224,182.777,164.993,183.547,164.993,184.412L164.993,193.543C164.993,194.409,164.224,195.178,163.359,195.178Z" fill="rgb(166,222,197)" stroke="none" stroke-width="1" stroke-miterlimit="1"/><path id="e7MxSGQ3epL32" d="M358.687,304.185L223.919,304.185C219.113,304.185,215.268,301.397,215.268,297.937L215.268,273.039C215.268,272.655,215.556,272.367,215.94,272.367C216.325,272.367,216.613,272.655,216.613,273.039L216.613,297.937C216.613,300.628,219.882,302.839,223.919,302.839L358.592,302.839C358.976,302.839,359.265,303.127,359.265,303.512C359.36,303.8,359.073,304.185,358.687,304.185Z" fill="rgb(38,50,56)" stroke="none" stroke-width="1" stroke-miterlimit="1"/><path id="e7MxSGQ3epL33" d="M215.939,326.98C215.555,326.98,215.267,326.692,215.267,326.308L215.267,269.301C215.267,267.379,213.536,265.744,211.517,265.744L124.716,265.744C124.332,265.744,124.043,265.457,124.043,265.071C124.043,264.687,124.332,264.398,124.716,264.398L211.422,264.398C214.306,264.398,216.612,266.609,216.612,269.301L216.612,326.211C216.612,326.692,216.324,326.98,215.939,326.98Z" fill="rgb(38,50,56)" stroke="none" stroke-width="1" stroke-miterlimit="1"/><path id="e7MxSGQ3epL34" d="M93.2291,159.43C93.6136,159.43,93.902,159.719,93.902,160.103L93.9019,260.843C93.9019,262.765,95.6323,264.4,97.6509,264.4L184.452,264.4C184.837,264.4,185.125,264.688,185.125,265.073C185.125,265.457,184.837,265.746,184.452,265.746L97.7471,265.746C94.8632,265.746,92.5562,263.535,92.5562,260.843L92.5563,160.199C92.5563,159.719,92.8446,159.43,93.2291,159.43Z" fill="rgb(38,50,56)" stroke="none" stroke-width="1" stroke-miterlimit="1"/><g id="e7MxSGQ3epL35"><path id="e7MxSGQ3epL36" d="M198,218.162C195.869,218.162,194.229,219.883,194.229,221.932C194.229,223.982,195.951,225.703,198,225.703C200.132,225.703,201.771,223.982,201.771,221.932C201.771,219.883,200.049,218.162,198,218.162ZM198,226.933C195.213,226.933,193,224.719,193,221.932C193,219.146,195.213,216.932,198,216.932C200.787,216.932,203,219.146,203,221.932C203,224.638,200.705,226.933,198,226.933Z" fill="rgb(40,176,76)" stroke="none" stroke-width="1" stroke-miterlimit="1"/><path id="e7MxSGQ3epL37" d="M198.985,239.311C198.657,239.311,198.411,239.065,198.411,238.737L198.411,226.359C198.411,226.032,198.657,225.786,198.985,225.786C199.312,225.786,199.558,226.032,199.558,226.359L199.558,238.737C199.558,239.065,199.312,239.311,198.985,239.311Z" fill="rgb(40,176,76)" stroke="none" stroke-width="1" stroke-miterlimit="1"/><path id="e7MxSGQ3epL38" d="M198.983,239.31L193.983,239.31C193.655,239.31,193.409,239.065,193.409,238.736C193.409,238.409,193.655,238.163,193.983,238.163L198.983,238.163C199.311,238.163,199.557,238.409,199.557,238.736C199.557,239.065,199.311,239.31,198.983,239.31Z" fill="rgb(40,176,76)" stroke="none" stroke-width="1" stroke-miterlimit="1"/><path id="e7MxSGQ3epL39" d="M198.983,235.212L193.983,235.212C193.655,235.212,193.409,234.966,193.409,234.638C193.409,234.31,193.655,234.064,193.983,234.064L198.983,234.064C199.311,234.064,199.557,234.31,199.557,234.638C199.557,234.966,199.311,235.212,198.983,235.212Z" fill="rgb(40,176,76)" stroke="none" stroke-width="1" stroke-miterlimit="1"/></g><path id="e7MxSGQ3epL40" d="M217.095,335.537L214.307,335.537C212.384,335.537,210.846,333.999,210.846,332.075L210.846,329.288C210.846,327.366,212.384,325.828,214.307,325.828L217.383,325.828C219.113,325.828,220.555,327.269,220.555,329L220.555,332.075C220.651,333.902,219.113,335.537,217.095,335.537Z" fill="rgb(255,255,255)" stroke="none" stroke-width="1" stroke-miterlimit="1"/><path id="e7MxSGQ3epL41" d="M214.403,326.405C212.865,326.405,211.615,327.655,211.615,329.193L211.615,331.981C211.615,333.519,212.865,334.768,214.403,334.768L217.191,334.768C218.729,334.768,219.978,333.519,219.978,331.981L219.978,328.905C219.978,327.559,218.824,326.405,217.478,326.405L214.403,326.405ZM217.094,336.211L214.307,336.211C212,336.211,210.077,334.288,210.077,331.981L210.077,329.193C210.077,326.886,212,324.964,214.307,324.964L217.383,324.964C219.497,324.964,221.324,326.694,221.324,328.905L221.324,331.981C221.324,334.288,219.497,336.211,217.094,336.211Z" fill="rgb(40,176,76)" stroke="none" stroke-width="1" stroke-miterlimit="1"/><path id="e7MxSGQ3epL42" d="M374.549,303.992L360.803,303.992C360.418,303.992,360.13,303.704,360.13,303.319C360.13,302.934,360.418,302.647,360.803,302.647L374.549,302.647C389.928,302.647,397.331,289.766,397.331,289.573C397.331,289.477,400.791,284.19,403.29,271.117C404.251,265.83,404.54,258.524,403.963,249.489C403.482,241.414,401.272,240.26,399.157,240.26C397.618,240.26,394.062,240.741,393.677,244.778C393.677,248.143,393.774,250.257,393.774,250.257C393.774,250.546,393.582,250.835,393.293,250.93C393.004,251.027,392.717,250.93,392.524,250.738C392.428,250.642,392.428,250.642,392.428,250.354C392.331,249.873,392.331,248.624,392.331,245.451C392.331,245.259,392.331,245.067,392.331,244.875C392.331,243.432,392.331,241.799,392.331,239.972C392.331,237.281,390.313,234.493,387.045,234.493C382.623,234.493,381.566,237.954,381.566,239.299C381.374,247.373,381.374,249.104,381.374,249.104C381.374,249.489,381.085,249.777,380.701,249.777C380.316,249.777,380.028,249.489,380.028,249.104C380.028,249.104,379.739,241.51,379.451,234.878C379.355,232.955,378.009,230.071,374.549,230.071C371.761,230.071,370.223,231.705,369.934,234.973C369.358,240.741,369.165,245.451,369.165,247.759L369.165,249.2C369.165,249.584,368.877,249.873,368.492,249.873C368.108,249.873,367.82,249.584,367.82,249.2C367.82,249.2,367.82,248.624,367.82,247.759L368.3,215.845C368.3,215.845,368.3,211.999,366.185,209.788C365.224,208.827,363.879,208.25,362.341,208.25C360.706,208.25,359.457,208.731,358.495,209.788C356.476,211.999,356.765,215.94,356.765,215.94C356.765,215.94,356.765,215.94,356.765,216.037L357.054,262.081C357.054,262.37,356.862,262.658,356.573,262.754C356.284,262.85,355.996,262.754,355.804,262.465C355.804,262.37,351.382,255.737,346.287,250.835C342.346,247.086,340.424,247.951,339.27,248.911C335.233,252.276,340.135,258.717,340.135,258.717C340.327,259.005,340.327,259.486,340.04,259.678C339.751,259.87,339.27,259.87,339.078,259.582C337.059,256.986,334.272,251.219,338.405,247.854C342.058,244.682,345.999,248.527,347.345,249.777C350.901,253.238,354.073,257.467,355.804,259.774L355.419,215.94C355.419,215.556,355.131,211.326,357.534,208.731C358.687,207.482,360.322,206.809,362.341,206.809C364.359,206.809,365.993,207.482,367.243,208.731C369.742,211.326,369.742,215.556,369.742,215.748L369.454,231.513C370.415,229.591,372.241,228.533,374.644,228.533C378.585,228.533,380.893,231.705,380.989,234.685C380.989,235.262,380.989,235.838,381.085,236.511C382.046,234.685,383.969,232.955,387.237,232.955C390.986,232.955,393.869,235.935,393.869,239.78C393.869,240.164,393.869,240.645,393.869,241.029C394.928,239.684,396.658,238.819,399.349,238.819C404.251,238.819,405.212,244.394,405.501,249.297C406.078,258.428,405.789,265.83,404.732,271.213C402.233,284.286,398.869,289.766,398.58,290.15C398.196,290.919,390.409,303.992,374.549,303.992Z" fill="rgb(38,50,56)" stroke="none" stroke-width="1" stroke-miterlimit="1"/><path id="e7MxSGQ3epL43" d="M344.653,163.168L282.363,163.168L282.363,173.55L344.653,173.55L344.653,163.168Z" fill="rgb(247,248,249)" stroke="none" stroke-width="1" stroke-miterlimit="1"/><path id="e7MxSGQ3epL44" d="M344.653,137.405L282.363,137.405L282.363,147.787L344.653,147.787L344.653,137.405Z" fill="rgb(247,248,249)" stroke="none" stroke-width="1" stroke-miterlimit="1"/><path id="e7MxSGQ3epL45" d="M326.966,189.986L282.363,189.986L282.363,200.368L326.966,200.368L326.966,189.986Z" fill="rgb(247,248,249)" stroke="none" stroke-width="1" stroke-miterlimit="1"/><ellipse id="e7MxSGQ3epL46" rx="5.448044" ry="5.448044" transform="matrix(0.888619 0 0 0.888619 215.890857 265.11139)" fill="rgb(41,177,76)" stroke="none" stroke-width="0" stroke-miterlimit="1"/><path id="e7MxSGQ3epL47" d="M92.5582,159.634L164.927,159.634" fill="none" stroke="rgb(38,50,56)" stroke-width="1.51" stroke-miterlimit="1"/><ellipse id="e7MxSGQ3epL48" rx="4.728637" ry="4.728637" transform="matrix(1 0 0 1 215.692838 265.090344)" fill="rgb(41,177,76)" stroke="none" stroke-width="0" stroke-miterlimit="1"/><path id="e7MxSGQ3epL49" d="M234.298,87.5421L234.021,87.5421L233.914,87.7975L229.171,99.1304L229.064,99.3883L229.261,99.5855L238.623,108.948C239.373,109.697,239.4,110.98,238.613,111.88L225.258,125.236C224.508,125.985,223.225,126.013,222.325,125.226L213.096,115.997L212.9,115.801L212.645,115.906L201.373,120.526L201.115,120.631L201.115,120.91L201.115,134.091C201.115,135.217,200.192,136.139,199.067,136.139L180.096,136.139C178.971,136.139,178.048,135.217,178.048,134.091L178.048,120.91L178.048,120.634L177.794,120.527L166.522,115.784L166.265,115.676L166.067,115.873L156.704,125.236C155.955,125.985,154.672,126.013,153.772,125.226L140.416,111.87C139.667,111.12,139.639,109.838,140.426,108.938L149.655,99.7086L149.85,99.5131L149.746,99.2577L145.127,87.9243L145.021,87.6654L144.741,87.6654L131.622,87.6654C130.497,87.6654,129.574,86.7429,129.574,85.6176L129.574,66.5853C129.574,65.4599,130.497,64.5375,131.622,64.5375L144.741,64.5375L145.018,64.5375L145.125,64.2821L149.868,52.9489L149.976,52.6916L149.778,52.4943L140.416,43.1321C139.667,42.3827,139.639,41.1001,140.426,40.2L153.782,26.8438C154.531,26.0944,155.814,26.0672,156.714,26.8533L165.943,36.0827L166.139,36.2785L166.395,36.1735L177.667,31.554L177.925,31.4482L177.925,31.1692L177.925,17.9882C177.925,16.8629,178.848,15.9404,179.973,15.9404L198.882,15.9404C200.008,15.9404,200.93,16.8629,200.93,17.9882L200.93,31.1692L200.93,31.4454L201.185,31.5525L212.456,36.2953L212.714,36.4037L212.912,36.2059L222.274,26.8438C223.023,26.0944,224.305,26.0672,225.205,26.8533L238.562,40.2095C239.311,40.959,239.339,42.2417,238.552,43.1418L229.323,52.3711L229.127,52.5664L229.232,52.8222L233.851,64.1554L233.957,64.4143L234.236,64.4143L247.356,64.4143C248.481,64.4143,249.404,65.3368,249.404,66.4621L249.404,85.4943C249.404,86.6197,248.481,87.5421,247.356,87.5421L234.298,87.5421ZM218.084,75.8858L218.084,75.8842C218.022,60.1364,205.335,47.3219,189.52,47.3219C173.768,47.3219,160.956,60.1346,160.956,75.8858C160.956,91.637,173.768,104.45,189.52,104.45C205.271,104.45,218.084,91.637,218.084,75.8858Z" fill="none" stroke="rgb(40,176,76)" stroke-width="1" stroke-miterlimit="1"/><g id="e7MxSGQ3epL50" transform="matrix(1 0 0 1 0.000001 0)"><path id="e7MxSGQ3epL51" d="M94.2482,164.709L91.4606,164.709C89.538,164.709,88,163.171,88,161.248L88,158.46C88,156.538,89.538,155,91.4606,155L94.5366,155C96.2668,155,97.7087,156.442,97.7087,158.172L97.7087,161.248C97.8049,163.171,96.1707,164.709,94.2482,164.709Z" fill="rgb(255,255,255)" stroke="none" stroke-width="1" stroke-miterlimit="1"/><path id="e7MxSGQ3epL52" d="M91.7968,155.881C90.2587,155.881,89.0091,157.131,89.0091,158.669L89.0091,161.457C89.0091,162.995,90.2587,164.244,91.7968,164.244L94.5844,164.244C96.1224,164.244,97.3721,162.995,97.3721,161.457L97.3721,158.381C97.3721,157.035,96.2185,155.881,94.8727,155.881L91.7968,155.881ZM94.5844,165.686L91.7968,165.686C89.4897,165.686,87.5672,163.763,87.5672,161.457L87.5672,158.669C87.5672,156.362,89.4897,154.439,91.7968,154.439L94.8727,154.439C96.9875,154.439,98.814,156.17,98.814,158.381L98.814,161.457C98.814,163.763,96.8914,165.686,94.5844,165.686Z" fill="rgb(40,176,76)" stroke="none" stroke-width="1" stroke-miterlimit="1"/></g><g id="e7MxSGQ3epL53"><path id="e7MxSGQ3epL54" d="M165.248,164.709L162.461,164.709C160.538,164.709,159,163.171,159,161.248L159,158.46C159,156.538,160.538,155,162.461,155L165.536,155C167.267,155,168.709,156.442,168.709,158.172L168.709,161.248C168.805,163.171,167.171,164.709,165.248,164.709Z" fill="rgb(255,255,255)" stroke="none" stroke-width="1" stroke-miterlimit="1"/><path id="e7MxSGQ3epL55" d="M162.502,155.881C160.964,155.881,159.714,157.131,159.714,158.669L159.714,161.457C159.714,162.995,160.964,164.244,162.502,164.244L165.29,164.244C166.828,164.244,168.077,162.995,168.077,161.457L168.077,158.381C168.077,157.035,166.923,155.881,165.578,155.881L162.502,155.881ZM165.29,165.686L162.502,165.686C160.195,165.686,158.272,163.763,158.272,161.457L158.272,158.669C158.272,156.362,160.195,154.439,162.502,154.439L165.578,154.439C167.693,154.439,169.519,156.17,169.519,158.381L169.519,161.457C169.519,163.763,167.596,165.686,165.29,165.686Z" fill="rgb(40,176,76)" stroke="none" stroke-width="1" stroke-miterlimit="1"/></g><g id="e7MxSGQ3epL56" transform="matrix(1 0 0 1 0.000001 -2.771845)"><path id="e7MxSGQ3epL57" d="M217.095,272.751L214.307,272.751C212.384,272.751,210.846,271.213,210.846,269.29L210.846,266.503C210.846,264.581,212.384,263.042,214.307,263.042L217.383,263.042C219.113,263.042,220.555,264.484,220.555,266.214L220.555,269.29C220.651,271.117,219.113,272.751,217.095,272.751Z" fill="rgb(255,255,255)" stroke="none" stroke-width="1" stroke-miterlimit="1"/><path id="e7MxSGQ3epL58" d="M214.403,263.62C212.865,263.62,211.615,264.869,211.615,266.407L211.615,269.195C211.615,270.733,212.865,271.983,214.403,271.983L217.191,271.983C218.729,271.983,219.978,270.733,219.978,269.195L219.978,266.119C219.978,264.774,218.824,263.62,217.478,263.62L214.403,263.62ZM217.094,273.424L214.307,273.424C212,273.424,210.077,271.502,210.077,269.195L210.077,266.407C210.077,264.101,212,262.178,214.307,262.178L217.383,262.178C219.497,262.178,221.324,263.908,221.324,266.119L221.324,269.195C221.324,271.502,219.497,273.424,217.094,273.424Z" transform="matrix(1 0 0 1 0 0.0955)" fill="rgb(40,176,76)" stroke="none" stroke-width="1" stroke-miterlimit="1"/></g><g id="e7MxSGQ3epL59" transform="matrix(1 0 0 1 0.000001 0)"><path id="e7MxSGQ3epL60" d="M361.281,308.509L358.494,308.509C356.571,308.509,355.033,306.971,355.033,305.049L355.033,302.261C355.033,300.339,356.571,298.801,358.494,298.801L361.57,298.801C363.3,298.801,364.742,300.243,364.742,301.973L364.742,305.049C364.838,306.971,363.204,308.509,361.281,308.509Z" fill="rgb(255,255,255)" stroke="none" stroke-width="1" stroke-miterlimit="1"/><path id="e7MxSGQ3epL61" d="M358.494,299.473C356.956,299.473,355.707,300.723,355.707,302.261L355.707,305.049C355.707,306.587,356.956,307.836,358.494,307.836L361.282,307.836C362.82,307.836,364.069,306.587,364.069,305.049L364.069,301.973C364.069,300.627,362.916,299.473,361.57,299.473L358.494,299.473ZM361.282,309.279L358.494,309.279C356.187,309.279,354.264,307.355,354.264,305.049L354.264,302.261C354.264,299.954,356.187,298.031,358.494,298.031L361.57,298.031C363.685,298.031,365.512,299.762,365.512,301.973L365.512,305.049C365.512,307.355,363.589,309.279,361.282,309.279Z" fill="rgb(40,176,76)" stroke="none" stroke-width="1" stroke-miterlimit="1"/></g><g id="e7MxSGQ3epL62" transform="matrix(1 0 0 1 0 0.000001)"><g id="e7MxSGQ3epL63"><path id="e7MxSGQ3epL64" d="M542.5,185.5L594.5,185.5L594.5,223C594.5,227.142,591.142,230.5,587,230.5L550,230.5C545.858,230.5,542.5,227.142,542.5,223L542.5,185.5Z" fill="none" stroke="rgb(0,0,0)" stroke-width="1" stroke-miterlimit="1"/><ellipse id="e7MxSGQ3epL65" rx="26.5" ry="7.5" transform="matrix(1 0 0 1 568.5 185.354)" fill="rgb(0,0,0)" stroke="none" stroke-width="1" stroke-miterlimit="1"/></g><path id="e7MxSGQ3epL66" d="M430.248,23.7087L427.46,23.7087C425.538,23.7087,424,22.1707,424,20.2482L424,17.4605C424,15.538,425.538,14,427.46,14L430.536,14C432.267,14,433.709,15.4419,433.709,17.1722L433.709,20.2482C433.805,22.1707,432.171,23.7087,430.248,23.7087Z" fill="rgb(255,255,255)" stroke="none" stroke-width="1" stroke-miterlimit="1"/><path id="e7MxSGQ3epL67" d="M427.023,14.4709C425.485,14.4709,424.234,15.7206,424.234,17.2586L424.234,20.0462C424.234,21.5843,425.485,22.8339,427.023,22.8339L429.81,22.8339C431.348,22.8339,432.598,21.5843,432.598,20.0462L432.598,16.9702C432.598,15.6245,431.444,14.4709,430.099,14.4709L427.023,14.4709ZM429.81,24.2758L427.023,24.2758C424.715,24.2758,422.793,22.3532,422.793,20.0462L422.793,17.2586C422.793,14.9516,424.715,13.0291,427.023,13.0291L430.099,13.0291C432.213,13.0291,434.04,14.7593,434.04,16.9702L434.04,20.0462C434.04,22.3532,432.117,24.2758,429.81,24.2758Z" fill="rgb(38,50,56)" stroke="none" stroke-width="1" stroke-miterlimit="1"/></g><g id="e7MxSGQ3epL68"><path id="e7MxSGQ3epL69" d="M544.248,212.709L541.46,212.709C539.538,212.709,538,211.171,538,209.248L538,206.46C538,204.538,539.538,203,541.46,203L544.536,203C546.267,203,547.709,204.442,547.709,206.172L547.709,209.248C547.805,211.171,546.171,212.709,544.248,212.709Z" fill="rgb(255,255,255)" stroke="none" stroke-width="1" stroke-miterlimit="1"/><path id="e7MxSGQ3epL70" d="M540.983,203.295C539.445,203.295,538.194,204.545,538.194,206.083L538.194,208.871C538.194,210.409,539.445,211.658,540.983,211.658L543.77,211.658C545.308,211.658,546.558,210.409,546.558,208.871L546.558,205.795C546.558,204.449,545.404,203.295,544.059,203.295L540.983,203.295ZM543.77,213.101L540.983,213.101C538.675,213.101,536.753,211.177,536.753,208.871L536.753,206.083C536.753,203.776,538.675,201.853,540.983,201.853L544.059,201.853C546.173,201.853,548,203.584,548,205.795L548,208.871C548,211.177,546.077,213.101,543.77,213.101Z" fill="rgb(38,50,56)" stroke="none" stroke-width="1" stroke-miterlimit="1"/></g></g><path id="e7MxSGQ3epL71" d="M225.491,251.807L225.503,251.307C225.494,251.307,225.486,251.307,225.478,251.307L225.491,251.807ZM225.953,251.813L225.953,251.313L225.953,251.313L225.953,251.813ZM255.543,231.659L255.897,231.306L255.897,231.306L255.543,231.659ZM244.223,228.201L243.739,228.326C243.796,228.547,243.995,228.701,244.223,228.701L244.223,228.201ZM238.956,219.24L238.612,219.602L238.612,219.602L238.956,219.24ZM219.383,215.21L219.557,215.678L219.557,215.678L219.383,215.21ZM218.592,215.523L218.165,215.783C218.294,215.995,218.558,216.08,218.787,215.984L218.592,215.523ZM214.601,210.587L214.257,210.95L214.257,210.95L214.601,210.587ZM202.879,204.491L202.779,204.981L202.879,204.491ZM189.69,205.487L189.517,205.018L189.517,205.018L189.69,205.487ZM179.028,213.274L178.633,212.967L178.633,212.967L179.028,213.274ZM174.123,225.493L173.625,225.442L174.123,225.493ZM176.46,238.443L176.012,238.664L176.012,238.664L176.46,238.443ZM185.332,248.201L185.069,248.626L185.069,248.626L185.332,248.201ZM198.052,251.812L198.052,251.312L198.051,251.312L198.052,251.812ZM225.479,252.307C225.637,252.311,225.795,252.313,225.954,252.313L225.953,251.313C225.803,251.313,225.653,251.311,225.503,251.307L225.479,252.307ZM225.953,252.313L247.198,252.313L247.198,251.313L225.953,251.313L225.953,252.313ZM247.198,252.313C250.46,252.313,253.59,251.016,255.897,248.708L255.19,248.001C253.07,250.121,250.195,251.313,247.198,251.313L247.198,252.313ZM255.897,248.708C258.204,246.4,259.5,243.271,259.5,240.007L258.5,240.007C258.5,243.005,257.309,245.881,255.19,248.001L255.897,248.708ZM259.5,240.007C259.5,236.743,258.204,233.613,255.897,231.306L255.19,232.013C257.309,234.133,258.5,237.008,258.5,240.007L259.5,240.007ZM255.897,231.306C253.59,228.998,250.46,227.701,247.198,227.701L247.198,228.701C250.195,228.701,253.07,229.892,255.19,232.013L255.897,231.306ZM247.198,227.701L244.223,227.701L244.223,228.701L247.198,228.701L247.198,227.701ZM244.708,228.076C243.801,224.565,241.928,221.378,239.301,218.877L238.612,219.602C241.103,221.973,242.88,224.996,243.739,228.326L244.708,228.076ZM239.301,218.877C236.674,216.377,233.399,214.664,229.847,213.933L229.646,214.912C233.014,215.606,236.12,217.231,238.612,219.602L239.301,218.877ZM229.847,213.933C226.296,213.202,222.61,213.482,219.21,214.741L219.557,215.678C222.782,214.484,226.277,214.219,229.646,214.912L229.847,213.933ZM219.21,214.741C218.936,214.842,218.665,214.949,218.398,215.062L218.787,215.984C219.041,215.876,219.298,215.775,219.557,215.678L219.21,214.741ZM219.019,215.263C217.897,213.42,216.529,211.724,214.945,210.224L214.257,210.95C215.777,212.389,217.089,214.016,218.165,215.783L219.019,215.263ZM214.945,210.224C211.62,207.077,207.474,204.921,202.98,204.001L202.779,204.981C207.092,205.864,211.068,207.932,214.257,210.95L214.945,210.224ZM202.98,204.001C198.485,203.081,193.821,203.433,189.517,205.018L189.863,205.956C193.992,204.436,198.467,204.098,202.779,204.981L202.98,204.001ZM189.517,205.018C185.214,206.602,181.443,209.356,178.633,212.967L179.423,213.581C182.117,210.118,185.734,207.477,189.863,205.956L189.517,205.018ZM178.633,212.967C175.824,216.577,174.089,220.899,173.625,225.442L174.62,225.544C175.065,221.188,176.728,217.043,179.423,213.581L178.633,212.967ZM173.625,225.442C173.162,229.985,173.989,234.566,176.012,238.664L176.909,238.222C174.969,234.291,174.176,229.899,174.62,225.544L173.625,225.442ZM176.012,238.664C178.035,242.763,181.173,246.214,185.069,248.626L185.596,247.776C181.858,245.462,178.849,242.152,176.909,238.222L176.012,238.664ZM185.069,248.626C188.965,251.039,193.463,252.316,198.052,252.312L198.051,251.312C193.649,251.316,189.333,250.091,185.596,247.776L185.069,248.626ZM198.052,252.312L225.09,252.312L225.09,251.312L198.052,251.312L198.052,252.312ZM225.09,252.312C225.228,252.312,225.366,252.311,225.504,252.307L225.478,251.307C225.349,251.311,225.219,251.312,225.09,251.312L225.09,252.312Z" fill="rgb(0,0,0)" stroke="none" stroke-width="1" stroke-miterlimit="1"/></g><script><![CDATA[!function(t,n){"object"==typeof exports&&"undefined"!=typeof module?module.exports=n():"function"==typeof define&&define.amd?define(n):(t="undefined"!=typeof globalThis?globalThis:t||self).__SVGATOR_PLAYER__=n()}(this,(function(){"use strict";function t(n){return(t="function"==typeof Symbol&&"symbol"==typeof Symbol.iterator?function(t){return typeof t}:function(t){return t&&"function"==typeof Symbol&&t.constructor===Symbol&&t!==Symbol.prototype?"symbol":typeof t})(n)}function n(t,n){if(!(t instanceof n))throw new TypeError("Cannot call a class as a function")}function r(t,n){for(var r=0;r<n.length;r++){var e=n[r];e.enumerable=e.enumerable||!1,e.configurable=!0,"value"in e&&(e.writable=!0),Object.defineProperty(t,e.key,e)}}function e(t,n,e){return n&&r(t.prototype,n),e&&r(t,e),t}function i(t){return(i=Object.setPrototypeOf?Object.getPrototypeOf:function(t){return t.__proto__||Object.getPrototypeOf(t)})(t)}function o(t,n){return(o=Object.setPrototypeOf||function(t,n){return t.__proto__=n,t})(t,n)}function u(t,n){return!n||"object"!=typeof n&&"function"!=typeof n?function(t){if(void 0===t)throw new ReferenceError("this hasn't been initialised - super() hasn't been called");return t}(t):n}function a(t){var n=function(){if("undefined"==typeof Reflect||!Reflect.construct)return!1;if(Reflect.construct.sham)return!1;if("function"==typeof Proxy)return!0;try{return Boolean.prototype.valueOf.call(Reflect.construct(Boolean,[],(function(){}))),!0}catch(t){return!1}}();return function(){var r,e=i(t);if(n){var o=i(this).constructor;r=Reflect.construct(e,arguments,o)}else r=e.apply(this,arguments);return u(this,r)}}function l(t,n,r){return(l="undefined"!=typeof Reflect&&Reflect.get?Reflect.get:function(t,n,r){var e=function(t,n){for(;!Object.prototype.hasOwnProperty.call(t,n)&&null!==(t=i(t)););return t}(t,n);if(e){var o=Object.getOwnPropertyDescriptor(e,n);return o.get?o.get.call(r):o.value}})(t,n,r||t)}var f=s(Math.pow(10,-6));function s(t){var n=arguments.length>1&&void 0!==arguments[1]?arguments[1]:6;if(Number.isInteger(t))return t;var r=Math.pow(10,n);return Math.round((+t+Number.EPSILON)*r)/r}function c(t,n){var r=arguments.length>2&&void 0!==arguments[2]?arguments[2]:f;return Math.abs(t-n)<r}var h=Math.PI/180;function v(t){return t}function y(t,n,r){var e=1-r;return 3*r*e*(t*e+n*r)+r*r*r}function d(){var t=arguments.length>0&&void 0!==arguments[0]?arguments[0]:0,n=arguments.length>1&&void 0!==arguments[1]?arguments[1]:0,r=arguments.length>2&&void 0!==arguments[2]?arguments[2]:1,e=arguments.length>3&&void 0!==arguments[3]?arguments[3]:1;return t<0||t>1||r<0||r>1?null:c(t,n)&&c(r,e)?v:function(i){if(i<=0)return t>0?i*n/t:0===n&&r>0?i*e/r:0;if(i>=1)return r<1?1+(i-1)*(e-1)/(r-1):1===r&&t<1?1+(i-1)*(n-1)/(t-1):1;for(var o,u=0,a=1;u<a;){var l=y(t,r,o=(u+a)/2);if(c(i,l))break;l<i?u=o:a=o}return y(n,e,o)}}function g(){return 1}function p(t){return 1===t?1:0}function m(){var t=arguments.length>0&&void 0!==arguments[0]?arguments[0]:1,n=arguments.length>1&&void 0!==arguments[1]?arguments[1]:0;if(1===t){if(0===n)return p;if(1===n)return g}var r=1/t;return function(t){return t>=1?1:(t+=n*r)-t%r}}function b(t,n,r){return t>=.5?r:n}function w(t,n,r){return 0===t||n===r?n:t*(r-n)+n}function x(t,n,r){var e=w(t,n,r);return e<=0?0:e}function k(t,n,r){return 0===t?n:1===t?r:{x:w(t,n.x,r.x),y:w(t,n.y,r.y)}}function A(t,n,r){var e=function(t,n,r){return Math.round(w(t,n,r))}(t,n,r);return e<=0?0:e>=255?255:e}function _(t,n,r){return 0===t?n:1===t?r:{r:A(t,n.r,r.r),g:A(t,n.g,r.g),b:A(t,n.b,r.b),a:w(t,null==n.a?1:n.a,null==r.a?1:r.a)}}function S(t,n,r){if(0===t)return n;if(1===t)return r;var e=n.length;if(e!==r.length)return b(t,n,r);for(var i=[],o=0;o<e;o++)i.push(_(t,n[o],r[o]));return i}function O(t,n){for(var r=[],e=0;e<t;e++)r.push(n);return r}function M(t,n){if(--n<=0)return t;var r=(t=Object.assign([],t)).length;do{for(var e=0;e<r;e++)t.push(t[e])}while(--n>0);return t}var j,P=function(){function t(r){n(this,t),this.list=r,this.length=r.length}return e(t,[{key:"setAttribute",value:function(t,n){for(var r=this.list,e=0;e<this.length;e++)r[e].setAttribute(t,n)}},{key:"removeAttribute",value:function(t){for(var n=this.list,r=0;r<this.length;r++)n[r].removeAttribute(t)}},{key:"style",value:function(t,n){for(var r=this.list,e=0;e<this.length;e++)r[e].style[t]=n}}]),t}(),B=/-./g,E=function(t,n){return n.toUpperCase()};function F(t){return"function"==typeof t?t:b}function I(t){return t?"function"==typeof t?t:Array.isArray(t)?function(t){var n=arguments.length>1&&void 0!==arguments[1]?arguments[1]:v;if(!Array.isArray(t))return n;switch(t.length){case 1:return m(t[0])||n;case 2:return m(t[0],t[1])||n;case 4:return d(t[0],t[1],t[2],t[3])||n}return n}(t,null):function(t,n){var r=arguments.length>2&&void 0!==arguments[2]?arguments[2]:v;switch(t){case"linear":return v;case"steps":return m(n.steps||1,n.jump||0)||r;case"bezier":case"cubic-bezier":return d(n.x1||0,n.y1||0,n.x2||0,n.y2||0)||r}return r}(t.type,t.value,null):null}function R(t,n,r){var e=arguments.length>3&&void 0!==arguments[3]&&arguments[3],i=n.length-1;if(t<=n[0].t)return e?[0,0,n[0].v]:n[0].v;if(t>=n[i].t)return e?[i,1,n[i].v]:n[i].v;var o,u=n[0],a=null;for(o=1;o<=i;o++){if(!(t>n[o].t)){a=n[o];break}u=n[o]}return null==a?e?[i,1,n[i].v]:n[i].v:u.t===a.t?e?[o,1,a.v]:a.v:(t=(t-u.t)/(a.t-u.t),u.e&&(t=u.e(t)),e?[o,t,r(t,u.v,a.v)]:r(t,u.v,a.v))}function q(t,n){var r=arguments.length>2&&void 0!==arguments[2]?arguments[2]:null;return t&&t.length?"function"!=typeof n?null:("function"!=typeof r&&(r=null),function(e){var i=R(e,t,n);return null!=i&&r&&(i=r(i)),i}):null}function T(t,n){return t.t-n.t}function N(n,r,e,i,o){var u,a="@"===e[0],l="#"===e[0],f=j[e],s=b;switch(a?(u=e.substr(1),e=u.replace(B,E)):l&&(e=e.substr(1)),t(f)){case"function":if(s=f(i,o,R,I,e,a,r,n),l)return s;break;case"string":s=q(i,F(f));break;case"object":if((s=q(i,F(f.i),f.f))&&"function"==typeof f.u)return f.u(r,s,e,a,n)}return s?function(t,n,r){var e=arguments.length>3&&void 0!==arguments[3]&&arguments[3];if(e)return t instanceof P?function(e){return t.style(n,r(e))}:function(e){return t.style[n]=r(e)};if(Array.isArray(n)){var i=n.length;return function(e){var o=r(e);if(null==o)for(var u=0;u<i;u++)t[u].removeAttribute(n);else for(var a=0;a<i;a++)t[a].setAttribute(n,o)}}return function(e){var i=r(e);null==i?t.removeAttribute(n):t.setAttribute(n,i)}}(r,e,s,a):null}function C(n,r,e,i){if(!i||"object"!==t(i))return null;var o=null,u=null;return Array.isArray(i)?u=function(t){if(!t||!t.length)return null;for(var n=0;n<t.length;n++)t[n].e&&(t[n].e=I(t[n].e));return t.sort(T)}(i):(u=i.keys,o=i.data||null),u?N(n,r,e,u,o):null}function z(t,n,r){if(!r)return null;var e=[];for(var i in r)if(r.hasOwnProperty(i)){var o=C(t,n,i,r[i]);o&&e.push(o)}return e.length?e:null}function L(t,n){if(!n.duration||n.duration<0)return null;var r=function(t,n){if(!n)return null;var r=[];if(Array.isArray(n))for(var e=n.length,i=0;i<e;i++){var o=n[i];if(2===o.length){var u=null;if("string"==typeof o[0])u=t.getElementById(o[0]);else if(Array.isArray(o[0])){u=[];for(var a=0;a<o[0].length;a++)if("string"==typeof o[0][a]){var l=t.getElementById(o[0][a]);l&&u.push(l)}u=u.length?1===u.length?u[0]:new P(u):null}if(u){var f=z(t,u,o[1]);f&&(r=r.concat(f))}}}else for(var s in n)if(n.hasOwnProperty(s)){var c=t.getElementById(s);if(c){var h=z(t,c,n[s]);h&&(r=r.concat(h))}}return r.length?r:null}(t,n.elements);return r?function(t,n){var r=arguments.length>2&&void 0!==arguments[2]?arguments[2]:1/0,e=arguments.length>3&&void 0!==arguments[3]?arguments[3]:1,i=arguments.length>4&&void 0!==arguments[4]&&arguments[4],o=arguments.length>5&&void 0!==arguments[5]?arguments[5]:1,u=t.length,a=e>0?n:0;i&&r%2==0&&(a=n-a);var l=null;return function(f,s){var c=f%n,h=1+(f-c)/n;s*=e,i&&h%2==0&&(s=-s);var v=!1;if(h>r)c=a,v=!0,-1===o&&(c=e>0?0:n);else if(s<0&&(c=n-c),c===l)return!1;l=c;for(var y=0;y<u;y++)t[y](c);return v}}(r,n.duration,n.iterations||1/0,n.direction||1,!!n.alternate,n.fill||1):null}var D=function(){function t(r,e){var i=arguments.length>2&&void 0!==arguments[2]?arguments[2]:{};n(this,t),this._id=0,this._running=!1,this._rollingBack=!1,this._animations=r,this.duration=e.duration,this.alternate=e.alternate,this.fill=e.fill,this.iterations=e.iterations,this.direction=i.direction||1,this.speed=i.speed||1,this.fps=i.fps||100,this.offset=i.offset||0,this.rollbackStartOffset=0}return e(t,[{key:"_rollback",value:function(){var t=this,n=1/0,r=null;this.rollbackStartOffset=this.offset,this._rollingBack||(this._rollingBack=!0,this._running=!0);this._id=window.requestAnimationFrame((function e(i){if(t._rollingBack){null==r&&(r=i);var o=i-r,u=t.rollbackStartOffset-o,a=Math.round(u*t.speed);if(a>t.duration&&n!=1/0){var l=!!t.alternate&&a/t.duration%2>1,f=a%t.duration;a=(f+=l?t.duration:0)||t.duration}var s=t.fps?1e3/t.fps:0,c=Math.max(0,a);if(c<n-s){t.offset=c,n=c;for(var h=t._animations,v=h.length,y=0;y<v;y++)h[y](c,t.direction)}var d=!1;if(t.iterations>0&&-1===t.fill){var g=t.iterations*t.duration,p=g==a;a=p?0:a,t.offset=p?0:t.offset,d=a>g}a>0&&t.offset>=a&&!d?t._id=window.requestAnimationFrame(e):t.stop()}}))}},{key:"_start",value:function(){var t=this,n=arguments.length>0&&void 0!==arguments[0]?arguments[0]:0,r=-1/0,e=null,i={},o=function o(u){t._running=!0,null==e&&(e=u);var a=Math.round((u-e+n)*t.speed),l=t.fps?1e3/t.fps:0;if(a>r+l&&!t._rollingBack){t.offset=a,r=a;for(var f=t._animations,s=f.length,c=0,h=0;h<s;h++)i[h]?c++:(i[h]=f[h](a,t.direction),i[h]&&c++);if(c===s)return void t._stop()}t._id=window.requestAnimationFrame(o)};this._id=window.requestAnimationFrame(o)}},{key:"_stop",value:function(){this._id&&window.cancelAnimationFrame(this._id),this._running=!1,this._rollingBack=!1}},{key:"play",value:function(){!this._rollingBack&&this._running||(this._rollingBack=!1,this.rollbackStartOffset>this.duration&&(this.offset=this.rollbackStartOffset-(this.rollbackStartOffset-this.offset)%this.duration,this.rollbackStartOffset=0),this._start(this.offset))}},{key:"stop",value:function(){this._stop(),this.offset=0,this.rollbackStartOffset=0;var t=this.direction,n=this._animations;window.requestAnimationFrame((function(){for(var r=0;r<n.length;r++)n[r](0,t)}))}},{key:"reachedToEnd",value:function(){return this.iterations>0&&this.offset>=this.iterations*this.duration}},{key:"restart",value:function(){this._stop(),this.offset=0,this._start()}},{key:"pause",value:function(){this._stop()}},{key:"reverse",value:function(){this.direction=-this.direction}}],[{key:"build",value:function(n,r){return(n=function(t,n){if(j=n,!t||!t.root||!Array.isArray(t.animations))return null;for(var r=document.getElementsByTagName("svg"),e=!1,i=0;i<r.length;i++)if(r[i].id===t.root&&!r[i].svgatorAnimation){(e=r[i]).svgatorAnimation=!0;break}if(!e)return null;var o=t.animations.map((function(t){return L(e,t)})).filter((function(t){return!!t}));return o.length?{element:e,animations:o,animationSettings:t.animationSettings,options:t.options||void 0}:null}(n,r))?{el:n.element,options:n.options||{},player:new t(n.animations,n.animationSettings,n.options)}:null}}]),t}();function Q(t){return s(t)+""}function U(t){var n=arguments.length>1&&void 0!==arguments[1]?arguments[1]:" ";return t&&t.length?t.map(Q).join(n):""}function V(t){return t?null==t.a||t.a>=1?"rgb("+t.r+","+t.g+","+t.b+")":"rgba("+t.r+","+t.g+","+t.b+","+t.a+")":"transparent"}!function(){for(var t=0,n=["ms","moz","webkit","o"],r=0;r<n.length&&!window.requestAnimationFrame;++r)window.requestAnimationFrame=window[n[r]+"RequestAnimationFrame"],window.cancelAnimationFrame=window[n[r]+"CancelAnimationFrame"]||window[n[r]+"CancelRequestAnimationFrame"];window.requestAnimationFrame||(window.requestAnimationFrame=function(n){var r=Date.now(),e=Math.max(0,16-(r-t)),i=window.setTimeout((function(){n(r+e)}),e);return t=r+e,i},window.cancelAnimationFrame=window.clearTimeout)}();var G={f:null,i:function(t,n,r){return 0===t?n:1===t?r:{x:x(t,n.x,r.x),y:x(t,n.y,r.y)}},u:function(t,n){return function(r){var e=n(r);t.setAttribute("rx",Q(e.x)),t.setAttribute("ry",Q(e.y))}}},H={f:null,i:function(t,n,r){return 0===t?n:1===t?r:{width:x(t,n.width,r.width),height:x(t,n.height,r.height)}},u:function(t,n){return function(r){var e=n(r);t.setAttribute("width",Q(e.width)),t.setAttribute("height",Q(e.height))}}},Y=Math.sin,Z=Math.cos,J=Math.acos,K=Math.asin,W=Math.tan,X=Math.atan2,$=Math.PI/180,tt=180/Math.PI,nt=Math.sqrt,rt=function(){function t(){var r=arguments.length>0&&void 0!==arguments[0]?arguments[0]:1,e=arguments.length>1&&void 0!==arguments[1]?arguments[1]:0,i=arguments.length>2&&void 0!==arguments[2]?arguments[2]:0,o=arguments.length>3&&void 0!==arguments[3]?arguments[3]:1,u=arguments.length>4&&void 0!==arguments[4]?arguments[4]:0,a=arguments.length>5&&void 0!==arguments[5]?arguments[5]:0;n(this,t),this.m=[r,e,i,o,u,a],this.i=null,this.w=null,this.s=null}return e(t,[{key:"determinant",get:function(){var t=this.m;return t[0]*t[3]-t[1]*t[2]}},{key:"isIdentity",get:function(){if(null===this.i){var t=this.m;this.i=1===t[0]&&0===t[1]&&0===t[2]&&1===t[3]&&0===t[4]&&0===t[5]}return this.i}},{key:"point",value:function(t,n){var r=this.m;return{x:r[0]*t+r[2]*n+r[4],y:r[1]*t+r[3]*n+r[5]}}},{key:"translateSelf",value:function(){var t=arguments.length>0&&void 0!==arguments[0]?arguments[0]:0,n=arguments.length>1&&void 0!==arguments[1]?arguments[1]:0;if(!t&&!n)return this;var r=this.m;return r[4]+=r[0]*t+r[2]*n,r[5]+=r[1]*t+r[3]*n,this.w=this.s=this.i=null,this}},{key:"rotateSelf",value:function(){var t=arguments.length>0&&void 0!==arguments[0]?arguments[0]:0;if(t%=360){var n=Y(t*=$),r=Z(t),e=this.m,i=e[0],o=e[1];e[0]=i*r+e[2]*n,e[1]=o*r+e[3]*n,e[2]=e[2]*r-i*n,e[3]=e[3]*r-o*n,this.w=this.s=this.i=null}return this}},{key:"scaleSelf",value:function(){var t=arguments.length>0&&void 0!==arguments[0]?arguments[0]:1,n=arguments.length>1&&void 0!==arguments[1]?arguments[1]:1;if(1!==t||1!==n){var r=this.m;r[0]*=t,r[1]*=t,r[2]*=n,r[3]*=n,this.w=this.s=this.i=null}return this}},{key:"skewSelf",value:function(t,n){if(n%=360,(t%=360)||n){var r=this.m,e=r[0],i=r[1],o=r[2],u=r[3];t&&(t=W(t*$),r[2]+=e*t,r[3]+=i*t),n&&(n=W(n*$),r[0]+=o*n,r[1]+=u*n),this.w=this.s=this.i=null}return this}},{key:"resetSelf",value:function(){var t=arguments.length>0&&void 0!==arguments[0]?arguments[0]:1,n=arguments.length>1&&void 0!==arguments[1]?arguments[1]:0,r=arguments.length>2&&void 0!==arguments[2]?arguments[2]:0,e=arguments.length>3&&void 0!==arguments[3]?arguments[3]:1,i=arguments.length>4&&void 0!==arguments[4]?arguments[4]:0,o=arguments.length>5&&void 0!==arguments[5]?arguments[5]:0,u=this.m;return u[0]=t,u[1]=n,u[2]=r,u[3]=e,u[4]=i,u[5]=o,this.w=this.s=this.i=null,this}},{key:"recomposeSelf",value:function(){var t=arguments.length>0&&void 0!==arguments[0]?arguments[0]:null,n=arguments.length>1&&void 0!==arguments[1]?arguments[1]:null,r=arguments.length>2&&void 0!==arguments[2]?arguments[2]:null,e=arguments.length>3&&void 0!==arguments[3]?arguments[3]:null,i=arguments.length>4&&void 0!==arguments[4]?arguments[4]:null;return this.isIdentity||this.resetSelf(),t&&(t.x||t.y)&&this.translateSelf(t.x,t.y),n&&this.rotateSelf(n),r&&(r.x&&this.skewSelf(r.x,0),r.y&&this.skewSelf(0,r.y)),!e||1===e.x&&1===e.y||this.scaleSelf(e.x,e.y),i&&(i.x||i.y)&&this.translateSelf(i.x,i.y),this}},{key:"decompose",value:function(){var t=arguments.length>0&&void 0!==arguments[0]?arguments[0]:0,n=arguments.length>1&&void 0!==arguments[1]?arguments[1]:0,r=this.m,e=r[0]*r[0]+r[1]*r[1],i=[[r[0],r[1]],[r[2],r[3]]],o=nt(e);if(0===o)return{origin:{x:s(r[4]),y:s(r[5])},translate:{x:s(t),y:s(n)},scale:{x:0,y:0},skew:{x:0,y:0},rotate:0};i[0][0]/=o,i[0][1]/=o;var u=r[0]*r[3]-r[1]*r[2]<0;u&&(o=-o);var a=i[0][0]*i[1][0]+i[0][1]*i[1][1];i[1][0]-=i[0][0]*a,i[1][1]-=i[0][1]*a;var l=nt(i[1][0]*i[1][0]+i[1][1]*i[1][1]);if(0===l)return{origin:{x:s(r[4]),y:s(r[5])},translate:{x:s(t),y:s(n)},scale:{x:s(o),y:0},skew:{x:0,y:0},rotate:0};i[1][0]/=l,i[1][1]/=l,a/=l;var f=0;return i[1][1]<0?(f=J(i[1][1])*tt,i[0][1]<0&&(f=360-f)):f=K(i[0][1])*tt,u&&(f=-f),a=X(a,nt(i[0][0]*i[0][0]+i[0][1]*i[0][1]))*tt,u&&(a=-a),{origin:{x:s(r[4]),y:s(r[5])},translate:{x:s(t),y:s(n)},scale:{x:s(o),y:s(l)},skew:{x:s(a),y:0},rotate:s(f)}}},{key:"toString",value:function(){return null===this.s&&(this.s="matrix("+this.m.map((function(t){return s(t)})).join(" ")+")"),this.s}}]),t}();Object.freeze({M:2,L:2,Z:0,H:1,V:1,C:6,Q:4,T:2,S:4,A:7});var et={},it=null;function ot(n){var r=function(){if(it)return it;if("object"!==("undefined"==typeof document?"undefined":t(document))||!document.createElementNS)return{};var n=document.createElementNS("http://www.w3.org/2000/svg","svg");return n&&n.style?(n.style.position="absolute",n.style.opacity="0.01",n.style.zIndex="-9999",n.style.left="-9999px",n.style.width="1px",n.style.height="1px",it={svg:n}):{}}().svg;if(!r)return function(t){return null};var e=document.createElementNS(r.namespaceURI,"path");e.setAttributeNS(null,"d",n),e.setAttributeNS(null,"fill","none"),e.setAttributeNS(null,"stroke","none"),r.appendChild(e);var i=e.getTotalLength();return function(t){var n=e.getPointAtLength(i*t);return{x:n.x,y:n.y}}}function ut(t){return et[t]?et[t]:et[t]=ot(t)}function at(t,n,r,e){if(!t||!e)return!1;var i=["M",t.x,t.y];if(n&&r&&(i.push("C"),i.push(n.x),i.push(n.y),i.push(r.x),i.push(r.y)),n?!r:r){var o=n||r;i.push("Q"),i.push(o.x),i.push(o.y)}return n||r||i.push("L"),i.push(e.x),i.push(e.y),i.join(" ")}function lt(t,n,r,e){var i=arguments.length>4&&void 0!==arguments[4]?arguments[4]:1,o=at(t,n,r,e),u=ut(o);try{return u(i)}catch(t){return null}}function ft(t,n,r,e){var i=1-e;return i*i*t+2*i*e*n+e*e*r}function st(t,n,r,e){return 2*(1-e)*(n-t)+2*e*(r-n)}function ct(t,n,r,e){var i=arguments.length>4&&void 0!==arguments[4]&&arguments[4],o=lt(t,n,null,r,e);return o||(o={x:ft(t.x,n.x,r.x,e),y:ft(t.y,n.y,r.y,e)}),i&&(o.a=ht(t,n,r,e)),o}function ht(t,n,r,e){return Math.atan2(st(t.y,n.y,r.y,e),st(t.x,n.x,r.x,e))}function vt(t,n,r,e,i){var o=i*i;return i*o*(e-t+3*(n-r))+3*o*(t+r-2*n)+3*i*(n-t)+t}function yt(t,n,r,e,i){var o=1-i;return 3*(o*o*(n-t)+2*o*i*(r-n)+i*i*(e-r))}function dt(t,n,r,e,i){var o=arguments.length>5&&void 0!==arguments[5]&&arguments[5],u=lt(t,n,r,e,i);return u||(u={x:vt(t.x,n.x,r.x,e.x,i),y:vt(t.y,n.y,r.y,e.y,i)}),o&&(u.a=gt(t,n,r,e,i)),u}function gt(t,n,r,e,i){return Math.atan2(yt(t.y,n.y,r.y,e.y,i),yt(t.x,n.x,r.x,e.x,i))}function pt(t,n,r){return t+(n-t)*r}function mt(t,n,r){var e=arguments.length>3&&void 0!==arguments[3]&&arguments[3],i={x:pt(t.x,n.x,r),y:pt(t.y,n.y,r)};return e&&(i.a=bt(t,n)),i}function bt(t,n){return Math.atan2(n.y-t.y,n.x-t.x)}function wt(t,n,r){var e=arguments.length>3&&void 0!==arguments[3]&&arguments[3];if(kt(n)){if(At(r))return ct(n,r.start,r,t,e)}else if(kt(r)){if(n.end)return ct(n,n.end,r,t,e)}else{if(n.end)return r.start?dt(n,n.end,r.start,r,t,e):ct(n,n.end,r,t,e);if(r.start)return ct(n,r.start,r,t,e)}return mt(n,r,t,e)}function xt(t,n,r){var e=wt(t,n,r,!0);return e.a=function(t){var n=arguments.length>1&&void 0!==arguments[1]&&arguments[1];return n?t+Math.PI:t}(e.a)/h,e}function kt(t){return!t.type||"corner"===t.type}function At(t){return null!=t.start&&!kt(t)}var _t=new rt;var St={f:Q,i:w},Ot={f:Q,i:function(t,n,r){var e=w(t,n,r);return e<=0?0:e>=1?1:e}};function Mt(t,n,r,e,i,o,u,a){return n=function(t,n,r){for(var e,i,o,u=t.length-1,a={},l=0;l<=u;l++)(e=t[l]).e&&(e.e=n(e.e)),e.v&&"g"===(i=e.v).t&&i.r&&(o=r.getElementById(i.r))&&(a[i.r]=o.querySelectorAll("stop"));return a}(t,e,a),function(e){var i,o=r(e,t,jt);return o?"c"===o.t?V(o.v):"g"===o.t?(n[o.r]&&function(t,n){for(var r=0,e=t.length;r<e;r++)t[r].setAttribute("stop-color",V(n[r]))}(n[o.r],o.v),(i=o.r)?"url(#"+i+")":"none"):"none":"none"}}function jt(t,n,r){if(0===t)return n;if(1===t)return r;if(n&&r){var e=n.t;if(e===r.t)switch(n.t){case"c":return{t:e,v:_(t,n.v,r.v)};case"g":if(n.r===r.r)return{t:e,v:S(t,n.v,r.v),r:n.r}}}return b(t,n,r)}var Pt={fill:Mt,"fill-opacity":Ot,stroke:Mt,"stroke-opacity":Ot,"stroke-width":St,"stroke-dashoffset":{f:Q,i:w},"stroke-dasharray":{f:function(t){var n=arguments.length>1&&void 0!==arguments[1]?arguments[1]:" ";return t&&t.length>0&&(t=t.map((function(t){return s(t,4)}))),U(t,n)},i:function(t,n,r){var e,i,o,u=n.length,a=r.length;if(u!==a)if(0===u)n=O(u=a,0);else if(0===a)a=u,r=O(u,0);else{var l=(o=(e=u)*(i=a)/function(t,n){for(var r;n;)r=n,n=t%n,t=r;return t||1}(e,i))<0?-o:o;n=M(n,Math.floor(l/u)),r=M(r,Math.floor(l/a)),u=a=l}for(var f=[],c=0;c<u;c++)f.push(s(x(t,n[c],r[c])));return f}},opacity:Ot,transform:function(n,r,e,i){if(!(n=function(n,r){if(!n||"object"!==t(n))return null;var e=!1;for(var i in n)n.hasOwnProperty(i)&&(n[i]&&n[i].length?(n[i].forEach((function(t){t.e&&(t.e=r(t.e))})),e=!0):delete n[i]);return e?n:null}(n,i)))return null;var o=function(t,i,o){var u=arguments.length>3&&void 0!==arguments[3]?arguments[3]:null;return n[t]?e(i,n[t],o):r&&r[t]?r[t]:u};return r&&r.a&&n.o?function(t){var r=e(t,n.o,xt);return _t.recomposeSelf(r,o("r",t,w,0)+r.a,o("k",t,k),o("s",t,k),o("t",t,k)).toString()}:function(t){return _t.recomposeSelf(o("o",t,wt,null),o("r",t,w,0),o("k",t,k),o("s",t,k),o("t",t,k)).toString()}},r:St,"#size":H,"#radius":G,_:function(t,n){if(Array.isArray(t))for(var r=0;r<t.length;r++)this[t[r]]=n;else this[t]=n}};return function(t){!function(t,n){if("function"!=typeof n&&null!==n)throw new TypeError("Super expression must either be null or a function");t.prototype=Object.create(n&&n.prototype,{constructor:{value:t,writable:!0,configurable:!0}}),n&&o(t,n)}(u,t);var r=a(u);function u(){return n(this,u),r.apply(this,arguments)}return e(u,null,[{key:"build",value:function(t){var n=l(i(u),"build",this).call(this,t,Pt);if(!n)return null;n.el,n.options;var r=n.player;return function(t,n,r){t.play()}(r),r}}]),u}(D)}));
__SVGATOR_PLAYER__.build({"root":"e7MxSGQ3epL1","animations":[{"duration":5000,"direction":1,"iterations":0,"fill":1,"alternate":false,"speed":1,"elements":{"e7MxSGQ3epL7":{"transform":{"keys":{"o":[{"t":0,"v":{"x":473.614012,"y":207.8545,"type":"corner"}},{"t":1000,"v":{"x":524.118512,"y":207.8545,"type":"corner"}},{"t":2000,"v":{"x":473.614012,"y":207.8545,"type":"corner"}},{"t":3000,"v":{"x":523.939012,"y":207.8545,"type":"corner"}}]}}},"e7MxSGQ3epL8":{"transform":{"keys":{"o":[{"t":2000,"v":{"x":524.242012,"y":207.8545,"type":"corner"}},{"t":3000,"v":{"x":493.147042,"y":207.8545,"type":"corner"}},{"t":4000,"v":{"x":524.318012,"y":207.8545,"type":"corner"}}]}}},"e7MxSGQ3epL9":{"transform":{"keys":{"o":[{"t":3000,"v":{"x":524.118512,"y":207.8545,"type":"corner"}},{"t":4000,"v":{"x":475.694012,"y":207.8545,"type":"corner"}},{"t":5000,"v":{"x":524.598458,"y":207.8545,"type":"corner"}}]}}},"e7MxSGQ3epL27":{"transform":{"data":{"t":{"x":-465.216003,"y":-89.557053}},"keys":{"o":[{"t":0,"v":{"x":465.216003,"y":89.557053,"type":"corner"}},{"t":1000,"v":{"x":456.898003,"y":89.557053,"type":"corner"}},{"t":2000,"v":{"x":470.959003,"y":89.557053,"type":"corner"}},{"t":4980,"v":{"x":465.276034,"y":89.557053,"type":"corner"}}]}}},"e7MxSGQ3epL30":{"transform":{"data":{"t":{"x":-489.755005,"y":-106.193501}},"keys":{"o":[{"t":0,"v":{"x":489.755005,"y":106.193501,"type":"corner"}},{"t":4000,"v":{"x":509.999451,"y":106.193501,"type":"corner"}},{"t":5000,"v":{"x":489.755005,"y":106.193501,"type":"corner"}}]}}},"e7MxSGQ3epL46":{"transform":{"data":{"s":{"x":0.888619,"y":0.888619}},"keys":{"o":[{"t":0,"v":{"x":215.890857,"y":265.11139,"type":"corner"}},{"t":1000,"v":{"x":215.890857,"y":299.801,"type":"corner"}},{"t":1200,"v":{"x":221.768001,"y":303.67419,"type":"corner"}},{"t":2500,"v":{"x":360.453235,"y":303.642235,"type":"corner"}}]}}},"e7MxSGQ3epL48":{"transform":{"keys":{"o":[{"t":1000,"v":{"x":215.692838,"y":265.090344,"type":"corner"}},{"t":2500,"v":{"x":93.21316,"y":265.072936,"type":"corner"}},{"t":4000,"v":{"x":93.270775,"y":159.624686,"type":"corner"}},{"t":5000,"v":{"x":163.984315,"y":159.634,"type":"corner"}}]}}},"e7MxSGQ3epL49":{"transform":{"data":{"o":{"x":189.489006,"y":76.039704,"type":"corner"},"t":{"x":-189.489006,"y":-76.039704}},"keys":{"r":[{"t":0,"v":0},{"t":5000,"v":-360}]}}}}}],"options":{"start":"load","hover":null,"click":null,"scroll":null,"font":"embed","exportedIds":"unique","svgFormat":"animated","title":"Frame 6"},"animationSettings":{"duration":5000,"direction":1,"iterations":0,"fill":1,"alternate":false,"speed":1}})]]></script></svg>