<svg xmlns="http://www.w3.org/2000/svg" xmlns:xlink="http://www.w3.org/1999/xlink" viewBox="0 0 452 384"><defs><style>.cls-1{fill:none;}.cls-2{fill:#f5f5f5;}.cls-2,.cls-22{fill-rule:evenodd;}.cls-3{fill:#fa4616;}.cls-4{fill:#28b04c;}.cls-5{fill:#047bc1;}.cls-6{fill:#124e91;}.cls-7{fill:#167ec2;}.cls-8{fill:#0e7abf;}.cls-9{fill:#d3e2ee;}.cls-10{fill:#104c8d;}.cls-11{fill:#0068ab;}.cls-12{fill:#1e3667;}.cls-13{fill:#b1c8d5;}.cls-14{fill:#222;}.cls-15{fill:#479da6;}.cls-16{clip-path:url(#clip-path);}.cls-17{clip-path:url(#clip-path-2);}.cls-18{fill:url(#linear-gradient);}.cls-19{clip-path:url(#clip-path-3);}.cls-20{fill:url(#linear-gradient-2);}.cls-21{fill:#252f3e;}.cls-22{fill:#f90;}.cls-23{clip-path:url(#clip-path-5);}.cls-24{fill:url(#linear-gradient-3);}.cls-25{opacity:0.3;}.cls-26{clip-path:url(#clip-path-6);}.cls-27{fill:url(#linear-gradient-4);}.cls-28{fill:#404041;}.cls-29{fill:#f79837;}.cls-30{fill:#ea4335;}.cls-31{fill:#4285f4;}.cls-32{fill:#34a853;}.cls-33{fill:#fbbc05;}.cls-34{fill:#5f6368;}</style><clipPath id="clip-path"><path class="cls-1" d="M42.07,218.09c-1.84,3.62-7.81,4.58-10.21.58a7.3,7.3,0,0,0,13.9-4.48Z"/></clipPath><clipPath id="clip-path-2"><rect class="cls-1" x="10.49" y="201.34" width="69.54" height="30.19"/></clipPath><linearGradient id="linear-gradient" x1="-591.98" y1="1271.3" x2="-563.19" y2="1242.5" gradientTransform="matrix(0, 1, 1, 0, -1222.35, 794.35)" gradientUnits="userSpaceOnUse"><stop offset="0.36" stop-color="#5fd0df" stop-opacity="0"/><stop offset="0.55" stop-color="#5fd0df"/></linearGradient><clipPath id="clip-path-3"><path class="cls-1" d="M36.53,209.43a7.29,7.29,0,0,0-4.71,9.18l3.68-3.9c1.84-3.61,7.81-4.58,10.22-.57a7.34,7.34,0,0,0-7-5.07,7.8,7.8,0,0,0-2.23.36"/></clipPath><linearGradient id="linear-gradient-2" x1="28.43" y1="659.32" x2="57.89" y2="629.87" gradientTransform="translate(0 -428)" xlink:href="#linear-gradient"/><clipPath id="clip-path-5"><path class="cls-1" d="M319.89,192.46l0-.06-.06-.13-1.47-4a15.23,15.23,0,0,1,3.86,2.53h0a1.34,1.34,0,0,1,.38.46,1.5,1.5,0,0,1,.17.69,1.46,1.46,0,0,1-2.85.47m-12.09-23a1.25,1.25,0,0,1,1.09-.88h0a1.29,1.29,0,0,1,1.1.88l6.07,16.67a16.87,16.87,0,0,0-12.55,1.75,17.73,17.73,0,0,0-3.38,2.59Zm.95-2.21a2.61,2.61,0,0,0-2.21,1.76l-9.09,24.95a.68.68,0,0,0,.4.86.93.93,0,0,0,.23,0,.69.69,0,0,0,.54-.28.28.28,0,0,0,.06-.09,15.42,15.42,0,0,1,13.26-7.57,15.3,15.3,0,0,1,4.73.75l1.92,5.16.07.11a2.79,2.79,0,0,0,5.41-.94,2.89,2.89,0,0,0-.32-1.32c-.09-.15-.18-.29-.28-.43a1,1,0,0,0-.12-.17,17,17,0,0,0-5.65-3.47l-.14-.35h0L311.25,169a2.63,2.63,0,0,0-2.21-1.76h-.29"/></clipPath><linearGradient id="linear-gradient-3" x1="-971.46" y1="149.55" x2="-970.6" y2="149.55" gradientTransform="translate(30080.58 -4403.94) scale(30.66)" gradientUnits="userSpaceOnUse"><stop offset="0" stop-color="#ffdd15"/><stop offset="0.03" stop-color="#fed217"/><stop offset="0.17" stop-color="#faad1c"/><stop offset="0.3" stop-color="#f68f20"/><stop offset="0.45" stop-color="#f37824"/><stop offset="0.6" stop-color="#f16726"/><stop offset="0.77" stop-color="#f05d28"/><stop offset="0.99" stop-color="#f05a28"/><stop offset="1" stop-color="#f05a28"/></linearGradient><clipPath id="clip-path-6"><path class="cls-1" d="M318.36,188.39a15.65,15.65,0,0,1,3.85,2.51h0a1.6,1.6,0,0,1,.38.47,1.48,1.48,0,0,1,.18.69h1.33a2.75,2.75,0,0,0-.33-1.32,2.8,2.8,0,0,0-.27-.43,1.18,1.18,0,0,0-.13-.18,17,17,0,0,0-5.64-3.47Zm-14.81-.46a17.43,17.43,0,0,0-3.38,2.59l-1.54,4.13.07-.09A15.38,15.38,0,0,1,312,187a15.73,15.73,0,0,1,4.72.74l-.59-1.56a17.3,17.3,0,0,0-4.13-.51,16.86,16.86,0,0,0-8.41,2.27"/></clipPath><linearGradient id="linear-gradient-4" x1="-970.24" y1="149.01" x2="-969.37" y2="149.01" gradientTransform="translate(28702.33 -4172) scale(29.27)" gradientUnits="userSpaceOnUse"><stop offset="0" stop-color="#fff"/><stop offset="0.33" stop-color="#fff"/><stop offset="0.37" stop-color="#fbfbfb"/><stop offset="0.42" stop-color="#eee"/><stop offset="0.47" stop-color="#d9d9d9"/><stop offset="0.52" stop-color="#bcbbbb"/><stop offset="0.58" stop-color="#969595"/><stop offset="0.63" stop-color="#686666"/><stop offset="0.68" stop-color="#332f30"/><stop offset="0.69" stop-color="#231f20"/><stop offset="0.93" stop-color="#fff"/><stop offset="1" stop-color="#fff"/></linearGradient></defs><g id="Layer_2" data-name="Layer 2"><g id="Layer_1-2" data-name="Layer 1"><path class="cls-2" d="M198.28,250.89a68,68,0,1,0-68-68A68,68,0,0,0,198.28,250.89Z"/><path class="cls-2" d="M335,233a51,51,0,1,0-51-51A51,51,0,0,0,335,233Z"/><path class="cls-2" d="M278,384a68,68,0,1,0-68-68A68,68,0,0,0,278,384Z"/><path class="cls-2" d="M268,116a58,58,0,1,0-58-58A58,58,0,0,0,268,116Z"/><path class="cls-2" d="M58,272A58,58,0,1,0,0,214,58,58,0,0,0,58,272Z"/><path class="cls-2" d="M406,116a46,46,0,1,0-46-46A46,46,0,0,0,406,116Z"/><path class="cls-2" d="M80.33,136.44a54,54,0,1,0-54-54A54,54,0,0,0,80.33,136.44Z"/><g id="Page-1"><path id="UiPath_Logo_full" data-name="UiPath Logo full" class="cls-3" d="M45.36,69.18H71.88V95.69H45.36ZM69.13,92.94v-21h-21v21h21ZM50.51,76v8c0,3.67,2,5.83,5.41,5.83S61.44,87.7,61.44,84V76H58.69v8c0,2.07-.9,3.24-2.7,3.24S53.23,86.05,53.23,84V76ZM65,77.66A1.68,1.68,0,1,0,63.28,76,1.66,1.66,0,0,0,65,77.66Zm-1.37,1.27V89.71h2.75V78.93Zm16.44,6.38c3,0,4.93-1.76,4.93-4.67S83.07,76,80.05,76h-5.2V89.77h2.76v-4.4h2.44Zm-.31-2.19H77.57V78.24h2.17a2.19,2.19,0,0,1,2.44,2.39A2.22,2.22,0,0,1,79.74,83.12Zm6.15,1.23c0,3.23,2.06,5.51,5,5.51a3.79,3.79,0,0,0,3.5-1.65v1.54h2.75V78.93H94.38v1.7a3.82,3.82,0,0,0-3.5-1.8C87.9,78.83,85.89,81.16,85.89,84.35Zm8.48,0a2.82,2.82,0,0,1-2.87,3.07c-1.86,0-2.81-1.32-2.81-3.07,0-1.91,1.07-3.13,2.81-3.13A2.84,2.84,0,0,1,94.37,84.35Zm9.65,3c-1.07,0-1.33-.48-1.33-1.43V81.27h2.39V78.93h-2.39V76H99.94v3H98.67v2.34h1.27v4.67c0,2.55,1.12,3.77,3.77,3.77h1.42V87.37Zm5.36-6.89V75.39h-2.75V89.76h2.75V84c0-1.85,1-3,2.6-3s2.44,1.07,2.44,2.7v5.95h2.75V83.5a4.46,4.46,0,0,0-4.56-4.66A3.4,3.4,0,0,0,109.38,80.48ZM117,75.33v.43h.9v2.76h.53V75.76h.85v-.43Zm5.73,0-1.12,2.55-1.06-2.55h-.64v3.19h.48V76.07l1.07,2.45h.37l1-2.45v2.45h.48V75.33Z"/></g><path d="M221,161.71a2,2,0,0,1-1.1,1.79l0,.83h0a56.83,56.83,0,0,1-.76,6.76.93.93,0,0,1-.91.77H218a.93.93,0,0,1-.75-1.08,51.16,51.16,0,0,0,.73-6.53c0-.26,0-.51,0-.76a2,2,0,1,1,2.95-1.77Zm-1.27,0a.74.74,0,1,0-.74.74A.74.74,0,0,0,219.71,161.71Z"/><path d="M219.56,157.75a.92.92,0,0,1-.75,1.07l-.17,0a.92.92,0,0,1-.91-.76,19.7,19.7,0,0,0-13.88-15.34,21.66,21.66,0,0,0-4.43-.74l-1,0h-1a18.6,18.6,0,0,0-6.81,1.53v0a2,2,0,1,1-2-2,2,2,0,0,1,1,.28l.37-.19.29-.15q.42-.18.93-.36a20.11,20.11,0,0,1,6.65-1.05,19.44,19.44,0,0,1,2.56.15c.5.05,1,.11,1.49.19a21.55,21.55,0,0,1,15.53,11.24A22,22,0,0,1,219.56,157.75Zm-30.21-14.21a.74.74,0,1,0-.74.74A.74.74,0,0,0,189.35,143.54Z"/><path d="M214.47,155a17.28,17.28,0,0,1,1.32,6.66,50,50,0,0,1-2.58,15.91,2,2,0,0,1,.64,1.46,2,2,0,1,1-2.43-2,48.27,48.27,0,0,0,2.52-15.41,15.45,15.45,0,0,0-4.56-11,.93.93,0,0,1,1.31-1.31A17.15,17.15,0,0,1,214.47,155Zm-1.88,24a.74.74,0,1,0-.74.74A.74.74,0,0,0,212.59,179Z"/><path d="M211.67,161.65h0c0,.64,0,1.28,0,1.92a.92.92,0,0,1-.92.89h0a.94.94,0,0,1-.89-1c0-.61,0-1.23,0-1.84a11.46,11.46,0,0,0-9.61-11.29,2,2,0,0,1-1.68.91,2,2,0,1,1,1.87-2.76,13.29,13.29,0,0,1,11.27,13.14Zm-12.4-12.39a.74.74,0,1,0-.74.74A.74.74,0,0,0,199.27,149.26Z"/><path d="M210.29,168.14a.94.94,0,0,1,.76,1.07,46.25,46.25,0,0,1-4.4,13.4.92.92,0,0,1-.83.51.9.9,0,0,1-.42-.1.93.93,0,0,1-.41-1.25,44,44,0,0,0,4.23-12.86A.93.93,0,0,1,210.29,168.14Z"/><path d="M206.28,145.16a2,2,0,1,1-2,2.09,15.82,15.82,0,0,0-3.64-1h0a15.58,15.58,0,0,0-17.55,12.58,1,1,0,0,1-.91.76l-.17,0a.92.92,0,0,1-.75-1.07,17.41,17.41,0,0,1,17.13-14.27,17.69,17.69,0,0,1,2.52.18,17.51,17.51,0,0,1,4.15,1.15A2.06,2.06,0,0,1,206.28,145.16Zm.74,2a.74.74,0,1,0-.74.74A.74.74,0,0,0,207,147.17Z"/><path d="M207,163.46v3.68a9.45,9.45,0,0,1-.3,2.37c0,.2-.09.31-.09.31l-1.06,4.67a42.23,42.23,0,0,1-4.35,9.4.93.93,0,0,1-.79.44.92.92,0,0,1-.49-.14.93.93,0,0,1-.29-1.28,40.37,40.37,0,0,0,4.76-11.09,4,4,0,0,1-2.37.08c-.1.39-.22.78-.34,1.17a.93.93,0,0,1-.89.64.84.84,0,0,1-.27,0,.93.93,0,0,1-.61-1.16q.24-.78.45-1.56a4.12,4.12,0,0,1-.28-.31l-1.53-1.83a34.59,34.59,0,0,1-1.15,4.06,33.92,33.92,0,0,1-5.51,9.95,1,1,0,0,1-.73.35.93.93,0,0,1-.72-1.51A32,32,0,0,0,196,171.1a3.48,3.48,0,0,1-2.4.94h-.3a28.53,28.53,0,0,1-1.46,3.3.92.92,0,0,1-.82.5.92.92,0,0,1-.82-1.35,29.1,29.1,0,0,0,1.36-3.08,3.59,3.59,0,0,1-1.5-2.68,25.68,25.68,0,0,1-4.29,8.51,2,2,0,1,1-1.81-1.16,1.87,1.87,0,0,1,.34,0,23.76,23.76,0,0,0,4.9-14.45h0a9.17,9.17,0,0,1,9.17-9.17,8.9,8.9,0,0,1,1.26.09,9.85,9.85,0,0,1,4.92,2.16A7.15,7.15,0,0,1,207,159.6Zm-2.18,4.67v-9.68h0v0a1.34,1.34,0,0,0-1.34-1.34h-.06a1.34,1.34,0,0,0-1.34,1.34v4.36a1.11,1.11,0,0,1-.56,1l-.16.07a1.09,1.09,0,0,1-1.2-.33l-.86-1-1.36-1.63-1.47-1.75-1.15-1.38a.08.08,0,0,0,0,0,1.71,1.71,0,0,0-1.29-.58,1.74,1.74,0,0,0-1.74,1.73v9.68a1.45,1.45,0,0,0,.1.51,1.37,1.37,0,0,0,1.27.85,1.31,1.31,0,0,0,.44-.07,1.36,1.36,0,0,0,.93-1.29v-4.34a1.07,1.07,0,0,1,.72-1,.94.94,0,0,1,.37-.07,1.09,1.09,0,0,1,.83.39l.46.55,1.66,2L201,168.3l.79.94a1.73,1.73,0,0,0,.8.54,1.59,1.59,0,0,0,.53.08A1.73,1.73,0,0,0,204.82,168.13ZM200.24,157a3.58,3.58,0,0,1,1.69-1.7,7.38,7.38,0,0,0-6.77-.17,4,4,0,0,1,1.83,1.23l.34.4,1.48,1.78,1.09,1.3v-1.34A3.47,3.47,0,0,1,200.24,157Zm-15.52,21.13a.74.74,0,1,0-.74.74A.74.74,0,0,0,184.72,178.08Z"/><path class="cls-4" d="M204.82,162v6.09a1.73,1.73,0,0,1-1.74,1.73,1.59,1.59,0,0,1-.53-.08,1.73,1.73,0,0,1-.8-.54l-.79-.94L199,166l-1.66-2-.46-.55a1.09,1.09,0,0,0-.83-.39.94.94,0,0,0-.37.07,1.07,1.07,0,0,0-.72,1v4.34a1.36,1.36,0,0,1-.93,1.29,1.31,1.31,0,0,1-.44.07,1.37,1.37,0,0,1-1.27-.85,1.45,1.45,0,0,1-.1-.51v-9.68a1.74,1.74,0,0,1,1.74-1.73,1.71,1.71,0,0,1,1.29.58.08.08,0,0,1,0,0l1.15,1.38,1.47,1.75,1.36,1.63.86,1a1.09,1.09,0,0,0,1.2.33l.16-.07a1.11,1.11,0,0,0,.56-1v-4.36a1.34,1.34,0,0,1,1.34-1.34h.06a1.34,1.34,0,0,1,1.34,1.34v0h0Z"/><path d="M199.12,175.63a2,2,0,0,1,0,4H199c-.88,1.46-2,3.22-2.71,4.2a.92.92,0,0,1-1.3.21.93.93,0,0,1-.21-1.29c.67-.93,1.78-2.66,2.63-4.07a2,2,0,0,1-.3-1.05A2,2,0,0,1,199.12,175.63Zm.74,2a.75.75,0,1,0-.74.74A.74.74,0,0,0,199.86,177.63Z"/><path d="M194.92,149.74a.93.93,0,0,1-.54,1.2,11.39,11.39,0,0,0-5.06,3.74h0a11.31,11.31,0,0,0-2.37,7h0a21.42,21.42,0,0,1-.66,5.29,2,2,0,1,1-1.79-.5,19.29,19.29,0,0,0,.6-4.79,13.17,13.17,0,0,1,2.75-8.1h0a13.31,13.31,0,0,1,5.88-4.35A.92.92,0,0,1,194.92,149.74Zm-9.26,18.67a.74.74,0,1,0-.74.74A.75.75,0,0,0,185.66,168.41Z"/><path d="M190,176.84a.92.92,0,0,1,.26,1.28A30.22,30.22,0,0,1,188,181a.93.93,0,1,1-1.41-1.21,26.67,26.67,0,0,0,2.08-2.74A.92.92,0,0,1,190,176.84Z"/><path d="M184.48,146.43a.93.93,0,0,1,0,1.31,20,20,0,0,0-2.19,2.59,19.61,19.61,0,0,0-3.58,11.32h0a13.21,13.21,0,0,1-.3,2.81,2,2,0,0,1,.63,1.45,2,2,0,1,1-2.42-2,11.09,11.09,0,0,0,.24-2.3,21.62,21.62,0,0,1,3.91-12.38h0a22.45,22.45,0,0,1,2.39-2.84A.92.92,0,0,1,184.48,146.43Zm-6.71,19.48a.74.74,0,1,0-.74.74A.74.74,0,0,0,177.77,165.91Z"/><path d="M183.56,171.46a.94.94,0,0,1,.32,1.28,22.2,22.2,0,0,1-2.06,2.85.9.9,0,0,1-.7.33.91.91,0,0,1-.6-.22.93.93,0,0,1-.11-1.31,18.58,18.58,0,0,0,1.88-2.61A.93.93,0,0,1,183.56,171.46Z"/><path d="M183.74,164.2a2,2,0,0,1-1.5,1.94,17.59,17.59,0,0,1-2.68,5.67.93.93,0,0,1-.75.38.92.92,0,0,1-.76-1.46,15.56,15.56,0,0,0,2.38-5,2,2,0,1,1,3.31-1.53Zm-1.27,0a.74.74,0,1,0-.74.74A.74.74,0,0,0,182.47,164.2Z"/><path d="M153.15,214.49h-.31v-3.7h.31Z"/><path d="M158.22,214.49h-.31l-2.13-3.17v3.17h-.32v-3.7h.32l2.13,3.17v-3.17h.31Z"/><path d="M163.23,214.49h-.32l-2.13-3.17v3.17h-.31v-3.7h.31l2.14,3.17v-3.17h.31Z"/><path d="M168.21,212.84a2.13,2.13,0,0,1-.18.9,1.29,1.29,0,0,1-.5.6,1.46,1.46,0,0,1-.76.2,1.32,1.32,0,0,1-1.05-.46,1.84,1.84,0,0,1-.4-1.25v-.39a2.11,2.11,0,0,1,.18-.89,1.34,1.34,0,0,1,1.26-.81,1.46,1.46,0,0,1,.76.2,1.26,1.26,0,0,1,.5.59,2.14,2.14,0,0,1,.19.87Zm-.31-.4a1.58,1.58,0,0,0-.31-1.05,1,1,0,0,0-.83-.38,1,1,0,0,0-.82.38,1.69,1.69,0,0,0-.31,1.06v.39a1.68,1.68,0,0,0,.31,1,1,1,0,0,0,.83.38,1,1,0,0,0,.83-.38,1.67,1.67,0,0,0,.3-1.06Z"/><path d="M171.36,214l0,.07,0-.07,1.16-3.25h.35l-1.38,3.7h-.3l-1.38-3.7h.34Z"/><path d="M176.57,213.45h-1.68l-.38,1h-.33l1.4-3.7h.3l1.4,3.7H177Zm-1.58-.26h1.48l-.74-2Z"/><path d="M181.32,211.05h-1.27v3.44h-.31v-3.44h-1.27v-.26h2.85Z"/><path d="M183.6,214.49h-.31v-3.7h.31Z"/><path d="M188.65,212.84a2.13,2.13,0,0,1-.18.9,1.35,1.35,0,0,1-.5.6,1.46,1.46,0,0,1-.76.2,1.32,1.32,0,0,1-1.05-.46,1.84,1.84,0,0,1-.4-1.25v-.39a2.11,2.11,0,0,1,.18-.89,1.34,1.34,0,0,1,1.26-.81,1.46,1.46,0,0,1,.76.2,1.32,1.32,0,0,1,.5.59,2.14,2.14,0,0,1,.19.87Zm-.31-.4a1.64,1.64,0,0,0-.31-1.05,1.09,1.09,0,0,0-1.65,0,1.69,1.69,0,0,0-.31,1.06v.39a1.62,1.62,0,0,0,.31,1,1,1,0,0,0,.83.38,1,1,0,0,0,.83-.38,1.67,1.67,0,0,0,.3-1.06Z"/><path d="M193.5,214.49h-.31l-2.13-3.17v3.17h-.32v-3.7h.32l2.13,3.17v-3.17h.31Z"/><path d="M195.6,214.31a.2.2,0,0,1,.06-.15.21.21,0,0,1,.16-.06.23.23,0,0,1,.16.06.22.22,0,0,1,0,.3.28.28,0,0,1-.16,0,.25.25,0,0,1-.16,0A.2.2,0,0,1,195.6,214.31Zm0-2.35a.2.2,0,0,1,0-.15.24.24,0,0,1,.32,0,.22.22,0,0,1,0,.3.28.28,0,0,1-.32,0A.2.2,0,0,1,195.61,212Z"/><path d="M198,214.31a.2.2,0,0,1,.06-.15.19.19,0,0,1,.15-.06.2.2,0,0,1,.16.06.22.22,0,0,1,0,.3.23.23,0,0,1-.16,0,.23.23,0,0,1-.15,0A.2.2,0,0,1,198,214.31Zm0-2.35a.2.2,0,0,1,.06-.15.24.24,0,0,1,.32,0,.22.22,0,0,1,0,.3.28.28,0,0,1-.32,0A.2.2,0,0,1,198,212Z"/><path d="M202.54,213.45h-1.68l-.38,1h-.33l1.4-3.7h.3l1.4,3.7h-.32Zm-1.58-.26h1.48l-.74-2Z"/><path d="M207.61,210.79v2.53a1.26,1.26,0,0,1-.17.65,1.12,1.12,0,0,1-.46.43,1.59,1.59,0,0,1-.68.14,1.32,1.32,0,0,1-.93-.31,1.18,1.18,0,0,1-.37-.89v-2.55h.31v2.5a1,1,0,0,0,.27.73,1.14,1.14,0,0,0,1.45,0,1,1,0,0,0,.26-.72v-2.51Z"/><path d="M212.3,211.05H211v3.44h-.31v-3.44h-1.27v-.26h2.85Z"/><path d="M216.87,212.84a2.13,2.13,0,0,1-.18.9,1.35,1.35,0,0,1-.5.6,1.49,1.49,0,0,1-.76.2,1.32,1.32,0,0,1-1.05-.46,1.84,1.84,0,0,1-.4-1.25v-.39a2.11,2.11,0,0,1,.18-.89,1.34,1.34,0,0,1,1.26-.81,1.46,1.46,0,0,1,.76.2,1.32,1.32,0,0,1,.5.59,2.14,2.14,0,0,1,.19.87Zm-.31-.4a1.64,1.64,0,0,0-.31-1.05,1.09,1.09,0,0,0-1.65,0,1.63,1.63,0,0,0-.31,1.06v.39a1.62,1.62,0,0,0,.31,1,1,1,0,0,0,.83.38,1,1,0,0,0,.83-.38,1.67,1.67,0,0,0,.3-1.06Z"/><path d="M219.38,210.79l1.36,3.27,1.37-3.27h.42v3.7h-.31v-1.61l0-1.65-1.38,3.26h-.24l-1.37-3.25,0,1.63v1.62H219v-3.7Z"/><path d="M226.82,213.45h-1.68l-.38,1h-.33l1.4-3.7h.3l1.4,3.7h-.32Zm-1.58-.26h1.48l-.74-2Z"/><path d="M231.57,211.05H230.3v3.44H230v-3.44h-1.27v-.26h2.86Z"/><path d="M233.85,214.49h-.31v-3.7h.31Z"/><path d="M238.9,212.84a2.13,2.13,0,0,1-.18.9,1.37,1.37,0,0,1-.51.6,1.45,1.45,0,0,1-.75.2,1.3,1.3,0,0,1-1.05-.46,1.84,1.84,0,0,1-.4-1.25v-.39a2.11,2.11,0,0,1,.18-.89,1.42,1.42,0,0,1,.5-.6,1.49,1.49,0,0,1,1.51,0,1.34,1.34,0,0,1,.51.59,2.14,2.14,0,0,1,.19.87Zm-.32-.4a1.64,1.64,0,0,0-.3-1.05,1.09,1.09,0,0,0-1.65,0,1.63,1.63,0,0,0-.31,1.06v.39a1.62,1.62,0,0,0,.31,1,1,1,0,0,0,.83.38,1,1,0,0,0,.82-.38,1.67,1.67,0,0,0,.3-1.06Z"/><path d="M243.75,214.49h-.32l-2.13-3.17v3.17H241v-3.7h.31l2.14,3.17v-3.17h.31Z"/><path class="cls-4" d="M167.59,193.26V208L165,206l-9.5-7.32V208h-2.64V193.3l2.64,2,9.5,7.32v-9.41Z"/><path class="cls-4" d="M184,200.63a7.39,7.39,0,1,1-7.39-7.39A7.4,7.4,0,0,1,184,200.63Zm-2.64,0a4.75,4.75,0,1,0-4.75,4.75A4.75,4.75,0,0,0,181.31,200.63Z"/><path class="cls-4" d="M199.76,193.24l-1.35,2.64L192.22,208,186,195.88l-1.36-2.64h3l1.35,2.64,3.23,6.33,3.23-6.33,1.35-2.64Z"/><path class="cls-4" d="M210.78,208h-3l-1.35-2.64L203.24,199,200,205.38,198.66,208h-3l1.35-2.64,6.19-12.14,6.18,12.14Z"/><path class="cls-4" d="M222.62,193.26v2.64h-6.06V208h-2.64V195.9h-6.06v-2.64Z"/><path class="cls-4" d="M224.75,208V193.24h2.64V208Z"/><path class="cls-4" d="M243.75,200.63a7.39,7.39,0,1,1-7.39-7.39A7.4,7.4,0,0,1,243.75,200.63Zm-2.64,0a4.75,4.75,0,1,0-4.75,4.75A4.75,4.75,0,0,0,241.11,200.63Z"/><g id="Visual-Design"><g id="Partners-_-Alliances" data-name="Partners-&amp;-Alliances"><g id="Asset-1"><path id="Shape" class="cls-5" d="M276.47,53.73h.81l.27,1.18h.1a3.85,3.85,0,0,1,2.77-1.37c2,0,3.41,1.72,3.41,4.73S282.44,63,280.42,63a3.74,3.74,0,0,1-2.76-1.35h-.09v4.49h-1.09Zm1.08,6.68c.92,1.15,1.74,1.72,2.76,1.72,1.51,0,2.41-1.35,2.41-3.83s-.9-3.83-2.41-3.83a3.51,3.51,0,0,0-2.76,1.71Z"/><path id="Path" class="cls-5" d="M286,53.7h1v1.64h.11a2.64,2.64,0,0,1,2.49-1.78h.05v1.1h-.16c-1.21,0-2,.74-2.51,2.51V63h-1Z"/><rect id="Rectangle" class="cls-5" x="291.71" y="53.56" width="1.05" height="9.45"/><path id="Path-2" data-name="Path" class="cls-5" d="M298,62.18a1.77,1.77,0,0,0,2-1.68c0-1.07-.88-1.35-2.46-1.9-1.94-.69-2.93-1.21-2.93-2.61s1.18-2.43,3.08-2.43a3.88,3.88,0,0,1,3.17,1.67l-.81.54a3.05,3.05,0,0,0-2.56-1.36,1.55,1.55,0,0,0-1.21.39,1.43,1.43,0,0,0-.49,1.11c0,1,.93,1.21,2.51,1.79,1.89.68,2.87,1.24,2.87,2.69S299.9,63,297.94,63a4.28,4.28,0,0,1-3.6-1.8l.84-.65A3.51,3.51,0,0,0,298,62.18Z"/><path id="Path-3" data-name="Path" class="cls-5" d="M303.33,53.73h1v1.44h.06a4,4,0,0,1,2.93-1.6,2.23,2.23,0,0,1,2.17,1.6h.13a4.07,4.07,0,0,1,2.93-1.6c1.53,0,2.29,1,2.29,3V63h-1V57c0-1.64-.28-2.42-1.57-2.42a3.57,3.57,0,0,0-2.63,1.72V63h-1.07V57c0-1.64-.28-2.42-1.57-2.42a3.59,3.59,0,0,0-2.63,1.72V63h-1.07Z"/><path id="Shape-2" data-name="Shape" class="cls-6" d="M246.23,49.88V54.5a2.81,2.81,0,0,1,2.31-1.16c2.26,0,3.78,1.78,3.78,4.77S250.9,63,248.56,63A3,3,0,0,1,246,61.77l-.26,1.1h-1.33c.09-.93.11-1.79.11-2.63V49.87h1.67Zm2.05,11.72c1.44,0,2.27-1.16,2.27-3.36s-.83-3.49-2.34-3.49a2.54,2.54,0,0,0-2,1.1v4.56A2.62,2.62,0,0,0,248.28,61.6Z"/><polygon id="Path-4" data-name="Path" class="cls-6" points="255.45 50.41 255.45 63.01 253.89 63.01 253.89 50.41 255.45 50.41"/><path id="Path-5" data-name="Path" class="cls-6" d="M259.7,53.56v6.26c0,1.22.39,1.8,1.32,1.8a3.27,3.27,0,0,0,2.26-1.24V53.57h1.63v9.3h-1.52V61.63A4.24,4.24,0,0,1,260.51,63c-1.54,0-2.44-1-2.44-2.72V53.59h1.63Z"/><path id="Shape-3" data-name="Shape" class="cls-6" d="M268.69,58.6v.17c0,1.84.84,2.88,2.28,2.88a2.42,2.42,0,0,0,2.2-1.43l1.21.73A3.8,3.8,0,0,1,270.87,63c-2.48,0-3.84-1.61-3.84-4.64s1.38-4.82,3.74-4.82c2.17,0,3.56,1.66,3.56,4.54v.47Zm2-3.71c-1.19,0-1.94.85-2,2.42h3.94c0-1.55-.77-2.42-1.92-2.42Z"/><path id="Shape-4" data-name="Shape" class="cls-7" d="M313.51,49.88a1.32,1.32,0,1,1-1.32,1.32A1.32,1.32,0,0,1,313.51,49.88Zm0,2.41a1,1,0,0,0,.76-.33,1.1,1.1,0,0,0,.3-.77,1.07,1.07,0,1,0-2.14,0,1.06,1.06,0,0,0,1.05,1.14v0ZM313,50.43h.6c.36,0,.53.14.53.43a.41.41,0,0,1-.11.31.43.43,0,0,1-.3.13l.44.68h-.26l-.44-.68h-.22V52h-.21Zm.26.66h.29c.19,0,.33,0,.33-.24s-.16-.22-.33-.22h-.29Z"/><g id="Artwork_10" data-name="Artwork 10"><polygon id="Path-6" data-name="Path" class="cls-8" points="237.23 57.57 234.13 59.35 234.13 59.37 237.26 62.97 237.26 62.97 240.36 61.17 237.23 57.57"/><polygon id="Path-7" data-name="Path" class="cls-9" points="237.26 62.97 237.26 62.97 234.17 64.75 234.17 64.75 231.07 61.12 231.07 61.12 234.13 59.35 234.13 59.37 237.26 62.97"/><polygon id="Path-8" data-name="Path" class="cls-9" points="237.23 57.57 237.23 57.57 234.13 59.35 231.06 55.79 234.09 53.98 234.11 53.98 237.23 57.57"/><polygon id="Path-9" data-name="Path" class="cls-8" points="231.07 66.56 234.17 64.75 234.17 64.75 231.07 61.12 231.07 66.56"/><polygon id="Path-10" data-name="Path" class="cls-10" points="231.06 55.79 234.13 59.35 231.07 61.12 231.04 55.79 231.06 55.79"/><polygon id="Path-11" data-name="Path" class="cls-8" points="231.04 55.79 231.06 55.79 234.09 53.98 234.11 53.98 231.04 50.46 231.04 55.79"/><polygon id="Path-12" data-name="Path" class="cls-11" points="224.86 62.92 224.86 62.92 231.07 66.56 231.07 61.12 231.07 61.12 227.96 59.35 224.89 57.6 224.86 62.92"/><polygon id="Path-13" data-name="Path" class="cls-12" points="231.04 55.79 231.07 61.12 231.07 61.12 227.96 59.35 227.96 59.35 227.94 54.05 231.04 55.79"/><polygon id="Path-14" data-name="Path" class="cls-11" points="231.04 50.46 227.94 54.05 227.94 54.05 231.04 55.79 231.04 55.79 231.04 50.46"/><polygon id="Path-15" data-name="Path" class="cls-13" points="227.96 59.35 227.96 59.35 224.89 57.6 224.89 57.6 227.94 54.05 227.94 54.05 227.96 59.35"/><polygon id="Path-16" data-name="Path" class="cls-12" points="221.84 61.17 224.86 62.92 224.86 62.92 224.89 57.6 224.89 57.6 221.84 61.17"/></g></g></g></g><path class="cls-14" d="M83.2,211a3.08,3.08,0,0,0,0,6.14,3.12,3.12,0,0,0,2.63-1.28v-3.55A3.1,3.1,0,0,0,83.2,211Z"/><path class="cls-14" d="M93.76,204.14H78.26A4.27,4.27,0,0,0,74,208.4v10.11a3.6,3.6,0,0,1,.88-.15,3.13,3.13,0,0,1,2.23,5.35,3.9,3.9,0,0,0,1.13.15H93.8a4.28,4.28,0,0,0,4.26-4.26V208.39A4.3,4.3,0,0,0,93.76,204.14ZM89,219.57H85.81v-.64a5.49,5.49,0,0,1-3.15.88,5.78,5.78,0,1,1,3.15-10.68v-.62H89Zm5.4,0H91.21v-11.1h3.23Z"/><path class="cls-14" d="M72.54,221.5a2.31,2.31,0,0,1,4.62,0,2.31,2.31,0,0,1-4.62,0Z"/><path class="cls-14" d="M70.06,217.48H60.38a3.19,3.19,0,0,0,3.4,2.74,2.4,2.4,0,0,0,2.23-1h4a6.24,6.24,0,0,1-6.28,4.26,6.79,6.79,0,0,1-7.06-7,6.69,6.69,0,0,1,7-7,6.35,6.35,0,0,1,6.57,6.7C70.14,216.77,70.1,217.09,70.06,217.48Zm-9.68-2.27h5.95a2.62,2.62,0,0,0-2.74-2.55A3.13,3.13,0,0,0,60.38,215.21Z"/><path class="cls-14" d="M51.4,211.42A6.43,6.43,0,0,1,56,209.71v3.62a6,6,0,0,0-4.61,1.88v7.85H47.57V209.93h3.79v1.5h0Z"/><path class="cls-15" d="M45.76,214.15A7.3,7.3,0,1,0,41,223.38a7.32,7.32,0,0,0,4.72-9.23m-10.47,3.37a3.66,3.66,0,1,1,4.6,2.38,3.69,3.69,0,0,1-4.6-2.38"/><g class="cls-16"><g class="cls-17"><polygon class="cls-18" points="19.96 230.96 49.31 231.11 48.84 202.26 19.96 202.26 19.96 230.96"/></g></g><g class="cls-19"><g class="cls-17"><polygon class="cls-20" points="57.36 201.34 57.53 231.99 28.65 231.54 28.65 201.34 57.36 201.34"/></g></g><path class="cls-14" d="M22,220.39v2.87h-4V204.74h4v10.4l5.39-5.82h5L27,215.1l6,8.16H27.94L24.26,218Z"/><path class="cls-21" d="M394.51,68.55a5.64,5.64,0,0,0,.21,1.66,10.42,10.42,0,0,0,.59,1.34.74.74,0,0,1,.13.43.72.72,0,0,1-.35.55l-1.18.79a.86.86,0,0,1-.48.16.85.85,0,0,1-.56-.26,6,6,0,0,1-.67-.87c-.19-.32-.37-.67-.58-1.1a6.89,6.89,0,0,1-5.47,2.57,5.12,5.12,0,0,1-3.73-1.34,5.26,5.26,0,0,1,.32-7.42,6.74,6.74,0,0,1,4.56-1.45,15.43,15.43,0,0,1,2,.15c.68.09,1.39.24,2.14.41V62.81a4.1,4.1,0,0,0-.88-3,4.25,4.25,0,0,0-3-.86,8.37,8.37,0,0,0-2,.24,15.17,15.17,0,0,0-2,.64,6,6,0,0,1-.65.24,1,1,0,0,1-.3,0c-.26,0-.39-.18-.39-.57v-.92a1.22,1.22,0,0,1,.13-.65,1.37,1.37,0,0,1,.52-.39,10.86,10.86,0,0,1,2.35-.84,11.38,11.38,0,0,1,2.91-.35,6.81,6.81,0,0,1,4.88,1.51,6.16,6.16,0,0,1,1.54,4.58v6ZM387,71.38a5.94,5.94,0,0,0,1.92-.34,4.15,4.15,0,0,0,1.77-1.19,3,3,0,0,0,.63-1.19,6.8,6.8,0,0,0,.19-1.62v-.78a12.8,12.8,0,0,0-1.72-.32,13,13,0,0,0-1.75-.11,4.33,4.33,0,0,0-2.78.74,3.07,3.07,0,0,0-.22,4.12A2.58,2.58,0,0,0,387,71.38Zm15,2a1,1,0,0,1-.71-.18,1.57,1.57,0,0,1-.39-.73l-4.38-14.4a3.54,3.54,0,0,1-.17-.75.41.41,0,0,1,.45-.47h1.83a1,1,0,0,1,.72.19,1.48,1.48,0,0,1,.37.73l3.14,12.33,2.9-12.33a1.29,1.29,0,0,1,.36-.73,1.27,1.27,0,0,1,.74-.19h1.49a1.13,1.13,0,0,1,.75.19,1.21,1.21,0,0,1,.35.73l2.94,12.48,3.23-12.48a1.61,1.61,0,0,1,.37-.73,1.23,1.23,0,0,1,.73-.19h1.73a.42.42,0,0,1,.47.47,1.77,1.77,0,0,1,0,.3,3.15,3.15,0,0,1-.13.46L414.17,72.5a1.39,1.39,0,0,1-.39.72,1.14,1.14,0,0,1-.71.19h-1.6a1.13,1.13,0,0,1-.75-.19,1.28,1.28,0,0,1-.35-.74l-2.89-12-2.87,12a1.58,1.58,0,0,1-.35.75,1.17,1.17,0,0,1-.75.18Zm23.94.5a12.51,12.51,0,0,1-2.87-.33,8.23,8.23,0,0,1-2.14-.75,1.26,1.26,0,0,1-.58-.52,1.39,1.39,0,0,1-.11-.52v-1c0-.39.15-.58.43-.58a1,1,0,0,1,.33.06l.47.18a10,10,0,0,0,2.05.66,11.07,11.07,0,0,0,2.22.22,5.05,5.05,0,0,0,2.72-.61,2,2,0,0,0,1-1.77,1.8,1.8,0,0,0-.5-1.31,4.72,4.72,0,0,0-1.88-1l-2.7-.84a5.6,5.6,0,0,1-3-1.9,4.41,4.41,0,0,1-.94-2.7,4.13,4.13,0,0,1,.51-2.07,4.75,4.75,0,0,1,1.34-1.52,5.8,5.8,0,0,1,1.94-1,7.88,7.88,0,0,1,2.34-.32,10.48,10.48,0,0,1,1.25.07c.43.06.82.14,1.21.21s.73.19,1.07.3a4.34,4.34,0,0,1,.78.33,1.6,1.6,0,0,1,.56.47,1,1,0,0,1,.17.61v.88c0,.39-.15.6-.43.6a2,2,0,0,1-.71-.23,8.61,8.61,0,0,0-3.58-.72,4.77,4.77,0,0,0-2.48.52,1.8,1.8,0,0,0-.87,1.66A1.74,1.74,0,0,0,424,62.4a5.49,5.49,0,0,0,2.05,1l2.64.84a5.73,5.73,0,0,1,2.89,1.79,4.2,4.2,0,0,1,.86,2.61,4.74,4.74,0,0,1-.49,2.16,5,5,0,0,1-1.36,1.64,5.84,5.84,0,0,1-2.07,1A8.82,8.82,0,0,1,425.85,73.89Z"/><path class="cls-22" d="M429.37,83c-6.13,4.53-15,6.93-22.69,6.93A41.11,41.11,0,0,1,379,79.32c-.58-.53-.05-1.23.64-.82a55.89,55.89,0,0,0,27.72,7.36,55.31,55.31,0,0,0,21.15-4.33C429.5,81.07,430.38,82.2,429.37,83Z"/><path class="cls-22" d="M431.92,80c-.78-1-5.18-.48-7.17-.24-.6.08-.69-.45-.15-.84,3.5-2.46,9.26-1.75,9.93-.93s-.18,6.6-3.46,9.35c-.51.43-1,.21-.77-.35C431.05,85.19,432.71,81,431.92,80Z"/><g class="cls-23"><rect class="cls-24" x="297.33" y="167.22" width="26.75" height="27.62"/></g><g class="cls-25"><g class="cls-26"><rect class="cls-27" x="298.65" y="185.67" width="25.45" height="8.97"/></g></g><path class="cls-28" d="M323.22,173.66h.41l2.69,5.82h-.46l-.73-1.63h-3.42l-.74,1.63h-.44Zm1.72,3.82-1.52-3.35-1.52,3.35Z"/><path class="cls-28" d="M328.84,179.58a2.49,2.49,0,0,1-1-.17,2,2,0,0,1-.75-.48,2.12,2.12,0,0,1-.49-.77,3.24,3.24,0,0,1-.18-1.07v-3.38h.43V177a2.23,2.23,0,0,0,.52,1.58,1.82,1.82,0,0,0,1.44.55,1.9,1.9,0,0,0,1.41-.52,2.16,2.16,0,0,0,.51-1.58v-3.38h.43V177a3.34,3.34,0,0,1-.17,1.1,2.25,2.25,0,0,1-.49.79,2.22,2.22,0,0,1-.75.49,2.63,2.63,0,0,1-1,.18"/><polygon class="cls-28" points="333.73 174.08 331.72 174.08 331.72 173.69 336.18 173.69 336.18 174.08 334.15 174.08 334.15 179.47 333.73 179.47 333.73 174.08"/><path class="cls-28" d="M339.22,179.58a3,3,0,0,1-1.19-.24,2.92,2.92,0,0,1-.92-.66,2.95,2.95,0,0,1-.79-2.07h0a3,3,0,0,1,.21-1.13,3,3,0,0,1,.59-1,2.83,2.83,0,0,1,2.11-.89,3.06,3.06,0,0,1,1.2.24,2.85,2.85,0,0,1,.92.65,3.17,3.17,0,0,1,.59.94,3.24,3.24,0,0,1,.2,1.13v0a3,3,0,0,1-.22,1.13,2.82,2.82,0,0,1-.59,1,2.77,2.77,0,0,1-.91.66,2.92,2.92,0,0,1-1.2.24m0-.39a2.44,2.44,0,0,0,1.78-.76,2.44,2.44,0,0,0,.5-.82,2.77,2.77,0,0,0,.17-1h0a2.83,2.83,0,0,0-.18-1,2.65,2.65,0,0,0-.52-.83,2.44,2.44,0,0,0-3.54,0,2.47,2.47,0,0,0-.51.82,2.77,2.77,0,0,0-.17,1v0a2.58,2.58,0,0,0,.19,1,2.51,2.51,0,0,0,.51.83,2.26,2.26,0,0,0,.78.55,2.34,2.34,0,0,0,1,.21"/><polygon class="cls-28" points="342.89 173.69 343.29 173.69 345.62 177.11 347.94 173.69 348.35 173.69 348.35 179.47 347.92 179.47 347.92 174.46 345.62 177.79 345.59 177.79 343.29 174.46 343.29 179.47 342.89 179.47 342.89 173.69"/><path class="cls-28" d="M351.88,173.66h.41l2.69,5.82h-.46l-.73-1.63h-3.42l-.74,1.63h-.44Zm1.72,3.82-1.52-3.35-1.52,3.35Z"/><polygon class="cls-28" points="356.4 174.08 354.39 174.08 354.39 173.69 358.84 173.69 358.84 174.08 356.83 174.08 356.83 179.47 356.4 179.47 356.4 174.08"/><rect class="cls-28" x="359.67" y="173.69" width="0.43" height="5.78"/><path class="cls-28" d="M364.11,179.58a3,3,0,0,1-1.19-.24,2.81,2.81,0,0,1-.92-.66,2.95,2.95,0,0,1-.79-2.07h0a3,3,0,0,1,.21-1.13,3,3,0,0,1,.59-1,2.83,2.83,0,0,1,2.11-.89,3.09,3.09,0,0,1,1.2.24,2.87,2.87,0,0,1,1.5,1.59,3,3,0,0,1,.21,1.13v0a3,3,0,0,1-.22,1.13,3,3,0,0,1-.59,1,2.71,2.71,0,0,1-.92.66,2.84,2.84,0,0,1-1.19.24m0-.39a2.44,2.44,0,0,0,1.78-.76,2.44,2.44,0,0,0,.5-.82,2.57,2.57,0,0,0,.18-1h0a2.83,2.83,0,0,0-.19-1,2.65,2.65,0,0,0-.52-.83,2.38,2.38,0,0,0-1.77-.75,2.34,2.34,0,0,0-1,.2,2.3,2.3,0,0,0-.78.55,2.47,2.47,0,0,0-.51.82,2.77,2.77,0,0,0-.17,1v0a2.58,2.58,0,0,0,.19,1,2.51,2.51,0,0,0,.51.83,2.26,2.26,0,0,0,.78.55,2.31,2.31,0,0,0,1,.21"/><polygon class="cls-28" points="367.84 173.69 368.25 173.69 372.24 178.72 372.24 173.69 372.64 173.69 372.64 179.47 372.32 179.47 368.25 174.35 368.25 179.47 367.84 179.47 367.84 173.69"/><path class="cls-28" d="M325.68,180.73h1.21l2.54,6h-1.36l-.54-1.33H325l-.54,1.33h-1.33Zm1.37,3.5-.79-1.93-.79,1.93Z"/><polygon class="cls-28" points="329.79 180.77 330.99 180.77 333.77 184.43 333.77 180.77 335.06 180.77 335.06 186.7 333.95 186.7 331.08 182.93 331.08 186.7 329.79 186.7 329.79 180.77"/><polygon class="cls-28" points="337.76 184.37 335.49 180.77 337.01 180.77 338.43 183.16 339.86 180.77 341.35 180.77 339.07 184.34 339.07 186.7 337.76 186.7 337.76 184.37"/><polygon class="cls-28" points="341.32 180.77 342.72 180.77 343.95 184.79 345.28 180.76 346.4 180.76 347.73 184.79 348.95 180.77 350.32 180.77 348.3 186.74 347.15 186.74 345.82 182.87 344.48 186.74 343.34 186.74 341.32 180.77"/><polygon class="cls-28" points="351.07 180.77 352.37 180.77 352.37 183.12 354.78 183.12 354.78 180.77 356.08 180.77 356.08 186.7 354.78 186.7 354.78 184.33 352.37 184.33 352.37 186.7 351.07 186.7 351.07 180.77"/><polygon class="cls-28" points="357.12 180.77 361.58 180.77 361.58 181.94 358.42 181.94 358.42 183.13 361.21 183.13 361.21 184.3 358.42 184.3 358.42 185.55 361.63 185.55 361.63 186.7 357.12 186.7 357.12 180.77"/><path class="cls-28" d="M362.59,180.77h2.71a2.32,2.32,0,0,1,1.73.6,1.83,1.83,0,0,1,.5,1.36h0a1.81,1.81,0,0,1-.35,1.17,2.08,2.08,0,0,1-.92.67l1.44,2.11h-1.52l-1.27-1.9h-1v1.9h-1.31v-5.92Zm2.63,2.89a1.06,1.06,0,0,0,.74-.23.76.76,0,0,0,.25-.61h0a.76.76,0,0,0-.28-.65,1.24,1.24,0,0,0-.75-.21h-1.3v1.71Z"/><polygon class="cls-28" points="368.33 180.77 372.8 180.77 372.8 181.94 369.62 181.94 369.62 183.13 372.41 183.13 372.41 184.3 369.62 184.3 369.62 185.55 372.83 185.55 372.83 186.7 368.33 186.7 368.33 180.77"/><path class="cls-29" d="M345.67,189a1.35,1.35,0,0,1,.92.32l-.23.32a1.06,1.06,0,0,0-.65-.23.79.79,0,0,0-.85.84.82.82,0,0,0,.83.88.92.92,0,0,0,.62-.25v-.29h-.38v-.39h.78v1.29h-.37v-.21h0a1,1,0,0,1-.71.26,1.21,1.21,0,0,1-1.21-1.28,1.24,1.24,0,0,1,1.27-1.26"/><path class="cls-29" d="M348,189.69a.93.93,0,1,1,0,1.86.93.93,0,1,1,0-1.86m0,1.49a.56.56,0,1,0-.53-.56.53.53,0,0,0,.53.56"/><path class="cls-29" d="M350.16,189h.44v.77a.52.52,0,0,1,0,.15h0a.61.61,0,0,1,.52-.25c.48,0,.78.37.78.93a.84.84,0,0,1-.81.93.62.62,0,0,1-.53-.27h0a.73.73,0,0,1,0,.13v.1h-.42V189Zm.86,2.14c.24,0,.44-.2.44-.56s-.17-.55-.44-.55-.44.16-.44.57a.5.5,0,0,0,.44.54"/><path class="cls-29" d="M353.05,189.69a.78.78,0,0,1,.79.85c0,.05,0,.17,0,.17h-1.22a.49.49,0,0,0,.53.47.86.86,0,0,0,.51-.19l.16.31a1.11,1.11,0,0,1-.71.25.91.91,0,0,1-1-.93.89.89,0,0,1,.91-.93m.34.71c0-.24-.15-.37-.35-.37a.42.42,0,0,0-.43.37Z"/><path class="cls-29" d="M355.71,191.86c.28,0,.51-.12.51-.43v-.1a.55.55,0,0,1,0-.09h0a.55.55,0,0,1-.49.24.82.82,0,0,1-.8-.89.79.79,0,0,1,.78-.88.61.61,0,0,1,.53.22h0v-.2h.42v1.66a.84.84,0,0,1-.93.84,1.36,1.36,0,0,1-.63-.15l.14-.34a.85.85,0,0,0,.46.12m.52-1.29c0-.4-.2-.51-.44-.51s-.42.19-.42.49.17.54.44.54.42-.11.42-.52"/><path class="cls-29" d="M357.15,189.73h.42v.43h0a.61.61,0,0,1,.57-.45h.07v.44h-.1a.49.49,0,0,0-.47.37.92.92,0,0,0,0,.29v.71h-.44v-1.79Z"/><path class="cls-29" d="M359.28,189.69a.77.77,0,0,1,.79.85c0,.05,0,.17,0,.17h-1.22a.5.5,0,0,0,.53.47.91.91,0,0,0,.52-.19l.16.31a1.15,1.15,0,0,1-.72.25.9.9,0,0,1-.95-.93.88.88,0,0,1,.9-.93m.34.71a.34.34,0,0,0-.35-.37.42.42,0,0,0-.43.37Z"/><path class="cls-29" d="M361.33,190.4h.06v0c0-.24-.15-.31-.33-.31a1,1,0,0,0-.5.17l-.16-.31a1.24,1.24,0,0,1,.69-.21.65.65,0,0,1,.74.7v1.11h-.4v-.15a.73.73,0,0,1,0-.13h0a.59.59,0,0,1-.54.31.56.56,0,0,1-.6-.55c0-.56.75-.6,1-.6m-.33.8a.46.46,0,0,0,.41-.46v0h-.08c-.22,0-.59,0-.59.28s.08.22.26.22"/><path class="cls-29" d="M362.36,190.11h-.22v-.35h.23v-.52h.43v.52h.4v.35h-.4v.69a.32.32,0,0,0,.35.34h.08v.39h-.14a.65.65,0,0,1-.74-.67v-.75Z"/><rect class="cls-29" x="363.57" y="191.06" width="0.44" height="0.44"/><path class="cls-30" d="M281.38,299.15h.77l2.19-2.18.1-.93a9.81,9.81,0,0,0-16,4.79,1.19,1.19,0,0,1,.77,0l4.37-.72s.22-.37.34-.35a5.46,5.46,0,0,1,7.46-.57Z"/><path class="cls-31" d="M287.45,300.83a9.76,9.76,0,0,0-3-4.78l-3.07,3.07a5.43,5.43,0,0,1,2,4.32V304a2.73,2.73,0,0,1,0,5.46H278l-.54.55v3.28l.54.54h5.47a7.1,7.1,0,0,0,4-13Z"/><path class="cls-32" d="M272.49,313.79H278v-4.37h-5.46a2.74,2.74,0,0,1-1.13-.25l-.77.24-2.2,2.19-.19.76a7,7,0,0,0,4.29,1.43Z"/><path class="cls-33" d="M272.49,299.61a7.1,7.1,0,0,0-4.29,12.73l3.17-3.17a2.73,2.73,0,1,1,3.61-3.61l3.17-3.17A7.1,7.1,0,0,0,272.49,299.61Z"/><path class="cls-34" d="M233.6,331a7,7,0,0,1-5.06-2.08,6.93,6.93,0,0,1,0-10,6.93,6.93,0,0,1,5.06-2.12,6.78,6.78,0,0,1,4.86,2l-1.37,1.38a5.05,5.05,0,0,0-7.1.16,5.17,5.17,0,0,0,0,7.24,5.15,5.15,0,0,0,7.18.08,4,4,0,0,0,1.06-2.38h-4.61v-2h6.52a6,6,0,0,1,.07,1.2,6.13,6.13,0,0,1-1.68,4.53,6.56,6.56,0,0,1-4.93,2Zm15.14-1.31a4.68,4.68,0,0,1-6.5,0,4.69,4.69,0,0,1,0-6.52,4.72,4.72,0,0,1,6.5,0,4.41,4.41,0,0,1,1.33,3.26,4.35,4.35,0,0,1-1.34,3.26Zm-5.06-1.28a2.47,2.47,0,0,0,3.51.12l.12-.12a2.93,2.93,0,0,0,0-4,2.53,2.53,0,0,0-3.57-.08l-.08.08a2.94,2.94,0,0,0,0,4Zm15.05,1.28a4.68,4.68,0,0,1-6.5,0,4.69,4.69,0,0,1,0-6.52,4.7,4.7,0,0,1,6.5,0,4.66,4.66,0,0,1,0,6.52Zm-5.06-1.28a2.47,2.47,0,0,0,3.51.12l.12-.12a3,3,0,0,0,0-4,2.53,2.53,0,0,0-3.57-.08l-.08.08a2.92,2.92,0,0,0,0,4Zm11.63,6.68a4,4,0,0,1-2.56-.81,4.76,4.76,0,0,1-1.49-1.89l1.75-.72a3,3,0,0,0,.87,1.14,2.14,2.14,0,0,0,1.43.48,2.31,2.31,0,0,0,1.79-.69,2.83,2.83,0,0,0,.64-2v-.66h-.07a2.9,2.9,0,0,1-2.4,1,4.14,4.14,0,0,1-3.07-1.33,4.62,4.62,0,0,1,0-6.45,4.16,4.16,0,0,1,3.07-1.35,3.27,3.27,0,0,1,1.41.32,2.87,2.87,0,0,1,1,.73h.07v-.73h1.9v8.17a4.78,4.78,0,0,1-1.22,3.57,4.25,4.25,0,0,1-3.12,1.18Zm.13-5.89a2.22,2.22,0,0,0,1.74-.76,3.16,3.16,0,0,0,0-4,2.26,2.26,0,0,0-1.74-.77,2.38,2.38,0,0,0-1.79.77,2.83,2.83,0,0,0-.77,2,2.76,2.76,0,0,0,.77,2A2.36,2.36,0,0,0,265.43,329.19ZM273,317.3v13.41h-2V317.3ZM278.51,331a4.4,4.4,0,0,1-3.23-1.31,4.84,4.84,0,0,1,0-6.54,4.13,4.13,0,0,1,3.07-1.28,3.83,3.83,0,0,1,1.53.3,3.7,3.7,0,0,1,1.18.77,6.09,6.09,0,0,1,.76.92,5.4,5.4,0,0,1,.45.9l.21.52-6.14,2.53a2.31,2.31,0,0,0,2.21,1.38,2.62,2.62,0,0,0,2.25-1.27l1.54,1a5.16,5.16,0,0,1-1.48,1.39,4.19,4.19,0,0,1-2.31.65Zm-2.56-4.7,4.08-1.7a1.43,1.43,0,0,0-.63-.7,2.16,2.16,0,0,0-1-.27,2.38,2.38,0,0,0-1.65.73,2.43,2.43,0,0,0-.75,1.94Zm17,4.7a6.32,6.32,0,0,1-6.43-6.21v-.26a6.31,6.31,0,0,1,6.17-6.46h.26a5.77,5.77,0,0,1,4.55,2l-1.11,1.07a4.18,4.18,0,0,0-3.43-1.57,4.71,4.71,0,0,0-3.42,1.37,5.29,5.29,0,0,0,0,7.15,4.7,4.7,0,0,0,3.42,1.36,4.87,4.87,0,0,0,3.83-1.79l1.11,1.1a6,6,0,0,1-2.13,1.62A6.53,6.53,0,0,1,292.93,331Zm7.92-.28h-1.59V318.32h1.59Zm2.59-7.45a4.49,4.49,0,1,1,0,6.44,4.83,4.83,0,0,1,0-6.44Zm1.18,5.44a2.67,2.67,0,0,0,3.78.11l.11-.11a3.43,3.43,0,0,0,0-4.45,2.68,2.68,0,0,0-3.79-.1l-.1.1a3.4,3.4,0,0,0,0,4.44Zm15.1,2h-1.53v-1.17h-.05A3,3,0,0,1,317,330.6a3.18,3.18,0,0,1-1.57.42,3,3,0,0,1-2.41-1,3.83,3.83,0,0,1-.82-2.59v-5.22h1.59v4.93c0,1.58.7,2.37,2.09,2.37a2,2,0,0,0,1.61-.77,2.85,2.85,0,0,0,.63-1.83v-4.7h1.58Zm5.4.28a3.73,3.73,0,0,1-2.84-1.3,4.94,4.94,0,0,1,0-6.43,3.72,3.72,0,0,1,2.84-1.29,3.59,3.59,0,0,1,1.73.41,3,3,0,0,1,1.15,1h.07l-.07-1.18v-3.92h1.59v12.39h-1.54v-1.17H328a3,3,0,0,1-1.16,1A3.52,3.52,0,0,1,325.12,331Zm.26-1.45a2.54,2.54,0,0,0,1.91-.83,3.65,3.65,0,0,0,0-4.46,2.6,2.6,0,0,0-3.67-.18l-.17.18a3.59,3.59,0,0,0,0,4.44A2.53,2.53,0,0,0,325.38,329.54Z"/></g></g></svg>