<svg id="eWf6lHADUNC1" xmlns="http://www.w3.org/2000/svg" xmlns:xlink="http://www.w3.org/1999/xlink" viewBox="0 0 628 349" shape-rendering="geometricPrecision" text-rendering="geometricPrecision"><path id="eWf6lHADUNC2" d="M128.5,224.5L213,224.5M128.5,233.5L213,233.5M128.5,242.5L213,242.5" fill="none" stroke="rgb(40,176,76)" stroke-width="0.5" stroke-miterlimit="1"/><path id="eWf6lHADUNC3" d="M385.5,44.5L306,44.5C302.686,44.5,300,47.1863,300,50.5L300,113.5" fill="none" stroke="rgb(0,0,0)" stroke-width="1" stroke-miterlimit="1"/><path id="eWf6lHADUNC4" d="M453,198L453,281M444,198L444,281M435,198L435,281" fill="none" stroke="rgb(40,176,76)" stroke-width="0.5" stroke-miterlimit="1"/><rect id="eWf6lHADUNC5" width="73" height="74" rx="0" ry="0" transform="matrix(1 0 0 1 55.5 207.5)" fill="none" stroke="rgb(0,0,0)" stroke-width="1" stroke-miterlimit="1"/><rect id="eWf6lHADUNC6" width="36" height="30" rx="0" ry="0" transform="matrix(1 0 0 1 62.5 226.5)" fill="none" stroke="rgb(0,0,0)" stroke-width="1" stroke-miterlimit="1"/><rect id="eWf6lHADUNC7" width="37" height="18" rx="0" ry="0" transform="matrix(1 0 0 1 85.5 251.5)" fill="rgb(40,176,76)" stroke="rgb(0,0,0)" stroke-width="1" stroke-miterlimit="1"/><path id="eWf6lHADUNC8" d="M72.5,113.5L72.5,60.5C72.5,57.1863,75.1863,54.5,78.5,54.5L207,54.5C210.314,54.5,213,57.1863,213,60.5L213,290.5C213,293.814,210.314,296.5,207,296.5L121.5,296.5C118.186,296.5,115.5,293.814,115.5,290.5L115.5,261" fill="none" stroke="rgb(0,0,0)" stroke-width="1" stroke-miterlimit="1"/><path id="eWf6lHADUNC9" d="M55.5,154L175,154" fill="none" stroke="rgb(0,0,0)" stroke-width="1" stroke-miterlimit="1"/><path id="eWf6lHADUNC10" d="M62,137.5L98.5,137.5M62,142L98.5,142M62,146.5L98.5,146.5M104,137.5L140.5,137.5M104,142L140.5,142M104,146.5L140.5,146.5" fill="none" stroke="rgb(0,0,0)" stroke-width="1" stroke-miterlimit="1"/><rect id="eWf6lHADUNC11" width="120" height="71" rx="5.5" ry="5.5" transform="matrix(1 0 0 1 55.5 95.5)" fill="none" stroke="rgb(0,0,0)" stroke-width="1" stroke-miterlimit="1"/><rect id="eWf6lHADUNC12" width="36" height="30" rx="0" ry="0" transform="matrix(1 0 0 1 62.5 101.5)" fill="none" stroke="rgb(0,0,0)" stroke-width="1" stroke-miterlimit="1"/><rect id="eWf6lHADUNC13" width="36" height="30" rx="0" ry="0" transform="matrix(1 0 0 1 104.5 101.5)" fill="rgb(40,176,76)" stroke="rgb(0,0,0)" stroke-width="1" stroke-miterlimit="1"/><rect id="eWf6lHADUNC14" width="24" height="45" rx="0" ry="0" transform="matrix(1 0 0 1 145.5 101.5)" fill="none" stroke="rgb(0,0,0)" stroke-width="1" stroke-miterlimit="1"/><g id="eWf6lHADUNC15"><rect id="eWf6lHADUNC16" width="6" height="6" rx="0" ry="0" transform="matrix(1 0 0 1 92 61)" fill="rgb(40,176,76)" stroke="none" stroke-width="1" stroke-miterlimit="1"/><rect id="eWf6lHADUNC17" width="6" height="6" rx="0" ry="0" transform="matrix(1 0 0 1 101 61)" fill="rgb(40,176,76)" stroke="none" stroke-width="1" stroke-miterlimit="1"/><rect id="eWf6lHADUNC18" width="6" height="6" rx="0" ry="0" transform="matrix(1 0 0 1 110 61)" fill="rgb(40,176,76)" stroke="none" stroke-width="1" stroke-miterlimit="1"/></g><g id="eWf6lHADUNC19" transform="matrix(1.082062 0 0 1.082062 -40.046256 -22.320864)"><g id="eWf6lHADUNC20"><rect id="eWf6lHADUNC21" width="6" height="6" rx="0" ry="0" transform="matrix(1 0 0 1 476 269)" fill="rgb(40,176,76)" stroke="none" stroke-width="1" stroke-miterlimit="1"/><rect id="eWf6lHADUNC22" width="6" height="6" rx="0" ry="0" transform="matrix(1 0 0 1 485 269)" fill="rgb(40,176,76)" stroke="none" stroke-width="1" stroke-miterlimit="1"/><rect id="eWf6lHADUNC23" width="6" height="6" rx="0" ry="0" transform="matrix(1 0 0 1 494 269)" fill="rgb(40,176,76)" stroke="none" stroke-width="1" stroke-miterlimit="1"/></g></g><path id="eWf6lHADUNC24" d="M102.5,166.5L102.5,180M128,166.5L128,180" fill="none" stroke="rgb(0,0,0)" stroke-width="1" stroke-miterlimit="1"/><rect id="eWf6lHADUNC25" width="44" height="5" rx="0.5" ry="0.5" transform="matrix(1 0 0 1 93.5 180.5)" fill="rgb(196,196,196)" stroke="rgb(0,0,0)" stroke-width="1" stroke-miterlimit="1"/><path id="eWf6lHADUNC26" d="M29,40.5C29,42.2632,27.6961,43.7219,26,43.9646L26,176.035C27.6961,176.278,29,177.737,29,179.5C29,181.433,27.433,183,25.5,183C23.567,183,22,181.433,22,179.5C22,177.737,23.3039,176.278,25,176.035L25,43.9646C23.3039,43.7219,22,42.2632,22,40.5C22,38.567,23.567,37,25.5,37C27.433,37,29,38.567,29,40.5Z" transform="matrix(1 0 0 1 -0.567788 0)" clip-rule="evenodd" fill="rgb(0,0,0)" fill-rule="evenodd" stroke="none" stroke-width="1" stroke-miterlimit="1"/><circle id="eWf6lHADUNC27" r="3" transform="matrix(1 0 0 1 357 157)" fill="rgb(196,196,196)" stroke="none" stroke-width="1" stroke-miterlimit="1"/><circle id="eWf6lHADUNC28" r="2.5" transform="matrix(1 0 0 1 300 114)" fill="rgb(255,255,255)" stroke="rgb(0,0,0)" stroke-width="1" stroke-miterlimit="1"/><circle id="eWf6lHADUNC29" r="3" transform="matrix(1 0 0 1 385.5 44.5)" fill="rgb(255,255,255)" stroke="rgb(0,0,0)" stroke-width="1" stroke-miterlimit="1"/><circle id="eWf6lHADUNC30" r="2" transform="matrix(1 0 0 1 60.5 213.5)" fill="none" stroke="rgb(0,0,0)" stroke-width="1" stroke-miterlimit="1"/><circle id="eWf6lHADUNC31" r="2" transform="matrix(1 0 0 1 66.5 213.5)" fill="none" stroke="rgb(0,0,0)" stroke-width="1" stroke-miterlimit="1"/><circle id="eWf6lHADUNC32" r="2" transform="matrix(1 0 0 1 72.5 213.5)" fill="none" stroke="rgb(0,0,0)" stroke-width="1" stroke-miterlimit="1"/><path id="eWf6lHADUNC33" d="M176,114L263,114C266.314,114,269,116.686,269,120L269,157" fill="none" stroke="rgb(0,0,0)" stroke-width="1" stroke-miterlimit="1"/><path id="eWf6lHADUNC34" d="M35,251.965C36.6961,251.722,38,250.263,38,248.5C38,246.567,36.433,245,34.5,245C32.567,245,31,246.567,31,248.5C31,250.263,32.3039,251.722,34,251.965L34,307.5C34,311.09,36.9101,314,40.5,314L168.035,314C168.278,315.696,169.737,317,171.5,317C173.433,317,175,315.433,175,313.5C175,311.567,173.433,310,171.5,310C169.737,310,168.278,311.304,168.035,313L40.5,313C37.4624,313,35,310.538,35,307.5L35,251.965Z" clip-rule="evenodd" fill="rgb(0,0,0)" fill-rule="evenodd" stroke="none" stroke-width="1" stroke-miterlimit="1"/><path id="eWf6lHADUNC35" d="M198,75.5L198.419,75.9189C199.844,77.3444,202.156,77.3444,203.581,75.9189L203.581,75.9189C203.859,75.6414,204.091,75.3178,204.267,74.9669L204.267,74.9669C205.762,71.9761,210.076,71.9974,211.477,75.0335L211.587,75.2729C212.77,77.8354,216.123,78.4737,218.164,76.5249L220.65,74.1527C223.051,71.8608,226.856,71.9539,229.142,74.3604L230.625,75.9211C232.652,78.0545,236.11,77.8532,237.876,75.4991L238.563,74.5826C240.225,72.3671,243.589,72.4963,245.075,74.8327L245.756,75.903C247.152,78.0962,250.424,77.8667,251.5,75.5L251.5,75.5" fill="none" stroke="rgb(0,0,0)" stroke-width="0.5" stroke-miterlimit="1"/><path id="eWf6lHADUNC36" d="M213,89L213.419,89.4189C214.844,90.8444,217.156,90.8444,218.581,89.4189L218.581,89.4189C218.859,89.1414,219.091,88.8178,219.267,88.4669L219.267,88.4669C220.762,85.4761,225.076,85.4974,226.477,88.5335L226.587,88.7729C227.77,91.3354,231.123,91.9737,233.164,90.0249L235.65,87.6527C238.051,85.3608,241.856,85.4539,244.142,87.8604L245.625,89.4211C247.652,91.5545,251.11,91.3532,252.876,88.9991L253.563,88.0826C255.225,85.8671,258.589,85.9963,260.075,88.3327L260.756,89.403C262.152,91.5962,265.424,91.3667,266.5,89L266.5,89" fill="none" stroke="rgb(0,0,0)" stroke-width="0.5" stroke-miterlimit="1"/><path id="eWf6lHADUNC37" d="M503.5,221.5L543.5,221.5L543.5,253C543.5,257.142,540.142,260.5,536,260.5L511,260.5C506.858,260.5,503.5,257.142,503.5,253L503.5,221.5Z" fill="none" stroke="rgb(0,0,0)" stroke-width="1" stroke-miterlimit="1"/><path id="eWf6lHADUNC38" d="M534.5,186.5L574.5,186.5L574.5,214C574.5,218.142,571.142,221.5,567,221.5L542,221.5C537.858,221.5,534.5,218.142,534.5,214L534.5,186.5Z" fill="none" stroke="rgb(0,0,0)" stroke-width="1" stroke-miterlimit="1"/><path id="eWf6lHADUNC39" d="M510.5,200.5L532.5,200.5L532.5,215C532.5,219.142,529.142,222.5,525,222.5L518,222.5C513.858,222.5,510.5,219.142,510.5,215L510.5,200.5Z" fill="none" stroke="rgb(0,0,0)" stroke-width="1" stroke-miterlimit="1"/><path id="eWf6lHADUNC40" d="M175.5,142.5L548.5,142.5C551.814,142.5,554.5,139.814,554.5,136.5L554.5,99.5C554.5,99.2239,554.724,99,555,99L555,99" fill="none" stroke="rgb(0,0,0)" stroke-width="1" stroke-miterlimit="1"/><path id="eWf6lHADUNC41" d="M225.5,198L198,198C194.686,198,192,195.314,192,192L192,139.5C192,136.186,194.686,133.5,198,133.5L321,133.5C324.314,133.5,327,130.814,327,127.5L327,81.5C327,78.1863,329.686,75.5,333,75.5L553,75.5" fill="none" stroke="rgb(0,0,0)" stroke-width="1" stroke-miterlimit="1"/><path id="eWf6lHADUNC42" d="M467,54L532.5,54C535.814,54,538.5,51.3137,538.5,48L538.5,40C538.5,36.6863,541.186,34,544.5,34L597.5,34C600.814,34,603.5,36.6863,603.5,40L603.5,157.5" fill="none" stroke="rgb(0,0,0)" stroke-width="1" stroke-miterlimit="1"/><path id="eWf6lHADUNC43" d="M357,154.5L357,141.5C357,138.186,359.686,135.5,363,135.5L438,135.5L439.5,135.5" fill="none" stroke="rgb(0,0,0)" stroke-width="1" stroke-miterlimit="1"/><path id="eWf6lHADUNC44" d="M131,261L351,261C354.314,261,357,258.314,357,255L357,241" fill="none" stroke="rgb(0,0,0)" stroke-width="1" stroke-miterlimit="1"/><path id="eWf6lHADUNC45" d="M401,197.5L482.5,197.5C485.814,197.5,488.5,194.814,488.5,191.5L488.5,162.5C488.5,159.186,491.186,156.5,494.5,156.5L548.5,156.5C551.814,156.5,554.5,159.186,554.5,162.5L554.5,177" fill="none" stroke="rgb(0,0,0)" stroke-width="1" stroke-miterlimit="1"/><path id="eWf6lHADUNC46" d="M269,241L269,275C269,278.314,271.686,281,275,281L523,281C526.314,281,529,278.314,529,275L529,262.818" fill="none" stroke="rgb(0,0,0)" stroke-width="1" stroke-miterlimit="1"/><path id="eWf6lHADUNC47" d="M260.5,308L592.5,308" fill="none" stroke="rgb(0,0,0)" stroke-width="1" stroke-miterlimit="1"/><rect id="eWf6lHADUNC48" width="12" height="48" rx="6" ry="6" transform="matrix(1 0 0 1 564.5 48.5)" fill="none" stroke="rgb(0,0,0)" stroke-width="1" stroke-miterlimit="1"/><rect id="eWf6lHADUNC49" width="12" height="30" rx="6" ry="6" transform="matrix(1 0 0 1 548.5 66.5)" fill="none" stroke="rgb(0,0,0)" stroke-width="1" stroke-miterlimit="1"/><rect id="eWf6lHADUNC50" width="12" height="12" rx="6" ry="6" transform="matrix(1 0 0 1 532.5 84.5)" fill="none" stroke="rgb(0,0,0)" stroke-width="1" stroke-miterlimit="1"/><path id="eWf6lHADUNC51" d="M543.5,221C543.5,221.58,543.095,222.239,542.104,222.924C541.129,223.599,539.685,224.227,537.855,224.763C534.203,225.832,529.127,226.5,523.5,226.5C517.873,226.5,512.797,225.832,509.145,224.763C507.315,224.227,505.871,223.599,504.896,222.924C503.905,222.239,503.5,221.58,503.5,221C503.5,220.42,503.905,219.761,504.896,219.076C505.871,218.401,507.315,217.773,509.145,217.237C512.797,216.168,517.873,215.5,523.5,215.5C529.127,215.5,534.203,216.168,537.855,217.237C539.685,217.773,541.129,218.401,542.104,219.076C543.095,219.761,543.5,220.42,543.5,221Z" fill="rgb(40,176,76)" stroke="rgb(0,0,0)" stroke-width="1" stroke-miterlimit="1"/><ellipse id="eWf6lHADUNC52" rx="20.5" ry="6" transform="matrix(1 0 0 1 554.5 186)" fill="rgb(0,0,0)" stroke="none" stroke-width="1" stroke-miterlimit="1"/><ellipse id="eWf6lHADUNC53" rx="11.5" ry="3.5" transform="matrix(1 0 0 1 521.5 200.5)" fill="rgb(0,0,0)" stroke="none" stroke-width="1" stroke-miterlimit="1"/><path id="eWf6lHADUNC54" d="M392,76L392,135M383,76L383,135M374,76L374,135" fill="none" stroke="rgb(40,176,76)" stroke-width="0.5" stroke-miterlimit="1"/><path id="eWf6lHADUNC55" d="M315.232,238.991L315.244,238.491C315.235,238.491,315.227,238.491,315.218,238.491L315.232,238.991ZM316.015,239L316.015,238.5L316.015,238.5L316.015,239ZM366.144,204.858L365.79,205.211L365.79,205.211L366.144,204.858ZM346.967,199L346.483,199.125C346.54,199.346,346.739,199.5,346.967,199.5L346.967,199ZM338.044,183.818L338.389,183.455L338.389,183.455L338.044,183.818ZM322.441,175.657L322.542,175.167L322.542,175.167L322.441,175.657ZM304.885,176.99L305.058,177.459L305.058,177.459L304.885,176.99ZM303.544,177.521L303.117,177.781C303.246,177.993,303.511,178.078,303.739,177.982L303.544,177.521ZM296.783,169.16L297.127,168.797L297.127,168.797L296.783,169.16ZM276.925,158.832L276.825,159.321L276.825,159.321L276.925,158.832ZM254.581,160.519L254.408,160.05L254.408,160.05L254.581,160.519ZM236.518,173.711L236.913,174.018L236.913,174.018L236.518,173.711ZM228.208,194.411L228.705,194.462L228.705,194.462L228.208,194.411ZM232.168,216.35L231.72,216.572L231.72,216.572L232.168,216.35ZM247.198,232.882L247.462,232.457L247.462,232.457L247.198,232.882ZM268.747,239L268.747,238.5L268.746,238.5L268.747,239ZM315.22,239.491C315.485,239.497,315.75,239.5,316.016,239.5L316.015,238.5C315.757,238.5,315.5,238.497,315.244,238.491L315.22,239.491ZM316.015,239.5L352.005,239.5L352.005,238.5L316.015,238.5L316.015,239.5ZM352.005,239.5C357.441,239.5,362.654,237.34,366.497,233.496L365.79,232.789C362.134,236.446,357.176,238.5,352.005,238.5L352.005,239.5ZM366.497,233.496C370.341,229.651,372.5,224.437,372.5,219L371.5,219C371.5,224.172,369.446,229.132,365.79,232.789L366.497,233.496ZM372.5,219C372.5,213.563,370.341,208.349,366.497,204.504L365.79,205.211C369.446,208.868,371.5,213.828,371.5,219L372.5,219ZM366.497,204.504C362.654,200.66,357.441,198.5,352.005,198.5L352.005,199.5C357.176,199.5,362.134,201.554,365.79,205.211L366.497,204.504ZM352.005,198.5L346.967,198.5L346.967,199.5L352.005,199.5L352.005,198.5ZM347.451,198.875C345.931,192.988,342.792,187.646,338.389,183.455L337.699,184.18C341.967,188.242,345.01,193.419,346.483,199.125L347.451,198.875ZM338.389,183.455C333.985,179.265,328.495,176.393,322.542,175.167L322.34,176.147C328.11,177.335,333.431,180.118,337.699,184.18L338.389,183.455ZM322.542,175.167C316.589,173.942,310.411,174.411,304.711,176.521L305.058,177.459C310.583,175.414,316.57,174.959,322.34,176.147L322.542,175.167ZM304.711,176.521C304.253,176.691,303.799,176.871,303.35,177.061L303.739,177.982C304.174,177.798,304.614,177.624,305.058,177.459L304.711,176.521ZM303.971,177.261C302.086,174.165,299.789,171.316,297.127,168.797L296.439,169.523C299.036,171.981,301.278,174.761,303.117,177.781L303.971,177.261ZM297.127,168.797C291.541,163.51,284.577,159.888,277.025,158.342L276.825,159.321C284.194,160.83,290.989,164.365,296.439,169.523L297.127,168.797ZM277.025,158.342C269.474,156.796,261.638,157.387,254.408,160.05L254.753,160.988C261.809,158.39,269.456,157.813,276.825,159.321L277.025,158.342ZM254.408,160.05C247.178,162.712,240.843,167.339,236.123,173.404L236.913,174.018C241.517,168.101,247.698,163.586,254.753,160.988L254.408,160.05ZM236.123,173.404C231.404,179.469,228.489,186.73,227.711,194.361L228.705,194.462C229.465,187.018,232.308,179.935,236.913,174.018L236.123,173.404ZM227.711,194.361C226.932,201.992,228.321,209.687,231.72,216.572L232.616,216.129C229.301,209.412,227.946,201.906,228.705,194.462L227.711,194.361ZM231.72,216.572C235.118,223.456,240.39,229.254,246.935,233.307L247.462,232.457C241.075,228.502,235.932,222.845,232.616,216.129L231.72,216.572ZM246.935,233.307C253.481,237.36,261.037,239.506,268.747,239.5L268.746,238.5C261.223,238.506,253.848,236.412,247.462,232.457L246.935,233.307ZM268.747,239.5L314.552,239.5L314.552,238.5L268.747,238.5L268.747,239.5ZM314.552,239.5C314.784,239.5,315.014,239.497,315.245,239.491L315.218,238.491C314.997,238.497,314.775,238.5,314.552,238.5L314.552,239.5Z" fill="rgb(0,0,0)" stroke="none" stroke-width="1" stroke-miterlimit="1"/><path id="eWf6lHADUNC56" d="M383.809,175.146L383.812,175.146C384.229,175.214,384.518,175.558,384.518,175.976L384.518,186.042C384.518,186.46,384.229,186.804,383.812,186.872L383.808,186.872L377.908,187.874L377.621,187.922L377.521,188.196C377.241,188.968,376.924,189.723,376.59,190.445L376.468,190.709L376.636,190.945L380.103,195.805C380.103,195.806,380.103,195.806,380.104,195.807C380.343,196.15,380.304,196.611,380.016,196.899C380.016,196.899,380.016,196.899,380.016,196.899L372.882,204.015L372.881,204.016C372.594,204.303,372.133,204.343,371.79,204.104C371.789,204.103,371.788,204.103,371.787,204.103L366.929,200.619L366.686,200.445L366.418,200.576C365.702,200.925,364.95,201.24,364.178,201.521L363.904,201.621L363.856,201.909L362.872,207.791L362.872,207.794C362.804,208.211,362.46,208.5,362.042,208.5L351.958,208.5C351.546,208.5,351.196,208.199,351.128,207.791L351.128,207.791L350.145,201.909L350.096,201.621L349.822,201.521C349.05,201.24,348.298,200.925,347.582,200.576L347.314,200.445L347.071,200.619L342.213,204.103C342.212,204.103,342.211,204.103,342.211,204.104C341.868,204.343,341.407,204.303,341.119,204.016L341.118,204.015L333.985,196.899C333.696,196.611,333.657,196.15,333.896,195.807C333.897,195.806,333.897,195.806,333.897,195.805L337.364,190.945L337.533,190.709L337.41,190.445C337.076,189.723,336.76,188.969,336.48,188.181L336.381,187.904L336.091,187.855L330.209,186.872L330.206,186.872C329.789,186.804,329.5,186.46,329.5,186.042L329.5,175.976C329.5,175.558,329.789,175.214,330.206,175.146L330.209,175.146L336.091,174.162L336.381,174.114L336.48,173.837C336.76,173.049,337.075,172.297,337.424,171.582L337.555,171.314L337.381,171.071L333.896,166.211C333.657,165.868,333.696,165.407,333.984,165.119C333.984,165.119,333.984,165.119,333.985,165.118L341.118,158.003L341.119,158.002C341.407,157.714,341.868,157.675,342.211,157.914C342.211,157.914,342.212,157.915,342.213,157.915L347.054,161.381L347.294,161.553L347.56,161.426C348.296,161.075,349.047,160.761,349.813,160.5L350.095,160.404L350.145,160.109L351.128,154.209C351.196,153.801,351.546,153.5,351.958,153.5L362.042,153.5C362.46,153.5,362.804,153.789,362.872,154.206L362.872,154.209L363.856,160.109L363.905,160.404L364.187,160.5C364.953,160.761,365.704,161.075,366.44,161.426L366.706,161.553L366.946,161.381L371.787,157.915C371.788,157.915,371.789,157.914,371.789,157.914C372.132,157.675,372.594,157.714,372.881,158.002L372.882,158.003L380.016,165.118C380.016,165.118,380.016,165.119,380.016,165.119C380.304,165.407,380.343,165.868,380.104,166.211C380.104,166.211,380.103,166.212,380.103,166.213L376.619,171.071L376.445,171.314L376.576,171.582C376.925,172.297,377.24,173.049,377.52,173.837L377.619,174.114L377.909,174.162L383.809,175.146ZM343.913,181C343.913,188.231,349.786,194.105,357,194.105C364.231,194.105,370.105,188.231,370.105,181C370.105,173.786,364.231,167.913,357,167.913C349.787,167.913,343.913,173.786,343.913,181Z" fill="rgb(40,176,76)" stroke="rgb(0,0,0)" stroke-width="1" stroke-miterlimit="1"/><path id="eWf6lHADUNC57" d="M400.633,195.35L398.63,195.016C398.533,194.743,398.424,194.482,398.302,194.233L399.486,192.582C399.613,192.4,399.595,192.151,399.437,191.994L397.015,189.578C396.858,189.42,396.609,189.402,396.427,189.529L394.782,190.707C394.527,190.585,394.266,190.476,393.999,190.385L393.665,188.382C393.629,188.158,393.441,188,393.216,188L389.793,188C389.568,188,389.38,188.164,389.344,188.382L389.01,190.385C388.743,190.476,388.482,190.585,388.227,190.707L386.582,189.529C386.4,189.402,386.151,189.42,385.994,189.578L383.572,191.994C383.414,192.151,383.396,192.4,383.523,192.582L384.707,194.233C384.586,194.482,384.476,194.743,384.379,195.016L382.382,195.35C382.158,195.386,382,195.574,382,195.799L382,199.216C382,199.441,382.158,199.629,382.382,199.665L384.379,199.999C384.476,200.272,384.586,200.533,384.701,200.782L383.523,202.433C383.396,202.615,383.414,202.864,383.572,203.021L385.994,205.437C386.151,205.595,386.4,205.613,386.582,205.486L388.233,204.302C388.482,204.423,388.743,204.533,389.01,204.63L389.344,206.627C389.38,206.845,389.568,207.009,389.793,207.009L393.216,207.009C393.441,207.009,393.629,206.851,393.665,206.627L393.999,204.63C394.266,204.533,394.527,204.423,394.776,204.302L396.427,205.486C396.609,205.613,396.858,205.595,397.015,205.437L399.437,203.021C399.595,202.864,399.613,202.615,399.486,202.433L398.308,200.782C398.424,200.533,398.533,200.272,398.63,200.005L400.633,199.665C400.857,199.629,401.015,199.441,401.015,199.216L401.015,195.799C401.015,195.574,400.857,195.386,400.633,195.35ZM391.505,201.783C389.15,201.783,387.232,199.865,387.232,197.505C387.232,195.15,389.15,193.232,391.505,193.232C393.865,193.232,395.783,195.15,395.783,197.505C395.783,199.865,393.865,201.783,391.505,201.783Z" fill="rgb(0,0,0)" stroke="none" stroke-width="1" stroke-miterlimit="1"/><circle id="eWf6lHADUNC58" r="3" transform="matrix(1 0 0 1 554.5 96.5)" fill="rgb(40,176,76)" stroke="rgb(0,0,0)" stroke-width="1" stroke-miterlimit="1"/><circle id="eWf6lHADUNC59" r="3" transform="matrix(1 0 0 1 72.5 113.5)" fill="rgb(40,176,76)" stroke="rgb(0,0,0)" stroke-width="1" stroke-miterlimit="1"/><circle id="eWf6lHADUNC60" r="2.5" transform="matrix(1 0 0 1 175 114)" fill="rgb(255,255,255)" stroke="rgb(0,0,0)" stroke-width="1" stroke-miterlimit="1"/><circle id="eWf6lHADUNC61" r="2.5" transform="matrix(1 0 0 1 269 157)" fill="rgb(255,255,255)" stroke="rgb(0,0,0)" stroke-width="1" stroke-miterlimit="1"/><circle id="eWf6lHADUNC62" r="2.5" transform="matrix(1 0 0 1 269 157)" fill="rgb(255,255,255)" stroke="rgb(0,0,0)" stroke-width="1" stroke-miterlimit="1"/><circle id="eWf6lHADUNC63" r="2.5" transform="matrix(1 0 0 1 357 239)" fill="rgb(255,255,255)" stroke="rgb(0,0,0)" stroke-width="1" stroke-miterlimit="1"/><circle id="eWf6lHADUNC64" r="2.5" transform="matrix(1 0 0 1 258 308)" fill="rgb(255,255,255)" stroke="rgb(0,0,0)" stroke-width="1" stroke-miterlimit="1"/><circle id="eWf6lHADUNC65" r="2.5" transform="matrix(1 0 0 1 595 308)" fill="rgb(255,255,255)" stroke="rgb(0,0,0)" stroke-width="1" stroke-miterlimit="1"/><circle id="eWf6lHADUNC66" r="2.5" transform="matrix(1 0 0 1 529 261)" fill="rgb(255,255,255)" stroke="rgb(0,0,0)" stroke-width="1" stroke-miterlimit="1"/><circle id="eWf6lHADUNC67" r="3" transform="matrix(1 0 0 1 554.5 179.5)" fill="rgb(40,176,76)" stroke="rgb(0,0,0)" stroke-width="1" stroke-miterlimit="1"/><circle id="eWf6lHADUNC68" r="2.5" transform="matrix(1 0 0 1 269 239)" fill="rgb(255,255,255)" stroke="rgb(0,0,0)" stroke-width="1" stroke-miterlimit="1"/><circle id="eWf6lHADUNC69" r="2.5" transform="matrix(1 0 0 1 228 198)" fill="rgb(40,176,76)" stroke="rgb(0,0,0)" stroke-width="1" stroke-miterlimit="1"/><circle id="eWf6lHADUNC70" r="3.5" transform="matrix(1 0 0 1 465 54)" fill="rgb(255,255,255)" stroke="rgb(0,0,0)" stroke-width="1" stroke-miterlimit="1"/><circle id="eWf6lHADUNC71" r="3" transform="matrix(1 0 0 1 554.5 75.5)" fill="rgb(40,176,76)" stroke="rgb(0,0,0)" stroke-width="1" stroke-miterlimit="1"/><circle id="eWf6lHADUNC72" r="3" transform="matrix(1 0 0 1 554.5 96.5)" fill="rgb(40,176,76)" stroke="rgb(0,0,0)" stroke-width="1" stroke-miterlimit="1"/><circle id="eWf6lHADUNC73" r="3" transform="matrix(1 0 0 1 603.5 160.5)" fill="rgb(255,255,255)" stroke="rgb(0,0,0)" stroke-width="1" stroke-miterlimit="1"/><circle id="eWf6lHADUNC74" r="2.5" transform="matrix(1 0 0 1 175 142)" fill="rgb(40,176,76)" stroke="rgb(0,0,0)" stroke-width="1" stroke-miterlimit="1"/><circle id="eWf6lHADUNC75" r="3" transform="matrix(1 0 0 1 115.5 260.5)" fill="rgb(255,255,255)" stroke="rgb(0,0,0)" stroke-width="1" stroke-miterlimit="1"/><circle id="eWf6lHADUNC76" r="3" transform="matrix(1 0 0 1 128.5 260.5)" fill="rgb(255,255,255)" stroke="rgb(0,0,0)" stroke-width="1" stroke-miterlimit="1"/><path id="eWf6lHADUNC77" d="M55.5,220.5L128.5,220.5" fill="none" stroke="rgb(0,0,0)" stroke-width="1" stroke-miterlimit="1"/><rect id="eWf6lHADUNC78" width="19" height="18" rx="0" ry="0" transform="matrix(1.532974 0 0 1.532971 442.436747 125.453261)" fill="rgb(40,176,76)" stroke="rgb(0,0,0)" stroke-width="1" stroke-miterlimit="1"/><rect id="eWf6lHADUNC79" width="19" height="17" rx="0" ry="0" transform="matrix(1 0 0 1 462.063253 156.25)" fill="none" stroke="rgb(0,0,0)" stroke-width="1" stroke-miterlimit="1"/><circle id="eWf6lHADUNC80" r="3" transform="matrix(1 0 0 1 442.5 135.5)" fill="rgb(255,255,255)" stroke="rgb(0,0,0)" stroke-width="1" stroke-miterlimit="1"/><circle id="eWf6lHADUNC81" r="3" transform="matrix(1 0 0 1 72.5 113.5)" fill="rgb(40,176,76)" stroke="rgb(0,0,0)" stroke-width="1" stroke-miterlimit="1"/><circle id="eWf6lHADUNC82" r="3" transform="matrix(1 0 0 1 398.5 197.5)" fill="rgb(40,176,76)" stroke="rgb(0,0,0)" stroke-width="1" stroke-miterlimit="1"/><path id="eWf6lHADUNC83" d="M241.375,132.621C242.074,132.999,242.074,134.001,241.375,134.379L232.476,139.196C231.81,139.557,231,139.074,231,138.317L231,128.683C231,127.926,231.81,127.443,232.476,127.804L241.375,132.621Z" fill="rgb(40,176,76)" stroke="none" stroke-width="1" stroke-miterlimit="1"/><path id="eWf6lHADUNC84" d="M514.749,155.609C514.021,155.98,514.021,157.02,514.749,157.391L524.296,162.255C524.961,162.593,525.75,162.11,525.75,161.363L525.75,151.637C525.75,150.89,524.961,150.407,524.296,150.745L514.749,155.609Z" fill="rgb(40,176,76)" stroke="none" stroke-width="1" stroke-miterlimit="1"/><path id="eWf6lHADUNC85" d="M295.375,279.621C296.074,279.999,296.074,281.001,295.375,281.379L286.476,286.196C285.81,286.557,285,286.074,285,285.317L285,275.683C285,274.926,285.81,274.443,286.476,274.804L295.375,279.621Z" fill="rgb(40,176,76)" stroke="none" stroke-width="1" stroke-miterlimit="1"/><g id="eWf6lHADUNC86" clip-path="url(#eWf6lHADUNC87)"><clipPath id="eWf6lHADUNC87"><rect id="eWf6lHADUNC88" width="56" height="55" rx="0" ry="0" transform="matrix(1 0 0 1 241 171)" fill="rgb(255,255,255)" stroke="none" stroke-width="1" stroke-miterlimit="1"/></clipPath></g><script><![CDATA[!function(t,n){"object"==typeof exports&&"undefined"!=typeof module?module.exports=n():"function"==typeof define&&define.amd?define(n):(t="undefined"!=typeof globalThis?globalThis:t||self).__SVGATOR_PLAYER__=n()}(this,(function(){"use strict";function t(n){return(t="function"==typeof Symbol&&"symbol"==typeof Symbol.iterator?function(t){return typeof t}:function(t){return t&&"function"==typeof Symbol&&t.constructor===Symbol&&t!==Symbol.prototype?"symbol":typeof t})(n)}function n(t,n){if(!(t instanceof n))throw new TypeError("Cannot call a class as a function")}function r(t,n){for(var r=0;r<n.length;r++){var e=n[r];e.enumerable=e.enumerable||!1,e.configurable=!0,"value"in e&&(e.writable=!0),Object.defineProperty(t,e.key,e)}}function e(t,n,e){return n&&r(t.prototype,n),e&&r(t,e),t}function i(t){return(i=Object.setPrototypeOf?Object.getPrototypeOf:function(t){return t.__proto__||Object.getPrototypeOf(t)})(t)}function o(t,n){return(o=Object.setPrototypeOf||function(t,n){return t.__proto__=n,t})(t,n)}function u(t,n){return!n||"object"!=typeof n&&"function"!=typeof n?function(t){if(void 0===t)throw new ReferenceError("this hasn't been initialised - super() hasn't been called");return t}(t):n}function a(t){var n=function(){if("undefined"==typeof Reflect||!Reflect.construct)return!1;if(Reflect.construct.sham)return!1;if("function"==typeof Proxy)return!0;try{return Boolean.prototype.valueOf.call(Reflect.construct(Boolean,[],(function(){}))),!0}catch(t){return!1}}();return function(){var r,e=i(t);if(n){var o=i(this).constructor;r=Reflect.construct(e,arguments,o)}else r=e.apply(this,arguments);return u(this,r)}}function l(t,n,r){return(l="undefined"!=typeof Reflect&&Reflect.get?Reflect.get:function(t,n,r){var e=function(t,n){for(;!Object.prototype.hasOwnProperty.call(t,n)&&null!==(t=i(t)););return t}(t,n);if(e){var o=Object.getOwnPropertyDescriptor(e,n);return o.get?o.get.call(r):o.value}})(t,n,r||t)}var f=s(Math.pow(10,-6));function s(t){var n=arguments.length>1&&void 0!==arguments[1]?arguments[1]:6;if(Number.isInteger(t))return t;var r=Math.pow(10,n);return Math.round((+t+Number.EPSILON)*r)/r}function c(t,n){var r=arguments.length>2&&void 0!==arguments[2]?arguments[2]:f;return Math.abs(t-n)<r}var h=Math.PI/180;function v(t){return t}function y(t,n,r){var e=1-r;return 3*r*e*(t*e+n*r)+r*r*r}function d(){var t=arguments.length>0&&void 0!==arguments[0]?arguments[0]:0,n=arguments.length>1&&void 0!==arguments[1]?arguments[1]:0,r=arguments.length>2&&void 0!==arguments[2]?arguments[2]:1,e=arguments.length>3&&void 0!==arguments[3]?arguments[3]:1;return t<0||t>1||r<0||r>1?null:c(t,n)&&c(r,e)?v:function(i){if(i<=0)return t>0?i*n/t:0===n&&r>0?i*e/r:0;if(i>=1)return r<1?1+(i-1)*(e-1)/(r-1):1===r&&t<1?1+(i-1)*(n-1)/(t-1):1;for(var o,u=0,a=1;u<a;){var l=y(t,r,o=(u+a)/2);if(c(i,l))break;l<i?u=o:a=o}return y(n,e,o)}}function g(){return 1}function p(t){return 1===t?1:0}function m(){var t=arguments.length>0&&void 0!==arguments[0]?arguments[0]:1,n=arguments.length>1&&void 0!==arguments[1]?arguments[1]:0;if(1===t){if(0===n)return p;if(1===n)return g}var r=1/t;return function(t){return t>=1?1:(t+=n*r)-t%r}}function b(t,n,r){return t>=.5?r:n}function w(t,n,r){return 0===t||n===r?n:t*(r-n)+n}function x(t,n,r){var e=w(t,n,r);return e<=0?0:e}function k(t,n,r){return 0===t?n:1===t?r:{x:w(t,n.x,r.x),y:w(t,n.y,r.y)}}function A(t,n,r){var e=function(t,n,r){return Math.round(w(t,n,r))}(t,n,r);return e<=0?0:e>=255?255:e}function _(t,n,r){return 0===t?n:1===t?r:{r:A(t,n.r,r.r),g:A(t,n.g,r.g),b:A(t,n.b,r.b),a:w(t,null==n.a?1:n.a,null==r.a?1:r.a)}}function S(t,n,r){if(0===t)return n;if(1===t)return r;var e=n.length;if(e!==r.length)return b(t,n,r);for(var i=[],o=0;o<e;o++)i.push(_(t,n[o],r[o]));return i}function O(t,n){for(var r=[],e=0;e<t;e++)r.push(n);return r}function M(t,n){if(--n<=0)return t;var r=(t=Object.assign([],t)).length;do{for(var e=0;e<r;e++)t.push(t[e])}while(--n>0);return t}var j,P=function(){function t(r){n(this,t),this.list=r,this.length=r.length}return e(t,[{key:"setAttribute",value:function(t,n){for(var r=this.list,e=0;e<this.length;e++)r[e].setAttribute(t,n)}},{key:"removeAttribute",value:function(t){for(var n=this.list,r=0;r<this.length;r++)n[r].removeAttribute(t)}},{key:"style",value:function(t,n){for(var r=this.list,e=0;e<this.length;e++)r[e].style[t]=n}}]),t}(),B=/-./g,E=function(t,n){return n.toUpperCase()};function F(t){return"function"==typeof t?t:b}function I(t){return t?"function"==typeof t?t:Array.isArray(t)?function(t){var n=arguments.length>1&&void 0!==arguments[1]?arguments[1]:v;if(!Array.isArray(t))return n;switch(t.length){case 1:return m(t[0])||n;case 2:return m(t[0],t[1])||n;case 4:return d(t[0],t[1],t[2],t[3])||n}return n}(t,null):function(t,n){var r=arguments.length>2&&void 0!==arguments[2]?arguments[2]:v;switch(t){case"linear":return v;case"steps":return m(n.steps||1,n.jump||0)||r;case"bezier":case"cubic-bezier":return d(n.x1||0,n.y1||0,n.x2||0,n.y2||0)||r}return r}(t.type,t.value,null):null}function R(t,n,r){var e=arguments.length>3&&void 0!==arguments[3]&&arguments[3],i=n.length-1;if(t<=n[0].t)return e?[0,0,n[0].v]:n[0].v;if(t>=n[i].t)return e?[i,1,n[i].v]:n[i].v;var o,u=n[0],a=null;for(o=1;o<=i;o++){if(!(t>n[o].t)){a=n[o];break}u=n[o]}return null==a?e?[i,1,n[i].v]:n[i].v:u.t===a.t?e?[o,1,a.v]:a.v:(t=(t-u.t)/(a.t-u.t),u.e&&(t=u.e(t)),e?[o,t,r(t,u.v,a.v)]:r(t,u.v,a.v))}function q(t,n){var r=arguments.length>2&&void 0!==arguments[2]?arguments[2]:null;return t&&t.length?"function"!=typeof n?null:("function"!=typeof r&&(r=null),function(e){var i=R(e,t,n);return null!=i&&r&&(i=r(i)),i}):null}function T(t,n){return t.t-n.t}function N(n,r,e,i,o){var u,a="@"===e[0],l="#"===e[0],f=j[e],s=b;switch(a?(u=e.substr(1),e=u.replace(B,E)):l&&(e=e.substr(1)),t(f)){case"function":if(s=f(i,o,R,I,e,a,r,n),l)return s;break;case"string":s=q(i,F(f));break;case"object":if((s=q(i,F(f.i),f.f))&&"function"==typeof f.u)return f.u(r,s,e,a,n)}return s?function(t,n,r){var e=arguments.length>3&&void 0!==arguments[3]&&arguments[3];if(e)return t instanceof P?function(e){return t.style(n,r(e))}:function(e){return t.style[n]=r(e)};if(Array.isArray(n)){var i=n.length;return function(e){var o=r(e);if(null==o)for(var u=0;u<i;u++)t[u].removeAttribute(n);else for(var a=0;a<i;a++)t[a].setAttribute(n,o)}}return function(e){var i=r(e);null==i?t.removeAttribute(n):t.setAttribute(n,i)}}(r,e,s,a):null}function C(n,r,e,i){if(!i||"object"!==t(i))return null;var o=null,u=null;return Array.isArray(i)?u=function(t){if(!t||!t.length)return null;for(var n=0;n<t.length;n++)t[n].e&&(t[n].e=I(t[n].e));return t.sort(T)}(i):(u=i.keys,o=i.data||null),u?N(n,r,e,u,o):null}function z(t,n,r){if(!r)return null;var e=[];for(var i in r)if(r.hasOwnProperty(i)){var o=C(t,n,i,r[i]);o&&e.push(o)}return e.length?e:null}function L(t,n){if(!n.duration||n.duration<0)return null;var r=function(t,n){if(!n)return null;var r=[];if(Array.isArray(n))for(var e=n.length,i=0;i<e;i++){var o=n[i];if(2===o.length){var u=null;if("string"==typeof o[0])u=t.getElementById(o[0]);else if(Array.isArray(o[0])){u=[];for(var a=0;a<o[0].length;a++)if("string"==typeof o[0][a]){var l=t.getElementById(o[0][a]);l&&u.push(l)}u=u.length?1===u.length?u[0]:new P(u):null}if(u){var f=z(t,u,o[1]);f&&(r=r.concat(f))}}}else for(var s in n)if(n.hasOwnProperty(s)){var c=t.getElementById(s);if(c){var h=z(t,c,n[s]);h&&(r=r.concat(h))}}return r.length?r:null}(t,n.elements);return r?function(t,n){var r=arguments.length>2&&void 0!==arguments[2]?arguments[2]:1/0,e=arguments.length>3&&void 0!==arguments[3]?arguments[3]:1,i=arguments.length>4&&void 0!==arguments[4]&&arguments[4],o=arguments.length>5&&void 0!==arguments[5]?arguments[5]:1,u=t.length,a=e>0?n:0;i&&r%2==0&&(a=n-a);var l=null;return function(f,s){var c=f%n,h=1+(f-c)/n;s*=e,i&&h%2==0&&(s=-s);var v=!1;if(h>r)c=a,v=!0,-1===o&&(c=e>0?0:n);else if(s<0&&(c=n-c),c===l)return!1;l=c;for(var y=0;y<u;y++)t[y](c);return v}}(r,n.duration,n.iterations||1/0,n.direction||1,!!n.alternate,n.fill||1):null}var D=function(){function t(r,e){var i=arguments.length>2&&void 0!==arguments[2]?arguments[2]:{};n(this,t),this._id=0,this._running=!1,this._rollingBack=!1,this._animations=r,this.duration=e.duration,this.alternate=e.alternate,this.fill=e.fill,this.iterations=e.iterations,this.direction=i.direction||1,this.speed=i.speed||1,this.fps=i.fps||100,this.offset=i.offset||0,this.rollbackStartOffset=0}return e(t,[{key:"_rollback",value:function(){var t=this,n=1/0,r=null;this.rollbackStartOffset=this.offset,this._rollingBack||(this._rollingBack=!0,this._running=!0);this._id=window.requestAnimationFrame((function e(i){if(t._rollingBack){null==r&&(r=i);var o=i-r,u=t.rollbackStartOffset-o,a=Math.round(u*t.speed);if(a>t.duration&&n!=1/0){var l=!!t.alternate&&a/t.duration%2>1,f=a%t.duration;a=(f+=l?t.duration:0)||t.duration}var s=t.fps?1e3/t.fps:0,c=Math.max(0,a);if(c<n-s){t.offset=c,n=c;for(var h=t._animations,v=h.length,y=0;y<v;y++)h[y](c,t.direction)}var d=!1;if(t.iterations>0&&-1===t.fill){var g=t.iterations*t.duration,p=g==a;a=p?0:a,t.offset=p?0:t.offset,d=a>g}a>0&&t.offset>=a&&!d?t._id=window.requestAnimationFrame(e):t.stop()}}))}},{key:"_start",value:function(){var t=this,n=arguments.length>0&&void 0!==arguments[0]?arguments[0]:0,r=-1/0,e=null,i={},o=function o(u){t._running=!0,null==e&&(e=u);var a=Math.round((u-e+n)*t.speed),l=t.fps?1e3/t.fps:0;if(a>r+l&&!t._rollingBack){t.offset=a,r=a;for(var f=t._animations,s=f.length,c=0,h=0;h<s;h++)i[h]?c++:(i[h]=f[h](a,t.direction),i[h]&&c++);if(c===s)return void t._stop()}t._id=window.requestAnimationFrame(o)};this._id=window.requestAnimationFrame(o)}},{key:"_stop",value:function(){this._id&&window.cancelAnimationFrame(this._id),this._running=!1,this._rollingBack=!1}},{key:"play",value:function(){!this._rollingBack&&this._running||(this._rollingBack=!1,this.rollbackStartOffset>this.duration&&(this.offset=this.rollbackStartOffset-(this.rollbackStartOffset-this.offset)%this.duration,this.rollbackStartOffset=0),this._start(this.offset))}},{key:"stop",value:function(){this._stop(),this.offset=0,this.rollbackStartOffset=0;var t=this.direction,n=this._animations;window.requestAnimationFrame((function(){for(var r=0;r<n.length;r++)n[r](0,t)}))}},{key:"reachedToEnd",value:function(){return this.iterations>0&&this.offset>=this.iterations*this.duration}},{key:"restart",value:function(){this._stop(),this.offset=0,this._start()}},{key:"pause",value:function(){this._stop()}},{key:"reverse",value:function(){this.direction=-this.direction}}],[{key:"build",value:function(n,r){return(n=function(t,n){if(j=n,!t||!t.root||!Array.isArray(t.animations))return null;for(var r=document.getElementsByTagName("svg"),e=!1,i=0;i<r.length;i++)if(r[i].id===t.root&&!r[i].svgatorAnimation){(e=r[i]).svgatorAnimation=!0;break}if(!e)return null;var o=t.animations.map((function(t){return L(e,t)})).filter((function(t){return!!t}));return o.length?{element:e,animations:o,animationSettings:t.animationSettings,options:t.options||void 0}:null}(n,r))?{el:n.element,options:n.options||{},player:new t(n.animations,n.animationSettings,n.options)}:null}}]),t}();function Q(t){return s(t)+""}function U(t){var n=arguments.length>1&&void 0!==arguments[1]?arguments[1]:" ";return t&&t.length?t.map(Q).join(n):""}function V(t){return t?null==t.a||t.a>=1?"rgb("+t.r+","+t.g+","+t.b+")":"rgba("+t.r+","+t.g+","+t.b+","+t.a+")":"transparent"}!function(){for(var t=0,n=["ms","moz","webkit","o"],r=0;r<n.length&&!window.requestAnimationFrame;++r)window.requestAnimationFrame=window[n[r]+"RequestAnimationFrame"],window.cancelAnimationFrame=window[n[r]+"CancelAnimationFrame"]||window[n[r]+"CancelRequestAnimationFrame"];window.requestAnimationFrame||(window.requestAnimationFrame=function(n){var r=Date.now(),e=Math.max(0,16-(r-t)),i=window.setTimeout((function(){n(r+e)}),e);return t=r+e,i},window.cancelAnimationFrame=window.clearTimeout)}();var G={f:null,i:function(t,n,r){return 0===t?n:1===t?r:{x:x(t,n.x,r.x),y:x(t,n.y,r.y)}},u:function(t,n){return function(r){var e=n(r);t.setAttribute("rx",Q(e.x)),t.setAttribute("ry",Q(e.y))}}},H={f:null,i:function(t,n,r){return 0===t?n:1===t?r:{width:x(t,n.width,r.width),height:x(t,n.height,r.height)}},u:function(t,n){return function(r){var e=n(r);t.setAttribute("width",Q(e.width)),t.setAttribute("height",Q(e.height))}}},Y=Math.sin,Z=Math.cos,J=Math.acos,K=Math.asin,W=Math.tan,X=Math.atan2,$=Math.PI/180,tt=180/Math.PI,nt=Math.sqrt,rt=function(){function t(){var r=arguments.length>0&&void 0!==arguments[0]?arguments[0]:1,e=arguments.length>1&&void 0!==arguments[1]?arguments[1]:0,i=arguments.length>2&&void 0!==arguments[2]?arguments[2]:0,o=arguments.length>3&&void 0!==arguments[3]?arguments[3]:1,u=arguments.length>4&&void 0!==arguments[4]?arguments[4]:0,a=arguments.length>5&&void 0!==arguments[5]?arguments[5]:0;n(this,t),this.m=[r,e,i,o,u,a],this.i=null,this.w=null,this.s=null}return e(t,[{key:"determinant",get:function(){var t=this.m;return t[0]*t[3]-t[1]*t[2]}},{key:"isIdentity",get:function(){if(null===this.i){var t=this.m;this.i=1===t[0]&&0===t[1]&&0===t[2]&&1===t[3]&&0===t[4]&&0===t[5]}return this.i}},{key:"point",value:function(t,n){var r=this.m;return{x:r[0]*t+r[2]*n+r[4],y:r[1]*t+r[3]*n+r[5]}}},{key:"translateSelf",value:function(){var t=arguments.length>0&&void 0!==arguments[0]?arguments[0]:0,n=arguments.length>1&&void 0!==arguments[1]?arguments[1]:0;if(!t&&!n)return this;var r=this.m;return r[4]+=r[0]*t+r[2]*n,r[5]+=r[1]*t+r[3]*n,this.w=this.s=this.i=null,this}},{key:"rotateSelf",value:function(){var t=arguments.length>0&&void 0!==arguments[0]?arguments[0]:0;if(t%=360){var n=Y(t*=$),r=Z(t),e=this.m,i=e[0],o=e[1];e[0]=i*r+e[2]*n,e[1]=o*r+e[3]*n,e[2]=e[2]*r-i*n,e[3]=e[3]*r-o*n,this.w=this.s=this.i=null}return this}},{key:"scaleSelf",value:function(){var t=arguments.length>0&&void 0!==arguments[0]?arguments[0]:1,n=arguments.length>1&&void 0!==arguments[1]?arguments[1]:1;if(1!==t||1!==n){var r=this.m;r[0]*=t,r[1]*=t,r[2]*=n,r[3]*=n,this.w=this.s=this.i=null}return this}},{key:"skewSelf",value:function(t,n){if(n%=360,(t%=360)||n){var r=this.m,e=r[0],i=r[1],o=r[2],u=r[3];t&&(t=W(t*$),r[2]+=e*t,r[3]+=i*t),n&&(n=W(n*$),r[0]+=o*n,r[1]+=u*n),this.w=this.s=this.i=null}return this}},{key:"resetSelf",value:function(){var t=arguments.length>0&&void 0!==arguments[0]?arguments[0]:1,n=arguments.length>1&&void 0!==arguments[1]?arguments[1]:0,r=arguments.length>2&&void 0!==arguments[2]?arguments[2]:0,e=arguments.length>3&&void 0!==arguments[3]?arguments[3]:1,i=arguments.length>4&&void 0!==arguments[4]?arguments[4]:0,o=arguments.length>5&&void 0!==arguments[5]?arguments[5]:0,u=this.m;return u[0]=t,u[1]=n,u[2]=r,u[3]=e,u[4]=i,u[5]=o,this.w=this.s=this.i=null,this}},{key:"recomposeSelf",value:function(){var t=arguments.length>0&&void 0!==arguments[0]?arguments[0]:null,n=arguments.length>1&&void 0!==arguments[1]?arguments[1]:null,r=arguments.length>2&&void 0!==arguments[2]?arguments[2]:null,e=arguments.length>3&&void 0!==arguments[3]?arguments[3]:null,i=arguments.length>4&&void 0!==arguments[4]?arguments[4]:null;return this.isIdentity||this.resetSelf(),t&&(t.x||t.y)&&this.translateSelf(t.x,t.y),n&&this.rotateSelf(n),r&&(r.x&&this.skewSelf(r.x,0),r.y&&this.skewSelf(0,r.y)),!e||1===e.x&&1===e.y||this.scaleSelf(e.x,e.y),i&&(i.x||i.y)&&this.translateSelf(i.x,i.y),this}},{key:"decompose",value:function(){var t=arguments.length>0&&void 0!==arguments[0]?arguments[0]:0,n=arguments.length>1&&void 0!==arguments[1]?arguments[1]:0,r=this.m,e=r[0]*r[0]+r[1]*r[1],i=[[r[0],r[1]],[r[2],r[3]]],o=nt(e);if(0===o)return{origin:{x:s(r[4]),y:s(r[5])},translate:{x:s(t),y:s(n)},scale:{x:0,y:0},skew:{x:0,y:0},rotate:0};i[0][0]/=o,i[0][1]/=o;var u=r[0]*r[3]-r[1]*r[2]<0;u&&(o=-o);var a=i[0][0]*i[1][0]+i[0][1]*i[1][1];i[1][0]-=i[0][0]*a,i[1][1]-=i[0][1]*a;var l=nt(i[1][0]*i[1][0]+i[1][1]*i[1][1]);if(0===l)return{origin:{x:s(r[4]),y:s(r[5])},translate:{x:s(t),y:s(n)},scale:{x:s(o),y:0},skew:{x:0,y:0},rotate:0};i[1][0]/=l,i[1][1]/=l,a/=l;var f=0;return i[1][1]<0?(f=J(i[1][1])*tt,i[0][1]<0&&(f=360-f)):f=K(i[0][1])*tt,u&&(f=-f),a=X(a,nt(i[0][0]*i[0][0]+i[0][1]*i[0][1]))*tt,u&&(a=-a),{origin:{x:s(r[4]),y:s(r[5])},translate:{x:s(t),y:s(n)},scale:{x:s(o),y:s(l)},skew:{x:s(a),y:0},rotate:s(f)}}},{key:"toString",value:function(){return null===this.s&&(this.s="matrix("+this.m.map((function(t){return s(t)})).join(" ")+")"),this.s}}]),t}();Object.freeze({M:2,L:2,Z:0,H:1,V:1,C:6,Q:4,T:2,S:4,A:7});var et={},it=null;function ot(n){var r=function(){if(it)return it;if("object"!==("undefined"==typeof document?"undefined":t(document))||!document.createElementNS)return{};var n=document.createElementNS("http://www.w3.org/2000/svg","svg");return n&&n.style?(n.style.position="absolute",n.style.opacity="0.01",n.style.zIndex="-9999",n.style.left="-9999px",n.style.width="1px",n.style.height="1px",it={svg:n}):{}}().svg;if(!r)return function(t){return null};var e=document.createElementNS(r.namespaceURI,"path");e.setAttributeNS(null,"d",n),e.setAttributeNS(null,"fill","none"),e.setAttributeNS(null,"stroke","none"),r.appendChild(e);var i=e.getTotalLength();return function(t){var n=e.getPointAtLength(i*t);return{x:n.x,y:n.y}}}function ut(t){return et[t]?et[t]:et[t]=ot(t)}function at(t,n,r,e){if(!t||!e)return!1;var i=["M",t.x,t.y];if(n&&r&&(i.push("C"),i.push(n.x),i.push(n.y),i.push(r.x),i.push(r.y)),n?!r:r){var o=n||r;i.push("Q"),i.push(o.x),i.push(o.y)}return n||r||i.push("L"),i.push(e.x),i.push(e.y),i.join(" ")}function lt(t,n,r,e){var i=arguments.length>4&&void 0!==arguments[4]?arguments[4]:1,o=at(t,n,r,e),u=ut(o);try{return u(i)}catch(t){return null}}function ft(t,n,r,e){var i=1-e;return i*i*t+2*i*e*n+e*e*r}function st(t,n,r,e){return 2*(1-e)*(n-t)+2*e*(r-n)}function ct(t,n,r,e){var i=arguments.length>4&&void 0!==arguments[4]&&arguments[4],o=lt(t,n,null,r,e);return o||(o={x:ft(t.x,n.x,r.x,e),y:ft(t.y,n.y,r.y,e)}),i&&(o.a=ht(t,n,r,e)),o}function ht(t,n,r,e){return Math.atan2(st(t.y,n.y,r.y,e),st(t.x,n.x,r.x,e))}function vt(t,n,r,e,i){var o=i*i;return i*o*(e-t+3*(n-r))+3*o*(t+r-2*n)+3*i*(n-t)+t}function yt(t,n,r,e,i){var o=1-i;return 3*(o*o*(n-t)+2*o*i*(r-n)+i*i*(e-r))}function dt(t,n,r,e,i){var o=arguments.length>5&&void 0!==arguments[5]&&arguments[5],u=lt(t,n,r,e,i);return u||(u={x:vt(t.x,n.x,r.x,e.x,i),y:vt(t.y,n.y,r.y,e.y,i)}),o&&(u.a=gt(t,n,r,e,i)),u}function gt(t,n,r,e,i){return Math.atan2(yt(t.y,n.y,r.y,e.y,i),yt(t.x,n.x,r.x,e.x,i))}function pt(t,n,r){return t+(n-t)*r}function mt(t,n,r){var e=arguments.length>3&&void 0!==arguments[3]&&arguments[3],i={x:pt(t.x,n.x,r),y:pt(t.y,n.y,r)};return e&&(i.a=bt(t,n)),i}function bt(t,n){return Math.atan2(n.y-t.y,n.x-t.x)}function wt(t,n,r){var e=arguments.length>3&&void 0!==arguments[3]&&arguments[3];if(kt(n)){if(At(r))return ct(n,r.start,r,t,e)}else if(kt(r)){if(n.end)return ct(n,n.end,r,t,e)}else{if(n.end)return r.start?dt(n,n.end,r.start,r,t,e):ct(n,n.end,r,t,e);if(r.start)return ct(n,r.start,r,t,e)}return mt(n,r,t,e)}function xt(t,n,r){var e=wt(t,n,r,!0);return e.a=function(t){var n=arguments.length>1&&void 0!==arguments[1]&&arguments[1];return n?t+Math.PI:t}(e.a)/h,e}function kt(t){return!t.type||"corner"===t.type}function At(t){return null!=t.start&&!kt(t)}var _t=new rt;var St={f:Q,i:w},Ot={f:Q,i:function(t,n,r){var e=w(t,n,r);return e<=0?0:e>=1?1:e}};function Mt(t,n,r,e,i,o,u,a){return n=function(t,n,r){for(var e,i,o,u=t.length-1,a={},l=0;l<=u;l++)(e=t[l]).e&&(e.e=n(e.e)),e.v&&"g"===(i=e.v).t&&i.r&&(o=r.getElementById(i.r))&&(a[i.r]=o.querySelectorAll("stop"));return a}(t,e,a),function(e){var i,o=r(e,t,jt);return o?"c"===o.t?V(o.v):"g"===o.t?(n[o.r]&&function(t,n){for(var r=0,e=t.length;r<e;r++)t[r].setAttribute("stop-color",V(n[r]))}(n[o.r],o.v),(i=o.r)?"url(#"+i+")":"none"):"none":"none"}}function jt(t,n,r){if(0===t)return n;if(1===t)return r;if(n&&r){var e=n.t;if(e===r.t)switch(n.t){case"c":return{t:e,v:_(t,n.v,r.v)};case"g":if(n.r===r.r)return{t:e,v:S(t,n.v,r.v),r:n.r}}}return b(t,n,r)}var Pt={fill:Mt,"fill-opacity":Ot,stroke:Mt,"stroke-opacity":Ot,"stroke-width":St,"stroke-dashoffset":{f:Q,i:w},"stroke-dasharray":{f:function(t){var n=arguments.length>1&&void 0!==arguments[1]?arguments[1]:" ";return t&&t.length>0&&(t=t.map((function(t){return s(t,4)}))),U(t,n)},i:function(t,n,r){var e,i,o,u=n.length,a=r.length;if(u!==a)if(0===u)n=O(u=a,0);else if(0===a)a=u,r=O(u,0);else{var l=(o=(e=u)*(i=a)/function(t,n){for(var r;n;)r=n,n=t%n,t=r;return t||1}(e,i))<0?-o:o;n=M(n,Math.floor(l/u)),r=M(r,Math.floor(l/a)),u=a=l}for(var f=[],c=0;c<u;c++)f.push(s(x(t,n[c],r[c])));return f}},opacity:Ot,transform:function(n,r,e,i){if(!(n=function(n,r){if(!n||"object"!==t(n))return null;var e=!1;for(var i in n)n.hasOwnProperty(i)&&(n[i]&&n[i].length?(n[i].forEach((function(t){t.e&&(t.e=r(t.e))})),e=!0):delete n[i]);return e?n:null}(n,i)))return null;var o=function(t,i,o){var u=arguments.length>3&&void 0!==arguments[3]?arguments[3]:null;return n[t]?e(i,n[t],o):r&&r[t]?r[t]:u};return r&&r.a&&n.o?function(t){var r=e(t,n.o,xt);return _t.recomposeSelf(r,o("r",t,w,0)+r.a,o("k",t,k),o("s",t,k),o("t",t,k)).toString()}:function(t){return _t.recomposeSelf(o("o",t,wt,null),o("r",t,w,0),o("k",t,k),o("s",t,k),o("t",t,k)).toString()}},r:St,"#size":H,"#radius":G,_:function(t,n){if(Array.isArray(t))for(var r=0;r<t.length;r++)this[t[r]]=n;else this[t]=n}};return function(t){!function(t,n){if("function"!=typeof n&&null!==n)throw new TypeError("Super expression must either be null or a function");t.prototype=Object.create(n&&n.prototype,{constructor:{value:t,writable:!0,configurable:!0}}),n&&o(t,n)}(u,t);var r=a(u);function u(){return n(this,u),r.apply(this,arguments)}return e(u,null,[{key:"build",value:function(t){var n=l(i(u),"build",this).call(this,t,Pt);if(!n)return null;n.el,n.options;var r=n.player;return function(t,n,r){t.play()}(r),r}}]),u}(D)}));
__SVGATOR_PLAYER__.build({"root":"eWf6lHADUNC1","animations":[{"duration":5000,"direction":1,"iterations":0,"fill":-1,"alternate":false,"speed":1,"elements":{"eWf6lHADUNC15":{"transform":{"data":{"t":{"x":-104,"y":-64}},"keys":{"o":[{"t":0,"v":{"x":104,"y":64,"type":"corner"}},{"t":2000,"v":{"x":184.5,"y":64,"type":"corner"}},{"t":5000,"v":{"x":103.5,"y":64,"type":"corner"}}]}}},"eWf6lHADUNC20":{"transform":{"data":{"t":{"x":-488,"y":-272}},"keys":{"o":[{"t":0,"v":{"x":488,"y":272,"type":"corner"}},{"t":2000,"v":{"x":473.199318,"y":272,"type":"corner"}},{"t":3000,"v":{"x":506.959409,"y":272,"type":"corner"}},{"t":5000,"v":{"x":484.751336,"y":272,"type":"corner"}}]}}},"eWf6lHADUNC48":{"transform":{"data":{"t":{"x":-6,"y":-24}},"keys":{"o":[{"t":0,"v":{"x":570.5,"y":72.5,"type":"corner"},"e":[0.42,0,1,1]},{"t":2000,"v":{"x":570.5,"y":139.5,"type":"corner"},"e":[0.42,0,1,1]},{"t":5000,"v":{"x":570.5,"y":72.5,"type":"corner"}}]}}},"eWf6lHADUNC56":{"transform":{"data":{"o":{"x":357.009003,"y":181,"type":"corner"},"t":{"x":-357.009003,"y":-181}},"keys":{"r":[{"t":0,"v":0},{"t":5000,"v":361.762118}]}}},"eWf6lHADUNC57":{"transform":{"data":{"o":{"x":391.507507,"y":197.504501,"type":"corner"},"t":{"x":-391.507507,"y":-197.504501}},"keys":{"r":[{"t":0,"v":0},{"t":4990,"v":364.892204}]}}},"eWf6lHADUNC58":{"transform":{"keys":{"o":[{"t":0,"v":{"x":554.5,"y":96.5,"type":"corner"}},{"t":2000,"v":{"x":554.5,"y":142.5,"type":"corner"}},{"t":3000,"v":{"x":445.5,"y":142.5,"type":"corner"}},{"t":5000,"v":{"x":174.5,"y":142.5,"type":"corner"},"e":[0.42,0,0.58,1]}]}}},"eWf6lHADUNC62":{"transform":{"keys":{"o":[{"t":0,"v":{"x":269,"y":157,"type":"corner"}},{"t":1000,"v":{"x":269,"y":114,"type":"corner"}},{"t":2000,"v":{"x":175,"y":114,"type":"corner"}}]}}},"eWf6lHADUNC81":{"transform":{"keys":{"o":[{"t":0,"v":{"x":72.5,"y":113.5,"type":"corner"},"e":[0.42,0,1,1]},{"t":1000,"v":{"x":72.5,"y":54.5,"type":"corner"}},{"t":2000,"v":{"x":212.5,"y":54.5,"type":"corner"}},{"t":3000,"v":{"x":212.5,"y":296.5,"type":"corner"}},{"t":4000,"v":{"x":115.5,"y":296.5,"type":"corner"}},{"t":5000,"v":{"x":115.5,"y":260.5,"type":"corner"}}]}}}}}],"options":{"start":"load","hover":null,"click":null,"scroll":null,"font":"embed","exportedIds":"unique","svgFormat":"animated","title":"RPA Svg figma"},"animationSettings":{"duration":5000,"direction":1,"iterations":0,"fill":-1,"alternate":false,"speed":1}})]]></script></svg>