<svg xmlns="http://www.w3.org/2000/svg" viewBox="0 0 620.57 427.97"><defs><style>.cls-1,.cls-2{fill:#ebebeb;}.cls-2{opacity:0.5;}.cls-3{fill:#fff;}.cls-4{fill:#c7c7c7;}.cls-5{fill:#dbdbdb;}.cls-6{fill:#28b04c;}.cls-7{opacity:0.2;}.cls-14,.cls-17,.cls-8{opacity:0.1;}.cls-9{fill:#263238;}.cls-10{fill:#f7a9a0;}.cls-11{fill:#37474f;}.cls-12{fill:#ff9cbd;}.cls-13{fill:#ad6359;}.cls-14{fill:#030402;}.cls-15{fill:#d3766a;}.cls-16{isolation:isolate;}.cls-18{opacity:0.4;}.cls-19{fill:#455a64;}.cls-20{fill:#68ad54;}</style></defs><g id="Layer_2" data-name="Layer 2"><g id="Speech_Bubble" data-name="Speech Bubble"><path class="cls-1" d="M372,33.64H260.7s11-30.15,28-30.15S311,24.3,311,24.3,322.5,13,331.92,13s17.6,14.94,17.6,14.94S362.83,19.9,372,33.64Z"/><path class="cls-1" d="M609.12,182.81H497.78s11-30.16,28-30.16,22.31,20.81,22.31,20.81,11.46-11.3,20.88-11.3,17.6,14.94,17.6,14.94S599.91,169.06,609.12,182.81Z"/><path class="cls-2" d="M251,142.28H199s11.63-16.85,20.79-16.85,11.87,11.23,11.87,11.23,6.46-5.24,12.45-4.3S251,142.28,251,142.28Z"/><path class="cls-2" d="M428.44,251.11h-52s11.62-16.84,20.78-16.84,11.87,11.23,11.87,11.23,6.47-5.24,12.46-4.31S428.44,251.11,428.44,251.11Z"/><path class="cls-2" d="M493.87,75.22h-52s11.63-16.85,20.79-16.85S474.49,69.6,474.49,69.6,481,64.36,487,65.3,493.87,75.22,493.87,75.22Z"/><path class="cls-1" d="M112.8,127.58H11.45s13.88-31,28.72-32.92,21.95,23,21.95,23,9.58-8.82,17.11-8.82,13.34,11.62,13.34,11.62S107.63,112.52,112.8,127.58Z"/><path class="cls-2" d="M160.48,87.68H92s11.77-22.45,24.52-22.77S136,81.9,136,81.9,155.84,66,160.48,87.68Z"/><ellipse class="cls-1" cx="360.88" cy="94.6" rx="47.1" ry="46.38" transform="translate(152.97 404.37) rotate(-70.82)"/><ellipse class="cls-3" cx="360.88" cy="94.6" rx="36.74" ry="36.18" transform="translate(152.95 404.36) rotate(-70.82)"/><ellipse class="cls-1" cx="360.89" cy="94.6" rx="26.49" ry="26.08" transform="translate(152.97 404.37) rotate(-70.82)"/><ellipse class="cls-3" cx="360.88" cy="94.6" rx="16.13" ry="15.88" transform="translate(152.96 404.36) rotate(-70.82)"/><path class="cls-1" d="M368,94.48a7.23,7.23,0,0,1-7,7.29,7.05,7.05,0,0,1-7.13-7,7.23,7.23,0,0,1,7-7.29A7.05,7.05,0,0,1,368,94.48Z"/><rect class="cls-4" x="326.25" y="38.17" width="0.8" height="76.85" transform="translate(107.43 330.59) rotate(-62.4)"/><polygon class="cls-4" points="289.53 60.39 289.71 60.32 292.83 59.36 286.68 56.15 283.35 57.16 289.53 60.39"/><path class="cls-4" d="M285.94,52.21l1.11,3.24,6.14,3.21a15.55,15.55,0,0,1-1.09-3.23Z"/><polygon class="cls-4" points="362.37 93.81 361.09 96.11 357.67 95.82 359.92 93.99 360.14 91.11 362.37 93.81"/><path class="cls-1" d="M9.9,176.51,5.45,186.3l3,1.36a2.55,2.55,0,0,1,1.49,2.23,14.45,14.45,0,0,0,.16,1.6,2.56,2.56,0,0,1-1,2.47l-2.68,1.92,6.28,8.74,2.68-1.92a2.55,2.55,0,0,1,2.67-.17,13.77,13.77,0,0,0,1.47.66,2.57,2.57,0,0,1,1.64,2.13l.32,3.27,10.71-1.06-.32-3.28a2.54,2.54,0,0,1,1.2-2.4l.65-.44.64-.48a2.56,2.56,0,0,1,2.64-.37l3,1.37,4.45-9.79-3-1.36A2.55,2.55,0,0,1,40,188.55a14.42,14.42,0,0,0-.15-1.6,2.56,2.56,0,0,1,1-2.47l2.68-1.91-6.27-8.74-2.68,1.91a2.55,2.55,0,0,1-2.67.18,13.77,13.77,0,0,0-1.47-.66,2.57,2.57,0,0,1-1.64-2.12l-.32-3.29-10.72,1.06.33,3.28a2.57,2.57,0,0,1-1.2,2.39l-.66.45-.64.48a2.57,2.57,0,0,1-2.66.36Zm9.91,5.56a8.81,8.81,0,1,1-2,12.28A8.81,8.81,0,0,1,19.81,182.07Z"/><path class="cls-1" d="M579.46,98.06l-6.53,3.76,1.16,2a1.79,1.79,0,0,1-.07,1.88,10.38,10.38,0,0,0-.56,1,1.81,1.81,0,0,1-1.6,1h-2.31v7.53h2.31a1.81,1.81,0,0,1,1.6,1c.17.33.36.66.56,1a1.79,1.79,0,0,1,.07,1.88l-1.16,2,6.53,3.76,1.16-2a1.8,1.8,0,0,1,1.67-.87h1.11a1.76,1.76,0,0,1,1.65.87l1.17,2,6.53-3.76-1.16-2a1.8,1.8,0,0,1,.07-1.87,9.38,9.38,0,0,0,.56-1,1.81,1.81,0,0,1,1.6-1h2.31v-7.53h-2.31a1.81,1.81,0,0,1-1.6-1,8.43,8.43,0,0,0-.56-1,1.82,1.82,0,0,1-.07-1.88l1.16-2-6.53-3.76-1.16,2a1.79,1.79,0,0,1-1.66.87h-1.11a1.79,1.79,0,0,1-1.67-.88Zm3.38,7.19a6.17,6.17,0,1,1-6.18,6.17A6.18,6.18,0,0,1,582.84,105.25Z"/><path class="cls-5" d="M37,228.57l4.58,6,1.84-1.4a1.8,1.8,0,0,1,1.87-.18,10.36,10.36,0,0,0,1,.43,1.78,1.78,0,0,1,1.19,1.45l.3,2.29,7.48-1L55,233.88a1.76,1.76,0,0,1,.77-1.7c.32-.22.61-.45.9-.69a1.78,1.78,0,0,1,1.86-.3l2.13.88,2.89-6.95-2.14-.89a1.78,1.78,0,0,1-1.08-1.53l-.06-.55a4.85,4.85,0,0,0-.09-.55,1.78,1.78,0,0,1,.66-1.75l1.84-1.42-4.58-6-1.84,1.41a1.78,1.78,0,0,1-1.87.17c-.34-.16-.69-.3-1-.43a1.8,1.8,0,0,1-1.19-1.45l-.3-2.28-7.48,1,.3,2.28a1.79,1.79,0,0,1-.78,1.71,10,10,0,0,0-.89.68,1.81,1.81,0,0,1-1.86.31L39,214.93l-2.9,7,2.14.88a1.78,1.78,0,0,1,1.08,1.53l.06.56c0,.18.05.36.09.55a1.81,1.81,0,0,1-.66,1.76Zm6.72-4.27a6.18,6.18,0,1,1,6.92,5.32A6.16,6.16,0,0,1,43.71,224.3Z"/><rect class="cls-6" x="235.31" y="252.75" width="170.45" height="26.71" transform="translate(-58.37 92.95) rotate(-15.14)"/><rect class="cls-6" x="216.44" y="278.59" width="17.16" height="26.71" transform="translate(-68.44 68.9) rotate(-15.14)"/><rect class="cls-6" x="201.37" y="283.56" width="10.58" height="26.71" transform="translate(-70.37 64.28) rotate(-15.14)"/><rect class="cls-6" x="191.42" y="286.97" width="5.25" height="26.71" transform="translate(-71.7 61.1) rotate(-15.14)"/><polygon class="cls-6" points="408.62 265.32 397 222.35 432.54 235.79 408.62 265.32"/><path class="cls-6" d="M620.57,427.47l-10.41-32.26-27-25.28-13.57-35.8H501.09l-18,7.12-64,2.87-34.14,18.73-81.34,2.55-24.73,14.21c-1.67,1-41.58,8.06-41.58,8.06l-35.45,2.69H141.68L84.61,415,15.14,427.57H620.57"/><path class="cls-7" d="M620.57,427.47l-10.41-32.26-27-25.28-13.57-35.8H501.09l-18,7.12-64,2.87-34.14,18.73-81.34,2.55-24.73,14.21c-1.67,1-41.58,8.06-41.58,8.06l-35.45,2.69H141.68L84.61,415,15.14,427.57H620.57"/><polygon class="cls-8" points="384.92 362.85 413.11 373.63 454.47 379.61 427.39 360.21 419.06 344.12 384.92 362.85"/><polygon class="cls-8" points="222.07 388.35 242.49 403.32 309.09 403.8 339.97 408.88 314.65 392.68 286.38 391.98 278.85 379.61 222.07 388.35"/><polygon class="cls-8" points="84.61 415 116.34 409.4 138.95 413.17 171.32 404.69 141.68 390.36 84.61 415"/><polygon class="cls-9" points="0 427.47 77.57 427.23 155.14 427.14 310.28 426.97 465.42 427.14 543 427.23 620.57 427.47 543 427.72 465.42 427.81 310.28 427.97 155.14 427.8 77.57 427.71 0 427.47"/><path class="cls-10" d="M121.9,146.85c3,22.9,9.55,45.63,15.94,48.65,8.6,4.06,31.06,3.42,42.68,2,3.42-.42-.35-26.94-4-26.5-4.41.53-27.21,3.64-27.65,3.56-.94-.17-14.82-22.83-18-28.33C125.55,137.07,120.58,136.68,121.9,146.85Z"/><path class="cls-10" d="M175.8,196.59c3,.61,14.65,1.88,22.69.34,3.9-.75,14.87-4.08,14.52-7.12s-3.63-2.35-3.63-2.35,4.42-2.1,3.8-5.12-5.72-1.79-5.72-1.79,4.39-2.49,3.55-5.46-5.75-.87-5.75-.87,4.12-2.08,2.4-4.24c-2.07-2.6-9.23,2.11-13.58,2.72-1,.14-20.24,1.38-20.24,1.38Z"/><path class="cls-9" d="M205.18,174.2c-5.27,3.45-8.17,4.05-14.37,4.15-.12,0-.15.19,0,.2,6.08.45,9.83.22,14.57-4.1C205.59,174.24,205.43,174,205.18,174.2Z"/><path class="cls-9" d="M207.72,180.49c-5.79,3.1-8.93,3.78-15.41,4.37-.09,0-.09.16,0,.16,6.41,0,10.15-.36,15.52-4.22C208.07,180.63,208,180.34,207.72,180.49Z"/><path class="cls-9" d="M208.89,187.7c-5.82,2.6-9.23,3.49-15.6,3.25a.12.12,0,0,0,0,.23c6.47.88,10.73-.2,15.68-3.3C209.29,187.67,209.25,187.53,208.89,187.7Z"/><path class="cls-10" d="M173.36,173.32s6-5.16,9.09-6.85,17.08-3.7,17.68-.71c.78,3.86-7,6.6-11,7.45,0,0,1.81,8.92-3.38,12.11S173.36,173.32,173.36,173.32Z"/><path class="cls-9" d="M200,166.89c-1.83,4-7.16,4.8-11,5.91a.37.37,0,0,0-.22.56c.51,3.79.13,9.29-2.84,12a.09.09,0,0,0,.11.15c3.59-2.5,4.4-7.87,3.58-12,3.94-1.07,9.26-2.08,10.4-6.64C200,166.88,200,166.86,200,166.89Z"/><path class="cls-6" d="M175.68,170.09l-1.15,29.7s-31.55,1.43-38.4-5.2c-4.59-4.43-12.76-27.74-14.43-43.74s3.42-15.7,11.75-1.64,15.27,24.41,15.72,24.42S175.68,170.09,175.68,170.09Z"/><path class="cls-9" d="M170.13,172.81c0-.09-.14-.09-.15,0a236.66,236.66,0,0,0-1.65,24.81.08.08,0,0,0,.15,0A236.66,236.66,0,0,0,170.13,172.81Z"/><path class="cls-8" d="M149.9,199c-6-.75-11.39-2.08-13.77-4.39-4.59-4.45-12.77-27.76-14.43-43.75-.6-5.72-.33-9.35.65-11Z"/><path class="cls-10" d="M184.09,390.2c-2,.64-59.89-.78-62.06-2.23-.83-.54,6.24-51.84,6.24-51.84l37.23,1-7.33,32.48s21.9,10.44,24.11,12.29S186.12,389.58,184.09,390.2Z"/><path class="cls-1" d="M184.09,390.2c-2,.64-59.89-.77-62.06-2.23-.4-.26,1.07-12.61,2.68-25.18l34.86.58-1.41,6.22s21.9,10.44,24.12,12.29S186.12,389.58,184.09,390.2Z"/><path class="cls-6" d="M184.93,390.46c-2.07.66-61-.35-63.23-1.81-.85-.54,1.9-20,1.9-20.1l34.8.46,0,.64S180.76,380.13,183,382,187,389.81,184.93,390.46Z"/><path class="cls-9" d="M184.31,388.16c-9.94-.41-50-1.14-59.88-.8-.08,0-.08.06,0,.07,9.83.62,49.93,1,59.87.9C184.51,388.32,184.52,388.17,184.31,388.16Z"/><path class="cls-9" d="M162.63,369.19c-3.9-.8-8.69-.28-11.72,2.45-.12.11,0,.28.16.24a55.1,55.1,0,0,1,11.54-2.2A.25.25,0,0,0,162.63,369.19Z"/><path class="cls-9" d="M165.42,370.94c-3.89-.8-8.69-.28-11.72,2.45-.12.11,0,.27.16.24a55.22,55.22,0,0,1,11.54-2.2A.25.25,0,0,0,165.42,370.94Z"/><path class="cls-9" d="M168.22,372.69c-3.9-.8-8.69-.28-11.73,2.45-.11.11,0,.27.17.24a55,55,0,0,1,11.53-2.2A.25.25,0,0,0,168.22,372.69Z"/><path class="cls-11" d="M161.53,367.73l-39-.21S134,286.65,133,283.33C132.59,282,90.31,241,90.31,241c-16.85-16.61-11.8-43.41-11.8-43.41h48.61s-2.21,11.85.31,14.43c3,3.13,39.73,42.7,44.5,55.31C178.31,284.15,161.53,367.73,161.53,367.73Z"/><path class="cls-9" d="M161,360c-6-.38-4.27-.38-10.28-.68-2.94-.15-22.26-1.11-25-.66-.06,0-.06.14,0,.15,2.72.67,22.06,1.22,25,1.3,6,.16,4.29,0,10.3.11C161.13,360.21,161.13,360,161,360Z"/><path class="cls-9" d="M129.5,214.19l-18.43,47.06C100.59,251,90.31,241,90.31,241c-16.85-16.61-11.79-43.41-11.79-43.41h48.6s-2.22,11.84.3,14.42C127.75,212.34,128.47,213.09,129.5,214.19Z"/><path class="cls-10" d="M96.87,425.56c-2.12.24-58.72-11.82-60.58-13.65-.72-.68.56-9,2.39-19.08l.06-.31c.38-2.07,10.34-32.71,10.34-32.71L86,364.5,75.34,399.89l-.14.62S94.79,414.82,96.63,417,99,425.32,96.87,425.56Z"/><path class="cls-1" d="M96.86,425.55c-2.11.26-58.71-11.81-60.57-13.64-.72-.69.56-9,2.39-19.08,0-.1,0-.21.06-.31.1-.54.86-3.34,1.93-7.17l36.64,8-2,6.56-.16.61S94.8,414.82,96.63,417,99,425.32,96.86,425.55Z"/><path class="cls-6" d="M97.4,425.78c-2.16.24-59.78-12.18-61.67-14-.74-.7.59-9.2,2.48-19.43l.06-.32,37.27,7.6-.15.63s19.93,14.62,21.79,16.9S99.56,425.54,97.4,425.78Z"/><path class="cls-9" d="M97.23,423.4c-9.66-2.33-48.85-10.83-58.58-12.4-.08,0-.09,0,0,.06,9.53,2.52,48.79,10.7,58.57,12.5C97.4,423.6,97.44,423.45,97.23,423.4Z"/><path class="cls-9" d="M79.65,400.58c-3.67-1.54-8.47-2-12,.14-.13.08,0,.27.12.26a54.86,54.86,0,0,1,11.74.08A.25.25,0,0,0,79.65,400.58Z"/><path class="cls-9" d="M82.05,402.84c-3.67-1.54-8.47-2-12,.14-.13.08,0,.27.12.26a54.85,54.85,0,0,1,11.74.08A.25.25,0,0,0,82.05,402.84Z"/><path class="cls-9" d="M84.45,405.1c-3.67-1.54-8.47-2-12,.13-.13.08,0,.28.12.26a54.86,54.86,0,0,1,11.74.09A.25.25,0,0,0,84.45,405.1Z"/><path class="cls-11" d="M117.82,197.57s3.16,27.06-2.43,33.22c0,0-9.89,62.3-13.43,80.25-4.67,23.69-23.45,88.25-23.45,88.25l-41.31-7s24.36-84.86,24.56-86.41c1.12-8.76,11-69.56,10.5-71.07-5.18-15.45,2.29-37.26,2.29-37.26Z"/><path class="cls-11" d="M127.12,197.57s-3.94,28.59-11.73,33.22c0,0-9.89,62.3-13.43,80.25-4.67,23.69-23.45,88.25-23.45,88.25l-41.31-7s24.36-84.86,24.56-86.41c1.12-8.76,11-69.56,10.5-71.07-5.18-15.45,2.29-37.26,2.29-37.26Z"/><path class="cls-9" d="M78.34,390.78c-6.11-1.37-4.34-1.08-10.46-2.36-3-.63-22.7-4.74-25.62-4.75-.06,0-.09.12,0,.15,2.7,1.11,22.48,4.81,25.49,5.37,6.16,1.15,4.41.74,10.57,1.8C78.41,391,78.45,390.81,78.34,390.78Z"/><path class="cls-9" d="M121,227.68a79.87,79.87,0,0,0-12.58,5.86.14.14,0,0,0,.11.26c4.24-1.82,8.57-3.57,12.7-5.62A.28.28,0,0,0,121,227.68Z"/><path class="cls-9" d="M122.37,198.59c0-.14-.27-.18-.27,0,0,5-.29,9.46-.71,14.16-.2,2.19-2,14.25-5.74,13.37-.63-.14-1-.77-1.06-1.72a15.13,15.13,0,0,1,.51-3.7c.42-2.53.75-5.06,1-7.62a70.16,70.16,0,0,0-.15-14.27.13.13,0,0,0-.25,0,131.06,131.06,0,0,1-1.15,19.7c-.47,3.14-2.06,7.86,1.23,8.35s5.5-7.43,5.91-9.59A72.57,72.57,0,0,0,122.37,198.59Z"/><path class="cls-9" d="M115.75,226.43a19.88,19.88,0,0,0-.85,2.5,5.83,5.83,0,0,0-.36,2,.15.15,0,0,0,.27.06,7.33,7.33,0,0,0,.88-2c.28-.77.59-1.54.85-2.32A.42.42,0,0,0,115.75,226.43Z"/><path class="cls-9" d="M77.19,214.24c.92-.15,2.26.17,6.25-.11a20.08,20.08,0,0,0,3.27-.53,7.06,7.06,0,0,0,3-1.23,16,16,0,0,0,3.47-4.78,24.24,24.24,0,0,0,2.43-5.89c0-.12.2-.06.18.06-.21,1.16-.32,2.33-.63,3.48A21.7,21.7,0,0,1,94,208.4a12.92,12.92,0,0,1-3.56,5.26c-1.8,1.35-4.31,1.61-6.49,1.76-1.26.09-6.2,0-6.87-.75C77,214.54,77,214.27,77.19,214.24Z"/><path class="cls-6" d="M128.36,208.7c-1.1.78-54.37-11-54.58-11.38-.59-1.15,25.94-54.62,41.15-62.12,3.27-1.61,11.47,1.75,13.15,4.11,1,1.48,2.28,10,3,16.91C132.45,170.09,129.32,208,128.36,208.7Z"/><path class="cls-9" d="M126.05,145.19c-.16,5.28-.43,10.56-.71,15.84s-.65,10.55-1,15.83-.75,10.55-1.18,15.81l-.67,7.91c-.26,2.63-.49,5.26-.77,7.89.07-2.64.21-5.28.31-7.93l.41-7.91c.28-5.28.64-10.56,1-15.83s.75-10.55,1.19-15.82S125.5,150.45,126.05,145.19Z"/><path class="cls-9" d="M128.86,161.64a1,1,0,1,1-1-1A1,1,0,0,1,128.86,161.64Z"/><path class="cls-9" d="M128,171.81a1,1,0,1,1-.94-1A1,1,0,0,1,128,171.81Z"/><path class="cls-9" d="M127.06,182a1,1,0,0,1-2-.09,1,1,0,1,1,2,.09Z"/><path class="cls-9" d="M126.16,192.16a1,1,0,0,1-1,.94,1,1,0,1,1,.09-2A1,1,0,0,1,126.16,192.16Z"/><path class="cls-9" d="M125.27,202.33a1,1,0,1,1-.94-1A1,1,0,0,1,125.27,202.33Z"/><path class="cls-10" d="M103.77,140.59c-20.21,9.22-36.27,24.33-36.22,31,.07,9.51,8.51,32.91,14.33,43.08,1.71,3,24.68-10.79,22.86-14-2.21-3.86-13.52-26.62-13.62-27.06-.2-.93,15.61-20,19.77-24.6C118.51,140.46,114.75,135.58,103.77,140.59Z"/><path class="cls-10" d="M120.17,232a4.09,4.09,0,0,1-4.57,1,6.12,6.12,0,0,1-2,3.62c-1.95,1.56-5.26-.83-5.26-.83a7.5,7.5,0,0,1-2.71,3.49c-2,1.31-5.71-.63-5.71-.63a6.57,6.57,0,0,1-4.31,1.57c-4.22-.21-7.36-5.84-9.4-9.4s-4.47-15.56-5.17-17.8l22.72-13.25s13.67,13.36,15.47,17.88C120.74,221.49,122.27,229.62,120.17,232Z"/><path class="cls-9" d="M115.87,232.66c-.64-4.44-2.55-8.45-4.24-12.56a.08.08,0,0,0-.14.06c1.72,4.07,2.62,8.43,4.18,12.55A.1.1,0,0,0,115.87,232.66Z"/><path class="cls-9" d="M108.59,235.58a11.76,11.76,0,0,0-1.1-2.85c-.46-1-.94-1.95-1.43-2.92-1-1.93-2-3.84-3.11-5.72,0-.08-.18,0-.14.06,1,1.93,1.93,3.87,2.83,5.84.45,1,.89,2,1.32,3a14.28,14.28,0,0,0,1.36,2.74A.15.15,0,0,0,108.59,235.58Z"/><path class="cls-9" d="M99.88,238.6a8.09,8.09,0,0,0-1.13-2.51c-.47-.87-.93-1.74-1.39-2.62-.92-1.75-1.83-3.5-2.68-5.28-.05-.09-.19,0-.15.06.86,1.81,1.7,3.64,2.57,5.44.43.89.87,1.78,1.31,2.66a7.49,7.49,0,0,0,1.39,2.3A0,0,0,0,0,99.88,238.6Z"/><path class="cls-6" d="M104.5,199.68l-28.66,8.81s-11.83-34-9-39.66,19.69-21.34,34.47-27.67,18.44-1.34,7.49,10.78S91.5,173.16,91.63,173.59,104.5,199.68,104.5,199.68Z"/><path class="cls-9" d="M99.66,194.72c.08,0,0-.17,0-.15a218.92,218.92,0,0,0-22.85,6.7c-.08,0,0,.17,0,.15A215.82,215.82,0,0,0,99.66,194.72Z"/><path class="cls-9" d="M104.6,199.22c-2-4.44-10.17-20.62-12.35-24.95a2.18,2.18,0,0,1-.25-.61,1.41,1.41,0,0,1,.41-1.06c.34-.48.7-1,1.06-1.43.73-1,1.47-2,2.22-3,1.47-1.93,3-3.83,4.47-5.73l.23-.3c1.19-1,2.4-2,3.51-3.12.06-.05,0-.14-.09-.1-1,.74-1.84,1.54-2.73,2.35l4.25-5.41s0-.06,0,0c-3.55,3.84-6.84,7.86-10,12-.78,1-1.55,2-2.31,3.07-.38.52-.77,1-1.14,1.55a1.92,1.92,0,0,0-.42.9,2.41,2.41,0,0,0,.37,1.19c.3.62.59,1.23.9,1.84l1.7,3.41c1.28,2.57,8.67,16.95,10.06,19.47C104.49,199.38,104.64,199.3,104.6,199.22Z"/><path class="cls-10" d="M123.37,146.22c-3.33-.12-7.37-6.37-8.42-10.83a66.51,66.51,0,0,1,2.38-6.31c.77-2,1.57-4.3,2.16-6.42l12.43,6.91a35.22,35.22,0,0,0-3.53,7.81,4.87,4.87,0,0,0-.15.89s0,.1,0,.15C128,140.15,126.59,146.34,123.37,146.22Z"/><path class="cls-9" d="M120.08,123c-.32,2.76-.92,12.83,6.75,15.13a8.71,8.71,0,0,0,1.39.3.89.89,0,0,0,0-.15,5.66,5.66,0,0,1,.14-.89,35.6,35.6,0,0,1,3.55-7.81Z"/><path class="cls-10" d="M116.17,111.34c-.71,5.07,4,18.66,8,21.23,5.71,3.74,13.95,2.89,16.85-3.72,2.81-6.41-3.71-24-8-26.23C126.67,99.34,117.23,103.84,116.17,111.34Z"/><path class="cls-9" d="M131.1,117.74s0,.06,0,.1c.35.91.59,2-.14,2.6,0,0,0,.06,0,0C131.91,120,131.58,118.54,131.1,117.74Z"/><path class="cls-9" d="M130,117.06c-1.51.4-.6,3.39.8,3S131.22,116.73,130,117.06Z"/><path class="cls-9" d="M136.25,116.21s.09,0,.1.06c.25.94.69,2,1.63,2a0,0,0,0,1,0,.06C136.92,118.51,136.34,117.14,136.25,116.21Z"/><path class="cls-9" d="M136.79,115c1.46-.56,2.48,2.39,1.13,2.92S135.57,115.46,136.79,115Z"/><path class="cls-9" d="M128.36,116.05c.38-.23.69-.5,1-.76s.74-.49.91-1a.65.65,0,0,0-.34-.73,1.63,1.63,0,0,0-1.63.31,2.45,2.45,0,0,0-1,1.4A.71.71,0,0,0,128.36,116.05Z"/><path class="cls-9" d="M137.49,113.13a10.87,10.87,0,0,1-1.28.05,2.06,2.06,0,0,1-1.32-.2.66.66,0,0,1-.2-.78,1.66,1.66,0,0,1,1.48-.77,2.42,2.42,0,0,1,1.67.46A.7.7,0,0,1,137.49,113.13Z"/><path class="cls-9" d="M132.58,126.7c.28.15.6.39.94.31a2.62,2.62,0,0,0,.93-.53s.06,0,.05,0a1.29,1.29,0,0,1-1,.86,1,1,0,0,1-1-.6S132.53,126.68,132.58,126.7Z"/><path class="cls-9" d="M132.71,123.63a3.31,3.31,0,0,0,2.54.77,4.22,4.22,0,0,0,1.15-.29l.21-.09.19-.09a.25.25,0,0,0,.13-.27h0a1,1,0,0,0,0-.1h0l0-.09c-.2-.72-.59-1.78-.59-1.78.3,0,1.81.25,1.68-.12a49.48,49.48,0,0,0-4.12-9.2.09.09,0,0,0-.16.08c1,3,2.43,5.73,3.44,8.69a5.92,5.92,0,0,0-1.63,0c-.09.06.81,2,.87,2.37v0a4.56,4.56,0,0,1-3.57,0C132.69,123.49,132.64,123.57,132.71,123.63Z"/><path class="cls-9" d="M135.82,124.07a3.91,3.91,0,0,1-1.28,1.49,1.64,1.64,0,0,1-1,.28c-.8,0-1-.72-1-1.34a4.71,4.71,0,0,1,.15-1A5.11,5.11,0,0,0,135.82,124.07Z"/><path class="cls-12" d="M134.54,125.56a1.64,1.64,0,0,1-1,.28c-.8,0-1-.72-1-1.34A1.81,1.81,0,0,1,134.54,125.56Z"/><path class="cls-9" d="M122.05,118c.57-2.83-1.56-7.17-.36-8.56,2.59-3,9.23,1.28,13.35.78s5-3.23,3.86-6.37-4.16-5-8.73-5.06a17,17,0,0,0-10.8,4.07s.8-1.75.36-2.2-2.2,1.35-2.71,2.09a6.07,6.07,0,0,0-.73,2.05,6.31,6.31,0,0,0-1.85,0,3.8,3.8,0,0,0-2.22,1.36c0,.25,1.43.25,2.45.17,0,0-1.57,2.76-1.25,4.91s5,12,5.8,12C120.27,123.25,121.82,119.13,122.05,118Z"/><path class="cls-9" d="M115,106.05s.09,0,.06,0a7,7,0,0,0-1.77,3.33,8.54,8.54,0,0,0,.53,4.44,41.07,41.07,0,0,0,4.24,7.61c0,.07-.07.15-.12.08a30,30,0,0,1-4.58-8.19C112.59,110.85,112.81,107.8,115,106.05Z"/><path class="cls-9" d="M121.4,108.41a9.69,9.69,0,0,1,3.64-.23,13.87,13.87,0,0,1,3.3,1.14A13.91,13.91,0,0,0,136,110.4a0,0,0,0,1,0,0,12.15,12.15,0,0,1-7-.59,30.87,30.87,0,0,0-3.43-1.29,12.93,12.93,0,0,0-4.07.05A.11.11,0,1,1,121.4,108.41Z"/><path class="cls-9" d="M121.68,101.4a19.37,19.37,0,0,1,4.9-2.34,15,15,0,0,1,5.14-.84,7.51,7.51,0,0,1,7.05,4.58,6.51,6.51,0,0,1,0,4.68.08.08,0,0,1-.16,0,6.71,6.71,0,0,0-2.52-7.65C133.39,98,130,98.26,127,99.13a27.82,27.82,0,0,0-5.32,2.29S121.67,101.41,121.68,101.4Z"/><path class="cls-11" d="M130.61,123.42a4.09,4.09,0,1,1,2.94-5.75h0a4.09,4.09,0,0,1-2,5.43A4.41,4.41,0,0,1,130.61,123.42Zm-1.43-7.5a3.69,3.69,0,0,0-.83.28,3.49,3.49,0,1,0,.83-.28Z"/><path class="cls-11" d="M139.54,120.55c-1.54.3-3.23-1-3.87-3a4.82,4.82,0,0,1,0-3,2.54,2.54,0,0,1,4.15-1.31,4.89,4.89,0,0,1,1.68,2.47c.68,2.15-.07,4.3-1.67,4.81A1.22,1.22,0,0,1,139.54,120.55Zm-1.83-7.39a1.17,1.17,0,0,0-.2.06,2.19,2.19,0,0,0-1.36,1.47,4.37,4.37,0,0,0,0,2.65c.59,1.86,2.13,3,3.44,2.63s1.91-2.27,1.32-4.13a4.33,4.33,0,0,0-1.48-2.19A2.32,2.32,0,0,0,137.71,113.16Z"/><path class="cls-11" d="M133.56,118.16l-.46-.29c.43-.68,1.59-1.78,2.86-1.06l-.27.47C134.55,116.64,133.6,118.1,133.56,118.16Z"/><path class="cls-11" d="M116.51,124.63l-.54-.09c0-.25.46-2.47,1.56-3s8.23-2.06,8.53-2.13l.11.54c-2.06.44-7.6,1.67-8.39,2.08S116.61,124,116.51,124.63Z"/><path class="cls-10" d="M121.78,121.66s-4-3.94-5.8-2.46,1.69,7.61,4.25,8.07a2.48,2.48,0,0,0,3-1.89Z"/><path class="cls-9" d="M117,120.93a0,0,0,0,0,0,.07,6.27,6.27,0,0,1,3.88,3.29,1.38,1.38,0,0,0-2.09,0s0,.1.07.09a1.52,1.52,0,0,1,1.74.23,6.88,6.88,0,0,1,1,1.19c.11.14.37,0,.28-.15l0,0C121.59,123.45,119.38,120.74,117,120.93Z"/><path class="cls-6" d="M128.22,138.42l-2.59,6.39-10.36-10.74-3,3.11s8.86,16.76,9,16l4.66-6.78,3.58,5.14.38-10.28Z"/><path class="cls-9" d="M129.93,145.57c0-2,.1-2.15,0-4.16,0-.07-.12-.11-.14,0-.51,1.9-.48,7.71-.6,9.54l0,0c-.18-.22-3.25-4.55-3.3-4.48-.78,1.06-4.45,6-4.64,6.46-1.4-2.66-6.8-12.36-8.49-14.9,0-.07-.16,0-.12.06,1.21,2.8,8.33,15.85,8.46,15.82a63.71,63.71,0,0,0,4.83-7.18c.67.93,3.75,5.77,3.78,5.47A63,63,0,0,0,129.93,145.57Z"/><path class="cls-13" d="M276,399.81c-2.21.26-61.14-12.3-63.08-14.21-.75-.71.58-9.4,2.49-19.86l.06-.33c.39-2.15,10.77-38.22,10.77-38.22l38.41,9.05-11.06,36.85-.16.65s20.41,14.89,22.32,17.21S278.24,399.57,276,399.81Z"/><path class="cls-9" d="M214.52,370.94c-1.37,8-2.18,14.07-1.56,14.66,1.94,1.91,60.87,14.47,63.08,14.21s1.65-6.55-.25-8.86c-1.16-1.41-9.19-7.49-15.3-12,4.09,3.31,10,11.23-15.25,3.13C229.68,377,220,373.24,214.52,370.94Z"/><path class="cls-9" d="M293.56,166.87S296.85,195,291,201.46c0,0-8.94,63.83-12.62,82.52-4.86,24.67-19.72,78.87-19.72,78.87l-42-10.17s21.76-71.4,22-73c1.17-9.13,8-72.45,7.49-74-7.15-20.19,2.38-38.8,2.38-38.8Z"/><path class="cls-11" d="M257.91,351.55c-5.86-1.62-4.15-1.26-10-2.79-2.88-.75-21.78-5.65-24.62-5.73-.06,0-.09.13,0,.15,2.55,1.26,21.56,5.72,24.45,6.4,5.92,1.38,4.24.9,10.17,2.19C258,351.8,258,351.58,257.91,351.55Z"/><path class="cls-11" d="M253.41,344.59l5.14-21.49,5.22-21.46,2.56-10.75.62-2.68c.17-.89.31-1.8.45-2.71l.78-5.46,2.93-21.9L277,214.35l1.47-10.95.76-5.48.2-1.37c0-.19.1-.53.13-.67s0-.45.05-.67c0-.92.06-1.84.08-2.76.1-7.36.06-14.72,0-22.09.15,7.37.31,14.73.31,22.1,0,.92,0,1.84-.05,2.77,0,.23,0,.46-.05.7s-.08.42-.12.68l-.2,1.37-.73,5.47-1.41,11-5.61,43.82c-.94,7.31-2,14.6-3,21.9l-.81,5.46c-.14.92-.29,1.82-.47,2.74l-.64,2.7-2.63,10.73-5.34,21.43Z"/><path class="cls-11" d="M291,201.46s-3.51,25.1-7,48.41l-35.49-83h45.06S296.84,195,291,201.46Z"/><path class="cls-13" d="M363,366c-2.11.69-62.36.22-64.65-1.26-.87-.55,5.61-54.08,5.61-54.08l38.5,1.66L335.68,345s23,10.5,25.32,12.38S365.13,365.33,363,366Z"/><path class="cls-9" d="M363,366c-.93.3-13.08.38-26.61.25l-2.68,0c-2.31,0-4.64-.06-7-.1l-2.69-.05h0l-2.65,0-3.95-.1-2.47-.07h0l-2.37-.08h0q-1.74,0-3.33-.12c-.71,0-1.41-.05-2.08-.09-1.31,0-2.5-.12-3.56-.19-.54,0-1-.06-1.5-.11-1.16-.08-2.08-.17-2.72-.28a3.48,3.48,0,0,1-1-.25c-.3-.19-.11-6.71.27-15.18,5.82,1.36,16.46,3.49,32.73,5.84,26.76,3.84,18.78-3.35,14.24-5.79l-.13-.08.85.4.14.07,1.56.73,1.69.82c.94.44,1.88.89,2.78,1.34s1.77.86,2.59,1.27l1.42.71.66.34.86.44c.6.31,1.13.6,1.59.86a3.3,3.3,0,0,1,.32.18,8.45,8.45,0,0,1,1.05.68C363.32,359.26,365.13,365.33,363,366Z"/><path class="cls-9" d="M340.74,330l-40.35.49s10-73.16,9-76.62c-.41-1.35-49.34-45.73-49.34-45.73-17.55-17.3-11.51-41.27-11.51-41.27h45.06s.6,7,3,9.7c13.55,15.2,48.09,46.65,53.38,60.62C356.55,254.72,340.74,330,340.74,330Z"/><path class="cls-11" d="M248.63,182.4a30.08,30.08,0,0,0,1.42,7.89,40.57,40.57,0,0,0,3.15,7.36,58.89,58.89,0,0,0,9.58,12.79c3.68,3.9,7.69,7.49,11.68,11.09s8.08,7.1,12.17,10.61c-2.18-1.59-4.29-3.26-6.41-4.92s-4.18-3.4-6.25-5.13c-4.1-3.5-8.12-7.1-11.89-11A57,57,0,0,1,252.55,198a40.23,40.23,0,0,1-2.94-7.57A27.6,27.6,0,0,1,248.63,182.4Z"/><path class="cls-11" d="M283.09,170.36a20.82,20.82,0,0,0,.37,5.17,8.73,8.73,0,0,0,.83,2.43c.49.7,1.07,1.35,1.63,2,2.29,2.6,4.65,5.14,7,7.68l14.15,15.24q7.08,7.63,14.1,15.31c4.66,5.14,9.31,10.28,13.75,15.63,1.1,1.34,2.18,2.7,3.21,4.11a25.25,25.25,0,0,1,1.46,2.19,4.48,4.48,0,0,1,.56,1.26,8.49,8.49,0,0,1,.28,1.31,57.07,57.07,0,0,1,.22,10.45c-.34,6.94-1.08,13.84-1.91,20.73s-1.79,13.75-2.81,20.61-2.19,13.7-3.4,20.53q1.63-10.27,3-20.58c1-6.86,1.9-13.73,2.69-20.62s1.48-13.78,1.79-20.7a57.13,57.13,0,0,0-.28-10.31,8.55,8.55,0,0,0-.27-1.24,4.16,4.16,0,0,0-.5-1.1c-.43-.73-.93-1.43-1.43-2.12-1-1.39-2.11-2.74-3.22-4.07-4.39-5.35-9-10.52-13.63-15.68s-9.32-10.27-14-15.38l-14.06-15.34c-2.31-2.58-4.64-5.15-6.88-7.8-.55-.67-1.12-1.32-1.61-2.05a8.49,8.49,0,0,1-.81-2.48A21,21,0,0,1,283.09,170.36Z"/><path class="cls-11" d="M337.59,320.42c-5.64-.16-4-.23-9.66-.31-2.76,0-20.9-.26-23.48.35-.06,0-.06.15,0,.16,2.58.6,20.72.38,23.48.34,5.64-.08,4-.14,9.66-.31C337.7,320.65,337.7,320.42,337.59,320.42Z"/><path class="cls-9" d="M306.78,149.72l-7-.36a21.48,21.48,0,0,1-1.27-13c.2-1-2.62,4.61-2.28,12.8-7.39-.37-17.43-.89-26.2-1.43.09-3.43,0-6.62,0-6.62a38.53,38.53,0,0,1-1.92,6.51c-1.2-.06-2.38-.15-3.5-.22a134.54,134.54,0,0,0,.44-14.61,46.94,46.94,0,0,1-5.42,14.28c-5.57-.4-9.22-.77-9-1,9.13-9,3.39-15,6.42-23.35,3.64-10,12.54-10.91,12.85-18.58.27-6.23.35-17.58,8.39-19.4A15.17,15.17,0,0,1,295,82.84c12.06,5.69,5.7,24.51,6.26,28.47.78,5.66,3.29,7.83,4.79,14.33s-1.71,10.64-2.38,15S308.18,149.81,306.78,149.72Z"/><path class="cls-9" d="M250.55,144.68a21.7,21.7,0,0,0,3.11-5.24,11.39,11.39,0,0,0,.42-5.84,59.64,59.64,0,0,1-.56-6.22,16.25,16.25,0,0,1,1.09-6.36,14.33,14.33,0,0,1,3.77-5.27,37.77,37.77,0,0,1,5.08-3.7,23.12,23.12,0,0,0,4.72-3.75,11.17,11.17,0,0,0,2.65-5.4,10.47,10.47,0,0,1-2.06,5.87,21.29,21.29,0,0,1-4.61,4.29,47.54,47.54,0,0,0-4.75,3.79,13.41,13.41,0,0,0-3.28,4.78,15.83,15.83,0,0,0-1,5.75c0,2,.18,4,.3,6.11a22.58,22.58,0,0,1,0,3.18,9.21,9.21,0,0,1-.94,3.11A17.55,17.55,0,0,1,250.55,144.68Z"/><path class="cls-9" d="M301.5,90.51a31.48,31.48,0,0,1,1.14,7.54c.12,2.55.12,5.1.1,7.63v3.79a18.14,18.14,0,0,0,.29,3.64,20.12,20.12,0,0,0,2.91,6.68,27.73,27.73,0,0,1,1.78,3.48,18.06,18.06,0,0,1,1.1,3.81,27.4,27.4,0,0,1,.26,3.93,16.2,16.2,0,0,1-.51,3.91c-.33,1.28-.79,2.48-1.18,3.66a19.64,19.64,0,0,0-.86,3.6,7.8,7.8,0,0,0,2.57,6.65,7.91,7.91,0,0,1-3.35-6.71,19,19,0,0,1,.61-3.84c.32-1.26.73-2.45,1-3.65a20.24,20.24,0,0,0,0-7.28,17.68,17.68,0,0,0-1-3.46,28.51,28.51,0,0,0-1.72-3.27,36.85,36.85,0,0,1-1.82-3.42,16.24,16.24,0,0,1-1.2-3.81,20.89,20.89,0,0,1-.2-3.93c0-1.28.1-2.55.17-3.82.14-2.53.31-5,.38-7.58A36.68,36.68,0,0,0,301.5,90.51Z"/><path class="cls-13" d="M287.06,128.21c7.33,20.5,20.76,37.44,27.24,37.94,9.29.72,28.34-3.6,38.75-8.44,3.06-1.43-7.26-24.54-10.53-23-4,1.83-23.85,8.55-24.28,8.61-.93.12-18.2-16.91-22.39-21.36C288.16,113.79,283.08,117.06,287.06,128.21Z"/><path class="cls-13" d="M348.58,158.88c3-.25,14.24-2.22,21.36-5.84,3.45-1.76,12.83-7.86,11.68-10.62s-4-1.21-4-1.21,3.57-3.17,2.17-5.84-5.84-.12-5.84-.12,3.43-3.52,1.84-6.08-5.62.75-5.62.75,3.29-3.08,1.09-4.64c-2.65-1.87-8.08,4.49-12,6.24-.89.4-18.6,6.79-18.6,6.79Z"/><path class="cls-9" d="M370,129.92c-4,4.66-6.56,6-12.34,7.79-.12,0-.09.21,0,.19,5.82-1.23,9.27-2.46,12.54-7.8C370.43,129.84,370.23,129.69,370,129.92Z"/><path class="cls-9" d="M374.13,135.12c-4.58,4.48-7.34,6-13.26,8.28-.09,0,0,.18.05.15,6-1.78,9.41-3.09,13.4-8.17C374.5,135.15,374.34,134.91,374.13,135.12Z"/><path class="cls-9" d="M377.18,141.56c-4.75,4-7.7,5.78-13.74,7.29a.11.11,0,0,0,0,.22c6.31-.94,10-3.11,13.81-7.35C377.55,141.43,377.48,141.31,377.18,141.56Z"/><path class="cls-13" d="M340,137.73s4.2-6.46,6.67-8.89,15-8.11,16.38-5.47c1.78,3.41-4.81,8.11-8.34,10,0,0,4.12,7.87.12,12.27S340,137.73,340,137.73Z"/><path class="cls-9" d="M363.2,124.47c-.62,4.27-5.41,6.44-8.7,8.52a.36.36,0,0,0-.05.59c1.51,3.41,2.64,8.67.6,12a.09.09,0,1,0,.14.1c2.69-3.31,2-8.57.1-12.2,3.41-2.08,8.12-4.47,7.95-9.05C363.24,124.45,363.2,124.44,363.2,124.47Z"/><path class="cls-6" d="M328.21,139.06,333.83,165s-16.9,4.89-22.24,1.64-19.21-21-24.18-36,.22-18.12,11.16-6.42,19.3,18.67,19.73,18.58S328.21,139.06,328.21,139.06Z"/><path class="cls-9" d="M323.88,141.84c0-.08-.16-.05-.15,0a214.81,214.81,0,0,0,4.65,22.89c0,.08.16.05.15,0A215.13,215.13,0,0,0,323.88,141.84Z"/><path class="cls-8" d="M319.76,167.63c-3.31.25-6.38.07-8.17-1-5.35-3.25-19.21-21-24.18-36-3.59-10.81-1.88-15.46,3.48-12.78Z"/><path class="cls-6" d="M296.45,156.65l-2.89,10.23H248.5s10-36.32,27.11-47.49c8.55-5.59,14.37-3.06,18.1,3.3,1,1.61,8,17.18,8.33,23.85A11,11,0,0,1,296.45,156.65Z"/><path class="cls-14" d="M294.41,163.84l-.33,1.17h-45q.15-.52.36-1.17Zm-43.92-3.3c-.13.4-.26.79-.39,1.16H295l.33-1.16Zm1.17-3.31c-.15.4-.29.78-.42,1.16H296l.33-1.16Zm1.25-3.31c-.16.39-.31.78-.46,1.17h46.11a10.42,10.42,0,0,0,1.09-1.17Zm1.31-3.3-.47,1.16H301a8,8,0,0,0,.47-1.16Zm1.42-3.31-.51,1.16H302a8.71,8.71,0,0,0,.07-1.16ZM301.69,144H257.16c-.19.39-.37.78-.55,1.17H301.9C301.84,144.8,301.78,144.41,301.69,144Zm-.82-3.31H258.8l-.6,1.17h43C301.09,141.48,301,141.09,300.87,140.69Zm-1.05-3.3H260.57l-.65,1.16h40.29Zm-1.2-3.31H262.51c-.24.39-.48.77-.71,1.17h37.26C298.92,134.86,298.77,134.47,298.62,134.08Zm-1.29-3.31H264.67c-.27.39-.54.78-.79,1.17H297.8Zm-1.39-3.3H267.11c-.31.38-.61.76-.9,1.16h30.23Zm-1.49-3.31H270c-.37.38-.72.77-1.08,1.17H295Zm-2-3.31H273.57q-.7.56-1.38,1.17h21.12C293.05,121.61,292.78,121.22,292.49,120.85Zm-3.58-3.3h-10a20,20,0,0,0-2.24,1.16h13.84A9.36,9.36,0,0,0,288.91,117.55Z"/><path class="cls-9" d="M291.68,153.2a24.07,24.07,0,0,0-5.06.93,25.63,25.63,0,0,0-2.48.93c-.41.17-.82.32-1.23.47a3.8,3.8,0,0,1-1.31.28s0,.09,0,.09a5.05,5.05,0,0,0,1.23,0,6.27,6.27,0,0,0,1.2-.26c.85-.25,1.69-.57,2.53-.83,1.71-.54,3.41-1.08,5.13-1.44C291.76,153.39,291.76,153.19,291.68,153.2Z"/><path class="cls-9" d="M295.67,155.68a25.11,25.11,0,0,0-4.14-.55,16.27,16.27,0,0,0-2.09.06l-1,.11c-.36,0-.73.17-1.1.21,0,0,0,.09,0,.09a9.16,9.16,0,0,1,1,.05l1,0,2.08.05c1.39,0,2.78.05,4.16.13C295.74,155.85,295.74,155.69,295.67,155.68Z"/><path class="cls-13" d="M277.34,117.34c-22.26,2.34-39.73,9.43-45.78,12.65-3.95,2.1-25.92,17.6-30.92,22.2-2.46,2.25,13.08,20.73,16,18.63,3.9-2.85,28.16-24.69,28.5-25,1.32-1.05,27.22-16.86,32.62-19.82C286.73,121.1,287.22,116.3,277.34,117.34Z"/><path class="cls-13" d="M199.13,193.23a4,4,0,0,1-2.54-3.76,5.85,5.85,0,0,1-4-.48c-2.11-1.19-1.17-5-1.17-5a7.23,7.23,0,0,1-4.12-1.17c-1.9-1.35-1.5-5.35-1.5-5.35a6.35,6.35,0,0,1-3-3.31c-1.35-3.87,2.57-8.74,5-11.86s12.36-9.66,14.12-11.1l14.6,19.65s-1.49,13.09-4.9,16.35C208.82,189.91,202.07,194.23,199.13,193.23Z"/><path class="cls-9" d="M197,189.58c3.76-2.18,6.66-5.36,9.74-8.36a.07.07,0,0,0-.1-.11c-3,3-6.62,5.41-9.77,8.31A.1.1,0,0,0,197,189.58Z"/><path class="cls-9" d="M191.75,184.1a10.94,10.94,0,0,0,2.16-2c.72-.76,1.42-1.55,2.11-2.34,1.37-1.59,2.72-3.2,4-4.86.06-.07,0-.18-.11-.11-1.37,1.58-2.77,3.14-4.21,4.66-.73.76-1.45,1.52-2.19,2.27a13.37,13.37,0,0,0-2,2.21C191.48,184,191.63,184.18,191.75,184.1Z"/><path class="cls-9" d="M185.88,177.37a7.87,7.87,0,0,0,1.84-1.93l1.85-2.2c1.24-1.45,2.49-2.91,3.78-4.33a.07.07,0,0,0-.11-.1c-1.32,1.43-2.65,2.84-4,4.28l-1.92,2.14a7.37,7.37,0,0,0-1.56,2.08A.05.05,0,0,0,185.88,177.37Z"/><path class="cls-6" d="M227.66,165.26l-18.31-21.92S226.17,132,231.4,128.8s26.53-10.5,42.06-11.75,15.14,3.68,1.33,11.43-23.73,14.34-24,14.65C249.88,144.09,227.66,165.26,227.66,165.26Z"/><path class="cls-9" d="M231.61,158.81c.06.06.16,0,.11-.1a210.43,210.43,0,0,0-15-17.55c-.05-.06-.16,0-.11.1A212.33,212.33,0,0,0,231.61,158.81Z"/><path class="cls-9" d="M251.61,142.42c1.76-1.23,3.55-2.4,5.35-3.55s3.64-2.26,5.46-3.39,3.67-2.19,5.53-3.25,3.73-2.1,5.63-3.08c-1.75,1.24-3.55,2.4-5.35,3.56s-3.63,2.26-5.45,3.38-3.67,2.19-5.53,3.25S253.52,141.44,251.61,142.42Z"/><path class="cls-9" d="M268.11,132.58a13.4,13.4,0,0,1,2.27-1,17.49,17.49,0,0,1,2.39-.63,6.43,6.43,0,0,1-1.08.62,10.28,10.28,0,0,1-1.15.47A11.11,11.11,0,0,1,268.11,132.58Z"/><path class="cls-13" d="M284,121.17c.3.93,5.31,6.7,9.62,6.15,1.4-.18.75-7.88.75-7.88l.08-.58,1.14-8.11-9.84-5.25-1.42-.69s-.17,2.24-.34,5l0,.4c0,.16,0,.31,0,.46,0,.41-.07.84-.09,1.26s0,.64,0,1,0,.67,0,1A52.92,52.92,0,0,0,284,121.17Z"/><path class="cls-9" d="M284,109.84a16.4,16.4,0,0,0,10.46,9l1.14-8.11-9.84-5.25-1.42-.69S284.19,107.05,284,109.84Z"/><path class="cls-13" d="M305,95.23c4.79,13.55-2.79,18-5.72,19-2.65.93-11.81,3.77-18-9.22S280,85.5,285.91,83,300.23,81.67,305,95.23Z"/><path class="cls-9" d="M302.25,94.72a8.21,8.21,0,0,1-.88.46,1.62,1.62,0,0,1-1,.31A.51.51,0,0,1,300,95a1.25,1.25,0,0,1,.77-1,1.85,1.85,0,0,1,1.32-.24A.55.55,0,0,1,302.25,94.72Z"/><path class="cls-9" d="M293.14,98.05c.33-.08.61-.22.93-.33a1.59,1.59,0,0,0,.89-.52.51.51,0,0,0-.08-.62,1.27,1.27,0,0,0-1.28-.13,1.82,1.82,0,0,0-1.07.81A.55.55,0,0,0,293.14,98.05Z"/><path class="cls-9" d="M296,99.67s-.06.07-.05.11c.31.93.51,2-.24,2.61,0,0,0,.06,0,0C296.69,102,296.41,100.5,296,99.67Z"/><path class="cls-9" d="M294.84,99c-1.55.34-.75,3.4.68,3.08S296.13,98.66,294.84,99Z"/><path class="cls-9" d="M294.28,99.27c-.22.24-.41.61-.72.73s-.73-.12-1.05-.36c0,0-.05,0,0,0,.14.58.52,1.13,1.17,1s.87-.69.86-1.32C294.5,99.3,294.37,99.17,294.28,99.27Z"/><path class="cls-9" d="M301,97.71s.09,0,.1.07c.23,1,.65,2,1.59,2.08,0,0,0,0,0,0C301.63,100.05,301.08,98.65,301,97.71Z"/><path class="cls-9" d="M301.58,96.5c1.49-.54,2.45,2.47,1.07,3S300.34,96.94,301.58,96.5Z"/><path class="cls-9" d="M302.22,96.47c.32.08.67.3,1,.23s.56-.48.7-.86c0,0,.05,0,.06,0a1.16,1.16,0,0,1-.43,1.52,1.2,1.2,0,0,1-1.44-.66C302.05,96.62,302.1,96.43,302.22,96.47Z"/><path class="cls-9" d="M297.74,107c.27.18.57.44.92.39a2.45,2.45,0,0,0,1-.46s.06,0,.05,0a1.28,1.28,0,0,1-1.1.78,1,1,0,0,1-.94-.69S297.7,107,297.74,107Z"/><path class="cls-9" d="M300.76,102.53s.57,1.36.76,2c0,.06-.14.13-.36.21,0,0,0,0,0,0a3.27,3.27,0,0,1-3.39-.34c-.07-.05,0-.15.07-.12a4.9,4.9,0,0,0,3.12,0c0-.19-1.07-2.29-1-2.33a6.38,6.38,0,0,1,1.6-.07c-1.12-2.86-2.69-5.52-3.77-8.39a.1.1,0,0,1,.17-.09,50,50,0,0,1,4.44,8.87C302.56,102.7,301.05,102.57,300.76,102.53Z"/><path class="cls-9" d="M301,104.54a4,4,0,0,1-1.17,1.67,1.82,1.82,0,0,1-1,.38c-.82,0-1.05-.65-1.1-1.29a4.8,4.8,0,0,1,.06-1A5.22,5.22,0,0,0,301,104.54Z"/><path class="cls-12" d="M299.83,106.21a1.82,1.82,0,0,1-1,.38c-.82,0-1.05-.65-1.1-1.29A1.87,1.87,0,0,1,299.83,106.21Z"/><path class="cls-9" d="M281.59,105.21c3.32-1,1.59-6.25,1.59-6.25s3.64-1.56,1.94-7.71a9.65,9.65,0,0,0,8.32,2.16c1.13-.2-3.39-1.81-3.39-1.81s5.6,2.5,13.14-1.6c.53-.29-3.44-8.36-10.67-9.19s-12.37,2.66-15,7.89a8,8,0,0,0-2.1,7.28C276.36,100.51,280.3,105.62,281.59,105.21Z"/><path class="cls-13" d="M284.65,104.71s-4.16-3.56-5.85-2,2.22,7.3,4.75,7.56a2.43,2.43,0,0,0,2.83-2.08Z"/><path class="cls-9" d="M280,104.35a0,0,0,0,0,0,.07,6.13,6.13,0,0,1,4,2.93,1.34,1.34,0,0,0-2,.14s0,.1.07.08a1.51,1.51,0,0,1,1.72.09,7.56,7.56,0,0,1,1.1,1.09c.11.13.36,0,.26-.17l0,0C284.59,106.47,282.23,104,280,104.35Z"/><path class="cls-15" d="M452.13,84.53c6.75,17.63,25.45,41,30.12,42.71,7.41,2.7,30.94-6.8,39.86-11.54,2.68-1.43-8.78-25.38-11.51-23.63-5.79,3.71-21.63,10.34-23.7,10.18-1.38-.1-16.13-13.32-25.3-21.09C450,71.33,450.36,79.9,452.13,84.53Z"/><path class="cls-6" d="M467.3,113.39,476,91.3A135,135,0,0,0,458,77c-8.89-5.66-9.34,3.43-2.63,16S467.3,113.39,467.3,113.39Z"/><path class="cls-9" d="M464.47,107.42c1.67-4.85,3.68-9.58,5.78-14.27.59-1.33,1.22-2.64,1.87-3.93,0,0,.08,0,.06,0-.88,2.4-1.86,4.77-2.83,7.14s-2,4.75-3,7.1c-.59,1.33-1.18,2.65-1.79,4C464.53,107.51,464.45,107.48,464.47,107.42Z"/><path class="cls-7" d="M472.32,100.55l-5,12.84s-5.17-7.83-11.89-20.41c-3.65-6.84-5.19-12.65-4.39-15.62C456.41,83.2,466.47,94.14,472.32,100.55Z"/><path class="cls-15" d="M514.26,116.23c-3.13-.8-6.85-21-4.56-23.45A13.18,13.18,0,0,1,512.47,91h0a47.13,47.13,0,0,0,7.22-11.67c2-5.11,4.39-12.92,7.18-11.94,4.06,1.41,2.23,11.65.81,17.46,3.13-.88,5.91-1.35,7.63-1,5.7,1.07,7.36,22.9,2.79,26.64S517.39,117,514.26,116.23Z"/><g class="cls-16"><path class="cls-6" d="M569.07,73.78,565.3,25.16a7.45,7.45,0,0,0,.59,2.41,8.61,8.61,0,0,0,1.48,2.34c4.7,5.41,17.16,8.37,37.15,8.83l3.77,48.62c-20-.46-32.45-3.42-37.14-8.83a9,9,0,0,1-1.49-2.34A7.71,7.71,0,0,1,569.07,73.78Z"/><g class="cls-17"><path d="M569.07,73.78,565.3,25.16a7.45,7.45,0,0,0,.59,2.41,8.61,8.61,0,0,0,1.48,2.34c4.7,5.41,17.16,8.37,37.15,8.83l3.77,48.62c-20-.46-32.45-3.42-37.14-8.83a9,9,0,0,1-1.49-2.34A7.71,7.71,0,0,1,569.07,73.78Z"/></g><path class="cls-6" d="M569.55,66.8a15.41,15.41,0,0,1-.24,3.55,15.85,15.85,0,0,0-.24,3.43L565.3,25.16a15.11,15.11,0,0,1,.24-3.42,16.74,16.74,0,0,0,.24-3.56C566.91,32.76,568.42,52.21,569.55,66.8Z"/><g class="cls-18"><path d="M569.55,66.8a15.41,15.41,0,0,1-.24,3.55,15.85,15.85,0,0,0-.24,3.43L565.3,25.16a15.11,15.11,0,0,1,.24-3.42,16.74,16.74,0,0,0,.24-3.56C566.91,32.76,568.42,52.21,569.55,66.8Z"/></g><path class="cls-6" d="M565.78,18.18l3.77,48.62a7.83,7.83,0,0,0-.71-2.76,9.51,9.51,0,0,0-1.48-2.27c-4.88-5.62-17.52-8.29-38.44-8.13L525.14,5c20.93-.17,33.56,2.5,38.44,8.12a9.42,9.42,0,0,1,1.49,2.28A8,8,0,0,1,565.78,18.18Z"/></g><rect class="cls-9" x="534.52" y="-0.31" width="2.32" height="270.7" transform="translate(-8.81 41.67) rotate(-4.42)"/><path class="cls-15" d="M524.51,83.18c-1.14,2.8,2.8,2.54,2.8,2.54s-5.59,1.74-5.65,5.07,4.7,2.73,5,2.7c-.29.1-5.38,1.83-5.1,5.18s5,2.19,5.28,2.11c-.25.17-3.52,2.56-2.72,5.06,1.36,4.3,9.89-1.58,13.45-.77,0,0-1.83,6.54-1.81,6.73,0,0,9.37-5.78,10.2-10.64a3.15,3.15,0,0,0-1.87-3.48s2.85-1.45,2.71-4.1c-.07-1.36-2.31-2.45-2.31-2.45a3.94,3.94,0,0,0,2-3.61c-.21-1.87-2.43-2.67-2.43-2.67s1.58-2.21.74-4C543.13,77.07,527,77.21,524.51,83.18Z"/><path class="cls-9" d="M543.73,84.66s.07-.07,0-.08a28.14,28.14,0,0,0-16.66,1.13c-.16.07-.12.37.08.33A57.61,57.61,0,0,1,543.73,84.66Z"/><path class="cls-9" d="M544.61,91.1c.06,0,.07-.1,0-.12a26.29,26.29,0,0,0-18.09,2.37c-.19.1-.25.39,0,.28C530.36,91.83,539.39,90.69,544.61,91.1Z"/><path class="cls-9" d="M526.57,101.13c5.46-2.8,11.26-3.58,17.34-3.51.08,0,.07-.12,0-.13-3-.85-6.85-.48-9.84.06a16.09,16.09,0,0,0-7.61,3.39C526.39,101,526.45,101.19,526.57,101.13Z"/><path class="cls-9" d="M527.22,85.67c-.2.08.14.28-.05.37-.83.38-5.63,3.09-5.21,5,.33,1.54,2.63,2.16,3.61,2l2.46-.28-2.21,1.11a10.17,10.17,0,0,0-2.67,1.91,3.63,3.63,0,0,0-1.21,2.7,2.09,2.09,0,0,0,1.66,2,6.2,6.2,0,0,0,3.12-.24l2.81-.84-2.36,1.71a9.28,9.28,0,0,0-1.77,1.66,3.88,3.88,0,0,0-1,2,1.87,1.87,0,0,0,.86,1.77,4.09,4.09,0,0,0,2.29.29,31.37,31.37,0,0,0,4.95-1.09c.83-.22,1.66-.45,2.51-.63a6.16,6.16,0,0,1,2.56-.15,6.67,6.67,0,0,0-2.5.38c-.82.25-1.63.53-2.44.81a27.66,27.66,0,0,1-5,1.39,4.88,4.88,0,0,1-2.75-.27,2.66,2.66,0,0,1-1.37-2.56,4.82,4.82,0,0,1,1.12-2.57,10.42,10.42,0,0,1,1.94-1.87l.44.86a7.14,7.14,0,0,1-3.68.31,3,3,0,0,1-1.73-1.06A3.43,3.43,0,0,1,521,98.6a4.55,4.55,0,0,1,1.53-3.41,11.06,11.06,0,0,1,3-2.06l.24.84c-1.24.1-3.89-.31-4.71-2.63C520.35,88.16,526.14,86,527.22,85.67Z"/><path class="cls-9" d="M527.31,85.72a6,6,0,0,1-1.78-.52,1.39,1.39,0,0,1-.83-1.14,2.86,2.86,0,0,1,.52-1.53c.33-.52.7-1,1.1-1.56a4.74,4.74,0,0,0-1.62,1.16,2.8,2.8,0,0,0-.84,2,1.94,1.94,0,0,0,.46,1.11,2,2,0,0,0,1,.59A3.23,3.23,0,0,0,527.31,85.72Z"/><path class="cls-15" d="M435,285.19S428.44,322,428.43,322c-1,7.08-1.79,13.29-1.89,16.55a.07.07,0,0,0,0,.05,5,5,0,0,0,.21,2.26l0,.05c1.9,1.73,58.18,11.58,60.26,11.26s1.33-6.26-.54-8.39-21.75-15.53-21.75-15.53l6.06-36.83Z"/><path class="cls-1" d="M429.5,314.39s-1.06,7.57-1.07,7.59c-1,7.08-1.79,13.29-1.89,16.55a.07.07,0,0,0,0,.05,10.11,10.11,0,0,0,.21,2.26l0,.05c1.9,1.73,58.18,11.58,60.26,11.26s1.33-6.26-.54-8.39-21.75-15.53-21.75-15.53l1.18-7.7Z"/><path class="cls-6" d="M487,352.36c-2.11.32-59.31-9.67-61.25-11.43-.74-.66-.06-9.63,2.43-19.25L465,328.17s19.47,13.5,21.4,15.66S489.1,352,487,352.36Z"/><path class="cls-9" d="M486.56,349.93c-9.54-1.91-48.23-8.71-57.81-9.88-.08,0-.09.05,0,.06,9.42,2.1,48.16,8.59,57.8,10C486.74,350.11,486.77,350,486.56,349.93Z"/><path class="cls-9" d="M483.11,341.13a7.82,7.82,0,0,0-6.15,1.34,7.55,7.55,0,0,0-3,4.74.06.06,0,0,0,.12,0,9,9,0,0,1,9-6C483.16,341.26,483.18,341.14,483.11,341.13Z"/><path class="cls-9" d="M467.87,329.65c-3.83-.72-8.52-.14-11.45,2.58-.11.11,0,.26.16.23a53.35,53.35,0,0,1,11.27-2.32A.25.25,0,0,0,467.87,329.65Z"/><path class="cls-9" d="M470.63,331.33c-3.83-.73-8.52-.15-11.45,2.57-.11.11,0,.27.16.23a54,54,0,0,1,11.27-2.32A.24.24,0,0,0,470.63,331.33Z"/><path class="cls-9" d="M473.39,333c-3.83-.73-8.52-.15-11.45,2.57-.11.11,0,.27.16.23a54.25,54.25,0,0,1,11.27-2.32A.24.24,0,0,0,473.39,333Z"/><path class="cls-9" d="M476.15,334.67c-3.83-.72-8.51-.15-11.45,2.58-.11.1,0,.26.16.22a54.25,54.25,0,0,1,11.27-2.32A.24.24,0,0,0,476.15,334.67Z"/><path class="cls-19" d="M438.09,129.88s7,93.1,7.23,94.42c0,.12-18.79,95.17-18.79,95.17l40.75,7.06s13.46-91.62,13.59-101.73c.21-17.35-2.33-69.37-8.71-94.92Z"/><path class="cls-9" d="M467.15,316.54c-1-.42-25.26-5.15-34.77-6.09-.1,0-.34.23,0,.35,2.57.91,34.12,6.05,34.73,6C467.22,316.81,467.25,316.58,467.15,316.54Z"/><path class="cls-9" d="M447.44,137.08c-.15-1.08-.34-2.16-.53-3.24,0-.16-.29-.11-.28,0,.35,4.66,1,9.31,1.5,14s6.43,74.82,6.2,77.11a53.13,53.13,0,0,1-1.25,6.73c-1.07,4.54-13.21,63.85-15.52,72.91-.28,1.14-.52,2.28-.75,3.43a.11.11,0,0,0,.21.05c1.59-4.44,18.5-78.7,18.58-83.28S448.74,146.48,447.44,137.08Z"/><path class="cls-9" d="M480.62,209.83,442.33,186c-2-26.17-4.24-56.1-4.24-56.1h34.07C477.27,150.36,480.11,187.62,480.62,209.83Z"/><path class="cls-15" d="M493.75,277.39s-2.3,37.29-2.3,37.32c-.48,7.13-.77,13.39-.62,16.64a.13.13,0,0,0,0,.06,4.78,4.78,0,0,0,.38,2.23.1.1,0,0,0,0,.05c2,1.58,58.89,7.05,60.94,6.57s.85-6.35-1.19-8.32-22.88-13.81-22.88-13.81l1.94-37.3Z"/><path class="cls-1" d="M491.92,307.05s-.47,7.63-.47,7.66c-.48,7.13-.77,13.39-.62,16.64a.13.13,0,0,0,0,.06,9.67,9.67,0,0,0,.38,2.23.1.1,0,0,0,0,.05c2,1.58,58.89,7.05,60.94,6.57s.85-6.35-1.19-8.32-22.88-13.81-22.88-13.81l.58-7.76Z"/><path class="cls-6" d="M552.45,340.16c-2.07.53-60-3.9-62.07-5.47-.8-.59-1-9.58.56-19.39l37.33,2.9s20.68,11.56,22.8,13.53S554.53,339.64,552.45,340.16Z"/><path class="cls-9" d="M551.8,337.78c-9.69-1-48.85-4-58.5-4.25-.08,0-.08.05,0,.06,9.58,1.18,48.77,3.9,58.5,4.35C552,338,552,337.8,551.8,337.78Z"/><path class="cls-9" d="M547.51,329.36a7.83,7.83,0,0,0-6,1.92,7.59,7.59,0,0,0-2.56,5c0,.06.1.07.11,0a9,9,0,0,1,8.43-6.83A.06.06,0,0,0,547.51,329.36Z"/><path class="cls-9" d="M531.24,319.4c-3.88-.35-8.49.68-11.15,3.67-.1.12.06.26.18.21a53.88,53.88,0,0,1,11-3.39A.25.25,0,0,0,531.24,319.4Z"/><path class="cls-9" d="M534.15,320.8c-3.89-.35-8.49.68-11.15,3.67-.1.12.06.26.18.21a53.88,53.88,0,0,1,11-3.39A.25.25,0,0,0,534.15,320.8Z"/><path class="cls-9" d="M537.05,322.2c-3.88-.35-8.48.68-11.14,3.67-.1.12.06.26.18.21a53.27,53.27,0,0,1,11-3.39A.25.25,0,0,0,537.05,322.2Z"/><path class="cls-9" d="M540,323.6c-3.88-.35-8.48.68-11.14,3.67-.1.11.06.26.18.21a54,54,0,0,1,11-3.4A.24.24,0,0,0,540,323.6Z"/><path class="cls-19" d="M489.54,312.31l41.92,3.84S543,203.8,539,191.78c-5.4-15.91-75.42-38.37-73.64-40.63,0,0,3.34-13.48,6.84-21.27H420.71c-6.93,20.43-3,34.89-.61,39C431.35,188,500.22,208,499.51,213,498.4,221,489.54,312.31,489.54,312.31Z"/><path class="cls-9" d="M528.59,306.77c-1-.32-25.64-2.72-35.19-2.74-.1,0-.32.26,0,.34,2.65.66,34.54,2.77,35.15,2.68C528.68,307,528.69,306.8,528.59,306.77Z"/><path class="cls-9" d="M471.12,150.47c-.67,0-1.33,0-2,0s-1.33.12-2,.2c-1.29.16-2.56.43-3.83.71a38.25,38.25,0,0,0-7.45,2.38c-.08,0,0,.16.07.14,2.55-.52,5.07-1.18,7.63-1.71,1.23-.25,2.48-.45,3.71-.7.66-.13,1.31-.27,2-.38s1.28-.32,1.93-.43C471.3,150.69,471.26,150.47,471.12,150.47Z"/><path class="cls-9" d="M471.2,129.93c0-.06-.08-.05-.09,0a94.54,94.54,0,0,1-2,13.49,5.7,5.7,0,0,1-1.29,2.79c-.4.41-.92.75-1.45.37a1.82,1.82,0,0,1-.61-1.54,36.94,36.94,0,0,1,.46-3.77c.14-1.19.25-2.38.35-3.57.23-2.87.22-4.74.33-7.61,0-.1-.15-.1-.16,0-.17,3-.63,4.94-1,7.89-.18,1.43-.39,2.85-.6,4.28-.17,1.23-.62,2.68-.22,3.91a2.25,2.25,0,0,0,1.71,1.55l-.09.23c-.15.35-.29.7-.43,1.06-.29.71-.55,1.42-.85,2.12,0,.09.07.19.14.11a6.28,6.28,0,0,0,1.22-2,10.71,10.71,0,0,0,.46-1.52,3.3,3.3,0,0,0,2.21-2,11.77,11.77,0,0,0,.91-3.28c.26-1.45.47-2.91.65-4.38A44.74,44.74,0,0,0,471.2,129.93Z"/><path class="cls-9" d="M447.59,133.82c0-.16-.28-.14-.31,0-.27,1.17-.36,2.38-.52,3.57s-.37,2.33-.63,3.47a12.67,12.67,0,0,1-2.46,5.58c-2.87,3.33-7.79,4.2-12,4.13-.1,0-.09.15,0,.16,3.68.39,7.53.62,10.79-1.46,3.07-2,4.25-5.32,4.8-8.75A20.18,20.18,0,0,0,447.59,133.82Z"/><path class="cls-9" d="M476.86,156.39a50.75,50.75,0,0,0-6-2.82c-2-.81-4.09-1.42-6.11-2.2-.08,0-.14.11-.06.14,2,.9,4,2,6,2.81a51.15,51.15,0,0,0,6.11,2.2A.07.07,0,0,0,476.86,156.39Z"/><path class="cls-9" d="M486.37,197.55c-2-1.18-34.78-15.27-36.81-16.37s-4.1-2.3-6.12-3.51a103.82,103.82,0,0,1-11.19-7.54,24,24,0,0,1-7.82-9.91,33.63,33.63,0,0,1-1.83-12.52,95.07,95.07,0,0,1,1.49-16.32c0-.09-.14-.13-.16,0a124.56,124.56,0,0,0-2,14.78,37.53,37.53,0,0,0,1.14,13,22.69,22.69,0,0,0,6.95,10.45,75.41,75.41,0,0,0,11.17,7.83c2.31,1.39,4.67,2.69,7.07,3.93s35.46,15.65,38,16.47C486.42,197.83,486.49,197.62,486.37,197.55Z"/><path class="cls-9" d="M507.49,208c-.59-1.16-27.07-13.5-29.25-14-.1,0-.21.36-.12.4,1.46.6,28.13,13.43,28.52,14,.79,1.2-7.55,89.15-7.55,90a.21.21,0,0,0,.42,0C500,296.87,508.17,209.4,507.49,208Z"/><path class="cls-6" d="M415.77,146.5c.14.16,59.75-3.3,60.27-3.94.72-.89-15.61-59.06-22.1-66.83-1.39-1.66-5.75-2-9.42-1.35a16.63,16.63,0,0,0-2.82.69l-.1,0a7.11,7.11,0,0,0-2.05,1.11c-9.93,8.63-16.91,33.94-18.58,42.63C418.21,133.16,415.25,146,415.77,146.5Z"/><path class="cls-3" d="M470.4,120.76a6.26,6.26,0,0,0-1.22.23,7.61,7.61,0,0,0-2.69,1.47,13.29,13.29,0,0,0-2.66,3.28c-.08.12-.15.24-.22.37-.3.5-.57,1-.84,1.55l-.13.27a2.39,2.39,0,0,0-.13.28c-.88,1.79-1.65,3.64-2.49,5.48a17.67,17.67,0,0,1-3.64,5.64,5.1,5.1,0,0,1-3.1,1.42,10.24,10.24,0,0,1-3.35-.46,17.85,17.85,0,0,1-5.69-3.46l-.85-.73c-.26-.21-.51-.43-.76-.65-1-.88-2-1.75-3.07-2.55l-.41-.3-.44-.32a11.84,11.84,0,0,0-5.36-2.3,13.73,13.73,0,0,0-1.57,0c-.53.06-1,.16-1.57.25a11.39,11.39,0,0,0-2.89,1.25h0c-.29.18-.57.36-.85.57a38.47,38.47,0,0,0-3.42,2.91l-.59.53-.19.17a19.34,19.34,0,0,1-5.37,3.45c0-.21.08-.42.13-.64a20.78,20.78,0,0,0,4.71-3.37l0,0,.53-.49c1.14-1.05,2.25-2.17,3.52-3.13a9.34,9.34,0,0,1,.82-.58l.22-.15a9.82,9.82,0,0,1,6.61-1.53,12.41,12.41,0,0,1,5.73,2.75l.31.24c.16.13.32.26.48.41,1,.85,2,1.75,2.95,2.64l.73.66c.27.24.54.48.82.71A15.71,15.71,0,0,0,450,140a8.72,8.72,0,0,0,3.2.36,4.61,4.61,0,0,0,2.77-1.39,18.07,18.07,0,0,0,3.29-5.57c.77-1.81,1.49-3.67,2.33-5.48a2.39,2.39,0,0,1,.13-.28c.05-.12.1-.23.16-.35.33-.67.68-1.34,1.07-2a3.79,3.79,0,0,1,.2-.34,13.71,13.71,0,0,1,2.62-3.24,7.87,7.87,0,0,1,3.08-1.69,9.83,9.83,0,0,1,1.2-.25C470.2,120.08,470.3,120.42,470.4,120.76Zm3.42,12.14c-.29,0-.58,0-.86-.05a13.09,13.09,0,0,1-1.53-.36,10.36,10.36,0,0,1-3.45-2c-.3-.26-.59-.54-.87-.82s-.56-.58-.83-.88c-.86-1-1.66-2-2.45-3-.21-.28-.42-.56-.64-.83-.34-.45-.69-.91-1-1.35a17.87,17.87,0,0,0-4.87-4.54,9.82,9.82,0,0,0-3.18-1.13,5.17,5.17,0,0,0-3.32.75,17.77,17.77,0,0,0-4.71,4.8c-1.33,1.78-2.56,3.62-3.92,5.33a22.14,22.14,0,0,1-3,3.14c-.15.13-.31.25-.47.37a9.45,9.45,0,0,1-1.26.83,7.5,7.5,0,0,1-2.93.89,8.86,8.86,0,0,1-3.09-.37,12.49,12.49,0,0,1-4.11-2.2c-.24-.19-.47-.39-.7-.59l-.57-.53a29.35,29.35,0,0,1-4-5.14c-.59-.92-1.17-1.85-1.75-2.79-.07.33-.13.67-.2,1,.42.74.84,1.48,1.29,2.21a30.69,30.69,0,0,0,4,5.41,5.77,5.77,0,0,0,.44.42,7.32,7.32,0,0,0,.66.59,13.37,13.37,0,0,0,4.68,2.6,9.55,9.55,0,0,0,3.46.44,8.08,8.08,0,0,0,3.36-1,11.19,11.19,0,0,0,1.6-1.12,4.35,4.35,0,0,0,.41-.34,22.7,22.7,0,0,0,2.92-3.21c1.37-1.77,2.56-3.65,3.82-5.45a17.85,17.85,0,0,1,4.35-4.79,4.65,4.65,0,0,1,3-.79,8.64,8.64,0,0,1,3.05,1,15.45,15.45,0,0,1,4.77,4.45c.38.48.74,1,1.11,1.47l.62.86c.72,1,1.45,2,2.24,3l.08.09.59.69a11.92,11.92,0,0,0,4.64,3.38,9.23,9.23,0,0,0,2.89.53C474,133.5,473.9,133.2,473.82,132.9Zm-.56-2.05a18.44,18.44,0,0,1-6.15-1.22l-1.18-.43c-1.1-.41-2.19-.85-3.29-1.27l-.88-.33a18.29,18.29,0,0,0-8.9-1.36,8,8,0,0,0-5,2.88c-1.29,1.48-2.28,3.12-3.47,4.55a13.84,13.84,0,0,1-1.43,1.53l-.29.25A9.77,9.77,0,0,1,440.1,137a13.31,13.31,0,0,1-5.37,1,24.43,24.43,0,0,1-10.8-2.66l-.89-.42-.76-.37c-1.16-.56-2.33-1.12-3.54-1.62a5.37,5.37,0,0,0-.56-.21l-.09.47.44.2c1.08.51,2.14,1.09,3.2,1.67l.72.39,1.14.59a31.39,31.39,0,0,0,5.36,2.19,20.53,20.53,0,0,0,5.78.8,13.52,13.52,0,0,0,5.79-1.05,10.79,10.79,0,0,0,2.87-1.88l.26-.24a14.26,14.26,0,0,0,1.43-1.59c1.22-1.53,2.17-3.2,3.34-4.63a7.53,7.53,0,0,1,4.54-2.86,14.45,14.45,0,0,1,5.59.19,24.11,24.11,0,0,1,3.08.91l.88.33,1.41.59c.86.36,1.72.74,2.6,1.09l1.46.56c.43.15.86.3,1.3.43a16.86,16.86,0,0,0,4.18.71C473.39,131.35,473.33,131.1,473.26,130.85Z"/><path class="cls-15" d="M437.38,77.51c-21.62,5.8-37.76,15.54-43.23,19.66-3.57,2.7-22.84,21.45-27.06,26.77-2.08,2.61,16.16,18.43,18.68,15.9,3.41-3.42,23.94-28.79,24.24-29.11,1.13-1.24,24.24-20.91,29.11-24.68C447.25,79.76,447,74.94,437.38,77.51Z"/><path class="cls-15" d="M344.12,148.46a1.3,1.3,0,0,0,1.17.23c-.46,2.06-.32,3.82,1.13,4.47a2.32,2.32,0,0,0,2.55-.6,1.8,1.8,0,0,0,1.27,2.1c1.7.46,4.38-2.49,6.71-5.71-1.25,2.46-1.87,4.71-.36,5.19,4,1.27,8.46-6.49,12.22-11.33a19.66,19.66,0,0,1,4-4,5.56,5.56,0,0,1,.75-.41,1.54,1.54,0,0,1,1.81.08c.82.78-.38,3.1-1.62,4.33-2.37,2.33-3.31,7.35-1.86,8.85,2.1,2.2,6.82-3.86,9-5.56,2.91-2.28,5.85-8.44,6.15-8.79,0,0-.6-1.18-2.22-3.93-3.08-5.26-8.21-13.08-11.94-14.2A89.4,89.4,0,0,0,351,129.92C347.6,132.31,340.65,146.06,344.12,148.46Z"/><path class="cls-9" d="M365.23,137.24a15.19,15.19,0,0,0-5,4.79c-1.82,2.66-2.24,4.45-3.53,7.25a.06.06,0,1,0,.11.05c.62-1.33,2.88-5.67,3.62-6.89a14.44,14.44,0,0,1,4.87-5.16S365.26,137.23,365.23,137.24Z"/><path class="cls-9" d="M361.09,133.67a33.6,33.6,0,0,0-5.7,5.22c-2.07,2.41-3.24,5.44-4.4,8.37q-1,2.64-2,5.33c0,.07.08.13.11,0q1.74-4.51,3.76-8.92a22.63,22.63,0,0,1,5.15-7.24c1.25-1.16,1.74-1.7,3.08-2.77C361.14,133.69,361.11,133.65,361.09,133.67Z"/><path class="cls-9" d="M357.19,130.45c-2.29,1.53-4.37,2.84-6,5.1a33.58,33.58,0,0,0-4.07,8.12c-.62,1.63-1.19,3.28-1.73,4.94a.06.06,0,0,0,.12,0A90.51,90.51,0,0,1,350,137.91a14.38,14.38,0,0,1,2.9-4,32.24,32.24,0,0,1,4.28-3.44S357.2,130.44,357.19,130.45Z"/><path class="cls-9" d="M356.59,154.14a1.46,1.46,0,0,1-.73-.74,2.14,2.14,0,0,1-.09-1,8.6,8.6,0,0,1,.6-2c.13-.33.27-.66.37-1a.24.24,0,0,0,0-.08s0,0,0-.07a.11.11,0,0,0-.12-.09c-.11,0-.09.06-.11.08l0,.05-.16.23-.3.44c-.4.59-.8,1.18-1.24,1.74a8.54,8.54,0,0,1-3.08,2.76,2.06,2.06,0,0,1-1.9-.12,1.3,1.3,0,0,1-.6-1.6l.26-.74-.58.53a2.45,2.45,0,0,1-1.63.67,1.55,1.55,0,0,1-1.45-.8,4.11,4.11,0,0,1-.44-1.78,6,6,0,0,1,.19-1.86l.13-.45-.43.19a1.19,1.19,0,0,1-1.09-.23,1.55,1.55,0,0,1-.64-1,8.08,8.08,0,0,1,0-2.69,21.1,21.1,0,0,1,1.53-5.18,31.7,31.7,0,0,1,6-9.37,29.68,29.68,0,0,0-6.31,9.13,20.44,20.44,0,0,0-1.56,5.37,8,8,0,0,0,0,2.84,2.28,2.28,0,0,0,.26.7,1.71,1.71,0,0,0,.53.57,1.59,1.59,0,0,0,1.53.27l-.3-.26a5.79,5.79,0,0,0-.22,2,4.47,4.47,0,0,0,.51,2,1.88,1.88,0,0,0,.77.76,2.37,2.37,0,0,0,1,.24,2.83,2.83,0,0,0,1.9-.81l-.32-.2a1.83,1.83,0,0,0,0,1.18,1.67,1.67,0,0,0,.77.88,2.36,2.36,0,0,0,1.1.34,2.51,2.51,0,0,0,1.12-.21,8.84,8.84,0,0,0,3.17-2.93c.42-.58.82-1.18,1.2-1.78l.29-.45c.07-.15.29-.32.07-.28a9.9,9.9,0,0,1-.33,1,8.72,8.72,0,0,0-.54,2.08,2.14,2.14,0,0,0,.14,1.06A1.41,1.41,0,0,0,356.59,154.14Z"/><path class="cls-6" d="M407.47,86l20.1,12.46a134.94,134.94,0,0,0,17.22-15c7.13-7.74-1.7-9.81-15.22-5.45S407.47,86,407.47,86Z"/><path class="cls-9" d="M413.18,84.31c4.45,2.51,8.73,5.33,12.95,8.24q1.8,1.23,3.52,2.55a0,0,0,1,1,0,.05c-2.19-1.3-4.34-2.69-6.49-4.07s-4.31-2.78-6.43-4.22c-1.19-.82-2.39-1.63-3.57-2.47A0,0,0,0,1,413.18,84.31Z"/><path class="cls-9" d="M437.58,91.69c.08,0,.05-.12,0-.08-1,.56-1.93,1.16-2.88,1.77,1.74-1.51,3.42-3.08,5.08-4.7a.08.08,0,0,0-.11-.12c-2.21,1.74-4.42,3.48-6.58,5.3-1.06.9-5.34,4.53-5.48,4.56a13.07,13.07,0,0,1-1.16-.67c-.08,0-.17.08-.09.13a16,16,0,0,0,1.38.93,46.56,46.56,0,0,0,4.95-3.72l1.15-1h0C435.12,93.36,436.34,92.53,437.58,91.69Z"/><path class="cls-15" d="M451.73,85.13c-3.15.54-8.48-3.47-11.3-6.95-.19-.24-.29-3.12-.58-6.6-.18-2.11-.43-4.46-.82-6.58l13.92.82a34.69,34.69,0,0,0,.19,8.4,5.28,5.28,0,0,0,.25.85,1.21,1.21,0,0,0,.05.14C454,76.82,456.17,84.36,451.73,85.13Z"/><path class="cls-9" d="M453,65.81s-.07.6-.11,1.54c-2.18,4.2-6.24,9.51-12.67,8.89-.08-1.19-.18-2.84-.33-4.66-.18-2.11-.43-4.45-.83-6.59Z"/><path class="cls-15" d="M452.29,46.61c2.33,4.45,2.41,18.56-.38,22.24-4,5.32-11.93,7.25-16.78,2.1-4.7-5-4.47-23.38-1.24-26.85C438.65,39,448.85,40,452.29,46.61Z"/><path class="cls-9" d="M440.05,57.25s.07,0,.07.08c0,1,.12,2,1,2.35,0,0,0,.06,0,0C440,59.6,439.88,58.14,440.05,57.25Z"/><path class="cls-9" d="M440.89,56.25c1.53-.14,1.68,2.93.26,3S439.61,56.36,440.89,56.25Z"/><path class="cls-9" d="M434.84,57.72s-.07.05-.07.09c.1.95.05,2-.78,2.42,0,0,0,.06,0,.05C435,60.06,435.08,58.6,434.84,57.72Z"/><path class="cls-9" d="M433.92,56.79c-1.53,0-1.43,3.06,0,3.07S435.21,56.8,433.92,56.79Z"/><path class="cls-9" d="M442,54.78c-.42-.08-.8-.23-1.21-.35a2.05,2.05,0,0,1-1.16-.61.65.65,0,0,1,.07-.79,1.6,1.6,0,0,1,1.61-.24,2.35,2.35,0,0,1,1.41,1A.69.69,0,0,1,442,54.78Z"/><path class="cls-9" d="M432.63,55.33a11.87,11.87,0,0,0,1.19-.4,2,2,0,0,0,1.14-.64.66.66,0,0,0-.09-.79,1.62,1.62,0,0,0-1.62-.19,2.39,2.39,0,0,0-1.38,1A.69.69,0,0,0,432.63,55.33Z"/><path class="cls-9" d="M441.83,66.05c-.21.23-.42.55-.77.6a2.61,2.61,0,0,1-1-.19,0,0,0,0,0,0,.05,1.32,1.32,0,0,0,1.23.46,1,1,0,0,0,.71-.88C441.94,66,441.87,66,441.83,66.05Z"/><path class="cls-9" d="M440.7,63.26a3.21,3.21,0,0,1-2.09,1.54,3.75,3.75,0,0,1-1.16.11.79.79,0,0,1-.22,0l-.21,0a.23.23,0,0,1-.2-.21h0a.33.33,0,0,1,0-.1h0v-.08c-.06-.73,0-1.85,0-1.85-.26.15-1.59.83-1.59.45a48.72,48.72,0,0,1,.77-9.85.09.09,0,0,1,.18,0c.08,3-.36,6.09-.32,9.15a5.76,5.76,0,0,1,1.5-.53c.11,0-.07,2.15,0,2.48a.08.08,0,0,0,0,0,4.46,4.46,0,0,0,3.29-1.2C440.67,63.12,440.75,63.18,440.7,63.26Z"/><path class="cls-9" d="M437.86,64.52a3.89,3.89,0,0,0,1.6,1.12,1.71,1.71,0,0,0,1.05,0c.75-.24.73-.93.56-1.52a3.84,3.84,0,0,0-.38-.9A5,5,0,0,1,437.86,64.52Z"/><path class="cls-12" d="M439.46,65.64a1.71,1.71,0,0,0,1.05,0c.75-.24.73-.93.56-1.52A1.77,1.77,0,0,0,439.46,65.64Z"/><path class="cls-9" d="M430.85,50.59c5.46,2.84,11.71-3.22,11.71-3.22a5.52,5.52,0,0,0,6,2.79s2,8.41,4.27,8.12c3.43-.44,3.07-12.2,1.71-14.35s-4.33-2.38-4.33-2.38a5.64,5.64,0,0,0-2.74-3.11c-2.56-1.51-10.34,1.89-10.34,1.89a7.45,7.45,0,0,0-2.4-2.54,2.13,2.13,0,0,0-3,.65,5.1,5.1,0,0,1,1.08,2c.71,2.45-1.33,2.69-1.59.43a3.59,3.59,0,0,1,.51-2.43c-1.18-1.36-2.89-1.64-3.79-.73C426.27,39.37,426.31,48.23,430.85,50.59Z"/><path class="cls-15" d="M451,58.53s2.35-4.94,4.54-4.17.94,7.57-1.27,8.84a2.43,2.43,0,0,1-3.43-.75Z"/><path class="cls-9" d="M455.11,56.3s.05,0,0,.06a6.16,6.16,0,0,0-2.5,4.32,1.35,1.35,0,0,1,1.92-.7.05.05,0,0,1,0,.1,1.51,1.51,0,0,0-1.54.79,6.59,6.59,0,0,0-.55,1.44c-.06.16-.34.13-.31-.05v0C451.73,60.11,452.88,56.89,455.11,56.3Z"/><path class="cls-3" d="M198.38,111.59a20.64,20.64,0,0,1-34.49,13.06l-10.33,1.51,5.17-8.93a20.64,20.64,0,1,1,39.65-5.64Z"/><path class="cls-9" d="M198.38,111.59a20.72,20.72,0,0,1-4.16,10.46,22.62,22.62,0,0,1-1.87,2.16,23.83,23.83,0,0,1-2.18,1.84,20.29,20.29,0,0,1-5,2.78,20.87,20.87,0,0,1-5.56,1.32,21.16,21.16,0,0,1-2.87.06,19.68,19.68,0,0,1-2.86-.3,20.91,20.91,0,0,1-10.21-5l.24.07-10.31,1.59-.75.11.38-.66,5.13-9,0,.36A20.88,20.88,0,0,1,159.63,99a20.8,20.8,0,0,1,32.58-4.45A20.75,20.75,0,0,1,198.38,111.59Zm0,0A20.4,20.4,0,0,0,175,89.25a20.18,20.18,0,0,0-8.52,3.36,21.29,21.29,0,0,0-6.18,6.74,20.24,20.24,0,0,0-2.62,8.74,20.46,20.46,0,0,0,1.45,9l.08.19-.1.17-5.2,8.91-.37-.55,10.34-1.45.14,0,.1.1a20.3,20.3,0,0,0,9.89,5.09,17.55,17.55,0,0,0,2.8.34,20.42,20.42,0,0,0,2.82,0,20.14,20.14,0,0,0,5.52-1.22,19.49,19.49,0,0,0,5-2.68,18.7,18.7,0,0,0,4.06-3.95A20.68,20.68,0,0,0,198.38,111.59Z"/><polygon class="cls-6" points="175.43 121.22 166.62 112.29 169.58 109.36 174.73 114.58 185.43 97.8 188.94 100.04 175.43 121.22"/><g id="Layer_2-2" data-name="Layer 2"><g id="Layer_1-2" data-name="Layer 1-2"><path class="cls-3" d="M460.25,102.48a1,1,0,0,1-.54.88c0,.14,0,.27,0,.41h0a26.89,26.89,0,0,1-.38,3.34.44.44,0,0,1-.44.37h-.09a.47.47,0,0,1-.37-.53,25.13,25.13,0,0,0,.36-3.23c0-.12,0-.25,0-.37a1,1,0,1,1,1.46-.87Zm-.62,0a.37.37,0,0,0-.74,0,.37.37,0,0,0,.74,0Z"/><path class="cls-3" d="M459.55,100.52a.46.46,0,0,1-.37.53h-.08a.46.46,0,0,1-.45-.37,9.71,9.71,0,0,0-6.85-7.57,10.13,10.13,0,0,0-2.18-.36l-.51,0h-.48a9.24,9.24,0,0,0-3.36.76h0a1,1,0,1,1-1-1,1,1,0,0,1,.5.13l.19-.09.14-.07.46-.18a9.88,9.88,0,0,1,3.28-.52,10.66,10.66,0,0,1,1.26.08c.25,0,.5.05.74.09A10.62,10.62,0,0,1,459.55,100.52Zm-14.9-7a.37.37,0,1,0-.37.37A.37.37,0,0,0,444.65,93.51Z"/><path class="cls-3" d="M457,99.16a8.62,8.62,0,0,1,.65,3.29,24.91,24.91,0,0,1-1.27,7.85,1,1,0,0,1,0,1.4,1,1,0,0,1-1.4,0,1,1,0,0,1-.31-.72,1,1,0,0,1,.78-1,23.7,23.7,0,0,0,1.25-7.6A7.67,7.67,0,0,0,454.53,97a.45.45,0,0,1,0-.64.46.46,0,0,1,.65,0A8.59,8.59,0,0,1,457,99.16ZM456.11,111a.38.38,0,0,0-.37-.37.37.37,0,0,0-.36.37.37.37,0,0,0,.73,0Z"/><path class="cls-3" d="M455.66,102.44h0c0,.32,0,.64,0,1a.45.45,0,0,1-.46.44h0a.45.45,0,0,1-.43-.48h0c0-.3,0-.6,0-.91A5.64,5.64,0,0,0,450,96.88a1,1,0,1,1-.28-1.37.93.93,0,0,1,.37.46,6.55,6.55,0,0,1,5.56,6.47Zm-6.12-6.11a.36.36,0,0,0-.36-.36.37.37,0,1,0,0,.73h0A.36.36,0,0,0,449.54,96.33Z"/><path class="cls-3" d="M455,105.65a.46.46,0,0,1,.38.52h0a22.71,22.71,0,0,1-2.17,6.61.46.46,0,0,1-.82-.42,21.46,21.46,0,0,0,2.08-6.34.47.47,0,0,1,.53-.38Z"/><path class="cls-3" d="M453,94.31a1,1,0,0,1,1,1,1,1,0,0,1-2,0,7.58,7.58,0,0,0-1.79-.5h0a8.32,8.32,0,0,0-1.12-.08,7.67,7.67,0,0,0-7.54,6.29.45.45,0,0,1-.45.37H441a.45.45,0,0,1-.37-.53h0a8.58,8.58,0,0,1,10-6.9,8.19,8.19,0,0,1,1.75.52A1,1,0,0,1,453,94.31Zm.36,1a.36.36,0,0,0-.36-.36.37.37,0,1,0,0,.73h0A.36.36,0,0,0,453.36,95.3Z"/><path class="cls-3" d="M453.35,103.34v1.81a4.58,4.58,0,0,1-.15,1.17,1.47,1.47,0,0,1,0,.16l-.52,2.3a20.38,20.38,0,0,1-2.15,4.64.46.46,0,0,1-.39.21.46.46,0,0,1-.38-.7,19.78,19.78,0,0,0,2.34-5.47,1.72,1.72,0,0,1-.64.11,1.81,1.81,0,0,1-.52-.07c-.06.19-.11.39-.17.57a.46.46,0,0,1-.44.32.36.36,0,0,1-.14,0,.44.44,0,0,1-.29-.57c.08-.26.15-.51.22-.77l-.14-.15-.76-.9a15.64,15.64,0,0,1-.56,2,16.48,16.48,0,0,1-2.72,4.9.46.46,0,0,1-.64.08h0a.46.46,0,0,1-.07-.65,15.76,15.76,0,0,0,2.75-5.2,1.74,1.74,0,0,1-1.19.46h-.14a16.65,16.65,0,0,1-.72,1.62.46.46,0,1,1-.81-.42c.25-.49.47-1,.67-1.51a1.76,1.76,0,0,1-.74-1.32,12.54,12.54,0,0,1-2.11,4.19,1,1,0,0,1,.09.42,1,1,0,1,1-1-1h.17a11.68,11.68,0,0,0,2.41-7.12h0a4.53,4.53,0,0,1,4.52-4.53c.21,0,.42,0,.63,0A4.75,4.75,0,0,1,452.15,99a3.45,3.45,0,0,1,1.2,2.39Zm-1.07,2.3v-4.77h0a.66.66,0,0,0-.66-.66h0a.65.65,0,0,0-.66.66V103a.53.53,0,0,1-.28.47l-.08,0a.53.53,0,0,1-.59-.17l-.42-.5-.68-.81-.72-.86-.57-.68,0,0a.85.85,0,0,0-1.2-.07.82.82,0,0,0-.29.64v4.77a.53.53,0,0,0,.05.25.67.67,0,0,0,.62.43.57.57,0,0,0,.22,0,.68.68,0,0,0,.46-.64v-2.14a.54.54,0,0,1,.35-.5.57.57,0,0,1,.18,0,.53.53,0,0,1,.41.19l.23.27.82,1,.95,1.14.39.46a.83.83,0,0,0,.65.31.87.87,0,0,0,.87-.85ZM450,100.13a1.74,1.74,0,0,1,.83-.84,3.62,3.62,0,0,0-3.34-.08,1.91,1.91,0,0,1,.9.6l.17.2.73.87.54.65v-.66A1.71,1.71,0,0,1,450,100.13Zm-7.66,10.42a.37.37,0,1,0-.73,0,.36.36,0,0,0,.37.36h0A.36.36,0,0,0,442.36,110.55Z"/><path class="cls-20" d="M452.28,102.64v3a.87.87,0,0,1-.86.86.83.83,0,0,1-.65-.31l-.39-.46-.95-1.14-.82-1-.23-.27a.53.53,0,0,0-.4-.19.58.58,0,0,0-.19,0,.53.53,0,0,0-.35.5v2.14a.68.68,0,0,1-.46.64.54.54,0,0,1-.22,0,.68.68,0,0,1-.62-.42.58.58,0,0,1-.05-.26v-4.77a.85.85,0,0,1,.85-.85.81.81,0,0,1,.64.28l0,0,.57.68.72.86.68.81.42.5a.53.53,0,0,0,.59.17l.08,0a.53.53,0,0,0,.28-.47v-2.15a.65.65,0,0,1,.66-.66h0a.66.66,0,0,1,.66.66h0Z"/><path class="cls-3" d="M449.46,109.34a1,1,0,1,1,.06,2h-.11c-.44.72-1,1.59-1.34,2.07a.46.46,0,0,1-.64.09.45.45,0,0,1-.1-.62c.32-.46.87-1.31,1.29-2a1,1,0,0,1,.32-1.36,1,1,0,0,1,.52-.15Zm.37,1a.37.37,0,1,0-.37.37A.38.38,0,0,0,449.83,110.33Z"/><path class="cls-3" d="M447.39,96.57a.46.46,0,0,1-.26.59,5.67,5.67,0,0,0-2.5,1.85h0a5.6,5.6,0,0,0-1.17,3.43h0a10.91,10.91,0,0,1-.32,2.61,1,1,0,0,1,0,1.4,1,1,0,1,1-.93-1.64,9.45,9.45,0,0,0,.3-2.37,6.44,6.44,0,0,1,1.36-4h0a6.51,6.51,0,0,1,2.9-2.14.45.45,0,0,1,.58.26Zm-4.56,9.21a.37.37,0,1,0-.73,0,.37.37,0,0,0,.73,0Z"/><path class="cls-3" d="M445,109.94a.45.45,0,0,1,.13.63A17,17,0,0,1,444,112a.46.46,0,0,1-.65.07.47.47,0,0,1-.06-.65h0a12.37,12.37,0,0,0,1-1.36A.46.46,0,0,1,445,109.94Z"/><path class="cls-3" d="M442.24,94.94a.45.45,0,0,1,0,.64,9.7,9.7,0,0,0-2.84,6.86h0a6.43,6.43,0,0,1-.15,1.39,1,1,0,1,1-.88-.25,5.35,5.35,0,0,0,.11-1.13,10.61,10.61,0,0,1,1.94-6.11h0a9.83,9.83,0,0,1,1.18-1.4A.45.45,0,0,1,442.24,94.94Zm-3.3,9.61a.38.38,0,0,0-.37-.37.37.37,0,0,0-.36.37.36.36,0,0,0,.36.36h0A.37.37,0,0,0,438.94,104.55Z"/><path class="cls-3" d="M441.79,107.29a.46.46,0,0,1,.16.63,11.56,11.56,0,0,1-1,1.4.46.46,0,0,1-.7-.59h0a9.13,9.13,0,0,0,.92-1.29A.46.46,0,0,1,441.79,107.29Z"/><path class="cls-3" d="M441.88,103.71a1,1,0,0,1-.74,1,8.78,8.78,0,0,1-1.32,2.8.45.45,0,0,1-.37.19.47.47,0,0,1-.46-.46.46.46,0,0,1,.09-.27,7.74,7.74,0,0,0,1.17-2.46,1,1,0,0,1-.12-1.39,1,1,0,0,1,1.4-.12A1,1,0,0,1,441.88,103.71Zm-.63,0a.36.36,0,0,0-.36-.37.37.37,0,1,0,0,.73h0A.36.36,0,0,0,441.25,103.71Z"/></g></g></g></g></svg>